<svg width="85" height="21" viewBox="0 0 85 21" fill="none" xmlns="http://www.w3.org/2000/svg">
<mask id="mask0" mask-type="alpha" maskUnits="userSpaceOnUse" x="0" y="16" width="2" height="4">
<path d="M0 16.1559V19.8921H1.61079V16.1559H0Z" fill="white"/>
</mask>
<g mask="url(#mask0)">
<path fill-rule="evenodd" clip-rule="evenodd" d="M0.458455 19.2222V17.3412H0V16.9547H0.458455V16.1559H0.892128V16.9547H1.4621V17.3412H0.892128V19.1449C0.892128 19.351 0.991253 19.5056 1.16472 19.5056C1.28863 19.5056 1.41254 19.4412 1.4621 19.3768L1.586 19.7118C1.4621 19.8406 1.33819 19.905 1.09038 19.905C0.669096 19.905 0.470845 19.6473 0.470845 19.2222" fill="#4B4D4C"/>
</g>
<path fill-rule="evenodd" clip-rule="evenodd" d="M3.94026 19.8405V17.908C3.94026 17.3926 3.69245 17.2638 3.32073 17.2638C2.97379 17.2638 2.65163 17.4699 2.49056 17.7018V19.8405H2.10645V15.8466H2.47817V17.3669C2.68881 17.1092 3.06053 16.8773 3.46942 16.8773C4.06417 16.8773 4.36155 17.1736 4.36155 17.7791V19.8405H3.94026ZM6.44318 17.2638C5.82365 17.2638 5.53866 17.7791 5.51388 18.2043H7.33531C7.33531 17.7791 7.06271 17.2509 6.43079 17.2509L6.44318 17.2638ZM5.06782 18.3589C5.06782 17.5215 5.61301 16.8515 6.43079 16.8515C7.24857 16.8515 7.73181 17.5215 7.73181 18.3975V18.5264H5.50149C5.53866 19.0417 5.89799 19.4926 6.49274 19.4926C6.8149 19.4926 7.11228 19.3638 7.36009 19.1061L7.55834 19.454C7.27336 19.7374 6.90163 19.9049 6.44318 19.9049C5.63779 19.9049 5.04303 19.2865 5.04303 18.3847L5.06782 18.3589ZM9.70193 19.454L9.92496 19.1319C10.1356 19.3509 10.4825 19.5442 10.8666 19.5442C11.2879 19.5442 11.5234 19.3252 11.5234 19.0288C11.5234 18.346 9.78866 18.7712 9.78866 17.7018C9.78866 17.2509 10.1604 16.8773 10.8171 16.8773C11.3127 16.8773 11.6349 17.0577 11.8455 17.2896L11.6473 17.6117C11.4738 17.3926 11.1764 17.2252 10.8047 17.2252C10.433 17.2252 10.1852 17.4442 10.1852 17.689C10.1852 18.3331 11.9199 17.908 11.9199 19.0288C11.9199 19.5184 11.5481 19.9049 10.8295 19.9049C10.371 19.9049 9.98691 19.7503 9.71432 19.454H9.70193ZM12.6881 19.2221V17.3411H12.2668V16.9546H12.7252V16.1558H13.1589V16.9546H13.7165V17.3411H13.1341V19.1448C13.1341 19.3509 13.2209 19.5055 13.4067 19.5055C13.5306 19.5055 13.6545 19.4411 13.7041 19.3767L13.828 19.7117C13.7041 19.8405 13.5802 19.9049 13.3324 19.9049C12.8987 19.9049 12.7129 19.6472 12.7129 19.2221H12.6881ZM16.4301 18.3847C16.4301 17.8049 16.0955 17.2767 15.5132 17.2767C14.9184 17.2767 14.5838 17.8307 14.5838 18.4104C14.5838 19.0031 14.9184 19.5313 15.5132 19.5313C16.0955 19.5313 16.4301 19.0159 16.4301 18.4104V18.3847ZM14.1378 18.4104C14.1378 17.573 14.683 16.9031 15.5379 16.9031C16.3805 16.9031 16.9009 17.5859 16.9009 18.4233C16.9009 19.2607 16.3805 19.9436 15.5379 19.9436C14.6706 19.9436 14.175 19.2607 14.175 18.4233" fill="#4B4D4C"/>
<mask id="mask1" mask-type="alpha" maskUnits="userSpaceOnUse" x="17" y="16" width="5" height="5">
<path d="M17.5947 21H21.8076V16.8773H17.5947V21Z" fill="white"/>
</mask>
<g mask="url(#mask1)">
<path fill-rule="evenodd" clip-rule="evenodd" d="M17.5947 19.8405V16.9417H18.0036V17.3926C18.2143 17.135 18.5488 16.8773 18.9329 16.8773V17.3411H18.7718C18.4992 17.3411 18.1523 17.5601 18.0036 17.792V19.8534H17.5947V19.8405ZM19.3914 20.562C19.4533 20.6006 19.5525 20.6135 19.6392 20.6135C19.8127 20.6135 19.9366 20.5233 20.0357 20.2785L20.2216 19.8534L19.0568 16.9675H19.5277L20.4446 19.3252L21.3739 16.9417H21.8323L20.4446 20.4202C20.2835 20.8068 19.9985 21 19.6268 21C19.5401 21 19.379 21 19.317 20.9614L19.3666 20.5491" fill="#4B4D4C"/>
</g>
<path fill-rule="evenodd" clip-rule="evenodd" d="M22.3653 19.2219V17.3409H21.9069V16.9544H22.3653V16.1556H22.799V16.9544H23.369V17.3409H22.799V19.1446C22.799 19.3507 22.8981 19.5053 23.084 19.5053C23.2079 19.5053 23.3318 19.4409 23.369 19.3765L23.4929 19.7115C23.3937 19.8403 23.2451 19.9047 22.9972 19.9047C22.576 19.9047 22.3777 19.6471 22.3777 19.2219H22.3653ZM25.1532 17.2636C24.5832 17.2636 24.2859 17.779 24.2611 18.2041H26.0825C26.0825 17.779 25.7975 17.2507 25.1656 17.2507L25.1532 17.2636ZM23.8398 18.3587C23.8398 17.5213 24.4098 16.8514 25.2028 16.8514C26.033 16.8514 26.5286 17.5213 26.5286 18.3974V18.5262H24.2983C24.2983 19.0415 24.67 19.4925 25.2895 19.4925C25.5993 19.4925 25.909 19.3636 26.1321 19.106L26.3427 19.4152C26.0577 19.6728 25.686 19.8532 25.2276 19.8532C24.4098 19.8532 23.8274 19.2348 23.8274 18.333L23.8398 18.3587ZM27.2101 19.8017H27.6437V15.8078H27.2101V19.8017ZM28.5111 19.8017H28.9324V15.8078H28.4987L28.5111 19.8017ZM29.7749 19.8017H30.2086V16.9158H29.7749V19.8403V19.8017ZM29.7006 16.1943C29.7006 16.0397 29.8245 15.898 29.998 15.898C30.1714 15.898 30.3077 16.0268 30.3077 16.1943C30.3077 16.3618 30.1838 16.5035 30.0227 16.5035C29.8741 16.5035 29.7378 16.3747 29.7378 16.1943H29.7006Z" fill="#4B4D4C"/>
<mask id="mask2" mask-type="alpha" maskUnits="userSpaceOnUse" x="31" y="16" width="6" height="5">
<path d="M31.0759 21H36.6765V16.8773H31.0759V21Z" fill="white"/>
</mask>
<g mask="url(#mask2)">
<path fill-rule="evenodd" clip-rule="evenodd" d="M32.9593 19.8405V17.9337C32.9593 17.4184 32.7115 17.2638 32.3398 17.2638C31.9681 17.2638 31.6583 17.5215 31.4724 17.7405V19.8405H31.0759V16.9417H31.4972V17.354C31.6955 17.0963 32.092 16.8773 32.4885 16.8773C33.0708 16.8773 33.3558 17.1865 33.3558 17.8049V19.8405H32.9593ZM36.2428 19.0031V17.7405C36.0942 17.4828 35.7472 17.2767 35.4251 17.2767C34.8303 17.2767 34.4958 17.7663 34.4958 18.3976C34.4958 19.0417 34.8303 19.4926 35.4003 19.4926C35.7224 19.4926 36.057 19.2865 36.2057 19.0417L36.2428 19.0031ZM34.1984 20.5749L34.4214 20.2657C34.6692 20.562 34.917 20.6522 35.3259 20.6522C35.7968 20.6522 36.2304 20.4331 36.2304 19.8276V19.3767C36.0322 19.673 35.6853 19.892 35.3011 19.892C34.5825 19.892 34.0621 19.3252 34.0621 18.3976C34.0745 17.4313 34.5701 16.8773 35.3135 16.8773C35.6853 16.8773 36.0198 17.0706 36.2428 17.3926V16.9417H36.6765V19.7761C36.6765 20.6779 36.0322 20.9871 35.3507 20.9871C34.8923 20.9871 34.5701 20.8841 34.2356 20.5362" fill="#4B4D4C"/>
</g>
<path fill-rule="evenodd" clip-rule="evenodd" d="M41.1742 18.3846C41.1742 17.7404 40.8397 17.2766 40.2821 17.2766C39.9723 17.2766 39.6254 17.5085 39.4767 17.7662V19.0545C39.6254 19.3122 39.9723 19.5312 40.3069 19.5312C40.8768 19.5312 41.2114 19.0545 41.2114 18.4103L41.1742 18.3846ZM39.4767 19.4152V20.9613H39.0306V16.9674H39.4519V17.4054C39.6502 17.0962 39.9971 16.8901 40.3936 16.8901C41.1123 16.8901 41.6327 17.457 41.6327 18.3975C41.6327 19.3251 41.1123 19.9177 40.3936 19.9177C40.0219 19.9177 39.6873 19.7244 39.4519 19.4024L39.4767 19.4152ZM42.3018 19.8533H42.7354V15.8594H42.277L42.3018 19.8533ZM45.3127 19.2349V18.6809C45.1516 18.4232 44.8543 18.3202 44.5693 18.3202C44.148 18.3202 43.8754 18.5778 43.8754 18.9643C43.8754 19.3122 44.148 19.5827 44.5569 19.5827C44.8543 19.5827 45.1516 19.4539 45.3003 19.222L45.3127 19.2349ZM45.3003 19.8275V19.4797C45.0897 19.7373 44.7675 19.8662 44.3958 19.8662C43.9373 19.8662 43.4293 19.5441 43.4293 18.9257C43.4293 18.2815 43.925 17.9852 44.3958 17.9852C44.7675 17.9852 45.0897 18.114 45.3127 18.3717V17.8564C45.3127 17.4699 45.0153 17.2508 44.6188 17.2508C44.2843 17.2508 43.9993 17.3797 43.7515 17.6373L43.5656 17.341C43.863 17.0189 44.2223 16.8643 44.6808 16.8643C45.2631 16.8643 45.7464 17.122 45.7464 17.8435V19.8404H45.3127L45.3003 19.8275ZM46.7005 19.222V17.341H46.242V16.9545H46.7005V16.1557H47.1341V16.9545H47.6917V17.341H47.1341V19.1447C47.1341 19.3508 47.2209 19.5054 47.4067 19.5054C47.5306 19.5054 47.6545 19.441 47.7041 19.3766L47.828 19.7116C47.7413 19.8404 47.5802 19.9048 47.3324 19.9048C46.9359 19.9048 46.7129 19.6471 46.7129 19.222H46.7005ZM48.4475 19.8404V17.341H47.9519V16.9545H48.4104V16.7226C48.4104 16.1429 48.7078 15.795 49.2034 15.795C49.4512 15.795 49.6247 15.8465 49.7981 16.014L49.6247 16.2975C49.5379 16.2202 49.4264 16.1686 49.2901 16.1686C48.9927 16.1686 48.8441 16.3619 48.8441 16.7226V16.9545H49.414V17.341H48.8193V19.8404H48.4475ZM52.0656 18.3846C52.0656 17.8048 51.7435 17.2766 51.1487 17.2766C50.5664 17.2766 50.2318 17.8306 50.2318 18.4103C50.2318 19.003 50.5664 19.5312 51.1487 19.5312C51.7435 19.5312 52.0656 19.0159 52.0656 18.4103V18.3846ZM49.7857 18.4103C49.7857 17.5729 50.3061 16.903 51.1487 16.903C51.9913 16.903 52.5117 17.5858 52.5117 18.4232C52.5117 19.2606 51.9913 19.9435 51.1487 19.9435C50.3061 19.9435 49.7857 19.2606 49.7857 18.4232V18.4103ZM53.218 19.8662V16.9803H53.6516V17.4312C53.8747 17.1735 54.1968 16.9159 54.5809 16.9159V17.3925H54.3951C54.1473 17.3925 53.7755 17.6116 53.6516 17.8435V19.9048H53.218V19.8662ZM58.4592 19.879V17.9079C58.4592 17.5472 58.3105 17.3152 57.9636 17.3152C57.6662 17.3152 57.344 17.5472 57.2201 17.7791V19.8404H56.7865V17.8692C56.7865 17.5085 56.6378 17.2766 56.2908 17.2766C55.9935 17.2766 55.6961 17.5343 55.5474 17.7533V19.8404H55.1137V16.9545H55.5474V17.3668C55.6713 17.1864 56.043 16.8772 56.4519 16.8772C56.8608 16.8772 57.1086 17.1349 57.1954 17.4183C57.3441 17.1606 57.7158 16.8772 58.1123 16.8772C58.6079 16.8772 58.8929 17.1735 58.8929 17.7533V19.8146H58.4592" fill="#4B4D4C"/>
<path fill-rule="evenodd" clip-rule="evenodd" d="M23.0467 7.75566C21.9934 7.75566 21.1261 8.6575 21.1261 9.76548C21.1261 10.8735 21.9934 11.7753 23.059 11.7753C24.1494 11.7753 25.0168 10.8735 25.0168 9.76548C25.0168 8.6575 24.1494 7.75566 23.0838 7.75566H23.0467ZM23.0838 8.52867C23.7529 8.52867 24.2733 9.08266 24.2733 9.76548C24.2733 10.4483 23.7529 11.0023 23.0962 11.0023C22.4519 11.0023 21.9191 10.4483 21.9191 9.76548C21.9191 9.08266 22.4519 8.52867 23.1086 8.52867" fill="#CA2449"/>
<path fill-rule="evenodd" clip-rule="evenodd" d="M28.3001 11.7883V2.21595H24.9918V0.0257669H34.037V2.21595H30.7287V11.7883H28.3001ZM42.2025 3.80061C42.2025 2.82147 41.459 2.21595 40.5173 2.21595H37.9772V5.41104H40.5173C41.4714 5.41104 42.2025 4.79264 42.2025 3.78773V3.80061ZM41.9547 11.7755L39.7243 7.60123H37.9896V11.7883H35.5611V0H40.8643C43.2185 0 44.6806 1.62331 44.6806 3.80061C44.6806 5.86196 43.4044 6.99571 42.2025 7.30491L44.7302 11.7883H41.9423L41.9547 11.7755ZM51.1733 2.51227L49.3891 7.60123H52.908L51.1733 2.49939V2.51227ZM54.3081 11.7883L53.5895 9.79141H48.7571L48.0137 11.7883H45.2877L49.6616 0H52.6602L57.0465 11.7883H54.3205H54.3081ZM59.537 11.7883L55.1755 0H57.9014L61.0487 9.04417L64.1835 0.0257669H66.9095L62.5727 11.7883H59.537ZM67.9627 11.7883V0H75.9918V2.21595H70.3788V4.68957H75.8679V6.87975H70.3788V9.58528H75.9918V11.7755H67.9751" fill="#255066"/>
<mask id="mask3" mask-type="alpha" maskUnits="userSpaceOnUse" x="0" y="0" width="85" height="12">
<path d="M42.5 0H0V11.7883H85V0H42.5Z" fill="white"/>
</mask>
<g mask="url(#mask3)">
<path fill-rule="evenodd" clip-rule="evenodd" d="M77.7761 11.7883V0H80.1923V9.57239H84.9999V11.7883H77.7761Z" fill="#255066"/>
<path fill-rule="evenodd" clip-rule="evenodd" d="M3.46939 10.3068L4.83236 10.6417L4.65889 11.7755H0.173469L0 10.6417L1.36297 10.3068V5.86197L0.173469 5.8362L0 4.67669L2.51531 3.83927H3.46939V10.3068ZM3.46939 1.23681C3.46939 1.91963 2.94898 2.47362 2.29227 2.47362C1.63557 2.47362 1.11516 1.93252 1.11516 1.23681C1.11516 0.566872 1.63557 0 2.29227 0C2.94898 0 3.46939 0.579755 3.46939 1.24969V1.23681Z" fill="#CA2449"/>
<path fill-rule="evenodd" clip-rule="evenodd" d="M12.1184 10.3453L11.9326 11.7625H5.9231L5.77441 10.6932L9.59074 5.33366H7.36042L7.02587 6.75084L5.94788 6.57047V5.32078L6.10896 3.94225H11.7715L11.9326 5.14041L8.38885 10.3067H10.7059L11.0157 8.88949L12.0937 9.08274V10.3067L12.1184 10.3453ZM16.6039 10.3067L17.9421 10.6416L17.781 11.7754H13.2832L13.1097 10.6416L14.4727 10.3067V5.86188L13.2832 5.83612L13.1097 4.67661L15.625 3.83918H16.6163V10.3067H16.6039ZM16.6039 1.23673C16.6039 1.91955 16.0587 2.47354 15.402 2.47354C14.7453 2.47354 14.2249 1.91955 14.2249 1.23673C14.2249 0.56679 14.7453 0.0128021 15.402 0.0128021C16.0587 0.0128021 16.5915 0.592557 16.5915 1.2625L16.6039 1.23673Z" fill="#CA2449"/>
</g>
</svg>
