<?xml version="1.0" encoding="utf-8"?><svg xmlns="http://www.w3.org/2000/svg" xmlns:xlink="http://www.w3.org/1999/xlink"><symbol viewBox="0 0 578.787 679.013" id="ghm-igoshev" xmlns="http://www.w3.org/2000/svg"><g fill="currentColor"><path d="M292.225 426.648c-5.586.035-11.205.255-16.641.636-1.168.081-2.335.16-3.503.236l-.056-39.321h6.022c.213-.435.441-.859.7-1.263h-.026a11.403 11.403 0 019.855-5.695c3.987 0 7.63 2.111 9.664 5.41.335.49.637 1.006.903 1.548h5.985v39.077c-1.167-.124-2.341-.32-3.501-.388-3.087-.185-4.967-.268-9.402-.24zm14.175-39.712h-6.533a12.614 12.614 0 00-11.291-6.957 12.616 12.616 0 00-11.29 6.957h-6.534v41.72c0-.023 4.545-.353 4.872-.383a167.83 167.83 0 0113.656-.689c4.597-.044 9.195.09 13.781.399 1.02.069 2.042.144 3.059.202l.28.032v-41.281M177.556 542.383h-11.327v1.889h11.327v-1.89m25.111.001v1.889h12.081v-1.89h-12.081M166.23 485.57v1.89h48.518v-1.89h-48.519m.001 5.947h48.518v-1.889h-48.519v1.89m11.366 2.167h-11.366v1.891h11.366v-1.89m25.112-.001v1.891h12.041v-1.89h-12.041M166.23 548.33h48.518v-1.889h-48.519v1.89m.001 4.057h48.518v-1.89h-48.519v1.89m.001 4.059h48.518v-1.89h-48.519v1.89m-.079 4.057h48.518v-1.89h-48.517v1.89m11.444-62.76h-11.366v1.89h11.366v-1.89m25.112 0v1.89h12.041v-1.89h-12.041m-25.112 4.057h-11.366v1.891h11.366v-1.89m25.112-.001v1.891h12.041v-1.89h-12.041m-25.112 4.058h-11.366v1.89h11.366v-1.89m25.112 0v1.89h12.041v-1.89h-12.041m-25.112 4.059h-11.366v1.889h11.366v-1.89m25.112.001v1.889h12.041v-1.89h-12.041m-25.112 4.058h-11.366v1.89h11.366v-1.89m25.112 0v1.89h12.041v-1.89h-12.041m-25.112 4.059h-11.366v1.889h11.366v-1.89m25.112.001v1.889h12.041v-1.89h-12.041m-25.112 4.058h-11.366v1.89h11.366v-1.89m25.112 0v1.89h12.041v-1.89h-12.041m0 4.058v1.89h12.041v-1.89h-12.041m-25.112 0h-11.366v1.89h11.366v-1.89m0 4.058h-11.366v1.89h11.366v-1.89m25.112 0v1.89h12.041v-1.89h-12.041m-25.112 4.059h-11.366v1.889h11.366v-1.89m25.112.001v1.889h12.041v-1.89h-12.041m-25.112 4.058h-11.366v1.89h11.366v-1.89m25.112 0v1.89h12.041v-1.89h-12.041M514 442.07h20.505v-9.667H514v9.666m0 12.334h20.505v-9.667H514v9.667m0-24.667h20.505v-9.667H514v9.667"/><path d="M409.11 236.57c2.537 7.243 5.037 14.711 5.334 22.443v6.667l92.223 84v10l-91.263-89.556v5.112l87.825 84.888H357.833l-.062-25.777h-17.278v34.333l-16.192-10.667h-72.19l-17.667 10.667v-34.333h-17.333v26h-32.888l-7.89-17.723-56-277.444 2.334-10.833 42 187.333 3.666-10 4-6.333 5.334-7.667-55-217.677L35 362.457l-10.667 15.89 24.334 4.722v179.532H68v-197.81l-15.555-4.888L117.333 74.68l52.503 270.596-3.17.321 8.89 14.75h-25.779v201.777h16.334V368.68h51v10.333l25.973-10.333h88.77l25.923 10.444v-8.555H514v9.834h20.505v-6.39L541 368.68 409.11 236.57"/><path d="M514 392.736h20.505v-9.667H514v9.667m0 24.667h20.505v-9.667H514v9.667m0-12.333h20.505v-9.667H514v9.666m-390.111-47.056H98.988v-39.889h24.9zM96.445 314.68v47.777h31.333V314.68H96.445"/><path d="M119.445 353.773h-18.69v-23.666h18.69v23.666m0-25.889h-18.69v-8h18.69v8m318.745 25.889H419.5v-23.666h18.69v23.666m0-25.889H419.5v-8h18.69v8m-167.833 25.889h-18.69v-23.666h18.69v23.666m0-25.889h-18.69v-8h18.69v8m52.859 25.889h-18.69v-23.666h18.69v23.666m0-25.889h-18.69v-8h18.69v8m-24.359 25.889h-21.833v-23.666h21.833v23.666m0-25.889h-21.833v-8h21.833v8M514 457.07v5.333H405.847v-5.334h-37.028v14.278H522.04v1.889H368.82v1.576h153.22v1.89H368.82v1.574h153.22v1.89H368.82v1.574h153.22v20.501l3.938-.993 3.565-.644 3.223-.379 1.738-.124V457.07H514m64.785 221.943H0v-15.11h578.785v15.11m-459.34-135.541H94.333v-51.984h25.112zm5.847-43.081v-16.818h-5.617c-1.344-5.533-6.646-9.672-12.995-9.672-6.348 0-11.65 4.139-12.995 9.672H88.07v16.818h3.5v43.19h-3.5v8.684h37.222v-8.684h-3.5v-43.19h3.5"/><path d="M116.555 540.835H97v-34.62h19.555v34.62m0-37.039H97v-9.452h19.555v9.452m86.209-54.893h-25.112v-52.556h25.112zm-31.375-65.946v25.834h3.5v40.222h-3.5v8.778h37.222v-8.778h-3.5v-40.222h3.5v-25.834h-37.222"/><path d="M199.875 446.236H180.32v-35h19.555v35m0-37.446H180.32v-9.554h19.555v9.555M400 543.472h-25.11v-51.984H400zm5.847-43.081v-16.818h-5.616c-1.343-5.533-6.647-9.672-12.995-9.672-6.348 0-11.65 4.139-12.995 9.672h-5.616v16.818h3.5v43.19h-3.5v8.684h37.222v-8.684h-3.5v-43.19h3.5"/><path d="M397.11 540.835h-19.554v-34.62h19.555v34.62m-.001-37.039h-19.554v-9.452h19.555v9.452m50.645 39.676h-25.112v-51.984h25.112zm5.847-43.081v-16.818h-5.616c-1.344-5.533-6.647-9.672-12.995-9.672-6.35 0-11.65 4.139-12.995 9.672h-5.616v16.818h3.5v43.19h-3.5v8.684h37.222v-8.684h-3.5v-43.19h3.5"/><path d="M444.867 540.835H425.31v-34.62h19.556v34.62m.001-37.039H425.31v-9.452h19.556v9.452M297.74 597.68h-14.447v24.712zm-16.685 56.534h33.572v-56.363zm18.244-59.201l1.298-2.223h-17.304v2.223H299.3m93.181 59.201h19.935v-27.602c0 8.105-2.835 14.965-8.501 20.578-3.379 3.347-7.196 5.673-11.434 7.024m-41.053-65.944h6.296l-3.096-6.917zm-49.272 1.854l1.3-2.222h-20.163v2.222h18.863m241.641 52.649l-4.16 11.441h29.031l-4.001-11.44h-20.87m-329.822-.289l-4.262 11.73h29.736l-4.097-11.73h-21.377m15.835-44.805l20.003 56.534h3.218a6.035 6.035 0 01-.752-.68c-1.067-1.157-1.599-2.554-1.599-4.191 0-1.636.532-3.027 1.599-4.172 1.065-1.146 2.352-1.72 3.86-1.72 1.505 0 2.792.574 3.858 1.72 1.066 1.145 1.599 2.536 1.599 4.172 0 1.637-.533 3.034-1.599 4.192a6.035 6.035 0 01-.752.68h6.912V597.68H229.81m-12.169 34.237h14.016l-6.986-19.549zm87.374-46.681l1.298-2.223h-23.02v2.223h21.722m76.088-6.431c-1.47 0-2.694.444-3.672 1.334-.978.889-1.467 2.027-1.467 3.413 0 1.426.483 2.581 1.45 3.465.966.884 2.19 1.327 3.671 1.327 1.482 0 2.714-.448 3.698-1.34.984-.895 1.474-2.045 1.474-3.452s-.482-2.548-1.449-3.428c-.965-.879-2.201-1.319-3.705-1.319m-73.231 1.542l1.3-2.223h-25.879v2.223h24.579m2.858-4.89l1.3-2.221h-28.737v2.221h27.438m-27.438-7.11v2.222h30.295l1.3-2.222h-31.595m264.084 64.117h13.683l-6.82-19.07zm-151.113-19.351c-3.608-3.664-7.999-5.496-13.168-5.496-5.221 0-9.61 1.788-13.168 5.363-3.557 3.575-5.336 8.119-5.336 13.632 0 6.141 2.24 11.001 6.719 14.575 3.48 2.794 7.473 4.191 11.977 4.191 5.093 0 9.43-1.813 13.015-5.437 3.582-3.625 5.374-8.094 5.374-13.405 0-5.287-1.805-9.761-5.413-13.423m139.286-33.84c-.92-.573-1.987-.86-3.202-.86-1.32 0-2.476.322-3.472.965-.624.402-1.203 1.11-1.736 2.124h10.26c-.313-.913-.93-1.658-1.85-2.229"/><path d="M566.024 591.75h-4.61v-9.434l-9.41 9.433h-2.512v-16.394h4.61v9.63l9.651-9.63h2.271zm-11.368-23.629c.3.412.719.72 1.256.928.537.206 1.192.308 1.967.308.785 0 1.496-.121 2.13-.36.416-.161.78-.453 1.092-.876h3.831c-.22 1.276-.921 2.302-2.105 3.075-1.186.773-2.84 1.16-4.966 1.16-1.433 0-2.632-.173-3.596-.52-.964-.347-1.741-.841-2.33-1.484a4.378 4.378 0 01-1.11-2.23zm-12.525 16.622h-15.198c.219 1.165.806 2.092 1.759 2.78.952.688 2.17 1.033 3.647 1.033 1.768 0 3.288-.539 4.558-1.613l3.986 1.626c-.994 1.227-2.184 2.133-3.57 2.72-1.386.588-3.033.883-4.938.883-2.958 0-5.367-.812-7.227-2.435-1.86-1.621-2.79-3.653-2.79-6.094 0-2.502.927-4.58 2.78-6.232 1.855-1.652 4.18-2.478 6.975-2.478 2.971 0 5.384.826 7.246 2.478 1.858 1.653 2.789 3.836 2.789 6.548zm-28.192 5.982c-1.318.964-3.138 1.447-5.462 1.447-2.553 0-4.662-.623-6.326-1.87l2.617-2.862c1.121.724 2.185 1.084 3.19 1.084.81 0 1.451-.168 1.926-.504.473-.337.71-.77.71-1.303 0-.513-.222-.96-.666-1.341-.445-.381-1.055-.574-1.83-.574h-1.229v-2.938h.936c.635 0 1.19-.13 1.663-.392.475-.26.71-.683.71-1.265 0-.502-.21-.918-.633-1.244-.421-.326-.938-.49-1.552-.49-.774 0-1.745.327-2.913.98l-1.872-2.833c1.63-1.124 3.444-1.687 5.443-1.687 1.838 0 3.361.414 4.569 1.242 1.207.83 1.81 1.946 1.81 3.353 0 1.427-.877 2.583-2.633 3.467 2.346.753 3.518 2.114 3.518 4.082 0 1.468-.659 2.683-1.976 3.648zm-28.276 7.022h-4.886l3.876-7.222-7.166-15.17h4.834l4.898 10.286 5.404-10.286h4.849zm-16.895-5.998l-2.52-9.62-5.615 9.62h-1.941l-5.493-9.628-2.538 9.628h-4.61l4.72-16.394h3.118l5.879 10.341 5.785-10.341h3.119l4.724 16.394zm-29.524-6.253h-8.803v-3.827h8.803zm-20.272 6.253l-2.521-9.62-5.615 9.62h-1.941l-5.494-9.628-2.537 9.628h-4.61l4.72-16.394h3.12l5.877 10.341 5.785-10.341h3.12l4.723 16.394zm-29.275-3.872c-.884 1.347-2.088 2.399-3.613 3.156-1.524.759-3.205 1.14-5.043 1.14-2.702 0-5.01-.837-6.922-2.51-1.912-1.673-2.868-3.706-2.868-6.097 0-2.56 1.081-4.695 3.241-6.403 1.895-1.487 4.072-2.23 6.533-2.23 1.779 0 3.451.387 5.016 1.16 1.566.773 2.787 1.823 3.666 3.15.877 1.325 1.317 2.757 1.317 4.294 0 1.547-.443 2.994-1.327 4.34zm-24.057 6.72h-4.505v-2.848h-13.171v2.848h-4.21v-6.328h2.837l6.51-12.914h3.05l6.6 12.914h2.889zM0 562.124v92.09h153.333v-56.942h8.236c4.778 0 8.274.335 10.484 1.006 3.138.903 5.634 2.58 7.488 5.033 1.854 2.452 2.782 5.34 2.782 8.67 0 2.168-.423 4.136-1.266 5.904-.842 1.768-2.213 3.426-4.113 4.974 3.181 1.626 5.508 3.657 6.98 6.097 1.472 2.439 2.21 5.322 2.21 8.652 0 3.199-.762 6.116-2.283 8.748-1.522 2.632-3.483 4.6-5.882 5.904-2.401 1.303-5.717 1.954-9.948 1.954h20.64a5.852 5.852 0 01-.752-.68c-1.066-1.157-1.6-2.554-1.6-4.191 0-1.636.534-3.027 1.6-4.172 1.066-1.146 2.352-1.72 3.859-1.72 1.507 0 2.793.574 3.86 1.72 1.065 1.145 1.599 2.536 1.599 4.172 0 1.637-.534 3.034-1.599 4.192a5.952 5.952 0 01-.753.68h4.476l20.056-56.535h-4.699v-2.667h51.45v-2.223h-51.45v-2.666h51.45v-2.222h-51.45v-2.666h51.45v-2.223h-51.45v-2.666h51.45v-2.223h-51.45v-2.667h51.45v-2.221h-51.45v-2.667h51.45v-2.222h-51.45v-2.667h51.45v-1.488h17.135v1.488h33.154l.87-1.488h14.444v1.488h1.35v2.667h-1.35v2.222h1.35v2.667h-1.35v2.221h1.35v2.667h-1.35v2.223h1.35v2.666h-1.35v2.223h1.35v2.666h-1.35v2.222h1.35v2.666h-1.35v2.223h1.35v2.667h-1.35v56.534h2.128V598.67h25.38v10.345h-15.714v45.2h30.293c-4.403-1.382-8.299-3.785-11.667-7.25-5.601-5.764-8.404-12.612-8.404-20.541 0-5.311 1.306-10.195 3.915-14.65 2.61-4.457 6.197-7.989 10.764-10.593 4.567-2.607 9.485-3.908 14.756-3.908 7.981 0 14.844 2.845 20.588 8.533 5.743 5.69 8.616 12.626 8.616 20.807V598.67h9.873v46.03h13.663v-46.03h9.805v46.03h13.907v-46.03h9.875v55.545h1.957V598.67h27.917v10.345h-18.252v10.046h18.252v10.157h-18.252v14.614h18.252v10.383h1.946V598.67h8.041c4.664 0 8.076.327 10.235.982 3.062.881 5.5 2.517 7.309 4.91 1.81 2.39 2.716 5.21 2.716 8.456 0 2.115-.412 4.035-1.235 5.76-.822 1.724-2.161 3.34-4.014 4.85 3.105 1.587 5.376 3.57 6.813 5.949 1.437 2.377 2.156 5.192 2.156 8.438 0 3.122-.743 5.967-2.228 8.535-1.485 2.568-3.4 4.487-5.743 5.76-2.344 1.27-5.58 1.905-9.71 1.905h13.821l19.721-55.545h9.874l19.67 55.545v-92.09H0"/><path d="M170.901 617.943c1.18-1.108 1.77-2.62 1.77-4.53 0-1.78-.56-3.192-1.68-4.24-1.12-1.042-2.824-1.565-5.112-1.565h-2.574v12h2.18c2.431 0 4.238-.556 5.416-1.665m-7.596 25.935h2.5c4.142 0 6.934-.567 8.374-1.703 1.44-1.135 2.16-2.786 2.16-4.954 0-2.453-.846-4.388-2.535-5.808-1.692-1.417-4.5-2.129-8.428-2.129h-2.07v14.594m347.787.254h2.44c4.046 0 6.771-.554 8.176-1.661 1.406-1.108 2.11-2.72 2.11-4.834 0-2.392-.826-4.28-2.476-5.664-1.65-1.384-4.392-2.077-8.227-2.077h-2.023v14.236m7.417-25.299c1.151-1.082 1.727-2.555 1.727-4.419 0-1.737-.546-3.114-1.64-4.134-1.093-1.019-2.757-1.53-4.99-1.53h-2.514v11.706h2.13c2.373 0 4.136-.542 5.288-1.623M139.333 329.68c0-17.468-.148-34.607-3.265-51.873-1.785-9.886-4.541-20.142-11.545-27.343-2.515-2.585-5.6-4.73-9.106-5.579-6.645-1.606-12.224 3.048-15.983 8.086-4.798 6.426-8.97 13.978-11.147 21.71-.78 2.771-1.303 5.606-1.795 8.442-2.703 15.56-3.492 30.8-3.492 46.557h9.333v-17.916h38.353v17.916h8.647m63.334 213.792h-25.111v-51.984h25.11zm5.846-43.081v-16.818h-5.616c-1.344-5.533-6.646-9.672-12.994-9.672s-11.651 4.139-12.995 9.672h-5.616v16.818h3.5v43.19h-3.5v8.684h37.221v-8.684h-3.5v-43.19h3.5"/><path d="M199.777 540.835h-19.554v-34.62h19.554v34.62m0-37.039h-19.554v-9.452h19.554v9.452m295.735 39.676H470.4v-51.984h25.112zm.23-59.899c-1.343-5.533-6.646-9.672-12.994-9.672-6.35 0-11.65 4.139-12.995 9.672h-5.616v16.818h3.5v43.19h-3.5v8.684h33.696l.026-8.684v-43.19h3.5v-16.818h-5.616"/><path d="M492.623 540.835h-19.556v-34.62h19.556v34.62m0-37.039h-19.556v-9.452h19.556v9.452m75.322 57.328v-25.712a35.41 35.41 0 014.216-.601c1.792-.146 3.528.126 5.364.409.087.012.174.025.26.039v25.865zm-1-15.28H564v-9.41c.484-.149.972-.317 1.452-.446.5-.135.997-.255 1.493-.368zm-5.194 14.558h5.194v.722h-5.194zm-12.028 0h11.028v.722h-11.028zm-12.028 0h11.028v.722h-11.028zm-12.028 0h11.028v.722h-11.028zm-9.65 0h8.65v.722h-11.13c.686-.196 1.37-.404 2.052-.599.143-.04.286-.081.428-.123zm50.928-2.712v1.712H519.47a118.03 118.03 0 005.364-1.715v.003zm-35.51-2.71h5.26v1.71h-9.179a56.464 56.464 0 003.919-1.71zm4.889-2.712h30.621v1.712h-33.572a58.343 58.343 0 002.951-1.712zm4.137-2.712h8.262v1.712h-10.808a127.97 127.97 0 002.546-1.712zm20.29 0v1.712h-11.028v-1.712zm6.194 1.712h-5.194v-1.712h5.194zm-17.222 3.712h11.028v1.71h-11.028zm-1 0v1.71h-11.028v-1.71zm18.222 1.71h-5.194v-1.71h5.194zm-22.612-9.846h22.612v1.712H541.9c.525-.37 1.053-.737 1.573-1.105.284-.202.575-.404.861-.607zm2.958-1h-1.535c.507-.353 1.021-.701 1.535-1.05zm1.709 0h-.71v-1.725c.235-.156.474-.306.71-.46zm1.71 0H550v-2.833c.237-.15.473-.296.71-.443zm8.87 0h-7.87v-3.87c.354-.209.705-.429 1.06-.63a63.595 63.595 0 016.81-3.335zm1.71 0h-.71v-8.219c.236-.092.475-.184.71-.273zm1 0v-8.877c.238-.082.473-.147.71-.226v9.103zm-64.623 9.41l.404.114c4.313 1.205 8.386 2.344 12.949 2.488.577.019 1.213.033 1.89.033 1.434 0 3.053-.065 4.68-.302 4.51-.656 8.685-2.59 11.431-3.988 5.171-2.631 10.087-5.903 14.84-9.068 2.095-1.395 4.26-2.836 6.414-4.2l.718-.456c4.994-3.166 9.71-6.155 15.05-8.37 1.193-.496 2.47-.984 3.802-1.058 2.695-.146 5.315 1.177 7.839 2.46l.101.05v1.291c-.038-.007-.065-.01-.108-.017-1.812-.279-3.685-.562-5.593-.418-2.232.174-4.55.58-6.89 1.208-4.14 1.11-8.363 2.894-12.914 5.451-3.259 1.832-6.373 4.035-9.387 6.161-3.433 2.427-6.982 4.935-10.725 6.875-5.357 2.779-11.201 4.444-16.852 6.055a302.526 302.526 0 00-5.344 1.56h-12.305zm36.608-14.973a178.586 178.586 0 008.278-2.942c-1.784 1.37-3.525 2.668-5.44 3.812a93.315 93.315 0 01-11.698 5.922c-4.84 2.038-8.844 3.203-12.602 3.667-5.721.704-10.656-.752-15.146-2.535v-2.042c12.769-.098 24.758-2.014 36.608-5.882zm-36.608-4.368c.546.147 1.166.328 1.3.378.894.34 1.808.889 2.713 1.633 2.348 1.928 4.2 4.445 5.843 6.779-3.239.28-6.522.433-9.856.46zm15.917 7.747l.312.315c-1.73.245-3.473.449-5.227.617-1.757-2.51-3.748-5.301-6.354-7.441-.99-.812-1.996-1.416-2.994-1.795-.014-.007-.904-.392-1.654-.585v-1.099c6.521.476 11.501 5.51 15.917 9.988zm-15.917-15.217c4.222.558 7.388 1.433 10.714 2.953 5.74 2.623 10.683 6.293 14.727 10.899a115.816 115.816 0 01-7.972 1.51l-.84-.848c-4.559-4.622-9.704-9.821-16.63-10.286zm10.557-19.43c.833-.001 1.563-.314 2.199-.67v2.322a75.357 75.357 0 00-4.348 2.42l-.242.146v16.061c-2.473-.87-5.082-1.461-8.166-1.873v-18.406zm3.91-1.672v2.471c-.245.119-.473.237-.711.355v-2.427l.021-.013c.223-.136.459-.259.69-.386zm1.709-.878v2.565c-.238.107-.476.213-.71.321v-2.534c.234-.116.463-.232.71-.352zm5.756-2.39a55.047 55.047 0 013.113-.978v2.778a56.046 56.046 0 00-7.87 2.704v-2.565a54.326 54.326 0 014.757-1.939zm11.977-2.726a55.4 55.4 0 013.424-.262v3.34c-2.595.011-5.244.155-7.868.548v-2.921a54.508 54.508 0 014.444-.705zm29.877 5.222v2.52c-.236-.104-.473-.204-.71-.305v-2.556c.129.061.262.113.39.175.108.052.214.112.32.166zm1.711.894v2.396c-.236-.108-.473-.214-.71-.32v-2.45c.097.052.197.1.294.152.137.075.277.148.416.222zm-23.743-1.974c2.619.079 5.322.226 8.032.572v28.247c-.662.277-1.325.54-1.989.81l-.005-.007a.27.27 0 01-.024.017 176.54 176.54 0 01-6.014 2.315zm-1.71-.04c.236.004.477.004.71.011v32.345c-.234.086-.474.162-.71.244zm-1.711-.028c.24.002.473.008.71.012v32.959l-.71.241zm.71-.988c-.237-.002-.47-.009-.71-.01v-3.366c.237-.006.475-.017.71-.021zm1.711.027c-.233-.007-.474-.007-.71-.01v-3.433c.237.002.474.018.71.022zm9.032.595c-2.716-.342-5.417-.488-8.032-.567v-3.421c2.691.096 5.378.389 8.032.884zm1.711.244a65.33 65.33 0 00-.71-.108v-3.04c.237.049.474.089.71.141zm1.71.305c-.237-.047-.473-.096-.71-.139v-2.942c.237.057.473.124.71.184zm2.68.604a41.463 41.463 0 00-1.68-.403v-2.841a54.572 54.572 0 017.869 2.819v2.576c-2.03-.842-4.091-1.594-6.19-2.151zm-3.39.276c.237.044.475.09.71.137v26.206l-.71.312zm-1.71 27.407v-27.688c.237.033.474.069.71.108v27.268c-.236.101-.473.21-.71.312zm11.289-4.772c-2.099.753-4.351 1.681-6.9 2.842-.323.148-.646.28-.968.427v-25.555a44 44 0 011.421.34c2.177.579 4.328 1.376 6.447 2.268zm1.71-.583c-.236.077-.47.15-.71.233v-18.897c.237.104.474.207.71.312zm1.711-.525c-.237.068-.472.134-.71.206v-17.582l.71.326zm4.336-1.008c-.79.134-1.583.286-2.376.481-.319.077-.64.164-.96.248v-16.305c.541.253 1.081.508 1.617.761l1.719.81zm-40.368-21.02c2.613-.406 5.267-.548 7.868-.558v33.551c-.347.115-.688.241-1.036.355a119.28 119.28 0 01-6.832 1.984zm-1.71.301c.238-.048.471-.11.71-.152v35.445c-.237.06-.472.128-.71.187zm0-3.888c.235-.055.474-.095.71-.145v2.86l-.008.001c-.236.041-.467.104-.703.15zm-1 3.08c-.237.052-.475.096-.71.152v-2.79c.236-.063.473-.125.71-.183zm-.71 35.992v-34.819c.233-.056.475-.098.71-.152v35.51c-.063.014-.129.026-.193.042-.169-.198-.345-.386-.517-.581zm-8.87-31.793a55.63 55.63 0 017.87-2.763v33.447a43.867 43.867 0 00-7.87-6.536zm-1.709.766c.23-.108.476-.212.71-.318v23.068c-.238-.146-.47-.298-.71-.44zm-1.71.84c.233-.117.47-.233.71-.35v21.262c-.237-.132-.47-.268-.71-.397zm-2.626 19.207a35.858 35.858 0 00-1.964-.821v-15.871a74.45 74.45 0 013.59-2.007v19.495c-.538-.272-1.074-.545-1.626-.796zm68.988 1.35c-2.433-1.235-5.156-2.56-7.996-2.389-1.488.082-2.912.627-4.129 1.131-5.42 2.25-10.393 5.401-15.203 8.45l-.718.457c-2.162 1.368-4.332 2.813-6.432 4.212-4.73 3.148-9.62 6.405-14.739 9.01-2.684 1.364-6.759 3.254-11.123 3.888-2.318.336-4.634.315-6.393.259-4.441-.139-8.46-1.263-12.713-2.452l-.672-.187v-4.933c3.722 1.473 7.581 2.64 12.172 2.64 1.006 0 2.038-.06 3.097-.192 3.85-.476 7.94-1.664 12.867-3.736a94.614 94.614 0 0011.824-5.987c2.302-1.377 4.428-3.017 6.482-4.605.606-.467 1.215-.937 1.83-1.4a189.12 189.12 0 007.318-3.133c4.783-2.179 8.516-3.54 12.104-4.416 4.118-1.004 8.227-1.138 12.424-1.136zm-10.674-22.825h10.674v17.307c-3.116 0-6.198.072-9.285.516v-14.475l-2.292-1.077c-.677-.32-1.36-.64-2.044-.96v-2.344c.676.337 1.375.652 2.113.893.287.094.567.14.834.14zm11.674 17.807l.002-.5h-.002v-18.307h-11.674a1.72 1.72 0 01-.524-.09c-1.771-.579-3.351-1.618-5.02-2.42a55.586 55.586 0 00-24.019-5.49h-.08c-2.005.003-4.01.118-6.004.34a55.76 55.76 0 00-17.981 5.172c-.868.42-1.738.846-2.56 1.348-.822.503-1.694 1.139-2.7 1.14h-11.556v54.111h11.777l.153.477c.504-.161 1.011-.32 1.518-.477h68.67V526.82m-245.669-34.101c-7.035-3.432-14.401-6.318-22.039-8.12-11.54-2.723-23.586-3.292-35.346-1.763a98.236 98.236 0 00-17.334 3.86 95.068 95.068 0 00-8.317 3.099c-.565.241-7.247 2.812-7.247 2.921v68.437h20c.167 0 0-61.897 0-61.905.024-1.353 9.366-4.263 10.582-4.641a51.56 51.56 0 0111.992-2.219c8.648-.567 16.888 1.188 24.826 4.49.66.273 4.434 1.818 4.434 2.37v61.905h18.444v-44.07c0-8.118-.091-16.255.005-24.364"/><path d="M284.727 525.268c-.408.957-.612 2.375-.612 4.25 0 1.871.201 3.285.605 4.242.404.959 1.001 1.685 1.79 2.18.349.219.707.381 1.074.504v-13.852a4.89 4.89 0 00-1.073.501c-.782.492-1.375 1.216-1.784 2.175"/><path d="M285.49 537.27c-1.026-.609-1.827-1.515-2.403-2.72-.576-1.203-.864-2.89-.864-5.058 0-2.184.282-3.872.85-5.065.567-1.194 1.368-2.098 2.402-2.712a6.444 6.444 0 012.109-.783v-24.707c-3.883.336-7.767.675-11.59 1.452-1.94.396-3.86.908-5.713 1.604-.924.346-1.829.74-2.712 1.18-.292.148-1.41.652-1.412 1.031v59.717h21.427v-23.168a6.432 6.432 0 01-2.095-.772m109.118-183.496h-18.69v-23.666h18.69v23.666m-14.744-26.672c-.434.267-.871.528-1.312.783h16.056v-8h-4.644c-3.16 2.676-6.588 5.059-10.1 7.217m-197.279 26.672h18.69v-23.666h-18.69v23.666m14.743-26.672c.433.267.872.528 1.312.783h-16.055v-8h4.643c3.161 2.676 6.588 5.059 10.1 7.217m22.006 133.412h16c-.726.396-1.325.939-1.972 1.438a46.902 46.902 0 01-2.094 1.512c-1.423.977-2.878 1.913-4.262 2.94-2.66 1.977-4.886 4.313-7.072 6.738-.088.096-.6.519-.6.659v-13.287m16 2.663v6.279c0 .212-1.096.425-1.257.472-.6.176-1.183.404-1.752.658-1.168.527-2.273 1.175-3.387 1.807a120.643 120.643 0 01-6.982 3.665c-.388.187-.803.456-1.216.58-.322.095-.678.023-1.014.023-.032 0-.38-.027-.392 0 .223-.472.39-.884.718-1.293a21.16 21.16 0 011.122-1.27c2.716-2.913 5.487-5.822 8.718-8.164 1.656-1.198 3.412-2.4 5.442-2.757m0 9.868v3.641h-5.5c.078 0 .306-.457.359-.538.58-.894 1.395-1.615 2.255-2.223.445-.313.909-.599 1.384-.863.15-.082 1.502-.582 1.502-.578v.561m-10.416 3.641c.194-.025 3.124 0 3.139 0 .137.002.636-.856.724-.968.33-.422.692-.81 1.068-1.19.137-.139.513-.694.708-.727-.733.124-1.487.19-2.179.467-.734.294-1.444.654-2.116 1.073-.305.193-.721.399-.953.68-.152.187-.263.457-.39.665m128.707-16.172h-11.292v16.166c.002-.327.564-.538.786-.695.409-.292.765-.663 1.082-1.05.863-1.053 1.432-2.309 2.106-3.48a73.221 73.221 0 012.332-3.762 146.099 146.099 0 012.49-3.639c.415-.59.831-1.177 1.247-1.766.16-.226 1.028-1.774 1.25-1.774m4.707 10.167v5.999h-5.749c.061-.015.179-.299.21-.351l.415-.701c.343-.568.746-1.1 1.158-1.62 1.076-1.36 2.337-2.663 3.966-3.327m0-10.167v6.771c-.002.104-2.313.43-2.536.49-1.361.36-2.584 1.114-3.674 1.989a28.583 28.583 0 00-1.851 1.65c-.568.542-1.193 1.054-1.73 1.622-.73.77-1.82 1.564-1.875 1.896.109-.939 1.333-2.69 1.802-3.532 1.142-2.052 2.287-4.107 3.63-6.036 1.184-1.702 2.676-3.135 3.818-4.85h2.416"/><path d="M347.104 476.701c.587.09 1.764-.021 2.361-.021.512-.001 1.023.001 1.535-.001 1.347-2.842 3.624-5.351 5.833-7.54-.185.184-.777.102-1.012.129-.682.075-1.377.26-1.972.604-1.322.763-2.432 1.83-3.525 2.883-.75.722-1.55 1.466-2.13 2.34-.21.317-.98 1.445-1.09 1.606M400 448.903h-25.11v-52.556H400zm-31.375-65.946v25.834h3.5v40.222h-3.5v8.778h37.222v-8.778h-3.5v-40.222h3.5v-25.834h-37.222"/><path d="M397.11 446.236h-19.554v-35h19.555v35m-.001-37.446h-19.554v-9.554h19.555v9.555M166.11 462.347h42.5v-4.556l8.5-.167v26.056h-8.443v-12.333H166.11v-9m120.9 3.434c-1.243.004-2.489.036-3.737.079-2.572 1.532-5.098 3.296-7.044 5.603-2.104 2.497-2.961 5.165-3.445 7.75a93.917 93.917 0 014.399-.558c.132-.136.261-.272.393-.41 2.293-2.364 4.665-4.81 6.637-7.473 1.167-1.576 2-3.245 2.798-4.99"/><path d="M271.39 479.428c.5-2.908 1.395-5.945 3.82-8.824 1.54-1.825 3.398-3.317 5.351-4.619-1.31.076-2.62.174-3.929.295-1.993 3.892-4.144 6.928-6.744 9.504-.128.127-.27.233-.4.357l-.953 2.374c-.022.048-.366.717-.662 1.566a95.333 95.333 0 013.516-.653m79.834 5.752h-3.975c-4.21-2.947-8.101-6.32-12.568-8.901-11.408-6.595-25.165-9.45-38.496-10.252a24.4 24.4 0 01-.32 2.09c-.324 1.558-1.153 2.826-1.956 4.05-1.448 2.209-3.168 4.142-4.86 6.006 2.907.042 5.813.163 8.715.314 2.182.113 4.366.248 6.532.53.592-.237 1.202-.448 1.842-.502 1.522-.132 3.086-.054 4.599.024.659.032 1.315.065 1.961.08 2.862-.946 5.572-2.224 8.13-3.431a.667.667 0 11.569 1.207c-2.527 1.192-5.199 2.45-8.027 3.41-.117.098-.256.135-.436.152h-.024a33.77 33.77 0 01-1.725.504c.735.203 1.467.412 2.197.628 8.446 2.507 16.462 5.882 24.508 9.424h25.048v-5.333h-11.714m-83.896-7.224l.04-.1c-2.214 1.567-4.655 2.672-7.58 3.756a.67.67 0 01-.856-.393.667.667 0 01.393-.858c3.23-1.196 5.856-2.374 8.177-4.233.5-.4.987-.835 1.448-1.29 2.327-2.306 4.283-5.002 6.098-8.4-6.534.695-13.014 1.978-19.252 3.985-.151 1.781-.355 3.246-1.663 4.862-1.533 1.896-3.261 3.666-4.932 5.376-2.201 2.255-4.48 4.587-6.263 7.175a.664.664 0 01-.926.17.665.665 0 01-.171-.926c1.847-2.683 4.165-5.056 6.407-7.352 1.649-1.688 3.354-3.435 4.849-5.28.936-1.159 1.176-2.204 1.316-3.565-3.828 1.304-7.56 2.88-11.147 4.774-5.276 2.788-9.63 6.924-14.932 9.523l-11.222.237v5.096l21.778-.236c3.524-1.084 6.564-2.713 9.908-4.172.256-.112.516-.213.774-.322l4.213-4.66 2.993-3.418a.665.665 0 111.002.879l-3 3.424-2.367 2.617a95.38 95.38 0 017.693-2.626 95.751 95.751 0 016.278-1.604c.348-1.287.91-2.376.944-2.439m20.358-.264c1.775-1.952 3.611-3.97 5.086-6.223.79-1.205 1.516-2.312 1.788-3.624.129-.617.213-1.252.29-1.884a140.987 140.987 0 00-6.377-.174c-.907 2.01-1.819 3.93-3.188 5.777-1.828 2.47-3.964 4.727-6.073 6.908a91.632 91.632 0 018.066-.324c.138-.15.271-.305.408-.456m-93.869-275.065c9.099-6.726 17.415-12.894 25.753-19.031 11.934-8.784 24.223-17.125 35.742-26.421 15.21-12.274 26.321-27.636 31.326-46.586 3.71 6.754 7.248 13.716 11.255 20.398 11.83 19.722 27.99 35.104 47.444 47.269 11.035 6.9 21.701 14.387 33.577 22.305-4.592 2.963-8.133 5.422-11.881 7.514-.723.404-2.45-.363-3.37-1.051-4.197-3.144-8.265-6.463-12.405-9.683-.304-.237-.825-.196-1.248-.278-4.442-.863-6.957-3.055-5.537-7.991.075-.261-.005-.596-.097-.87-.09-.267-.286-.5-.875-1.475l-1.71 5.353c-1.609-1.181-3.149-2.13-4.475-3.316-9.415-8.407-18.876-16.67-30.824-21.537-2.256-.92-4.051-3.43-5.599-5.543-4.54-6.2-8.85-12.568-13.537-19.287-8.718 19.914-26.834 29.514-43.143 41.083-12.683 8.997-25.179 18.253-37.873 27.23-1.075.76-3.599.965-4.47.243-2.752-2.278-5.037-5.118-8.053-8.326m49.663 113.78l1.764 13.596c-25.01 7.382-56.58-5.632-71.103-29.496-2.67-4.387-4.612-9.254-6.505-14.051-.511-1.29-.174-3.808.761-4.607 2.744-2.345 5.985-4.11 9.225-6.229 1.692 4.439 3.118 8.435 4.728 12.355 7.755 18.884 22.474 27.526 42.29 28.389 6.185.27 12.392.043 18.84.043m13.697-1.457c3.19-10.815 15.708-19.551 26.752-18.702v18.703h-26.752m35.957-18.858c10.726-.356 21.591 7.127 26.444 18.695h-26.444v-18.695m-103.274-68.501l-9.494-7.692-1.142 1.176c1.077 1.128 2.021 2.433 3.252 3.357 6.065 4.554 6.09 4.518 2.44 11.276-.699 1.294-1.387 2.592-2.259 4.224l-14.1-3.309c4.735-7.355 9.13-14.293 13.705-21.11.435-.649 2.242-1.033 3.015-.677a40.178 40.178 0 016.875 4.039c1.876 1.373 2.6 3.203.621 5.256-1.104 1.145-2.059 2.435-2.913 3.46m-13.287 35.075c-3.985.321-7.799.629-12.687 1.025l3.447-22.41 12.73 3.911-3.49 17.474m205.238-42.472l-12.378-10.726c2.357-1.696 5.432-4.084 8.716-6.136.78-.488 2.552-.253 3.379.336 6.372 4.535 6.7 7.384 1.936 13.906-.792 1.082-1.435 2.272-1.652 2.62m28.721 30.415c-.844 7.065-8.688 1.94-10.201 7.478 3.464-.57 6.636-1.093 10.426-1.719l.588 9.319c-4.613-1.61-9.012-2.523-12.654-4.7-1.631-.975-1.74-4.49-2.716-7.37l14.557-3.009m-24.54-22.096l-4.457-5.63c6.897-6.904 12.394-7.528 15.848-1.991l-11.391 7.621M184.975 211.86l4.537-4.595c2.817 2.987 5.56 5.552 7.813 8.492.666.87-.052 2.799-.178 4.97l-12.172-8.867m-7.011 60.772l-11.499 7.857c-2.116-5.008-1.646-6.142 2.775-7.293 2.541-.663 5.097-1.265 7.647-1.896l1.077 1.332m214.366-32.708c3.645-2.823 7.289-5.647 11.037-8.552 2.462 2.324 2.738 3.633-.322 5.092-1.794.855-2.934 3.015-4.69 4.035-1.552.9-3.55 1.033-5.35 1.504l-.674-2.079"/><path d="M340.43 194.159l-4.007 16.097c-3.03-5.641-.634-14.381 4.008-16.097m55.268 54.38c-.407-2.966 4.713-6.726 11.589-8.511-.044 2.457-3.763 5.19-11.59 8.51m-6.13-13.13c0-1.487-.344-2.79.055-3.081 3.506-2.566 7.145-4.95 10.745-7.388l1.163 1.69-11.963 8.779m-196.943-30.9l9.119 9.61c-2.416 2.249-7.723-2.402-9.119-9.61m143.208-11.951a80685.12 80685.12 0 00-4.145 13.451c-2.185-5.724-.17-11.332 4.145-13.45m8.123 4.846c1.116.588 2.092 1.103 2.795 1.472l-6.407 10.319-.44-.155 4.052-11.636m-179.291 71.877c-.024-3.838-.024-3.838 9.883-4.26l-9.883 4.26m163.027 3.707c-10.415-4.143-17.599-18.213-16.815-36.91 5.767 12.655 11.107 24.38 16.815 36.91m5.916 2.444l5.995 16.845-1.518.663c-3.145-5.81-6.293-11.621-9.896-18.275 2.542.396 4.028.627 5.515.86l-.096-.093m76.056 8.383c-.399.014-.743 1.669-1.112 2.561-4.917 8.025-8.92 16.828-14.945 23.912-11.927 14.02-27.535 21.179-46.32 20.521-5.019-.176-10.051-.026-15.346-.026l-2.018-12.708 43.332-5.195v-3.11l3.936 1.74-.334-4.962 6.503 4.941-.677-8.822c.241-.042.481-.082.721-.122l1.807 9.955 1.433-.255c-.23-3.405.116-6.978-.825-10.172-1.315-4.456 3.802-5.64 3.472-9.728 2.789 1.606 5.068 2.916 7.346 4.227.194-.401.387-.805.58-1.207l-6.201-4.625c.096-.199.195-.399.29-.597l4.715 1.526.608-1.109-3.512-2.667c1.723-5.696 3.395-11.217 5.307-17.533l6.635-2.215-.271-1.332c-2.383.406-4.765.808-7.419 1.259v-4.92c4.322 1.487 8.266 2.697 12.064 4.264.846.35 1.698 1.973 1.648 2.967-.172 3.537-.732 7.056-1.186 10.944"/><path d="M333.703 275.525l-.034-.082a.984.984 0 00-.061-.011l.095.093M217.11 383.903l25.974-11.223h88.77l25.917 11.223v4.444l-27.994-9.334h-82.11l-21.462 6.556-9.094 2.778v-4.444m82.073 21.904v-15.123h-21.572v14.976c7.132-1.125 14.372-1.073 21.572.147"/><path d="M388.173 273.667c-3.066-2.672-5.642-5.186-8.492-7.334-4.141-3.125-8.59-5.846-12.68-9.032-1.57-1.222-2.516-3.249-4.284-5.637-4.652 2.304-10.28 5.081-15.896 7.879-2.581 1.286-4.937 1.91-7.87.324-4.259-2.303-8.863-3.972-14.442-6.402l9.16 21.978 18.58 3.461-10.978 13.219c-.198-.348-.394-.698-.591-1.046l-1.752 7.388-1.213-.077c-.235-.881-.559-1.75-.684-2.645-.275-1.98-.458-3.396-3.282-3.656-3.41-.314-5.398-5.063-3.72-7.536-.622-2.494-5.432-3.334-2.84-7.255.207-.313-1.494-1.888-3.426-2.647v8.03c-1.671-1.222-3.067-1.732-3.6-2.714-3.334-6.128-6.675-12.268-9.576-18.605-1.128-2.463-1.17-5.437-1.618-8.192-1.048-6.436-2.11-12.872-3.017-19.328-.27-1.923-.041-3.915.97-6.072l2.65 4.044v-12.775l.963-.326c3.549 8.689 7.101 17.378 10.65 26.069.26-.021.519-.043.779-.063V224.97l7.584-.433c2.133 10.39-2.01 21.33 3.736 31.175 3.605-.787 4.993-2.63 5.208-6.148.456-7.426 1.397-14.822 2.253-23.359 2.266.665 4.932 1.593 7.672 2.19 1.187.257 2.572.015 3.78-.313 6.711-1.825 13.394-3.746 19.928-5.59l10.062 14.714-6.768 3.024-3.124-10.625c-5.067.441-10.739.937-16.523 1.443l4.921 11.538c6.307-.325 13.482-.693 21.028-1.08v16.176c5.1-3.47 7.29.876 10.595 3.038-1.895 4.31.47 10.161-4.143 12.948zm.199-35.415c-8.543-17.01-23.319-27.672-39.593-38.16l-6.499 9.613c5.41.656 9.476 1.474 13.557 1.551 4.14.079 5.728 2.123 6.247 5.972l-10.696 7.19c-.84-3.158-1.495-5.613-2.29-8.605-3.505 2.139-6.47 3.947-9.403 5.738l1.218 3.625c-2.242.57-4.07 1.035-6.264 1.59 2.84-12.955-6.388-18.562-13.982-24.413l-4.826 3.22c2.692 1.406 5.992 2.387 8.235 4.492 2.556 2.402 4.17 5.803 6.68 9.483-3.141-.203-5.556 2.604-7.279-1.165-.136-.3-2.257-.098-3.092.44-.849.544-1.246 1.79-2.01 2.996-5.1-4.307-10.434-7.428-12.45-14.12-1.902-6.318-5.17-12.246-3.913-19.704l14.625 1.278c.46 1.85.844 3.398 1.339 5.383l9.024-6.25v15.87l5.49-13.747c-8.011-5.909-16.785-11.369-24.305-18.209-7.589-6.903-13.933-15.173-20.936-22.97-.977 4.98-.08 9.986 3.32 13.538 3.22 3.364 7.748 5.477 12.511 8.687l-12.365.71c.242 1.995-.004 4.69.7 4.966 4.154 1.636 2.073 4.412 1.39 6.629-4.549 14.796-18.909 22.748-35.221 20.004-3.079-.517-6.444-.09-9.559.51-8.366 1.607-16.666 3.56-25.005 5.322-.6.127-1.295-.193-2.648-.428 3.861-3.399 7.199-6.336 10.537-9.272l-.692-1.207c-1.157.428-2.453.652-3.449 1.322a918.661 918.661 0 00-16.133 11.088c-17.386 12.194-27.428 28.817-29.846 49.938-.822 7.188-.777 14.308 3.884 21.738l.408-8.163c2.671-1.67 5.032-3.148 7.623-4.77l.493-4.263c2.746-.242 5.226-.458 7.947-.696-1.585-5.038-7.944-6.766-5.588-12.372-4.388-2.043-4.384-2.04-1.859-5.875.118-.177-.098-.557.002-.764 1.064-2.19 1.778-5.867 3.321-6.259 4.764-1.21 4.896-5.26 6.541-8.388 1.1-2.09 1.619-4.525 2.904-6.47 1.008-1.524 2.608-3.211 4.263-3.666 11.284-3.097 22.664-5.842 33.976-8.838 1.363-.362 2.501-1.559 3.75-2.36.638-.41 1.29-.798 1.935-1.196.388.69 1.167 1.421 1.099 2.064-.41 3.916-1.012 7.813-1.55 11.71-9.909 2.378-19.378 4.455-28.726 6.978-4.413 1.192-7.99 4.376-8.105 9.066-.155 6.136.774 12.315 1.512 18.442.12 1.001 1.634 2.525 2.534 2.545.895.021 2.274-1.384 2.66-2.447 1.312-3.601 2.319-7.317 3.36-11.01.518-1.83 12.986-8.576 14.562-7.639 1.254.745 2.253 1.917 3.378 2.883 1.831 1.573 3.672 3.132 6.208 5.293 0-3.595-.005-6.09.002-8.584.008-2.376-.036-4.753.061-7.125.087-2.154.332-4.3.507-6.45l1.832.178v22.22l7 1.064 1.469-27.483 4.663 2.281 1.77-5.758.602-.01 3.408 28.887c4.182-.216 4.376-.212 4.45-3.528.258-11.256.422-22.516.486-33.775.014-2.546-.115-4.693 3.757-3.309l3.744 37.156 1.595.09c1.138-10.251 2.278-20.503 3.418-30.754l1.347.157c0 3.7-.91 7.71.22 11.022 1.583 4.638 3.11 8.554-2.39 11.952 3.767 1.144 6.955 2.11 11.137 3.378 0-9.813-.102-18.846.089-27.872.036-1.7 1.232-3.376 1.893-5.061.511 1.605 1.452 3.208 1.466 4.819.089 10.39-.027 20.784-.072 31.176-.01 2.316-.002 4.63-.002 7.209-1.665 0-2.678.024-3.69-.004-20.26-.576-39.96 2.39-58.779 10.008-18.475 7.477-33.276 18.828-38.887 39.188-.045.163-.446.227-.682.336l-1.048 1.02c-1.434-1.963-2.866-3.927-4.298-5.89-.333.223-.666.445-1 .666.603 1.06.944 2.517 1.851 3.11 3.817 2.494 7.59 5.26 11.77 6.965 13.731 5.602 30.994 7.741 45.574 9.534 3.468.427 1.083-.104 4.348-4.242.399-.506.652-1.111.995-1.655 2.554-4.05 5.805-7.675 9.842-10.292 3.956-2.567 8.488-4.053 13.124-4.788a52.806 52.806 0 018.451-.628v28.661H290v-28.59c2.815.14 5.619.478 8.372 1.021 5.14 1.013 9.952 3.024 14.072 6.304 4.057 3.23 7.216 7.435 9.69 11.964.811 1.487 2.929 3.36 4.313 3.26 11.972-.859 23.909-2.173 35.868-3.241 2.804-.251 3.35-1.626 3.11-4.144-.365-3.839-.418-7.707-.61-11.562-.658-13.136-5.715-23.798-17.298-30.805-.549-.333-1.005-.824-2.41-1.995 8.685.724 16.181 1.348 23.293 1.942 4.31 11.148 14.681 18.977 14.757 31.884 2.262-2.342 4.371-4.536 5.443-7.155 6.977-17.057 8.293-34.233-.228-51.2M501.89 358.013H357.77v-1.889h144.12v1.89m-74.529-72.479h-17.437v-1.89h17.437v1.89m3.78 4.026h-21.217v-1.889h21.217v1.89m4.878 4.026h-26.095v-1.89h26.095v1.89m3.981 4.027h-30.076v-1.89H440v1.89m3.5 4.026h-33.576v-1.889H443.5v1.89m5 4.026h-38.576v-1.89H448.5v1.89m4 4.027h-42.576v-1.89H452.5v1.89m4.137 4.026h-46.713v-1.89h46.713v1.89m3.78 4.027h-50.493v-1.89h50.493v1.89m-50.493 2.136v1.89h8.576v-1.89h-8.576m54.272 1.891v-1.891H444.68v1.89h19.516m4.791 4.027v-1.89H444.68v1.89h24.307m-59.063-1.891v1.891h8.576v-1.89h-8.576m0 4.026v1.891h8.576v-1.89h-8.576m62.957 1.89v-1.89H444.68v1.89h28.201m4.551 4.025v-1.889H444.68v1.89h32.752m-81.544-1.89v1.89H418.5v-1.89h-22.612m85.445 5.916v-1.89H444.68v1.89h36.653m-85.445-1.89v1.89H418.5v-1.89h-22.612m90.024 5.917v-1.89H444.68v1.89h41.232m-90.024-1.89v1.89H418.5v-1.89h-22.612m0 4.027v1.89H418.5v-1.89h-22.612m93.804 1.891v-1.891H444.68v1.89h45.012m3.778 4.026v-1.89h-48.79v1.89h48.79m-97.582-1.89v1.89H418.5v-1.89h-22.612m0 4.027v1.89H418.5v-1.89h-22.612m102.112 0h-53.32v1.89H498v-1.89M293.261 533.779c.499-1.18.75-2.6.75-4.26 0-1.667-.223-3.031-.668-4.094-.444-1.062-1.059-1.84-1.843-2.332a5.156 5.156 0 00-.787-.393v13.65c.27-.107.536-.233.792-.393.772-.485 1.358-1.212 1.756-2.178"/><path d="M310.727 500.461a28.102 28.102 0 00-2.712-1.18c-1.852-.696-3.771-1.208-5.712-1.604-3.824-.777-7.707-1.116-11.59-1.452v24.782a6.57 6.57 0 011.759.713c1.053.62 1.885 1.548 2.499 2.787.612 1.236.918 2.898.918 4.985 0 2.077-.302 3.733-.905 4.963-.604 1.23-1.436 2.16-2.499 2.785a6.597 6.597 0 01-1.772.723v23.246h21.426v-59.717c0-.379-1.119-.883-1.412-1.03m43.156-51.372c-8.568-7.791-20.316-13.107-35.916-16.25-11.555-2.33-24.195-2.919-39.768-1.855-14.678 1.004-33.555 3.488-49.382 13.884a29.183 29.183 0 00-2.694 2.01v.156h-.183c-2.012 1.701-3.721 3.569-5.504 5.593l-.955 1.085v4.036l.955-1.084c1.783-2.025 3.492-3.892 5.504-5.596h.183v-.154a29.426 29.426 0 012.694-2.01c15.827-10.396 34.704-12.88 49.382-13.884 15.573-1.064 28.213-.474 39.768 1.855 15.6 3.143 27.348 8.459 35.916 16.25 1.549 1.407 4.321 4.454 4.321 4.454v-4.036s-2.772-3.047-4.321-4.453"/><path d="M325.325 430.687l-.029-20.622 1.361-.002.03 21c-.45-.127-.906-.252-1.362-.376zm-2.269-.584l-.01-6.75 1.249.462.009 6.601c-.412-.107-.83-.21-1.248-.313zm-2.836-.655l-.01-7.143 1.815.671.01 6.881c-.598-.14-1.203-.277-1.815-.409zm-2.95-.605l-.01-7.627 1.93.712.009 7.3a124 124 0 00-1.928-.385zm-7.093-10.852l-3.657-.884-.004-2.267c1.484.485 3.383 1.119 3.647 1.25.458.223 6.745 2.41 7.992 2.842l6.136 2.241.002 1.572-7.281-2.689zm5.786 10.601c-.467-.085-.946-.15-1.415-.23l-.01-8.009 1.7.515.013 7.779c-.099-.019-.192-.038-.288-.055zm-4.251-.685l-.012-8.41 1.816.548.012 8.151c-.605-.096-1.204-.201-1.816-.29zm-2.495-.312l-.013-8.811.7.17.776.234.012 8.592c-.49-.065-.981-.127-1.475-.185zm-2.684-.298l-.012-9.161 1.663.401.012 8.928c-.548-.061-1.108-.113-1.663-.168zm-.021-15.102c5.487 1.842 11.34 4.014 17.776 6.596l.001 1.314-5.785-2.113c-2.868-.995-7.545-2.636-7.887-2.799-.405-.197-3.025-1.058-4.102-1.409zm-.005-4.443c6.098 1.787 11.777 4.507 17.541 8.415l.236.161.003 1.384c-6.431-2.573-12.287-4.74-17.776-6.575zm-1.638 19.396c-.633-3.75-2.054-6.432-3.988-9.739l.027-.168c.06-.392.119-.784.188-1.173.336-1.864.377-3.644.38-5.487.439.12.89.259 1.387.416.866.276 1.744.562 2.629.854l.021 15.356-.644-.059zm-3.03-.223c-.482-1.804-1.351-2.969-2.663-4.474.27-.424.528-.862.745-1.327.33-.699.532-1.428.687-2.161 1.561 2.736 2.648 5.022 3.204 8.09-.648-.049-1.313-.086-1.973-.128zm-6.616-.261c1.156-.927 2.356-2.033 3.358-3.356 1.038 1.201 1.755 2.17 2.186 3.557a148.594 148.594 0 00-5.544-.201zm-1.616-.024c-4.564-.035-9.387.107-14.571.436a213.88 213.88 0 00-5.856.448l.344-.081c1.39-.326 2.83-.663 4.224-1.071 1.196-.35 2.523-.51 3.805-.664a40.85 40.85 0 002.412-.34l.836-.15c2.288-.406 4.655-.827 6.776-1.798 1.055-.481 2.08-1.13 3.135-1.98 1.819-1.47 3.193-3.144 4.084-4.979.43-.88.644-1.736.87-2.642l.094-.376c.107-.423.25-.835.392-1.247.103-.301.21-.608.303-.92-.015 1.55-.083 3.064-.364 4.619-.071.397-.132.798-.194 1.2-.193 1.281-.377 2.493-.902 3.612-1.215 2.59-3.495 4.524-5.388 5.933zm-1.204-13.187c-3.118.004-6.302-.293-9.38-.582-.892-.084-1.784-.167-2.675-.244-.436-.038-.93-.079-1.43.046-.66.166-1.215.638-1.526 1.296-.312.659-.319 1.38-.021 1.98.148.298.345.538.537.771l.09.11c1.893 2.334 2.149 4.845 2.178 8.046-.45.063-.899.135-1.344.22.003-.195.004-.388.01-.581.047-1.886.097-3.834-1.011-5.651-.795-1.301-2.011-2.468-3.632-3.479-.139-.088-.283-.176-.336-.264-.051-.081-.064-.232-.074-.366-.037-.578 0-1.619.662-2.108.452-.334 1.109-.344 1.852-.36 1.821 0 3.666-.031 5.508-.059 5.642-.09 11.462-.176 17.073.608-.036.121-.083.241-.115.364l-.061.245zm-10.778 4.24c.328.195.667.395.859.674 1.281 1.858 1.265 3.785 1.245 5.824v.202c-.753.134-1.525.228-2.301.323l-.23.028c-.02-2.781-.209-5.835-2.4-8.536l-.095-.116c-.164-.197-.318-.385-.415-.581-.16-.323-.15-.742.03-1.122.18-.38.498-.66.853-.749.33-.081.714-.048 1.088-.017.888.077 1.777.161 2.665.244.163.016.328.029.492.044-1.095.437-2.228 1.034-2.74 1.778-.527 1.131.361 1.656.95 2.004zm4.788 3.476l-.001-.462c0-.534-.145-1.134-.299-1.767-.349-1.453-.521-2.432.211-2.775.27-.09 2.019-.27 2.29-.277a78.144 78.144 0 002.198-.092c1.735-.088 3.523-.179 5.177-.012-.512 1.401-1.766 2.457-3.014 3.51-.431.362-1.502 1.063-2.048 1.34-1.158.59-2.582.567-3.964.542a77.335 77.335 0 00-.55-.007zm.532 1.007c1.438.027 3.066.052 4.452-.653.607-.308 1.76-1.066 2.282-1.504 1.421-1.196 3.032-2.554 3.461-4.558l.112-.52-.539-.077c-1.908-.27-3.964-.167-5.954-.067-.736.038-1.463.075-2.168.091-.158.004-2.294.181-2.683.364-1.556.728-1.13 2.496-.787 3.919.139.574.27 1.118.271 1.537l.004 3.384c-.215.039-.43.081-.645.119v-.011c.02-2.2.037-4.277-1.422-6.393-.317-.462-.793-.743-1.174-.968-.699-.414-.674-.47-.594-.662.532-.764 2.576-1.57 4.391-2.041 2.14.179 4.304.32 6.452.317l6.039-.008c-.15.54-.316 1.071-.568 1.587-.815 1.677-2.134 3.28-3.812 4.636-.987.796-1.942 1.4-2.918 1.847-1.464.669-3.089 1.065-4.728 1.386l-.002-1.732.53.007zm-15.165-12.043a492.88 492.88 0 007.695-.102c3.313-.066 6.734-.134 10.106-.104.835.005 1.69-.002 2.554-.01 2.512-.024 5.1-.029 7.526.315-.104.55-.281 1.077-.473 1.635-5.741-.819-11.663-.732-17.393-.639-1.835.03-3.636.061-5.492.059-.718.001-1.706-.002-2.468.561-.991.733-1.126 2.019-1.063 2.97.017.271.056.56.217.82.178.289.446.457.679.6 1.47.918 2.575 1.974 3.285 3.14.958 1.569.914 3.29.868 5.113-.008.277-.01.557-.014.836-.116.029-.235.054-.351.088-1.367.398-2.792.732-4.17 1.054-.495.116-.989.236-1.482.355zm-.003-2.889a60.031 60.031 0 015.451-1.199c7.64-1.282 15.42-1.188 23.143.251l-.53 2.952c-2.509-.36-5.15-.353-7.717-.33-.855.007-1.703.015-2.536.009-3.381-.028-6.813.04-10.132.104a491.1 491.1 0 01-7.677.102zm-3.85 20.835c-.031-1.072.024-2.115.101-3.204.07-.964.141-1.96.133-2.978-.014-1.601-.353-3.168-.682-4.489-.628-2.519-1.432-5.192-2.959-7.763a64.059 64.059 0 016.236-2.133l.028 20.243c-.943.097-1.895.205-2.857.324zm-.916-3.275c-.079 1.101-.142 2.241-.103 3.41-.192.023-.385.049-.579.074-.12-3.348-.534-6.361-1.285-9.17l-.193-.74c-.604-2.345-1.504-5.758-3.427-7.4a67.67 67.67 0 012.153-.931c1.503 2.493 2.292 5.12 2.911 7.598.315 1.266.639 2.762.652 4.26.01.979-.061 1.955-.13 2.899zm-4.228 4.004c-.012-3.235-.139-6.55-2.276-9.59-1.302-1.85-2.988-4.04-4.859-5.226a66.307 66.307 0 014.77-2.523c1.906 1.242 2.833 4.784 3.443 7.152l.195.75c.74 2.764 1.145 5.737 1.259 9.05-.839.119-1.684.251-2.532.387zm-1.827.315c.068-.992.104-2.007-.137-3.027-.647-2.728-2.168-5.285-4.287-7.201-.913-.828-1.837-1.65-2.761-2.471l-.846-.753c.572-.374 1.159-.719 1.74-1.074 1.903 1.003 3.754 3.416 5.002 5.188 1.998 2.843 2.088 6.059 2.096 9.195-.268.045-.538.096-.807.143zm-1.035.184c-.534.1-1.072.208-1.61.316.2-1.711-.162-3.49-1.096-4.99-1.051-1.685-2.744-2.646-4.382-3.574l-.216-.124-.005-4.192.472.421c.923.82 1.844 1.64 2.756 2.464 1.968 1.783 3.384 4.159 3.985 6.695.23.962.171 1.949.096 2.984zm-2.658.533c-.363.076-.726.15-1.09.23a23.708 23.708 0 01-.64-1.663c-.581-1.679-1.194-3.407-2.912-4.576l-.002-1.735c1.432.815 2.869 1.685 3.725 3.059a6.772 6.772 0 01.919 4.685zm-4.631 1.093l-.008-5.814c1.015.962 1.473 2.253 1.943 3.609.18.521.378 1.053.6 1.58a98.53 98.53 0 00-2.535.625zm-.03-20.766l8.203-.011a67.774 67.774 0 00-8.196 4.541zm-2.125 21.346l-.029-21.342 1.135-.003.028 21.04c-.378.104-.755.197-1.134.305zm50.951-25.025c.055.012.11.019.164.03 1.324.27 2.615.595 3.893.945l.006 3.333c-.778-.256-1.55-.508-2.314-.75a30.53 30.53 0 00-1.705-.487c-.004-.36-.02-.731-.043-1.112a14.773 14.773 0 01-.001-1.959zm22.848 3.579l.007 5.053a67.769 67.769 0 00-8.879-5.041zm7.741-.04h-1.094v-.968l-17.706.022v.01a59.891 59.891 0 00-11.416-3.552c-8.249-1.69-16.573-1.852-24.745-.479-4.707.788-9.399 2.184-13.943 4.092l-15.862.021v1h-1.171v.002l3.347-.003.03 21.655a85.78 85.78 0 00-3.377 1.094v1.06c11.341-3.99 23.2-5.285 33.023-5.908 14.36-.91 26.014-.434 36.673 1.502 6.023 1.093 11.416 2.51 16.241 4.262v-1.06a84.235 84.235 0 00-4.31-1.413l-.03-21.303 4.34-.005v-.03m11.313 4.981a5.44 5.44 0 00-1.24-.235v10.421a5.194 5.194 0 001.24-.236v-9.95m-3.242 9.95c.397.127.81.207 1.24.236v-10.421c-.43.03-.843.11-1.24.235v9.95m1.24-14.93h-1.24v3.809a6.564 6.564 0 011.24-.188v-3.621m5.724 9.956c0-2.048-1.213-3.808-2.96-4.672v9.345c1.747-.865 2.96-2.624 2.96-4.673m-10.684 0c0 2.049 1.212 3.808 2.959 4.673v-9.345c-1.747.864-2.959 2.624-2.959 4.672m5.722-9.956v3.621c.427.025.84.085 1.24.188v-3.81h-1.24"/><path d="M339.327 432.765v-6.868c-2.4-.933-4.103-3.224-4.103-5.914 0-2.691 1.703-4.98 4.103-5.915v-4.041h-8.404v23.43a79.429 79.429 0 018.404 3.346v-4.038"/><path d="M330.923 378.89v30.165h21.572v.972h-8.403v4.041c2.401.935 4.103 3.224 4.103 5.915 0 2.69-1.702 4.981-4.103 5.914v13.375c3.067 1.748 5.873 3.679 8.404 5.817v-59.645l-21.573-6.555"/><path d="M343.33 426.13a6.656 6.656 0 01-1.24.189v11.853c.418.219.833.439 1.24.664v-12.705m-2.002 11.653v-11.465a6.673 6.673 0 01-1.24-.188v11.021c.424.204.827.421 1.24.632M230.57 420.097c0 2.05 1.211 3.808 2.958 4.674v-9.346c-1.747.864-2.959 2.624-2.959 4.672m4.961-5.21c-.43.03-.843.11-1.24.234v9.951c.397.125.81.207 1.24.236v-10.421"/><path d="M233.528 431.381v-5.369c-2.4-.935-4.103-3.224-4.103-5.915 0-2.69 1.703-4.98 4.103-5.916v-4.008h-8.955v35.42a33.55 33.55 0 011.367-1.225h.183v-.156a29.183 29.183 0 012.694-2.01 66.873 66.873 0 013.584-2.178c.414-.29.784-.53 1.127-.744v-7.899m2.002-4.948a6.642 6.642 0 01-1.24-.188v12.596c.349-.178.765-.376 1.24-.585v-11.823m5.722-6.336c0-2.048-1.21-3.808-2.957-4.672v9.346c1.746-.866 2.957-2.624 2.957-4.674m-3.72 6.148a6.64 6.64 0 01-1.24.188v11.492l.72-.301c.173-.081.348-.155.52-.235v-11.144"/><path d="M238.295 414.181c2.4.936 4.102 3.226 4.102 5.916 0 2.691-1.702 4.98-4.102 5.915v11.031a81.334 81.334 0 018.956-3.444v-23.426h-8.956v4.008m-13.722-28.611v23.6h22.678v-30.157l-22.678 6.556m9.717 24.604v3.778c.4-.103.814-.164 1.24-.188v-3.59h-1.24m2.002 0v3.59c.427.024.84.085 1.24.188v-3.778h-1.24m1.24 4.948a5.427 5.427 0 00-1.24-.234v10.421c.43-.03.844-.11 1.24-.236v-9.95"/></g></symbol><symbol fill="none" viewBox="0 0 65 42" id="ghm-main" xmlns="http://www.w3.org/2000/svg"><path fill-rule="evenodd" clip-rule="evenodd" d="M37.29 4.264l.23-.103-.127.369.337-.315-.04-.187.076-.166c-.274.066-.408.1-.476.402zm.242-.153c.008-.008.02.02.02.02s-.028-.012-.02-.02zm-1.586 1.008c-.35.008-.325.249-.535.41l.043.021.12-.1a4.863 4.863 0 00-.719 1.573l-1.122.29-.035.224 1.574-.207c.226 0 .77.025.77-.203v-.2h-.386c0-.684.635-1.875 1.016-2.17l-.056-.04c-.016-.017-.032.05-.04.058a.529.529 0 01-.043.053c-.036.042-.056.059-.095.1-.08.083-.143.141-.219.224-.11.129-.241.37-.325.519-.11.199-.432.962-.432 1.256-.095.054-.143.1-.29.1h-.19c.064-.784 1.186-2.373 1.777-2.514.055.174.365-.211.44-.328-.389.05-1.174.623-1.253.934zm-.321.365l.186-.353.063.058-.25.295zM33.408 7.86c.813-.141 2.439-.386 3.267-.415l.064-.075c-.793.03-2.213.179-3.065.295-.25.016-.226.157-.266.195zm10.544-.63l-.028.22c.19.024.389.07.58.173.063-.249-.39-.356-.552-.394zm-5.65-2.465l.11-.348-.11-.004.055-.403c.143-.041.214-.041.04-.103l.079-.245.456-.013c-.278.195-.5 1.125-.63 1.116zM35.034 8.98l-.607.095.004.245-.61.1-.005-.233c-.463.054-1.709.407-2.14.552-.151 0-.282.14-.334.261l.278-.05.107.092 2.113-.245c.107-.017.131.02.199.058l.138-.108c.004.253.048.349.242.402h.29v.1l.134-.004.056-.15h.19c-.027-.111-.011-.149-.142-.149l-.627.063v-.2l1.717-.112-.036-.838-.967.12zm8.264 1.066h.19c-.056-.083-.008-.1-.143-.1h-.19c.055.083.004.1.143.1zm.23.062l2.859.236-.242-.132-2.554-.253-.063.149zm-7.872-.162h-.527c.028.112.012.15.143.15.123 0 .115-.013.19-.05 0 0 .091.05.095.05.147 0 .206-.07.242-.204-.055.038-.051.054-.143.054zm-4.468.365l-.108.228c.163.05 2.066-.398 2.17-.344.04-.029.118-.1.142-.1.008 0 .258.183.286.2l.146-.046c-.008-.402-.329-.22-.769-.203l-1.867.265zm2.692-.215l.242.05c-.008-.1.004-.204-.095-.204-.12.004-.147.037-.147.154zm1.97-.05c0 .133.068.15.143.203v-.303c-.07.017-.142.013-.142.1zm11.19.469l-.197-.258-.215-.033-.202.067.615.224zm-13.307.136c.04.146-.02.096.095.05.016.195-.027.154.143.2l-.004-.312-.234.062zm-8.311.353l.726.02c-.02-.248-.595-.315-.821-.198l.095.178zm-1.681.05h.142c0-.282-.142-.282-.142 0zm21.579-.013c.69.141 1.011.465 1.067 1.087.004.05.194-.336.218-.29l.008-.958-.417-.129-.02.075-.864-.117.008.332zm-19.081.013l.428.066.087.12-.52-.087v.954h.48c.04-.178.096-.236.096-.452l-.004-.444-.091-.074.765.153v-.174a6.062 6.062 0 00-1.28-.24l.039.178zm-3.652.249l.245.02-.245.08v.804h.527v-.938l-.23.046-.147-.033.385-.108.008-.124-.016-.046c-.297.025-.52-.008-.527.299zm-5.817.162h.19l.004-.867-.179-.125-.015.992zm1.344 0h.079l.004-.838h-.08l-.003.838zm.388-.009h.08v-.676h-.08v.676zm2.887-.933l-.166.162-.171-.034-.119.162-.222-.016-.071.124-.23.033-.004-.352-.068.004-.004.464-.32.112-.35.166-.016-.742-.067-.008.004.846 1.289-.519 1.237-.535-.722.133zm-2.443.942l.068-.013v-.817l-.068.012v.818zm3.018-.059c0 .112.04.112.095.204h-.095v.655h.527v-.805c-.142.034-.281.108-.408.146l-.004-.092c.266-.087.389-.05.409-.303h-.19c-.136-.008-.334.092-.334.195zm1.25.349l.142-.05v-.253h-.143v.303zm5.436.004l-.44-.104v.403h.575l-.016-.154.016-.352-.088.004-.047.203zm-1.023-.353l-.088-.004v.303c0 .125.373.353.433.353h.19l-.004-.486-.428-.166c.253 0 .234.054.285-.145l-.5-.095.112.24zm-2.213.726l.587.025c.11 0 .142-.033.142-.15v-.903h-.337c-.13 0-.305-.009-.368-.03.09.312.055.693-.024 1.058zm1.451-.025h.385c.11 0 .242-.132.242-.253l-.028-.49-.587-.107-.012.85zm-3.652-.954l.19-.066v.1l-.19.066v.1c.135.012.19 0 .19.149v.15c0 .153-.055.14-.19.149v.402h.19c.167 0 .187-.038.35-.05l-.06-.601c-.024-.224.246-.395-.194-.407l.186-.108.04-.216-.516.125v.207h.004zm23.495 1.166l.329-.025.008-.145h-.337v.17zm.432.07l1.59-.107.238-.12h-1.82l-.008.227zm2.308-.232h-.385v.299l1.943-.046.004-.344c-.067.037-.777.091-.892.091h-.29c-.122 0-.114-.012-.19-.05-.067.038-.08.05-.19.05zm-28.11-.249v.353h.527v-.606l-.345.096v-.1l.345-.095v-.204c-.385.096-.527.187-.527.556zm3.299.303h.067v.1h.143c.599-.262.535-1.02.384-1.257l-.194.012-.4.009v1.136zm-.464 0h.392v-1.136l-.507.008.083-.066.424-.009v-.199l.072-.033v.228l.21-.004.15-.042c.052-.074-.015-.153-.174-.207a.866.866 0 00-.642.141c-.353.249-.508.838-.008 1.32zm17.994.174l.167.075-.024-.228-.143.153zm.266.278l.202.004-.055.146.246.236-.004-.29-.385-.345-.004.25zm-33.792.22c.051.224.896.133 1.26.133.04.029.12.1.143.1.155 0 .187-.142.238-.262l-1.642.03zm1.788.432l.135-.005.06-.248c-.203.02-.195.033-.195.253zm2.546-.295v.344h.242c-.02-.261-.116-.394-.39-.373l.148.029zm-.381.348h.29v-.302c-.163.041-.25.132-.29.303zm43.75.025l.531.274.115-.14-.504-.3-.142.166zm-12.995.536l-.004.19h.143v-.249l-.139.059zm-13.601.294l.147-.058.19.058c-.051-.079-.063-.15-.19-.15h-.143v.15h-.004zm9.866-.2l.682-.024 2.272.299v-.042l-2.272-.303-.682-.037v.108zm16.948.316h.047l-.004-.17h-.047l.004.17zm1.63.486l.511.024-.048-.054-.46-.22-.004.25zm-12.444-1.07h.242v.115h-.242v1.506h.337c.183 0 .016-.016.143.05l.012-2.472-.167.419v-.303l-.325-.104v.788zm-34.74 1.837h1.788v-.079h-1.788v.079zm-.551.589l.416-.104-.103-.145.048-.452h-.242l-.12.7zm34.585-.855h.175l.008.117h-.183v.136c0 .191-.055.32-.154.403l-.056-.2c-.186.133-.29-.008-.29.204v.203h1.008v-.1l.147-.012-.151-.24v-1.962h-.048l-.384.551v-1.26l-.08-.109v2.27h.008zm-2.288 1.49l.254.07v-.655h-.254v.585zm-27.353.095h.08l.027.51.35-.253-.024-.253h.38l-.44-.556-.373.552zm29.867-.025h.242v-.605h-.242v.605zm-.721-.15c0 .2.416.187.555.204l-.024-.655h-.527v.452h-.004zm-34.019-.439v.693h.817v-.763l-.817.07zm2.006.689h.298v-.602l-.298-.012v.614zm4.553-.204l.36.034v.253l.14-.034v-.253l.25-.008-.35-.46-.4.468zM3.462 15.58c-.012.142 0 .204-.143.204-.1 0-.087-.104-.095-.204h.238zm10.618 2.08h.864v-.116h-.864v.116zm-.385.083h.143v-.552h-.143v.552zm3.795-.448l-.38.248c.07.278.17.05.527.05v-.452l-.202.004.055.15zm-8.264.448c.155-.005.242.016.242-.15v-.203c0-.166-.095-.19-.242-.203v.556zm35.942 0h.385v-.652h-.242v.606h-.095v-.606h-.048v.652zm-33.777.406h.29c-.052-.195-.064-.195-.29-.203v.203zm16.631-2.92c-.59.041-.293.274-.44.41l-.004 2.46.119.245.464.008v-.706h.575l.008.701.424.063c.087.004.127-.187.147-.262h-.143v-.303c0-.215-.095-.203-.095-.352 0-.137.067-.195.143-.253v.1h.19v-1.967h.095v-.1l-.182.096-.064-.15-1.237.009zm1.241 2.012c-.083.091.088-.087 0 0zm-18.688.452h-.19v-.15c0-.182-.132-.402-.29-.402h-.242v.552h.242v-.203h.143v.402h-.48v.655h.674v-.605h.095v.605h.817v-.655h-.77v-.2h.722v-.55h-.721v.55zm1.633.655c0-.174.096-.074.096-.253v-.203h-.385v.353c0 .136-.024.136-.048.253h.337v-.15zm1.392.253h.08v-.352h-.08v.352zm4.759-.05l-.147.054.139.208.008-.262zm-2.598.453h.337c-.02-.075-.008-.15-.095-.15-.127-.004-.186.07-.242.15zm16.31.037l1.887-.008.02-.087-1.911.008v.087h.004zm-21.794-.133l.103-.004v-.153c0-.116-.031-.15-.143-.15h-.48v.705h.627l.008-.257-.115-.14zm.25.295h.095v.1h.432v-.1h.143v.1h.143v-.656h-.817v.556h.004zm1.634.05v-.15h-.337v.203h.575v-.05h-.238v-.003zm4.877.891l-.008-.215-.162.215h.17zm-7.09-.738c.016.041.048.187.048.253v.485h.92c.115-.058.32-.24.475-.286v-.303c0-.116-.031-.149-.142-.149h-1.3zm-8.605-2.107c2.713.008 3.256-.03-.234-.075l4.41-.033.158.257-4.334-.15zm.488.294c1.776.046 1.491-.066-.242-.112l1.824-.033v.24l-1.582-.095zm38.741-6.728l.044-.145.143.004-.091.141h-.096zm-1.407 1.647c0 .045 0 .087.004.124h.285v.888h-.36v-.265l-.056-.15.02-.05.035.034v-.453h.072v-.128zm1.578 1.83l.293.032v.1l.096.016.003-.215-.384-.05-.008.116zm-1.265-.631l.135.033v.108l.036-.058 3.053.427.154.062.151-.054-.123.174.02.129h-.238v-.15h-.095v.1l-1.436-.19.032.062 1.356.182.203.187-1.646-.191-.143-.05-.48-.05v-.1l.254-.061-.349-.042c-.079-.195.092-.158-.337-.153-.174 0-.353 0-.547-.005v-.36zm15.108.103l.575.005v.053h-.242v.03l.234.004.008.215-.579-.004v-.153c0-.083.064-.05.29-.054l.004-.038h-.29v-.058zm-14.604.307h.29v.05h-.29v-.05zm13.878.054h.389v.17h-.389v-.17zm.44.166v-.17h.19v.17h-.19zm1.162 0l-.016-.174.409-.004.008.178h-.4zm-15.98-.145l.837.079v.15l-.837-.055v-.174zm-8.93.257l1.02.02.277.109-1.27.012-.027-.14zm-3.93.125h.385v.149l-.385.05v-.2zm14.006.029l.357.041.004.083h-.242v.05l.686.075.282.22.043-.046v.199l-.59-.079.015 6.629.139.493-.718-.004V20.11h.095l-.103-.298.103-.005v-.103h-.095l.091-.452h-.138c.023-.112.055-.129.047-.204l-.043-.402.004-1.448-.123-.112v-.1l.115-.099-.052-.261v-1.178l.1-.27-.06-.299c-.325.005-.278.12-.274.502l-.004 6.397.087.004.167.485h-.956v-4.92l.27.059-.266-.224.024-2.261c.147-.083.333-.079.504-.042l.11-.165.151.087.27-.195zm8.331.22h1.785v.05l-1.785.306v-.357zm5.294.099c-.159 0-.139.091-.143.253h-.095v-.15c0-.111-.04-.111-.095-.203h.143v-.253h.095v.254h.65v.099h-.555zm2.669-.008l-1.805.008c.012-.075.056-.1.143-.1h.095c.091 0 .087.017.143.05.075-.058-.1-.05.095-.05l1.325-.008v.1h.004zm-2.043.029c-.023-.174.02-.129.23-.12-.055.207-.087.066-.23.12zm-1.875.182h.94v.05h-.94v-.05zm1.162 0h1.332v.083h-1.332v-.083zm1.384 0h.483v.083h-.483v-.083zm.515.013l.155-.013-.012.162-.143-.15zm-13.153.087v-.1h.095v.1h-.095zm-.714.713l-.008 3.564H42c-.024.112-.048.116-.048.253v2.02l.127.485h-.464v-4.169l-.103-.145.008-2.17h.095l.004-.501.151.008c.508-.033.428.535.428.655zm9.41-.56h-.29v-.149h.29v.15zm1.42-.103c.281-.009.29-.216.356.054l-.376.004.02-.058zm-1.71.253c.179.016.179.016.19.203-.174-.017-.174-.017-.19-.203zm5.12.203l-.04-.066.587.008-.016.058h-.531zm.745-.203l.25.14c-.04.154-.055.096-.055.212 0 0 0 3.738.016 3.82h-.19v.204l.193-.041.008.394-.345-.025-.02-4.596.147.149v-.257h-.004zm-.963.1c.107.028.143.012.143.149v.149h-.143v.15l-.183.003.016-.352.167-.004v-.096zm.721.306c-.043.195-.103.299-.29.349v-.1h.144l.004-.19.142-.059zm-.904.216l.381.033.024 4.044-.417.038-.031-.544.079-.448v-.435l.012-.564-.056-.602-.023-.518.023-.457.008-.547zm-32.73.017v.265c0 .079.016.286.028.523h.194v-.788h-.222zm33.25.364c.174.133.055.042.047.353l.226-.278.111-.025-.103.349h-.186l-.095.15v-.548zm1.154.154h.19l-.056.15.116.095-.072.41c-.123-.008-.178.005-.178-.149v-.506zm-36.105.386c.084.15.068-.025.068.166 0 .294-.127.68-.29.804l.095-.253-.051-.199.027-.058-.063-.468.214.008zm2.633.556v.97h-1.174c.012-.149.036-.253.19-.253h.37v-.717h.614zM34.268 18.9h-1.832v-.15h1.943l-.111.15zm9.267.083l.527.062.194-.012v1.933h-.142v-1.407h.095l-.012-.062-.187.038-.618.008-.242.016v-.477l.385.1v-.2zm2.787-.004l.218-.004-.04 1.99h-.035v-.402h-.048v.403h-.047v-.502l.095-.025v-.174l-.06.004-.051-.755h-.274v.552l.012.402-.012.502h-.095v-1.92l.337-.071zm-1.106.004l.48.058v1.925h-.143V19.51l-.353.1.016.061-.286-.066v.42h.433v.115h-.433v.83h-.142v-1.933h.242c.107 0 .107.041.19.1v-.154h-.004zm3.295.53v-.003l.25-.054-.131.203c.294.15.052.1-.087.03v.132h.357v-.544h-.389v.237zm-24.914.246v.253l-.143-.05v-.2h.143v-.003zm25.223.402a.88.88 0 01.076-.232h-.459v-.749h.016v-.54h-.016v-2.665h.028v-.161h.559v.792h-.032v1.928h.016v.746h-.016v.643h-.008a.798.798 0 01.024.232c0 .004.127.216.142.253h-.142v-.1l-.139.058-.206-.253.158.046zm-20.516.05h.29c-.029.112-.013.15-.144.15h-.142v-.15h-.004zm20.084-.154h.095v.253h-.095v-.253zm-4.707.755c-.087.091.084-.087 0 0zm-.559-.759h.036l.04.257h.432c.13 0 .13-.025.242-.05v.706h-.385l-.028-.058.361-.204c-.028-.107-.008-.145-.143-.145h-.142v-.15h-.337v.15h.241v.1h-.329l.012-.606zm3.537.307h.77v.253c0 .116.031.15.142.15h2.26v-.353h.096v.253c0 .174-.084.07-.143.303h-2.308l-.02-.203-.028.203h-.674c-.023-.295-.095-.104-.095-.303v-.303zm-4.564-.705h.095v2.61h-.095v-2.61zm1.007 1.31c0-.22-.027-.107.096-.202v.203h-.096zm-4.87-18.87h.128v.64l-.127.066v-.705zm1.028.017l.067-.066v.734h-.067v-.668zm.222-.07h.127v.747h-.127V2.04zm-9.136 11.876l.166.377.103-.008.341-.091-.174-.054.301-.228-.737.004zM22.32 10.33l1.939-.481c2.236-.08 3.493.315 4.425.771l.08.07c-.944-.232-2.982-.85-4.29-.613l-2.309.415.155-.162zm15.89-8.72h.138v.258h-.139V1.61zm-.14.009h.076v.224h-.076v-.224zm-.349.029a.074.074 0 01.06 0v.265l-.06.058v-.323zm5.98 6.38c.167.02.416.108.583.186l-.016.776-.23-.037.016-.668-.353-.257zm-8.99.004l-.015.008.043.02.04.034.036.042-.012-.005h-.035l-.091.03-.008.107-.055.096.011.149-.055.137.091.15.036.082.099.013h.032l-.036.037-.04.029-.04.017-.043.004V8.92l-.103-.042-.087-.187-.02-.182-.008-.183.056-.17.09-.083.116-.041zm-13.16 2.364h.372v-.365h-.73v.345l-2.961-.191-.448.365 3.477-.067.29-.087zm7.18.262h.838v-.365h-.837v.365zm6.504-2.128l.103.273.218-.02-.265-.245-.056-.008-.285-.47-.12-.016c.108.15.147.41.088.693l.317-.207zm2.91-7.023l-.158.004-.004.348c-.127.021-.194.083-.266.191l.032.054.21.054v-.1h.143l-.004-.053 1.543-.021.04.162c.114-.005.28-.05.348-.158l-.008-.328c-.539-.045-.258-.394-.61-.767-.35-.37-.433-.141-.492-.892-.036.008-.06.012-.08.029-.035.15.052.274-.114.548-.282.224-.5.327-.58.929zm4.164 6.35c.17.13.195.556.032.801l.242-.058.186.2-.087-.511-.13-.407-.243-.024zm-.396.361l.357.034.008-.038-.08-.108-.004-.078-.071-.058-.044-.075-.087-.025h-.044.004l-.004.004.032-.041.032-.033.044-.021.063-.009.182.088.068.199.028.182-.028.183-.072.15-.09.099-.088.037-.063-.004-.04-.017-.028-.029-.028-.037h-.004.037l.139.025.099-.12.012-.15.016-.083-.35-.033v-.042h.005zm1.63-.22l.234.175.007.71-.253-.067.012-.817zm-3.938 2.054l-.008-.004v.004h.008zm1.804 1.352l-1.146.871v-.09l1.126-.814.02.033zm.032.307c-.091 0-.179.062-.238.166a.875.875 0 00-.107.42l.119.402c.063.103.13.182.222.182l.238-.166a.832.832 0 00.103-.419.843.843 0 00-.103-.419c-.06-.104-.143-.166-.234-.166zm2.875.884l.071.108-.008 4.43-.051-.249-.012-4.29zm-.762-.112v.937H43.4v-.31l-.056.057v-.1h.056v-.593l-.068-.004c-.158-.004-.313-.012-.46-.012h-.011v-.062l-.127-.063h.142c.75.013 1.503.063 2.249.137v-.186l.337.079v.145c.281.033.654.107.888.145l-.127.083c-.23-.033-.488-.07-.761-.1v.399l-.333-.025-.004-.411c-.314-.033-.643-.058-.972-.083a28.59 28.59 0 00-.599-.033zm-2.204 7.189h.11l.005 2.592h-.111l-.004-2.593zm2.978 1.87v-.298l-1.234.033v.299l1.234-.034zm.376-.298v.265l1.844-.128v-.17l-1.844.033zm10.949-7.99l1.225.672.02-.004v.013l.091.05-.095.004c-.012.116-.036.116-.187.132.004-.058.004-.095.008-.12l-.123.008-1.344-.709-.31-.03.255.262-.12-.004-.697-.27-1.25-.008v-.137c-.261 0-.51-.004-.769-.004l-.003-.684-1.345-.88.38.009 1.31.82h.015v.01l.008.003-.008.013.004.564 2.538.004.397.286zm-15.437-.435l1.36.228v-.017h.047l.008.183h-.047l-.012-.07-1.356-.204v-.12zm-.008-.104l1.09.187-.008-.004-.008-.005a.413.413 0 01-.13-.145.882.882 0 01-.116-.452l.036-.265-.258.033-.61.46v-.103l1.193-.855.024.05-.063.05a.28.28 0 01.222.025l-.159-.137.067-.063.766.718-.02.033-.393-.332-.11-.066a.881.881 0 01.114.452l.084.44-.155.162-.278.037 1.202.199.075.062-2.561-.415-.004-.066zm11.317 2.053h-.163l-.004.067-.063-.067h-.333l-.123.108h.095v.253c0 .116-.032.15-.143.15-.162 0-.115-.083-.214-.191l.111.236-.139.407h.242v-.15l.143-.203.325-.211.163-.146-.056-.149h.29l-.008.133.384-.133-.047.332-.234.12.36.013-.36.53.06.009.562-.71-.226.154-.06-.552h-.479a.182.182 0 01-.083 0zm4.774.353h1.463l-.091.104-1.372.012v-.116zm-3.307.286h4.27l-.063.116h-4.318l.11-.116zm-.075.274h3.116v.05h-3.116v-.05zm.46 4.356l.701.024-.055.17h-.646v-.194zm-1.765.02l.757-.037-.011.212h-.698l-.048-.175zm-2.375.004h1.197v.17h-1.197v-.17zm-.726-3.857l.389.402v-.012h-.389v-.39zm0 1.05h.389v-.54l-.381-.013-.008.552zm0 .63h.389v-.523h-.389v.523zm0 .643h.389v-.56l-.377-.013-.012.573zm.016.647l.389.012v-.614l-.39.025v.577zm.864-2.41h.195v.34h-.195v-.34zm.012-.618h.195v.34h-.195v-.34zm-2.752 2.87l1.666-.07v.095l-1.666.008v-.033zm.028.357l1.618-.07v.095l-1.618.008v-.033zm-.032.39l1.71-.058v.095l-1.71-.004v-.033zm2.47-.772l1.666-.07v.095l-1.665.008v-.033zm-.007.345l1.665-.071v.095l-1.665.009v-.034zm-.004.402l1.665-.07v.095l-1.665.008v-.033zm-2.415-7.956l4.306-.162v.212h-4.306v-.05zm0 .195h4.318v.054h-4.318v-.054zM33.67 8.586l.142-.14-.003.61-.14-.013v-.456zm-1.765 4.468l-.234-.406h-.46l.694.406zm-12.487-.029l.004-.091.678-.203-.257.157.122.038-.162.24-.004-.216-.297.137-.084-.062zM32.6 19.34l.127.012-.127.067v-.08zm0 1.087v-.939l.674-.104v.996l-.083.004-.083.004-.084.004-.083.004-.083.005-.083.004-.084.004-.09.017zm0 1.713v-1.561l.083-.004.084-.004.083-.005.083-.004.084-.004.083-.004.083-.004.083-.004v1.559l-.083.005-.083.004-.083.004-.084.004-.083.004-.083.004-.084.005-.083.004zm-.48-1.684v-1.15h.127l.234.025v1.094l-.043.005-.044.004-.044.004-.043.004-.044.004-.044.004-.043.005h-.056zm.088 1.767v-.195l-.088-.25v-1.169l.044-.004.044-.004.043-.004.044-.005.043-.004.044-.004.044-.004.043-.004v1.558l-.035.017h-.044l-.044.004-.043.004-.044.005-.044.004-.043.004.036.05zm-7.76-2.211c.043-.075-.306-.116.083-.145l.055.145h-.139zm-1.991-4.078h-.302v.112l-.333-.062v-.253c-.099.07-.182.211-.29.211l-.8.013.024-.39-.278.261c.087.191.095.606.29.606h.142v.203c0 .195.274.672.385.755l.19-.904.512.543h-.214l-.012.967c0 .14-.036.12-.167.161l.12.241-.354.232.012.531 1.638-.008.004-.066.733.041.175-.178v.203h.143c.11 0 .142.033.142.15v.024h-6.059v.054h6.063v.274c0 .166-.087.145-.241.15.015.07.04.136.067.203h-1.94v-.054h.1l-.1-.2h-.284v.2l.134-.038.103.096h-.226v.054h2.24c.052.124.104.244.104.344v.353a1.56 1.56 0 01-.266-.063 7.329 7.329 0 00-.952-.315 1.49 1.49 0 00-.158-.041c-.373-.092-1.146-.233-1.555-.233v-1.46c0-.153-.142-.166-.142-.352l.166-.237-.004-.498-.31-.473h-.241l-.016 1.9c0 .116.393.162.397.162l-.04.51-.1.145.04.336h-2.303v-.485c0-.182-.175-.162-.337-.203-.056.211-.096.087-.096.253v.435h-.142l.012-1.02.134-.116c.088.062.084.1.19.1h.243v-.503c0-.157-.088-.14-.195-.203l.052-.253h-.19v.203h-.096v-.203h-.142v-.104l.293-.004-.321-.373.047-.05.556.527c.281-.158.71-.328.721-.755h.143v-.253l-.658.017.57-.56.207.539-.075.605h-.19c-.183 0-.255.283-.445.357l.032.228-.167.274h.337v.145h-.337v.415l1.392-.062c0-.635.091-.357-.77-.357v-.145h.94l.036-.452h-.142l.142-.29v-1.876h-1.84c-.198 0-.412.117-.467-.016h-.448v.008l-1.107.062h-2.593v2.514h2.605v.1h-2.605v.402l.527-.012 1.21.008.087.257h.242c.028-.112.047-.203.19-.203h.048c.261 0-.02.17.337.203l-.004-.24-.198-.07.198-.192.008-.303v-.199h-.095v-.203c0-.166-.365-.415-.532-.436-.246-.033-.733 0-1.007 0v-.116h.813l-.056-.149.044.017.115-.183.33.311h.72v.05l-.622.05.242.307.19-.058c.112.157.19.079.19.253v.203h-.142v.253h.432v.083h-.432v.469c.155-.08.912-.154.912.1v.655h-.912l.004.236h-.301l.107-.236h-.385v.236H15.7l.158-.182h.338v-.15h-1.392c-.167 0-.33.166-.33.336h-.047v-.738h-.432l.031.203.016.535h-.143v-.286c0-.174-.035-.195-.047-.353h-.19v.64h-1.848v-.74h.928v-.252c-.088-.02-.48-.203-.48-.203-.167 0-.186.037-.337.05l-.095-.1v-.1h.095v-.116l.912.017v-.204c-.202.058-.083.1-.242.1h-.143v-.705h.242v-.091h-.242c.036-.453.179.074.242-.278l.083-.058.635.132v-.207l.19.058.008.187-.575.12v.137l.416.008-.281.701h.313l.214-.697h.195c.011-.157.047-.178.047-.352v-.552h-.38l.04-.162-.187.17-.54-.12.207-.166.456-.116.083.207.063.004.16-.419h-.243c.06-.09.095-.087.095-.199v-.705h-.19c-.198 0-.242.228-.238.444l.19.058-.15.025-.377.577v-.303l.036-.05-.083-.05v-.203c0-.158.087-.29.142-.402h-.143v-.154l-1.007.013-.817-.013v-.1h2.982l.044.154 6.356-.05v-.502l-.067-.079-.032-.132-1.407.02-.385-.012h-.432v-.017H17.7l-.012.316.04-.03-1.538-.02v-.046l1.296-.054c-.055-.083-.008-.1-.143-.1l-.047.005-1.872.033-.864-.037v.203h-.095v-.15l-.143.013-.77-.012v.253h-.337l-1.494.045-.14.108c-.3-.274-1.07-.091-1.443 0v.1h.29l-.194.954.119.004-.12.398.108.004-.107.3h-.48v-1.32c0-.137.024-.137.043-.261l-.15.058.04-.166-.171-.183-.246-.029.15-.02v-.137l-.48-.063c.211-.19 3.61-.149 4.228-.149 1.412 0 2.803-.1 4.294-.112l-.023-.05h2.034v.009h.71c.107 0 .107-.042.194-.104l.385.05.047-.038 8.458-.116v.1h.143l-.008.29-.047-.008-.143-.232-.084.004.135.27-.087.003-.091-.277h-.198c.067.103.142.136.142.273h-.297c-.111-.153-.345-.029-.472.025v-.303h-.242v.15h.143v.1l-.424-.005-.06-.249h-.08l-.015.303h-.095v-.303c-.056-.016-.131-.05-.143-.05-.111 0-.055.017-.19.05v.303h-.96v.398l.579.004c.13.046.214.166.246.357l-.004 2.51-.095.253h-.433v-.705h-.626v.717l-.452.009-.08-.411v-2.618h-.098v-.103c.122.062.864-.021.864-.25v-.149h-.527v-.045l.721-.004h.29v-.204l-.674.005h-.29l-.678-.013-.139.108c-.087-.062-.083-.1-.19-.1l-.095.009-.337-.009c-.14.005-.159.1-.29.1-.09 0-.032-.1-.19-.1h-.242v.1-.062l-2.256.012-.35.004-.182.005-.012.294v.514l1.805-.05v.544h-.004zm1.907 4.833v-.701h.238l.044.116.051-.021c-.008-.041-.02-.07-.028-.095h1.638l.072.145h.241a.72.72 0 00-.027-.145l5.075.066.064-.116h-2.824c.024-.03.04-.067.068-.104h-.333v.104H26.58c-.032-.087-.083-.154-.147-.154-.08 0-.143.03-.143.1a.25.25 0 00.008.054h-.65l-.028-.054c.044-.025.095-.033.095-.1 0-.045-.051-.1-.095-.1-.083 0-.166.158-.218.258h-.738a.633.633 0 01-.008-.104v-.15h-.289v-.372h1.848l.028.224h.234l.04-.22h.447c.012.19.06.215.286.224v-.224l4.425.066.032-.116H27.25v-.025h-.194l.003-.166.381.116v-.551l-.809.004-.051.128.147.183.233.27v.024h-.436l.004-.024-.297-.005.15-.186.262.087-.162-.444h-.96c.06.091.095.087.095.203 0 .212-.178.083-.254.278l.821-.087.02.174h-1.646v-.108h.619c.111 0 .19-.05.19-.17V18.9l-.19-.203-2.252.05c.012-.158.047-.179.047-.353l-.012-.1.012-.402-.012-.15.012-.402v-1.41h-.016v-.552h.016v-.203h1.467c.147 0 .31.15.31.303v2.617c0 .2-.19.154-.19.353v.15h4.516c.127 0 .143.074.17.107h-.003l-1.488.041h-.075c-.19 0-.147.25-.19.453l.265.024H29l.261-.078.286.079h1.733l-.155-.523h-1.657c.047-.162.075-.108.325-.108l.19-.1v.1l.48-.025.77.025.289.705h.329v1.46h-7.487v.009zm-.54-4.692l-.059-.133.04-.419-.182-.02v.572h.202zm-.035.888c.02-.262.04-.523.044-.788h-.21v.788h.166zm-.024-1.585l.143.042.004 2.078h-.147c0-.15.008-.299.016-.444h-.158v.083h-.092v-.083h-.19c.016.415.008.888-.127.987v-2.667h.095v.693h.222v-.585l-.166-.02-.008-.092.408.008zm14.47-3.103h-.024v-.312c0-.091-.016-.07-.103-.07h-.278c-.138 0-.17-.038-.17.112v.235h-.032l-.028-.091v-.045.008-.086c0-.183-.539-.183-.539 0v.128c-.012.037-.012.066 0 .091v.021h-.064v-.24c0-.158-.048-.112-.195-.112h-.436v.07a.564.564 0 000 .182v.108h-.063v-.202a.213.213 0 000-.113v-.054c-.183-.029-.393-.033-.508 0h-.08v.356h-.058.044v-.04c0-.046.012-.088.012-.133l-.012-.021v-.162h-.631v.349h-.065v-.349h-.375c-.122 0-.23-.054-.23.091v.258h-.064v-.249c0-.137-.075-.091-.194-.091h-.397c-.06 0-.04.037-.04.09v.258h-.011.023-.047v-.041.017-.055.013-.054.012-.054.013-.054.012-.054.013-.054.012c0-.1.016-.083-.115-.083h-.516v.415-.124.107-.398h-.127v-.045.004-.017h.128v-.075.009-.042h.063v.129h.516l.114-.05v-.029h.044-.06.016v.029c0 .042-.012.05.04.05h.397c.055 0 .194.033.194-.033v-.042h.063v.042c0 .066.175.033.23.033h.397v-.091h.063v.066h.036c.174.012.345.017.52 0h.035-.008v-.066h.064v.066h.586v-.066h.064v.066h.436c.04 0 .194.02.194-.02v-.047h.064v.05c0 .034.539.034.539 0v-.049h.064v.049c0 .042.13.021.17.021h.214-.016.036c.047 0 .103.025.103-.029v-.05h.064v.042c0 .054.483.029.53.029.084-.004.148.054 0 .058-.078 0-.53-.02-.53.07v.224c-.012.05.011.083-.048.083zm16.991 8.612h.492v.514h-.492v-.514zm-1.677-.004h.492v.514h-.492v-.514zm-1.792.016h.491v.515h-.491v-.515zm-17.59-1.572l4.667-.037-.04.104-4.628-.017v-.05zm-22.405-3.04h.484v1.385h-.484v-1.385zm17.73-2.116l-20.68.498c-.067 0-.067-.125-.004-.125l20.68-.497.003.124zm15.175-6.239c.063.141-.107.262-.27.257-.004-.29-.139-.423-.373-.522-.214.054-.127.074-.142-.025l-.004-.02v.012c-.805-.175-2.44-.258-3.347-.253v-.1c.702.087 3.882.029 4.136.651zm-9.874-.157l.496-.063c-.004-.004-.004-.008-.008-.016l.333-.033c-.004.004-.004.008-.008.012l.13-.012V7.65l.322-.029v.013l.032-.005v-.012l.063.004c.187-.016.389-.016.571-.045.083-.005.17-.013.254-.017.325-.02.377-.025.71-.037l.337-.15c.004.03.087.108.09.129.413-.017.723-.02 1.127-.025a3.65 3.65 0 01.678 0c.12 0 .234.004.353.004l-.044-.133c-1.058-.008-2.506-.09-3.485.083l.202-.14a47.706 47.706 0 013.347-.055l-.107-.116-.773-.016-.096-.1.016.154-.158-.104c-.337 0-.571.029-.908.012v.058h-.242l.008-.058-.147-.02.317-1.701c-.206.44-.373 1.31-.46 1.742l-.484.037c-.138 0-.067-.033-.127.05l-.753.046-.29.012v-.253c0-.216.124-.713.322-1.182.25-.58.603-1.066.916-1.257-.028.025-.032.054.008.066-.218.12-.536.573-.71 1.054l.063.307c.076-.307.108-.386.226-.568l.464-.195.111-.054.179-.336.008.207-.103.145c.273 0 .182-.016.293-.244l-.099-.2c.242-.02.186-.099.29-.302l-.19.1c.015-.204.11-.34.21-.486.035-.05.328-.357.316-.37h-.114l-.393.374-.024-.178c0-.145.016-.091.095-.15l.024.1c.107-.058.167-.108.167-.253-.004-.577-.052-.655.579-.655h.769c.13 0 .13.024.242.05.024.294.095.103.095.302v.452l.337.15-.238.506a9.28 9.28 0 00.325-.469c.94.224 2.15 1.398 2.316 1.88l-.278.099v.103l.37-.157c.146.298.384.68.483 1.265l.056-.2.106.246c.195.008.385.033.58.082l-.044.233c-.849-.166-1.804-.253-2.72-.299-.19-.693-.385-1.236-.452-1.36-.068-.13-.008.182.3 1.368l-.618-.012.143.153-.11.187c.078.025.241.008.352.03 1.503.045 2.784.178 3.45.397l-.004.009c.028.02.032.074.024.178l-.35-.124.048-.013c-.031-.008-.06-.016-.09-.02a.057.057 0 00-.013.016l-.52-.095.013-.017-.02-.004.008.02-.266-.057c-.048-.005-.095-.013-.143-.017l-.329-.037h-.02v.004c-.103 0-.146-.013-.277-.013l-.373-.016c-.012 0-.29-.004-.278-.03l.028-.012c-.047-.004-.091-.004-.139-.008l-.031.029h-.29l-.004-.046-.115-.004a3.29 3.29 0 00-.23.22h-.103c.06-.062.139-.137.23-.224-.531-.02-1.094-.025-1.673-.02-.052.003-.103.008-.155.012a10.32 10.32 0 00-.523.058c.032-.02.063-.042.103-.062-.1.004-.198.004-.301.008l.011.075-.127.004-.126.004-.127.004-.127.004-.516.017-.17-.062c-.179.012-.361.02-.54.033-.46.033-.915.074-1.352.124-.531.058-1.035.133-1.502.216h-.005l-.004.373c-.392-.008-.705-.162-.48-.402.072-.1.917-.228 1.46-.257zm4.215 2.111h.139c.036-.041.107-.033.21-.037l-.008.037.298-.004v-.133l.023-.124-.598.012-.131-.029-.064-.037v.278h.095l.036.037zm-.273 0h.047v-.19h-.095c.028.14.044.09.047.19zm-.163.004h.063V9.7l-.19-.059c-.032.058-.052.063-.052.108.005.083.088.125.179.141zm-.726 0l.44.004-.003-.012-.032-.286-.194-.042.003.245c-.154-.108-.214-.295-.29 0l.076.091zm-.055.004c-.036-.128-.103-.244-.214-.244l-1.491.045V9.09c0-.195.071.045.095-.253l1.768-.083.75-.009V8.69l-.155-.033-.15-.1-.14-.335.04-.183.104-.15.15-.099.187-.07.083.008.075.054.072.033.063.042-.004-.005h.004-.123v.258l.06.074h.265a.528.528 0 00-.273-.435l.241.004.286.469-.075.44-.29.057-.035-.09a.493.493 0 00.146-.353h-.33v.302h-.047v-.302h-.238v-.088h.237v-.331l-.107-.005-.218.15-.13.037.07.137.029.278.182.075.15.07.124.025h.067-.008l-.063.037-.068.03-.06.012v.058l.726-.008c0 .095.088.149.143.149.163 0 .131-.062.095-.15.801.009 1.598.034 2.4.075v.108l.114-.145.163.091.587.013c.139 0 .099.074.127.137l-.127-.009v.133l.04.041.182-.19.02-.112.29.058.003.34.302-.179-.207-.024v-.15h.096v.1h.095v-.1l.095-.058.02.158c.527.074 1.205.286 1.57.469l.028-.15.107.203c.487.183.678.312.916.54-.884-.158-1.876-.245-2.93-.324V9.4h-.096v.352h-.432l.016-.452h-.064v.452c-.987-.037-1.633-.128-2.545-.079l.079-.062-.052-.05-.09.092h-.227l-.024-.1c.008-.012.072-.025.056-.045-.103-.154-.139.195-.369.195h-.143l-.055.153a26.51 26.51 0 011.69.004.127.127 0 01-.029.017h.17v-.021l1.492.1v.103h-.19v.1h.095l-.096.1c-.079-.312-.214.062-.337-.254-.226 0-.297-.074-.48-.05l-.392.042v.004h-.044l-.047.004v-.004l-.52.004c-.265.092-.59.191-.674.2v-.009l.175-.15-.008-.037h-.194l-.024.05h-.151a.163.163 0 00-.012-.045l-.464.004-.004.008-.016-.008-.797.008-.035.033h-.115c.051-.066.055.042.055-.033h-.127c-.008.008-.012.017-.02.025l-.099-.025-.29.004.013.013-.203.008v.004h-.047v-.004l-.056.004h-.138v-.02h-.092v.02h-.083l-.04-.02h-.118c-.012.02.04.012-.096.012a.081.081 0 01-.047-.013h-.091l-.004.013h-.19c-.112 0-.124-.017-.191-.05-.127.066.04.05-.143.05-.123 0-.047-.033-.242-.05v.1l-.242-.1v-.07l1.559-.034zm1.324 5.028h.226v2.485l-.226-.067v-2.418zm-7.954-1.016l.369.273-.385.042v.05c.139 0 .555.058.595-.063.04-.116-.21-.1-.008-.166.214-.074-.1.042.202.096l.143.253.047-.004.08-.17.19.058v-.15l.178.034.004 1.045h.944l.02-.63h.178l-.008-.013h.127c0 .15.004-.004-.055.075l.055.041c.008.008.036-.046.068-.116h.602l-.02.012c.195.005.64-.012.774 0 .174.017.278.013.34-.012h.413v.012h.23v-.012h.528l.051.012h.714l.024-.012h.491l.556.012v-.012h.103l-.004.012h.384l.036-.136h-6.055l-.214-.08h6.293l.024-.082h-6.531l-.064-.054h6.666l.21-.27-1.023.009v.012h-.044l.016-.012h-.424l-.02.012h-.13v-.017l-1.515.017h-.12v-.037h-.146l.004.037h-.404l-.005-.037h-.118v.037h-1.099l-.103-.05v.05h-.702l-.02-.037-2.442-.03zm.928-.465l.103-.004-.322-.17-.007-.004c-.199-.104-.46-.245-.714-.378h-.702l-.155-.124.016.124h-.606l-.009-.718h-.134l.027.718h-.67l-.174.232c-2.11.054-5.619.112-7.95-.46-.155 0 .031.203-.18.265l.104.146h-.23l-.04-.08.187-.153-.028-.054-.579.216.206-.133v-.149c0-.162.206-.22.337-.253v.1h.123l.012-.677.516-.277.043.153-.488.249.016.058.452-.187v.473h.627v.15h.095v-.142h.527v.15h.096v-.15l.444-.004c.194 0 .004.038.08.096.086-.063.082-.1.19-.1h.336l.028.158.02-.158.103.004-.047.096 1.439-.03c.147 0 .123.05.15-.066l.83-.012v.15h.241c.131 0 .131.024.242.049l-.091-.187.983.005v-.2h.627l.008.2h.139l.043-.25.17.067.762-.008-.004-.361.658.012v-.257c-1.705-.788-3.263-1.32-4.932-1.298-2.233.025-3.82 1.12-5.774 1.875l.13.12c.46 0 .532.07.596.336l-.159-.158-.31.058.151-.153-.329.12v-.104l-.103-.012.103-.087-.198.004.103.15-.19-.059c-.04.104-.131.141-.195.216l-.222-.17-3.093 1.323 3.03-.037-.048.02.353-.008.02-.016.674-.009.258.05.143-.054.087-.004.214-.004-.004-.004.48-.013-.072-.041h.587l.008.029.056-.03h.38c0 .005 0 .01-.003.013h.19v-.012h.159v.004h.19v-.004h.345c.983-.025 1.967-.05 2.95-.07.075 0 .095-.013.107-.038h.179l-.056.033c.678-.02 1.352-.033 2.03-.05.127-.008.179-.062.262-.132l.032.14.305-.12.024.1 1.249-.017c0 .017 0 .034-.004.05h.226l.02-.05h.345-.004l.055.046h.084v-.05h.095v.05h.186c-.004-.008-.008-.016-.016-.025l.004-.025 1.452-.008zm-17.38-2.593l1.927-.128v.303l-1.678.128-.25-.303zM9.47 20.153v.008h-.242v-.017c.084 0 .163.005.242.009zm16.857 2.12l5.389.062.032-.116h-5.473a7.195 7.195 0 00-.832-.68l6.015.061.032-.116h-6.127l-.241-.162c-.258-.182-.516-.336-.702-.394l-.052-.024v-.083l7.49.066v2.666h.254v-.463l-.031-.083.031-.224v-.463l.044-.004.044-.004.043-.004.044-.004.044-.005.043-.004.044-.004.043-.004v.631l.064.186-.056.133.004.162-.012.14h.127v-.787l-.012-.125.012-.19v-.158l.083-.004.084-.005.091-.033.08.021.083-.004.083-.004.083-.005.083-.004c.044.274.02.519-.051.83l.051.158v.331h.217l.262-.008-.158-.348h.103v-.98h5.714l.04-.136-5.754.091v-.684h5.095l.048-.125-5.135.083-.008-.672h5.698l.02-.083-5.71.05-.008-.71 5.42.05.02-.103-5.44.02v-.709l.265-.041.147-.129-1.891.013-.294-.05-.337-.042.008-.058h.385v-.1h.384v-.099h-.816l-.052.249-.056-.174.056-.228c.456.112 1.146.107.722-.556l.138-.046.064.15-.008-1.257c0-.125-.167-.1-.29-.1v-.05h.29v-.954c0-.112-.04-.112-.095-.203h.095v-.253c0-.154.047-.203.095-.315l-.385.062v-.15c0-.153-.023-.182-.059-.31l.163-.15-.131-.029-.123.137-.044.29h-.143v.299h.1l-.032 2.605c-.02.083.012.112.075.116.131.008.147-.178.194-.286l.159.054-.107.228-.143.017-.02.46-.15-.373-.167.369-.19-.013h-.278v-.742h-.563v.742h-.408l-.282.013-.004-1.1c0-.165-.08-.037-.15-.057-.052.232-.155.277-.242.452-.123.249 0 .344-.345.348l.055-.299c.302-.008.5-.352.385-.605h.29v-.904c0-.137-.024-.137-.048-.254h.095c-.04-.476-.178-.26-.337-.506.159.038.29.187.29-.05l.114-.024.072-.183 1.51.013v-.432h-2.26l.187-.228h.805c-.004-.211-.032-.639-.167-.713h-.65v-.067c-.111.112-.317.1-.666.129l-10.794.228h-.353l-3.795.07-3.232.212H8.942v-.091l1.392-.158v-.153l.107.004-.056.15.028.045.353-.299c.198.1.313.12.333-.133l-.436-.062.008-.054c-.131 0-.337.034-.337-.1 0-.115.031-.149.143-.149h.289v.204h.432c.107 0 .107.041.183.083l.154-.083c.111.029.143.05.29.05.182 0 .186-.125.527-.1v-.203h.095l.016.282.194.12.02-.041-.135-.312h.338l-.005.378h.096l.004-.361h.309l-.19.245.055.087c.163.091.488-.813-.174-.904-.262-.038-.405.045-.575.203l-.012-.125-.23.117-.532-.092v.204l.242-.009.337.008c.123-.004.048-.016.19-.05v.204h-.142v-.1l-.04-.041-.198.307v-.203l-1.106.008v-.12h.674c-.032-.15-.072-.253-.242-.253-.167 0-.075.103-.238.09l-.33.005-.102-.145c.06-.033.051-.05.143-.05l.912-.012 3.893.062v-.03l-1.871-.124h-.674v-.1l.769.013 2.697-.062h.047v-.091l-2.938-.062-2.93-.021-1.59.033v-.236l1.205-.137v-.195h.337v.199c.206-.03.23-.37.424-.726.25-.46.79-.933 1.25-.996-.35.34-.917.739-1.095 1.573l.281-.005-.067-.435.94-1.079.32-.004-.17.232.468-.273v.149l.139-.004.056-.2h-.433v-.203h.143v-.149h.29v.15h.142v.203c-.238.083.064.22.179.253l-.036-.253c1.043.157 1.451 1 1.542 1.194l1.785.017c.135.004.238.029.238.091l.004.963h.246l-.024-1.095h-.143v-.212h.143v-.552c-.25-.087.163-.15.29-.15.106 0 .106.042.19.1l-.008.818h-.088v-.818h-.289v.706l.325.34.004.867h.139l.016-.871 1.681.016.075.133c1.88-1.112 3.609-1.61 5.298-1.626 1.674-.02 3.303.427 5.005 1.211v-.352c-.044-.034-.73-.17-.806-.216l-.04-.02-.039-.022-.04-.02-.04-.021-.039-.02-.04-.022-.04-.02-.039-.021h.722c.06.15.238.15.432.15h.095c.155 0 .036-.046.242-.1.016.215.028.195.238.203l.012.697.33.004v-.095h.142c-.032-.063-.048-.054-.048-.15v-.253h-.142c.031.137.055.008.055.112 0 .195-.024.133-.127.237l.028-.473 1.047.124-.04-.199-.329-.095.285-.112v.103l1.682-.302v.1h.242l-.004.09-.167.059.008.194c-.733-.016-.908.25-1.618.009v.203l.02-.058c2.022.904.317.485.317.46h-.142c-.131 0-.131.025-.262.017l.159-.104-.381-.162v.15l.246.029-.151.02v.1h.055l-.007.15-.496.65.119.009.119.008.119.009.119.008.119.008.119.008.119.009.119.008.119.008.118.009.12.008.118.008.12.009.118.008.12.008.118.008 4.862-.062 2.32-1.817c-2.019-.12-4.005.092-5.968.241l-.1-.079-.245.037-.056-.298.068-.033-.056-.12h.143v.149c0 .153.055.14.186.149l.087-.253 1.218-.054c.218 0 .373-.108.444.017h.15c.028-.038.06-.058.127-.058h.143c0 .02-.016.116-.02.132l.27.017.071-.112 3.252-.037.127.05.15-.038 1.051.041.964.013.623-.062c.015.074.011.149.095.149.107 0 .107 0 .19-.062.218.083 1.554.137 1.923.211v.312c-.892-.12-2.002-.25-2.978-.262h-.242v-.054h.385l.19-.07.048-.017-.73-.058.06.2h-.48v.111h-.17l-.35.232.425.005c.166 0 .273.232.337.356l.19-.058v.15c0 .182.15.248.337.253l-.04.037.889.863-.012.186-1.69-1.663-.182.125-.523.004-.12.066.572-.008-.246.195-.57.004-.128.079.58.004-.552.369c-.068-.037-.08-.05-.19-.05h-.143c-.175 0-.17.058-.337.1v-.1l.035.038.19-.204-.07-.091.186-.095-.044.17.325-.224c-.166 0-.674-.067-.674.1 0 .115.016.057.044.186l-.278.108c.032.062.036.062.036.157l-.036.183h.084l.087-.212.773-.02-.174.1h-.603v.202c0 .141.035.12.143.15l.004.987.563.133.134-.162h-.241v-.058l.19-.033.004-.44 1.729.307.19.166.305-.013-.119-.149.04-.02.496.43-.528-.144-.352.12-.008-.141-.357.087-1.337-.622.004.373 2.586.813.178-.025.004.452-.222.03.187.207.04-.033-.1.199h.19c-.04.178-.095.236-.095.452v.655h-.143c-.174 0-.142-.128-.146-.298l.146.045c-.06-.091-.095-.087-.095-.203v-.303h-.142c-.147 0-.19.15-.19.303v.15h-.144l-.008 6.433.678-.004-.158-.477-.08-.004v-2.879h.096l.004-.24.142-.059-.027-.265.075.166c.198-.054.19-.278.242-.498l-.488.145.052.208-.179-.046-.142.15-.048-.05.19-.204.036.038v-.253c0-.117.032-.15.143-.15h.19l-.036-.037.19-.203.036.037v-.1h-.142c0-.638.04.013.139-.394l-.14-.058v.158l-.134-.067-.048-.033-.154.125.004-.307.337.02v-.302c0-.191.09-.27.162-.42l.825-.003-.17.676h-.58v.1h.143v.754h-.242v.104l.238-.054v.755c-.13-.033-.09-.05-.19-.05-.071 0-.071.062-.095.1h1.059l.011.17.183-.12.238.053v-.1h-.143v-.148l.111-.005-.11-.398c-.128.033-.092.05-.191.05-.028 0-.1-.07-.143-.1v.502H43.5v-.705h.337c.13 0 .13.025.242.05a.454.454 0 00-.385-.203h-.19l-.004-.452c.31-.009.186-.03.29-.253h.48c-.06.09-.096.087-.096.203v.203h.095v-.15h.06l-.012.353-.147.013v.29h-.095l.004.108.238-.108v-.15l.087.005.067.207.147-.178-.202-.187c.099-.041.143-.103.143-.253 0-.12-.095-.224-.143-.303.107-.024.139-.066.242-.062l.432.062c0 .855.1.523-.29.805h.29v.755h.19v-.755h.242l.008.739.29.112-.108-.146.005-.904v-.655h.384c.111 0 .083.033.083.149v1.547h.159v-2.55l-.111.032v.855c-.036-.075-.048-.083-.178-.083h-.337v-.502c0-.116.031-.15.142-.15.131 0 .131.026.242.05v-.1h-.242c-.11 0-.142-.032-.142-.148v-.606l.412.008.214.548v-.548h4.053v-.116h-4.053v-.187h2.45v-.352l-2.45-.058.004-2.423.297.174v.789l1.495.398.028-.295h.095l-.008.316.54.161.008-.253-.203-.174.706-.017.206.067.004-.12.234.12h.48v-.05h-.432v-.05h.527l.052.253h-.143v-.1h-.575v.154l.238-.054v.067h.385v.083h-.96v-.05h.242c-.028-.332-.087-.125-.337-.253v.1l-.286.028.008.3 1.206.397h1.114l-.048-.033.028-.046.195.071.138-.104.155.042.119.074h.555l-.008-.22h.139l.055.104c-.202.07-.04.1.048.1h.337v-.104l.143.1h.432l-.071-.063-.17-.037v-.05l.49.166-.003-.17h-.389l-.008-.05.4-.004-.003-.298-3.442.008.016-.091h3.759v.074l-.159.013c-.146 0-.119.157-.13.298h.432v-.103h.142v-.096l-.142-.058h.142v-.095h.865l-.048.02.147.332h-.143v.05h-.682v.116c0 .054.044.054.155.054h.682l-.012-.22.452-.012-.004-.344h.056c0 .622.281.149.46.402l-.456-.012.008.182h.496l.19.232v-.149h.19c.222 0 .099-.199.202-.419l.178.108.195-.042v-.149h-.143l-.063-.087-.278-.141.163-.116.103.112-.008-.054.912.477-.008.116.095-.054.143.05v.12h-.143v.482l-.912.004-.067-.12-.032.008.119-.399c-.19.054-.19.39-.206.602h1.72l-.02.05-.697.186-.19-.012.166.124v.05h-.143l-.016.033.112.32h-.096v-.1l.048-.054-.127-.037-.111.282.194.062-.051.1-.048.1v.298h-.095l.012.133.194.116-.063-.2.051-.099v-.352l.096-.1v-.05l-.056.407.103.145.032 4.011h-7.915v.108h7.915l.016 1.88-4.105-.022 3.01.751.004 3.369h2.947v10.47c-5.635.302-12.063.277-17.956.24-1.035.02-1.225-1.14 1.075-1.05h6.011c-1.578-.128-2.867-.82-3.846-2.127-.853-1.166.17-2.61 1.17-1.249l.317.44 1.317 1.82c.543.735 1.272 1.088 2.085 1.112h3.87a2.649 2.649 0 01-1.99-1.099l-2.653-3.658a2.539 2.539 0 00-2.062-1.067h-4.084c.809-.016 1.451.287 1.978.834.73.76-.515 1.635-1.308.996l-1.348-1.863c-1.808-2.497.702-5.55 3.28-5.347.808.063 1.768.116 3 .266l-.308-.41h-8.756l-.222.41 1.507-.22c2.99-.436.638 3.808-.924 1.958-1.043-1.423-2.562-2.062-3.985-2.062h-7.844l.746 1.033h.012l5.349 7.355c1.277 1.477 2.875.348 1.725-1.261l-3.66-5.053c-.968-1.248-2.296-2.099-4.176-2.074l-.98-1.489a9.259 9.259 0 00-.927-1.054zM8.855 20.16v.008H5.75c-1.09 0-2.257.486-3.054 1.577l-1.292 1.783h5.864l1.285-1.771c2.209-2.891 5.131-.684 6.833 1.61l1.376 1.9-.032-.005 6.967 9.674c1.253 1.568 2.895 2.518 5.095 2.567h2.84c.567.013.848.229.579.764-.893 1.298-2.645 2.804-7.332 2.26l.618.411 12.435.03c.16-.395 1.333-1.992 2.015-2.9.468-.623.484-.556 1.245-.556 6.928-.004 17.004.004 23.808-.05L61.26 42H24.19L12.13 25.685 0 25.681l.004-4.567h1.293l.384-.15v-3.069l.103-.303h-.293l-.048-.05-.48-.05-.047-.049v-.303l.048-.05.29-.05h.526l-.047-.302-.095-.15v-.149l.769-1.257h.48l.047.05v.203l-.04.05.02.008 2.28-.025v-.186l.572-.216.027.116 3.05-.05v.254c0 .066-.107.112-.27.136l-3.866.063-.23.211.047-.207-.329.058-.043-.108-.405.29.056-.24H3.56l-.06.298.25.005-.218.696-.115-.05-.004.113c.54-.013.377-.477.674-.706l-.29.656c.516-.013.263-.282.576-.502l-.115.344c.448-.033.543-.7.595-.647l.055.042-.254.506c.353-.025.532-.502.536-.498l.055.041c-.115.17-.127.411-.174.44-.12.079-.048-.046-.234.116-.159.137-.076.174-.127.009l-.167.27-.027-.167-.207.133c-.123-.012-.067-.029-.178-.029-.12 0-.409.1-.432.203h.19l.385-.012c.142.012.063-.245.142.012l.714-.46-.488.444.028.05.389-.191h.035l-.162.149.305-.075.179.104.008-.17h-.096l.1-.2-.147.046.055-.195h-.15c.04-.178-.004-.402.242-.402h3.556v.909h.048v-.407h.08v.552h-.128v.605h.048v-.402h.08v.552h.063v.149h.242c.17 0 .186.12.19.303h-.095v.15l-.012.401.012.353c.004.133-.06.075-.095.17H9.08v.083h.384v.788h-.242v-.336c0-.286-.241-.381-.241-.551v-.656h.241v-.05h-.317v1.59h-.123.123v.016h-.051v-.021zm40.157 10.076h4.084c.738 0 1.523.328 2.062 1.066l2.653 3.659a2.652 2.652 0 001.99 1.099h-3.87c-.813-.025-1.542-.382-2.085-1.112l-1.317-1.82-1.317-1.822c-.515-.651-1.209-1.09-2.2-1.07zm-9.684 7.276l-5.59-.009c-.675.05-1.202.68-1.274 1.365-.055.813.353 1.713 1.563 1.784 2.918.062 4.473-1.477 5.46-2.58.214-.307.642-.556-.159-.56zm.916-.569c.694-.253.904-.755-.087-1.074-1.011-.311-1.911-.942-2.64-1.925-1.246-1.228-2.13 1.452-.699 2.593 1.07.854 2.383.788 3.426.406zM51.28 16.265h-.416v.166l.027.253-.027.216v.232l.027.307.016.261-.043.224v.373l.031.233v.697l-.055.215.023.253-.02.253-.154.034v.24h.82l-.063-.24-.142-.013-.024-3.704zm-.413-.133h.413v-.253h-.103v-.249h-.095v.25h-.334c.012.012-.003.04.012.045.056.037.1.112.108.207zm1.872-.054l.369-.041.02-.162-.425.004v.145l-.04.013v-.349l.167.038-.11-.233.186-.157h-.143c.047-.606.654-.411 1.19-.411l-.143-.095-1.063-.005.04-.09-.17.003-.028.092-.42-.013.019.208.297.161-.004.975c0 .125.14.174.226.179l.064.306-.068.154v.684l.032.187-.032.274.04.485-.04-.025v.229l.016.29-.016.17.103.265-.04.22.04.237-.106.195h-.16v.22h.758v-.22l-.142-.046-.005-1.448h.663v1.46h.127c0-1.642.448-1.671-.79-1.791v-.814l.623-.033v.021h.127v-1.622h-.127v1.332h-.623v-.71h.548v-.1h-.547v-.09h-.393v-.092h-.02zm1.61.083h.472v-.29l-.436-.067-.183.075.024.125.123.157zm.476.125l-.46-.034.083.693-.055.216v.771l.04.312-.04.199v.257l.023.369-.027.145.067.299.052.257-.123.216-.159.025-.024.22h.183l.412.053.183-.053v-.03h.09l-.007.03h.833v-.2h-.345v-.008l-.575-.004h-.143l-.004-1.493h.468v1.107h.127V18.24h-.127v.021h-.468c-.004-.697-.004-1.29-.004-1.974zm.155.858v.266h.305l.127.02v-1.393h-.127v1.107h-.305zm-11.278-4.521l.464.037v.54h-.464v-.577zm-.028.697h.496l-.016.605-.48-.029v-.178l-.138-.046v.1h-.143c.047-.191.075-.15.281-.2v-.252zm.072.746h.464v.577h-.464v-.228l-.115-.037-.092.053-.146-.053v-.1h.353v-.212zm0 .697h.464l.008.714-.472-.137v-.17l-.365.199.88.24-.147.552-.844-.004.032-.328-.155-.033.004-.369.155-.058-.107-.091.162-.295.008-.299-.214.042.055-.158.353-.066-.008.664.195.004v-.407h-.004zm.78-2.074l.465.046v.53h-.464v-.576zm-.019.664h.464v.577l-.464-.021v-.556zm-.012.7l.464.03v.547h-.464v-.576zm0 .665h.464v.73h-.464v-.73zm2.316-2.186l4.203-.005.056.104h-4.26v-.1z" fill="currentColor"/></symbol><symbol viewBox="0 0 634.413 821.907" id="ghm-raishev" xmlns="http://www.w3.org/2000/svg"><g fill="currentColor"><path d="M419.964 753.96c.58.085 1.161.17 1.74.253 1.023-6.11 2.044-12.22 3.068-18.33l-2.339-.379c-4.729 5.496-1.476 12.332-2.469 18.456zm-111.9 22.99l-6.435 12.37h12.246l-5.811-12.37zm21.156 12.31h14.472l-6.8-13.287c-2.61 4.518-4.896 8.476-7.672 13.287zm-51.44-13.139l-5.921 12.711h14.161l-8.24-12.71zm93.428-.16c-2.628 4.316-5.495 9.028-8.617 14.159h20.017c-3.812-4.735-7.45-9.25-11.4-14.159zm-114.87 5.343c9.003-6.5 15.1-18.652 12.203-23.72-7.846 2.945-12.8 12.313-12.204 23.72zm166.669 4.734c-9.854 6.837-9.916 6.907-18.87-.918-2.92-2.553-5.418-5.587-8.39-8.694l-7.19 15.565h41.111c-2.364-2.112-4.556-4.07-6.661-5.953zm25.869 7.322l27.041 1.416-13.044-21.244c-4.862 6.89-9.15 12.961-13.997 19.828zm-225.06-66.013c7.244-1.192 13.124-3.343 18.217-7.607 4.448-3.723 6.108-8.657 6.347-14.195.185-4.274-1.648-7.081-6.264-6.965-5.628.141-11.25.558-17.073.867l-1.227 27.9zM107.637 140.353c1.072-.158 2.144-.318 3.216-.478 1.84-19.735 3.895-39.455 5.282-59.22.197-2.806-2.392-6.242-4.501-8.684-4.75-5.499-10.209-10.384-14.997-15.854-3.831-4.38-7.1-9.252-10.618-13.905-.552 3.43-.229 6.423.29 9.38 3.806 21.667 7.158 43.43 11.73 64.932 1.754 8.252 6.316 15.904 9.598 23.83zM213.796 791.85l.484-2.086c-1.084-1.523-2.516-2.917-3.14-4.608-.492-1.335-.281-3.12.137-4.555.692-2.376 2.68-4.666 2.587-6.93a413.925 413.925 0 00-2.219-29.267c-.406-3.637-2.216-7.103-3.19-10.699-.622-2.29-2.067-5.933-1.122-6.822 6.783-6.38 1.916-14.01 4.046-22.258-12.139 6.548-21.874 13.352-29.539 22.956-.933 1.17-3.259 2.4-4.421 2.019-6.346-2.074-12.296-12.164-11.575-19.399-14.885-.488-29.444.82-43.797 5.02-4.445 1.302-6.268 3.336-5.366 7.712 4.525 21.956 9.104 43.902 13.64 65.856.73 3.53 2.898 4.51 6.276 4.137 4.582-.503 9.191-1.005 13.791-1.029 21.135-.106 42.272-.047 63.408-.047zM420.975 55.295c-2.29 0-4.774-.099-7.246.016-21.67 1.014-43.329 2.549-65.01 2.969-20.75.401-41.52-.332-62.28-.603-2.727-.034-5.418-.54-5.979 3.442-1.05 7.414-3.12 14.76-3.425 22.189-1.408 34.385-3.396 68.796-3.192 103.185.224 38.059 4.097 75.972 9.685 113.663 3.183 21.467 5.83 43.024 9.563 64.395 2.976 17.032 7.368 20.962 26.158 20.91 6.936-.02 11.907-4.101 16.556-8.382 15.691-14.451 28.666-31.236 38.648-49.95 22.406-42.012 34.542-87.438 40.176-134.377 3.656-30.463 4.642-61.267 6.214-91.95.765-14.922.132-29.917.132-45.507zM119.534 795.293c-10.128-24.388-12.312-48.653-18.668-72.438-8.874 4.598-19.034 4.54-25.49 12.628-.629.785-4.13.365-5.375-.639-3.558-2.867-6.659-6.306-9.904-9.555-2.729-2.733-2.56-5.941.174-8.07 3.693-2.878 7.81-5.403 12.094-7.287 10.31-4.539 20.505-9.89 31.326-12.573 15.72-3.898 31.946-5.756 47.966-8.433 4.059-.678 6.815.84 8.946 4.602 2.5 4.417 5.772 8.398 8.748 12.621 15.216-13.654 31.26-23.933 51.224-27.246 15.332-2.544 26.94 1.629 33.956 13.366a459.274 459.274 0 005.408 8.83c11.321 18.014 4.405 36.588-15.988 42.47-6.184 1.783-12.538 2.975-19.362 4.566l5.62 40.9h18.187c-1.01-2.9-1.868-5.011-2.48-7.19-2.513-8.965-.635-28.137 9.43-35.578 6.245-4.62 10.322-5.286 17.365-1.691.958.49 2.278 1.104 3.142.81 5.36-1.82 7.498 1.025 8.528 5.589a152.479 152.479 0 011.676 8.416c1.044 6.217 2.01 12.449 3.084 19.17 2.046-.916 2.742-1.001 3.024-1.387 7.528-10.314 13.684-21.206 15.534-34.177.286-2.006 2.693-4.947 4.41-5.164 1.699-.216 4.747 2.09 5.464 3.955 1.335 3.484 1.788 7.437 1.928 11.22.275 7.41.08 14.836.08 22.257 7.571-9.66 15.935-18.539 16.231-31.604.039-1.665 2.803-4.316 4.59-4.58 1.607-.24 4.734 1.844 5.215 3.483 1.212 4.143 1.554 8.595 1.806 12.95.461 7.907.604 15.833.905 24.469 2.056-.946 2.744-1.04 3.036-1.431 7.992-10.643 15.2-21.65 17.908-35.061.37-1.836 2.847-4.304 4.576-4.503 1.619-.187 4.608 1.92 5.123 3.593 1.388 4.508 2.022 9.298 2.488 14.022.377 3.842.076 7.754.076 11.634l2.496.39c3.018-8.578 5.904-17.206 9.168-25.689.64-1.658 2.554-3.38 4.246-3.913 1.46-.458 4.698.351 4.978 1.264 1.513 4.937 2.836 10.04 3.278 15.168.427 4.916-.592 9.944-.377 14.9.081 1.855 1.845 3.64 2.95 5.654 4.597-3.216 5.634-6.26 4.375-10.95-3.309-12.323-4.929-24.89-2.25-37.609 1.46-6.936 7.384-10.13 13.421-6.467 3.295 1.999 6.175 5.744 7.728 9.353 6.03 14.018 3.436 27.847-2.13 41.42-1.09 2.66-2.707 6.045 1.018 7.392 2.47.893 6.981.927 8.284-.605 4.772-5.616 9.188-11.75 12.456-18.325 1.279-2.575-.813-6.839-1.405-10.328-.291-1.705-.711-3.39-.994-5.096-2.888-17.417-.757-34.493 3.819-51.336.513-1.892 2.567-4.67 3.979-4.715 2.288-.072 5.668 1.14 6.782 2.934 5.051 8.116 9.755 16.32 10.067 26.524.396 12.898-1.79 25.4-5.61 37.414-2.5 7.856.254 12.248 5.178 16.587 3.959-6.778 7.579-13.517 11.73-19.913 3.345-5.147 8.43-6.118 14.091-3.523 3.65 1.674 7.219 4.28 11.026 4.715 13.666 1.554 19.729 10.962 24.316 22.134.482 1.175.198 2.933-.363 4.123-.201.424-2.439.316-3.475-.15-8.529-3.846-16.964-7.91-25.52-11.695-1.293-.572-3.822-.71-4.51.072-6.723 7.618-10.104 16.792-12.499 26.82 39.641 2.043 78.423 4.041 117.535 6.058-2.52-2.836-5.254-5.702-7.754-8.761-18.554-22.7-38.905-43.583-61.844-61.913-17.702-14.147-35.214-28.53-52.881-42.722-10.637-8.545-20.743-17.998-32.267-25.14-19.21-11.905-38.956-23.116-59.218-33.116-35.083-17.314-72.94-23.753-111.714-23.85-16.821-.043-33.802 1.941-50.444 4.654-33.501 5.462-65.497 15.759-95.566 31.984-27.99 15.103-50.749 35.706-69.108 61.528-19.084 26.845-32.016 56.246-38.591 88.548-1.054 5.178.042 6.724 4.965 6.538 29.315-1.118 58.631-2.19 88.633-3.302zM346.67 590.915l.265-1.254c-.71-.608-1.423-1.214-2.133-1.822-47.48-40.658-89.187-86.411-121.051-140.404-19.808-33.567-37.937-68.12-57.237-101.992-16.254-28.522-28.018-58.843-37.962-89.99-3.235-10.137-6.918-20.13-10.768-31.264-.592 2.966-1.077 4.79-1.311 6.644-2.864 22.672-5.366 45.395-8.61 68.011-4.09 28.492-8.67 56.915-13.232 85.337-6.449 40.18-13.1 80.33-19.618 120.499-4.367 26.921-8.565 53.87-12.998 80.781-4.057 24.622-8.45 49.187-12.448 73.816-1.698 10.466-2.767 21.034-4.122 31.554 2.282-1.007 3.44-2.246 4.413-3.616 24.142-33.946 55.983-58.499 93.906-74.891 41.924-18.123 85.718-28.82 131.706-28.804 20.944.007 41.89.248 62.336 5.833 2.881.788 5.905 1.054 8.864 1.562zM146.403 244.87c2.493 7.478 5.804 17.48 9.161 27.465 7.967 23.704 17.421 46.756 29.741 68.583 15.386 27.258 30.816 54.493 45.911 81.91 14.383 26.124 30.048 51.378 48.55 74.807 24.978 31.627 52.68 60.68 83.113 87.073 10.986 9.528 21.949 19.17 35.67 25.019 24.474 10.433 46.994 24.317 68.338 40.125 17.858 13.228 34.021 28.775 53.933 39.206 4.62 2.42 8.964 5.367 13.433 8.073l2.147-.816c-15.604-218.72-6.416-437.14 5.496-655.828-.5 0-1.81-.127-3.088.02-29.741 3.381-59.477 6.828-89.227 10.165-4.556.511-7.148 1.791-7.262 7.299-.656 31.724-1.423 63.452-2.704 95.157-1.206 29.807-5.054 59.364-10.995 88.588-5.484 26.966-13.921 53.035-24.568 78.462-11.161 26.656-27.395 49.725-47.45 70.237-6.78 6.933-14.58 12.224-24.686 13.741-11.668 1.75-21.443-2.649-31.01-8.149-8.566-4.925-17.02-10.047-25.467-15.175-1.062-.642-1.815-1.82-2.647-2.804-1.693-2.001-3.128-4.269-5.04-6.025-19.372-17.799-39.957-34.441-57.957-53.527-22.763-24.136-43.436-50.242-63.392-73.606zm121.869 113.57c-1.307-11.863-2.507-23.212-3.813-34.55-3.232-28.018-7.416-55.963-9.522-84.065-2.193-29.236-3.312-58.625-3.198-87.94.101-26.681 2.425-53.356 3.9-80.026.508-9.152 1.429-18.283 2.129-27.426.281-3.661 4.079-6.612 8.375-5.86 25.786 4.506 51.798 2.627 77.677 2.203 23.585-.385 47.137-2.853 70.697-4.487 2.27-.158 4.496-.913 6.97-1.437 0-7.92.466-15.953-.199-23.893-.328-3.899.23-7.028 3.668-7.88 2.39-.591 5.816.554 7.976 2.068a30.69 30.69 0 017.947 8.23c1.565 2.412 2.19 5.668 2.469 8.62.296 3.147-.307 6.379-.579 10.527 8.982-.781 17.163-1.265 25.284-2.248 17.52-2.12 35.07-4.124 52.483-6.941 7.464-1.207 14.861-3.75 21.85-6.715 8.494-3.604 9.97-3.77 15.742 2.99.5.586.88 1.431 1.513 1.718 7.992 3.62 8.063 9.952 6.992 17.517-9.745 68.904-10.017 138.36-11.993 207.728-.907 31.88-3.06 63.724-4.101 95.602-.49 14.977.404 29.994.501 44.996.095 14.797-.032 29.596-.045 44.393-.02 19.776-.135 39.552-.007 59.327.216 33.649.004 67.314 1.075 100.937.892 28.03 3.452 56.001 5.082 84.01.482 8.253-.012 16.566.575 24.806.315 4.405 1.632 8.84 3.13 13.035 1.542 4.32-.233 6.797-3.267 8.565 10.608 10.95 21.426 21.576 31.62 32.77 14.481 15.9 28.513 32.211 42.709 48.37 1.925 2.19 3.447 14.823 1.81 16.885-.775.976-2.549 1.657-3.858 1.638-28.845-.45-57.693-.947-86.536-1.59-18.845-.42-37.69-.963-56.527-1.67-30.161-1.128-60.306-2.787-90.476-3.592-49.788-1.331-99.586-2.848-149.384-2.962-35.178-.081-70.382 1.587-105.533 3.324-21.457 1.06-42.805 4.312-64.262 5.488-16.85.923-33.79.116-50.69.204-4.17.022-8.335.72-12.507.783-7.654.113-15.584-9.967-13.656-17.373 5.791-22.244 12.633-44.267 17.267-66.747 4.6-22.322 6.925-45.107 10.417-67.661 3.579-23.123 7.296-46.227 11.07-69.319 4.545-27.82 9.219-55.619 13.83-83.428 4.331-26.112 8.686-52.221 12.973-78.341 4.07-24.788 8.148-49.574 12.07-74.384 3.628-22.944 7.336-45.882 10.485-68.894 3.256-23.792 5.875-47.672 8.782-71.51 1.792-14.687 4.214-29.335 5.058-44.074.273-4.777-3.528-9.804-5.535-14.686-.965-2.355-2.314-4.57-3.113-6.974-3.526-10.634-7.295-21.21-10.243-32.009-2.72-9.965-4.862-20.125-6.624-30.31-3.336-19.274-6.25-38.62-9.275-57.947-1.602-10.243-3.26-20.483-4.446-30.775-.275-2.377 1.28-4.965 1.994-7.456 2.31 1.241 5.476 1.895 6.792 3.816 8.994 13.137 16.887 27.09 26.578 39.667 6.566 8.521 15.367 15.357 23.38 22.717 8.258 7.587 16.276 14.819 14.196 27.956-4.024 25.403-7.516 50.892-10.989 76.379-.44 3.233-.364 7.122 1.033 9.933 15.754 31.713 33.127 62.524 55.074 90.423 25.129 31.946 52.598 61.706 84.952 86.618.409.314.982.415 2.253.927"/><path d="M371.425 717.99c-14.708 1.111-29.406 2.409-44.134 3.15-2.44.122-5.38-1.753-7.415-3.49-2.588-2.215-4.58-5.162-6.668-7.915-2.803-3.695-2.055-6.158 2.296-7.971 1.23-.514 2.5-1.107 3.797-1.259 16.978-1.96 33.924-4.296 51.08-1.616 5.247.82 7.904 3.406 8.395 8.531.073.761.224 1.518.397 2.267.606 2.602 1.235 5.2 1.856 7.802l-9.426 2.035-.178-1.533M159.17 788.167c-2.957.398-5.857 1.587-6.64.761-3.755-3.95-7.123-8.321-10.154-12.86-.541-.81.837-4.185 1.9-4.51 2.1-.642 5.948-.855 6.696.298 2.967 4.565 5.015 9.728 8.199 16.31"/></g></symbol><symbol fill="none" viewBox="0 0 50 55" id="socials-group" xmlns="http://www.w3.org/2000/svg"><path d="M44.149.7h-2.29c-1.007 0-1.007 1.582 0 1.582h2.29c2.365 0 4.29 1.944 4.29 4.333v18.309c0 2.389-1.925 4.333-4.29 4.333h-2.598a.774.774 0 00-.474.162l-4.767 3.696v-3.067a.786.786 0 00-.78-.791h-9.5a4.226 4.226 0 01-2.184-.604v-8.881a4.845 4.845 0 00-2.105-4.003V6.615c0-2.39 1.924-4.333 4.29-4.333h10.936c1.007 0 1.007-1.582 0-1.582H26.031c-3.227 0-5.851 2.653-5.851 5.915v8.459a4.724 4.724 0 00-1.113-.134H4.779C2.144 14.94 0 17.108 0 19.772v1.708c0 1.02 1.561 1.02 1.561 0v-1.708c0-1.792 1.443-3.25 3.218-3.25h14.288c1.774 0 3.218 1.458 3.218 3.25v9.196a.807.807 0 000 .21v5.032c0 .1-.006.199-.015.297h-1.61c-1.773 0-3.252 1.298-3.558 3.003a.78.78 0 00-.203.114l-3.49 2.733V38.25a.786.786 0 00-.78-.791h-7.85c-1.775 0-3.218-1.458-3.218-3.25v-7.983c0-1.02-1.561-1.02-1.561 0v7.983c0 2.664 2.144 4.832 4.779 4.832h7.069v2.925c0 .635.76 1.015 1.257.626l3.938-3.081v8.9c0 2.017 1.623 3.659 3.618 3.659h4.79v1.846c0 .634.76 1.015 1.257.626l3.159-2.472h.933c1.995 0 3.618-1.642 3.618-3.659v-1.405c0-1.02-1.561-1.02-1.561 0v1.405a2.069 2.069 0 01-2.057 2.076h-1.2a.774.774 0 00-.477.165l-2.112 1.653V51.28a.786.786 0 00-.78-.79h-5.57a2.07 2.07 0 01-2.058-2.077V38.166c0-1.145.923-2.076 2.057-2.076H30.8a2.07 2.07 0 012.057 2.076v3.884c0 1.02 1.56 1.02 1.56 0v-3.884c0-2.017-1.622-3.659-3.617-3.659h-6.963c.006-.098.009-4.094.009-4.094.688.28 1.426.426 2.185.426h8.718v3.878c0 .633.757 1.014 1.255.628l5.812-4.506h2.333c3.226 0 5.851-2.653 5.851-5.915V6.614C50 3.355 47.375.7 44.149.7z" fill="currentColor"/><path d="M36.954 6.791c-.993-.251-2.005.527-2.005 1.545a4.536 4.536 0 01-1.15 3.017l-2.155 2.419a.782.782 0 00-.655-.353h-4.207a.779.779 0 00-.782.775v9.389c0 .428.35.776.782.776h4.207a.782.782 0 00.711-.454 5.498 5.498 0 002.843.795h7.435c1.136 0 2.073-.978 2.02-2.102-.024-.497.002-7.18.002-7.33a2.016 2.016 0 00-2.02-2.005l-3.866-.011.16-.377a6.013 6.013 0 00-.322-5.33 1.592 1.592 0 00-.998-.754c.426.108-.425-.108 0 0 .426.108-.993-.251 0 0zm-6.747 16.016h-2.643V14.97h2.643v7.837zm11.77-7.993c.253 0 .459.204.459.455l-.004 1.091c-.011 2.999-.02 5.839.003 6.311a.456.456 0 01-.457.477h-7.435a3.914 3.914 0 01-2.443-.857l-.329-.265v-6.054l3.2-3.592a6.08 6.08 0 001.543-4.044c0-.044.06-.055.08-.021a4.464 4.464 0 01.239 3.957l-.617 1.45a.77.77 0 00.068.73.784.784 0 00.65.347l5.044.015zM6.778 28.228c-.43 0-.778.377-.778.842 0 .466.348.843.778.843H9.07l-.429 2.806c-.07.46.217.893.641.97a.725.725 0 00.128.01c.374 0 .703-.292.766-.704l.47-3.082h1.877l-.428 2.807c-.07.459.217.892.64.968a.725.725 0 00.128.012c.374 0 .704-.293.767-.705l.47-3.082h3.121c.43 0 .778-.377.778-.842 0-.466-.348-.843-.778-.843h-2.864l.314-2.056h2.55c.43 0 .778-.377.778-.842 0-.466-.348-.843-.778-.843H14.93l.428-2.807c.07-.459-.216-.892-.64-.968-.424-.077-.824.234-.894.694l-.47 3.08h-1.877l.428-2.806c.07-.459-.217-.893-.64-.969-.425-.076-.824.235-.895.694l-.47 3.082H6.778c-.43 0-.778.377-.778.842 0 .466.348.843.778.843h2.864l-.314 2.056h-2.55zm4.44-2.056h1.877l-.314 2.056h-1.876l.314-2.056zM25.49 40.306a2.613 2.613 0 00-2.317-.527C22.09 40.045 21 41.067 21 42.751c0 1.048.378 1.958 1.157 2.782.636.673 1.554 1.313 2.976 2.075a.776.776 0 00.734 0C28.347 46.278 30 44.944 30 42.75c0-1.694-1.13-2.705-2.25-2.956-.842-.189-1.657.011-2.26.51zm2.944 2.445c0 1.183-.777 2.057-2.934 3.258-2.157-1.2-2.934-2.075-2.934-3.258 0-.88.504-1.317.976-1.433.087-.022.18-.034.276-.034.355 0 .745.166.986.638a.783.783 0 00.712.428.783.783 0 00.694-.457c.253-.549.786-.645 1.2-.552.495.11 1.023.54 1.023 1.41z" fill="currentColor"/></symbol></svg>