<?xml version="1.0" encoding="utf-8"?><svg width="146" height="151" viewBox="0 0 146 151" xmlns="http://www.w3.org/2000/svg" xmlns:xlink="http://www.w3.org/1999/xlink"><svg width="24" height="25" fill="none" viewBox="0 0 24 25" id="email" xmlns="http://www.w3.org/2000/svg"><path d="M3.857 7.557l7.714 6.857 7.715-6.857" stroke="#CFA968"/><path stroke="#CFA968" stroke-linecap="round" stroke-linejoin="round" d="M3 6.7h17.143v12H3z"/></svg><svg width="24" height="25" fill="none" viewBox="0 0 24 25" id="location" x="24" y="25" xmlns="http://www.w3.org/2000/svg"><path clip-rule="evenodd" d="M12.334 22.7s6.333-6.65 6.333-12.667a6.333 6.333 0 10-12.667 0C6 16.05 12.334 22.7 12.334 22.7z" stroke="#CFA968"/><path clip-rule="evenodd" d="M12.334 11.089a1.056 1.056 0 100-2.111 1.056 1.056 0 000 2.11z" stroke="#CFA968"/></svg><svg width="24" height="25" fill="none" viewBox="0 0 24 25" id="map" x="48" y="50" xmlns="http://www.w3.org/2000/svg"><path clip-rule="evenodd" d="M5 8.144L9.333 6.7v11.556L5 19.7V8.144zm8.667 0L18 6.7v11.556L13.667 19.7V8.144zm0 0L9.333 6.7v11.556l4.334 1.444V8.144z" stroke="#CFA968" stroke-linejoin="round"/></svg><svg width="24" height="25" fill="none" viewBox="0 0 24 25" id="phone" x="72" y="75" xmlns="http://www.w3.org/2000/svg"><path d="M12.74 19.104l2.565-2.565a1 1 0 011.28-.113l3.55 2.476a1 1 0 01.135 1.528l-.386.386c-.71.71-1.73 1.018-2.685.71-2.065-.665-5.822-2.208-8.937-5.323-3.115-3.115-4.659-6.872-5.323-8.937-.308-.956 0-1.975.71-2.685l.386-.387a1 1 0 011.527.135L8.04 7.88a1 1 0 01-.113 1.28L5.36 11.723" stroke="#CFA968" stroke-linecap="round"/></svg><svg width="26" height="26" fill="none" viewBox="0 0 26 26" id="popup-close" x="96" y="100" xmlns="http://www.w3.org/2000/svg"><path d="M25.276 23.26L2.648.633l-1.94 1.94L23.337 25.2l1.94-1.94z" fill="#272526"/><path d="M23.338.632L.711 23.26l1.94 1.94L25.278 2.572l-1.94-1.94z" fill="#272526"/></svg><svg width="24" height="25" fill="none" viewBox="0 0 24 25" id="time" x="122" y="126" xmlns="http://www.w3.org/2000/svg"><path d="M20.5 12.7a8.5 8.5 0 11-17 0 8.5 8.5 0 0117 0z" stroke="#CFA968"/><path d="M12 6.973V12.7l3.273 3.273" stroke="#CFA968" stroke-linecap="round"/></svg></svg>