<?xml version="1.0" encoding="utf-8"?><svg xmlns="http://www.w3.org/2000/svg" xmlns:xlink="http://www.w3.org/1999/xlink"><symbol fill="none" viewBox="0 0 50 55" id="socials-group" xmlns="http://www.w3.org/2000/svg"><path d="M44.149.7h-2.29c-1.007 0-1.007 1.582 0 1.582h2.29c2.365 0 4.29 1.944 4.29 4.333v18.309c0 2.389-1.925 4.333-4.29 4.333h-2.598a.774.774 0 00-.474.162l-4.767 3.696v-3.067a.786.786 0 00-.78-.791h-9.5a4.226 4.226 0 01-2.184-.604v-8.881a4.845 4.845 0 00-2.105-4.003V6.615c0-2.39 1.924-4.333 4.29-4.333h10.936c1.007 0 1.007-1.582 0-1.582H26.031c-3.227 0-5.851 2.653-5.851 5.915v8.459a4.724 4.724 0 00-1.113-.134H4.779C2.144 14.94 0 17.108 0 19.772v1.708c0 1.02 1.561 1.02 1.561 0v-1.708c0-1.792 1.443-3.25 3.218-3.25h14.288c1.774 0 3.218 1.458 3.218 3.25v9.196a.807.807 0 000 .21v5.032c0 .1-.006.199-.015.297h-1.61c-1.773 0-3.252 1.298-3.558 3.003a.78.78 0 00-.203.114l-3.49 2.733V38.25a.786.786 0 00-.78-.791h-7.85c-1.775 0-3.218-1.458-3.218-3.25v-7.983c0-1.02-1.561-1.02-1.561 0v7.983c0 2.664 2.144 4.832 4.779 4.832h7.069v2.925c0 .635.76 1.015 1.257.626l3.938-3.081v8.9c0 2.017 1.623 3.659 3.618 3.659h4.79v1.846c0 .634.76 1.015 1.257.626l3.159-2.472h.933c1.995 0 3.618-1.642 3.618-3.659v-1.405c0-1.02-1.561-1.02-1.561 0v1.405a2.069 2.069 0 01-2.057 2.076h-1.2a.774.774 0 00-.477.165l-2.112 1.653V51.28a.786.786 0 00-.78-.79h-5.57a2.07 2.07 0 01-2.058-2.077V38.166c0-1.145.923-2.076 2.057-2.076H30.8a2.07 2.07 0 012.057 2.076v3.884c0 1.02 1.56 1.02 1.56 0v-3.884c0-2.017-1.622-3.659-3.617-3.659h-6.963c.006-.098.009-4.094.009-4.094.688.28 1.426.426 2.185.426h8.718v3.878c0 .633.757 1.014 1.255.628l5.812-4.506h2.333c3.226 0 5.851-2.653 5.851-5.915V6.614C50 3.355 47.375.7 44.149.7z" fill="currentColor"/><path d="M36.954 6.791c-.993-.251-2.005.527-2.005 1.545a4.536 4.536 0 01-1.15 3.017l-2.155 2.419a.782.782 0 00-.655-.353h-4.207a.779.779 0 00-.782.775v9.389c0 .428.35.776.782.776h4.207a.782.782 0 00.711-.454 5.498 5.498 0 002.843.795h7.435c1.136 0 2.073-.978 2.02-2.102-.024-.497.002-7.18.002-7.33a2.016 2.016 0 00-2.02-2.005l-3.866-.011.16-.377a6.013 6.013 0 00-.322-5.33 1.592 1.592 0 00-.998-.754c.426.108-.425-.108 0 0 .426.108-.993-.251 0 0zm-6.747 16.016h-2.643V14.97h2.643v7.837zm11.77-7.993c.253 0 .459.204.459.455l-.004 1.091c-.011 2.999-.02 5.839.003 6.311a.456.456 0 01-.457.477h-7.435a3.914 3.914 0 01-2.443-.857l-.329-.265v-6.054l3.2-3.592a6.08 6.08 0 001.543-4.044c0-.044.06-.055.08-.021a4.464 4.464 0 01.239 3.957l-.617 1.45a.77.77 0 00.068.73.784.784 0 00.65.347l5.044.015zM6.778 28.228c-.43 0-.778.377-.778.842 0 .466.348.843.778.843H9.07l-.429 2.806c-.07.46.217.893.641.97a.725.725 0 00.128.01c.374 0 .703-.292.766-.704l.47-3.082h1.877l-.428 2.807c-.07.459.217.892.64.968a.725.725 0 00.128.012c.374 0 .704-.293.767-.705l.47-3.082h3.121c.43 0 .778-.377.778-.842 0-.466-.348-.843-.778-.843h-2.864l.314-2.056h2.55c.43 0 .778-.377.778-.842 0-.466-.348-.843-.778-.843H14.93l.428-2.807c.07-.459-.216-.892-.64-.968-.424-.077-.824.234-.894.694l-.47 3.08h-1.877l.428-2.806c.07-.459-.217-.893-.64-.969-.425-.076-.824.235-.895.694l-.47 3.082H6.778c-.43 0-.778.377-.778.842 0 .466.348.843.778.843h2.864l-.314 2.056h-2.55zm4.44-2.056h1.877l-.314 2.056h-1.876l.314-2.056zM25.49 40.306a2.613 2.613 0 00-2.317-.527C22.09 40.045 21 41.067 21 42.751c0 1.048.378 1.958 1.157 2.782.636.673 1.554 1.313 2.976 2.075a.776.776 0 00.734 0C28.347 46.278 30 44.944 30 42.75c0-1.694-1.13-2.705-2.25-2.956-.842-.189-1.657.011-2.26.51zm2.944 2.445c0 1.183-.777 2.057-2.934 3.258-2.157-1.2-2.934-2.075-2.934-3.258 0-.88.504-1.317.976-1.433.087-.022.18-.034.276-.034.355 0 .745.166.986.638a.783.783 0 00.712.428.783.783 0 00.694-.457c.253-.549.786-.645 1.2-.552.495.11 1.023.54 1.023 1.41z" fill="currentColor"/></symbol></svg>