<?xml version="1.0" encoding="utf-8"?><svg width="230" height="230" viewBox="0 0 230 230" xmlns="http://www.w3.org/2000/svg" xmlns:xlink="http://www.w3.org/1999/xlink"><svg width="24" height="11" fill="none" viewBox="0 0 24 11" id="arrow-right" xmlns="http://www.w3.org/2000/svg"><path d="M0 5.653h22m0 0L18 1.3m4 4.353l-4 4.353" stroke="#CFA968" stroke-width="1.5"/></svg><svg width="16" height="16" fill="none" viewBox="0 0 16 16" id="clocks" x="24" y="11" xmlns="http://www.w3.org/2000/svg"><path d="M8 16A8 8 0 118 0a8 8 0 010 16zM8 1.143a6.857 6.857 0 100 13.714A6.857 6.857 0 008 1.143z" fill="#2B2B3E"/><path d="M10.623 11.428L7.429 8.235V2.857H8.57V7.76l2.857 2.863-.805.806z" fill="#2B2B3E"/></svg><svg width="24" height="25" fill="none" viewBox="0 0 24 25" id="email" x="40" y="27" xmlns="http://www.w3.org/2000/svg"><path d="M3.857 7.557l7.714 6.857 7.715-6.857" stroke="#CFA968"/><path stroke="#CFA968" stroke-linecap="round" stroke-linejoin="round" d="M3 6.7h17.143v12H3z"/></svg><svg width="24" height="25" fill="none" viewBox="0 0 24 25" id="location" x="64" y="52" xmlns="http://www.w3.org/2000/svg"><path clip-rule="evenodd" d="M12.334 22.7s6.333-6.65 6.333-12.667a6.333 6.333 0 10-12.667 0C6 16.05 12.334 22.7 12.334 22.7z" stroke="#CFA968"/><path clip-rule="evenodd" d="M12.334 11.089a1.056 1.056 0 100-2.111 1.056 1.056 0 000 2.11z" stroke="#CFA968"/></svg><svg width="24" height="25" fill="none" viewBox="0 0 24 25" id="map" x="88" y="77" xmlns="http://www.w3.org/2000/svg"><path clip-rule="evenodd" d="M5 8.144L9.333 6.7v11.556L5 19.7V8.144zm8.667 0L18 6.7v11.556L13.667 19.7V8.144zm0 0L9.333 6.7v11.556l4.334 1.444V8.144z" stroke="#CFA968" stroke-linejoin="round"/></svg><svg width="24" height="25" fill="none" viewBox="0 0 24 25" id="phone" x="112" y="102" xmlns="http://www.w3.org/2000/svg"><path d="M12.74 19.104l2.565-2.565a1 1 0 011.28-.113l3.55 2.476a1 1 0 01.135 1.528l-.386.386c-.71.71-1.73 1.018-2.685.71-2.065-.665-5.822-2.208-8.937-5.323-3.115-3.115-4.659-6.872-5.323-8.937-.308-.956 0-1.975.71-2.685l.386-.387a1 1 0 011.527.135L8.04 7.88a1 1 0 01-.113 1.28L5.36 11.723" stroke="#CFA968" stroke-linecap="round"/></svg><svg width="44" height="52" fill="none" viewBox="0 0 44 52" id="pointer" x="136" y="127" xmlns="http://www.w3.org/2000/svg"><path d="M35.178 18.216c-1.914-2.515-5.173-3.244-7.844-1.94-1.486-1.592-3.554-2.283-5.559-1.993V6.805c0-3.752-2.92-6.805-6.51-6.805s-6.51 3.053-6.51 6.805v16.364a6.256 6.256 0 00-6.097.901c-2.884 2.214-3.516 6.433-1.43 9.461l10.774 15.641c1.22 1.77 3.196 2.828 5.283 2.828h17.51c3.026 0 5.655-2.184 6.341-5.26l2.694-12.086c.113-.507.17-1.025.17-1.545v-8.53c0-4.758-4.58-8.052-8.822-6.363zM7.954 28.407l2.664 3.868c.883 1.283 2.851.639 2.851-.943V6.805c0-2.551 3.592-2.555 3.592 0v17.773c0 .898.703 1.625 1.571 1.625h.674c.868 0 1.571-.727 1.571-1.625v-3.554c0-2.552 3.592-2.556 3.592 0v3.554c0 .898.704 1.625 1.572 1.625h.673c.868 0 1.572-.727 1.572-1.625v-2.133c0-2.55 3.591-2.555 3.591 0v2.133c0 .898.704 1.625 1.572 1.625h.673c.868 0 1.572-.727 1.572-1.625 0-2.551 3.591-2.555 3.591 0v8.531c0 .152-.016.303-.049.45l-2.694 12.086c-.194.871-.912 1.48-1.746 1.48h-17.51a1.766 1.766 0 01-1.444-.782L5.067 30.703c-1.415-2.054 1.472-4.349 2.887-2.296zm9.346 12.22v-9.75c0-.898.615-1.626 1.375-1.626h.589c.76 0 1.375.728 1.375 1.625v9.75c0 .898-.616 1.625-1.375 1.625h-.59c-.759 0-1.374-.727-1.374-1.625zm7.408 0v-9.75c0-.898.615-1.626 1.375-1.626h.589c.76 0 1.375.728 1.375 1.625v9.75c0 .898-.616 1.625-1.375 1.625h-.59c-.759 0-1.374-.727-1.374-1.625zm7.408 0v-9.75c0-.898.615-1.626 1.375-1.626h.59c.759 0 1.374.728 1.374 1.625v9.75c0 .898-.615 1.625-1.375 1.625h-.59c-.759 0-1.374-.727-1.374-1.625z" fill="#CFA968"/></svg><svg width="26" height="26" fill="none" viewBox="0 0 26 26" id="popup-close" x="180" y="179" xmlns="http://www.w3.org/2000/svg"><path d="M25.276 23.26L2.648.633l-1.94 1.94L23.337 25.2l1.94-1.94z" fill="#272526"/><path d="M23.338.632L.711 23.26l1.94 1.94L25.278 2.572l-1.94-1.94z" fill="#272526"/></svg><svg width="24" height="25" fill="none" viewBox="0 0 24 25" id="time" x="206" y="205" xmlns="http://www.w3.org/2000/svg"><path d="M20.5 12.7a8.5 8.5 0 11-17 0 8.5 8.5 0 0117 0z" stroke="#CFA968"/><path d="M12 6.973V12.7l3.273 3.273" stroke="#CFA968" stroke-linecap="round"/></svg></svg>