<svg width="42" height="52" viewBox="0 0 42 52" fill="none" xmlns="http://www.w3.org/2000/svg">
<path d="M36.2683 51.9998H1.24434C0.557359 51.9998 0.000183105 51.3234 0.000183105 50.489V26.0929C0.000183105 25.2584 0.557275 24.582 1.24434 24.582C1.9314 24.582 2.48849 25.2584 2.48849 26.0929V48.9781H35.0242V45.6435C35.0242 44.8091 35.5813 44.1327 36.2684 44.1327C36.9553 44.1327 37.5125 44.8091 37.5125 45.6435V50.489C37.5124 51.3234 36.9553 51.9998 36.2683 51.9998Z" fill="#5A061F"/>
<path opacity="0.2" d="M1.24438 17.9891V17.5026L14.2743 1.51099V17.9891H1.24438Z" fill="#5A061F"/>
<path opacity="0.2" d="M40.756 22.2864H15.9949V38.9071H40.756V22.2864Z" fill="#5A061F"/>
<path d="M40.7559 20.7755H37.5124V1.51084C37.5124 0.676406 36.9553 0 36.2683 0H14.2742C14.2592 0 14.2442 0.00213281 14.2292 0.00274218C14.2149 0.00335156 14.2007 0.0040625 14.1866 0.00528124C14.133 0.00995311 14.0797 0.0172656 14.0274 0.0300625C14.0261 0.0303672 14.0249 0.0307734 14.0236 0.0312812C13.972 0.0440781 13.9216 0.0622577 13.872 0.0827733C13.859 0.0882577 13.8462 0.0938436 13.8335 0.0997343C13.7843 0.122383 13.736 0.147672 13.6894 0.177734C13.6881 0.178648 13.6867 0.179258 13.6854 0.179969C13.6377 0.211047 13.5923 0.247304 13.5482 0.285898C13.537 0.295547 13.5262 0.3055 13.5152 0.315859C13.4716 0.356789 13.4292 0.400054 13.3899 0.448195L0.359797 16.4397C0.330525 16.4755 0.303093 16.5129 0.277166 16.5518C0.259853 16.5776 0.244716 16.6047 0.228992 16.6314C0.221298 16.6448 0.212683 16.6574 0.205324 16.6709C0.187509 16.7037 0.171619 16.7375 0.156146 16.7715C0.152132 16.7801 0.147532 16.7885 0.143852 16.7972C0.128714 16.8321 0.1155 16.8678 0.102787 16.9035C0.0995255 16.9126 0.0956783 16.9212 0.0927511 16.9302C0.0812095 16.9646 0.0715914 16.9993 0.062308 17.0343C0.0592135 17.0461 0.0553663 17.0576 0.0523554 17.0694C0.0444937 17.1014 0.0385557 17.1338 0.0324503 17.1663C0.0294395 17.182 0.0258432 17.1973 0.0232505 17.2131C0.0184833 17.2428 0.0156397 17.2726 0.0122943 17.3026C0.0102034 17.3215 0.00727625 17.3402 0.00585445 17.3592C0.00359631 17.3883 0.00326175 17.4174 0.00225814 17.4466C0.00167269 17.4652 0 17.4836 0 17.5021V17.9888C0 18.8233 0.557092 19.4997 1.24415 19.4997H14.2741C14.9611 19.4997 15.5183 18.8233 15.5183 17.9888V3.02168H35.0241V20.7755H15.995C15.308 20.7755 14.7508 21.4519 14.7508 22.2863V38.9064C14.7508 39.7409 15.3079 40.4173 15.995 40.4173H40.7558C41.4429 40.4173 42 39.7409 42 38.9064V22.2863C42.0001 21.4519 41.4429 20.7755 40.7559 20.7755ZM13.0301 16.4781H3.82914L8.53753 10.6996L13.0302 5.18578V16.4781H13.0301ZM39.5118 37.3956H17.2391V23.7972H39.5118V37.3956Z" fill="#5A061F"/>
<path d="M19.9811 32.7299C20.0544 32.7366 20.1377 32.7432 20.2311 32.7499C20.3311 32.7499 20.4477 32.7499 20.5811 32.7499C21.3611 32.7499 21.9377 32.5532 22.3111 32.1599C22.6911 31.7666 22.8811 31.2232 22.8811 30.5299C22.8811 29.8032 22.7011 29.2532 22.3411 28.8799C21.9811 28.5066 21.4111 28.3199 20.6311 28.3199C20.5244 28.3199 20.4144 28.3232 20.3011 28.3299C20.1877 28.3299 20.0811 28.3366 19.9811 28.3499V32.7299ZM24.4911 30.5299C24.4911 31.1299 24.3977 31.6532 24.2111 32.0999C24.0244 32.5466 23.7577 32.9166 23.4111 33.2099C23.0711 33.5032 22.6544 33.7232 22.1611 33.8699C21.6677 34.0166 21.1144 34.0899 20.5011 34.0899C20.2211 34.0899 19.8944 34.0766 19.5211 34.0499C19.1477 34.0299 18.7811 33.9832 18.4211 33.9099V27.1599C18.7811 27.0932 19.1544 27.0499 19.5411 27.0299C19.9344 27.0032 20.2711 26.9899 20.5511 26.9899C21.1444 26.9899 21.6811 27.0566 22.1611 27.1899C22.6477 27.3232 23.0644 27.5332 23.4111 27.8199C23.7577 28.1066 24.0244 28.4732 24.2111 28.9199C24.3977 29.3666 24.4911 29.9032 24.4911 30.5299Z" fill="#5A061F"/>
<path d="M27.1041 30.5299C27.1041 30.8699 27.1441 31.1766 27.2241 31.4499C27.3108 31.7232 27.4308 31.9599 27.5841 32.1599C27.7441 32.3532 27.9375 32.5032 28.1641 32.6099C28.3908 32.7166 28.6508 32.7699 28.9441 32.7699C29.2308 32.7699 29.4875 32.7166 29.7141 32.6099C29.9475 32.5032 30.1408 32.3532 30.2941 32.1599C30.4541 31.9599 30.5741 31.7232 30.6541 31.4499C30.7408 31.1766 30.7841 30.8699 30.7841 30.5299C30.7841 30.1899 30.7408 29.8832 30.6541 29.6099C30.5741 29.3299 30.4541 29.0932 30.2941 28.8999C30.1408 28.6999 29.9475 28.5466 29.7141 28.4399C29.4875 28.3332 29.2308 28.2799 28.9441 28.2799C28.6508 28.2799 28.3908 28.3366 28.1641 28.4499C27.9375 28.5566 27.7441 28.7099 27.5841 28.9099C27.4308 29.1032 27.3108 29.3399 27.2241 29.6199C27.1441 29.8932 27.1041 30.1966 27.1041 30.5299ZM32.3941 30.5299C32.3941 31.1232 32.3041 31.6466 32.1241 32.0999C31.9508 32.5466 31.7108 32.9232 31.4041 33.2299C31.0975 33.5299 30.7308 33.7566 30.3041 33.9099C29.8841 34.0632 29.4308 34.1399 28.9441 34.1399C28.4708 34.1399 28.0241 34.0632 27.6041 33.9099C27.1841 33.7566 26.8175 33.5299 26.5041 33.2299C26.1908 32.9232 25.9441 32.5466 25.7641 32.0999C25.5841 31.6466 25.4941 31.1232 25.4941 30.5299C25.4941 29.9366 25.5875 29.4166 25.7741 28.9699C25.9608 28.5166 26.2108 28.1366 26.5241 27.8299C26.8441 27.5232 27.2108 27.2932 27.6241 27.1399C28.0441 26.9866 28.4841 26.9099 28.9441 26.9099C29.4175 26.9099 29.8641 26.9866 30.2841 27.1399C30.7041 27.2932 31.0708 27.5232 31.3841 27.8299C31.6975 28.1366 31.9441 28.5166 32.1241 28.9699C32.3041 29.4166 32.3941 29.9366 32.3941 30.5299Z" fill="#5A061F"/>
<path d="M36.8545 34.1399C35.7279 34.1399 34.8679 33.8266 34.2745 33.1999C33.6879 32.5732 33.3945 31.6832 33.3945 30.5299C33.3945 29.9566 33.4845 29.4466 33.6645 28.9999C33.8445 28.5466 34.0912 28.1666 34.4045 27.8599C34.7179 27.5466 35.0912 27.3099 35.5245 27.1499C35.9579 26.9899 36.4279 26.9099 36.9345 26.9099C37.2279 26.9099 37.4945 26.9332 37.7345 26.9799C37.9745 27.0199 38.1845 27.0699 38.3645 27.1299C38.5445 27.1832 38.6945 27.2399 38.8145 27.2999C38.9345 27.3599 39.0212 27.4066 39.0745 27.4399L38.6245 28.6999C38.4112 28.5866 38.1612 28.4899 37.8745 28.4099C37.5945 28.3299 37.2745 28.2899 36.9145 28.2899C36.6745 28.2899 36.4379 28.3299 36.2045 28.4099C35.9779 28.4899 35.7745 28.6199 35.5945 28.7999C35.4212 28.9732 35.2812 29.1999 35.1745 29.4799C35.0679 29.7599 35.0145 30.0999 35.0145 30.4999C35.0145 30.8199 35.0479 31.1199 35.1145 31.3999C35.1879 31.6732 35.3012 31.9099 35.4545 32.1099C35.6145 32.3099 35.8212 32.4699 36.0745 32.5899C36.3279 32.7032 36.6345 32.7599 36.9945 32.7599C37.2212 32.7599 37.4245 32.7466 37.6045 32.7199C37.7845 32.6932 37.9445 32.6632 38.0845 32.6299C38.2245 32.5899 38.3479 32.5466 38.4545 32.4999C38.5612 32.4532 38.6579 32.4099 38.7445 32.3699L39.1745 33.6199C38.9545 33.7532 38.6445 33.8732 38.2445 33.9799C37.8445 34.0866 37.3812 34.1399 36.8545 34.1399Z" fill="#5A061F"/>
</svg>
