<svg width="40" height="52" viewBox="0 0 40 52" fill="none" xmlns="http://www.w3.org/2000/svg">
    <path d="M38.5312 9.95118L29.7917 1.43175C28.8542 0.517868 27.5833 0 26.2604 0H5C2.23958 0.0101543 0 2.19332 0 4.8842V47.126C0 49.8168 2.23958 52 5 52H35C37.7604 52 40 49.8168 40 47.126V13.4036C40 12.114 39.4688 10.8651 38.5312 9.95118ZM34.5938 13.0076H26.6667V5.28022L34.5938 13.0076ZM5 47.126V4.8842H21.6667V15.4446C21.6667 16.7952 22.7812 17.8817 24.1667 17.8817H35V47.126H5ZM27.0833 22.7557H24.0833C23.625 22.7557 23.2083 22.9994 22.9896 23.3954C21.1146 26.7565 20.6771 27.7008 20.0104 29.2544C18.5625 26.2996 19.2917 27.4978 17.0312 23.3954C16.8125 22.9994 16.3854 22.7557 15.9271 22.7557H12.9167C11.9479 22.7557 11.3542 23.7711 11.8333 24.5835L16.6562 32.5038L11.8333 40.4241C11.3438 41.2365 11.9479 42.2519 12.9167 42.2519H15.9271C16.3854 42.2519 16.8021 42.0082 17.0208 41.6122C19.2812 37.5505 19.4167 37.0428 20 35.7532C21.5521 38.8198 20.6146 37.3677 22.9792 41.6122C23.1979 42.0082 23.625 42.2519 24.0833 42.2519H27.0833C28.0521 42.2519 28.6458 41.2365 28.1667 40.4241L23.3333 32.5038C23.4062 32.3921 26.4896 27.3759 28.1562 24.5835C28.6458 23.7711 28.0417 22.7557 27.0833 22.7557Z"
          fill="currentColor"/>
</svg>
