<svg width="25" height="18" viewBox="0 0 25 18" fill="none" xmlns="http://www.w3.org/2000/svg">
    <path fill-rule="evenodd" clip-rule="evenodd"
          d="M25 8.59375C25 8.59375 20.3125 0 12.5 0C4.6875 0 0 8.59375 0 8.59375C0 8.59375 4.6875 17.1875 12.5 17.1875C20.3125 17.1875 25 8.59375 25 8.59375ZM1.83281 8.59375C2.58831 9.74199 3.45726 10.8114 4.42656 11.7859C6.4375 13.8 9.1875 15.625 12.5 15.625C15.8125 15.625 18.5609 13.8 20.575 11.7859C21.5443 10.8114 22.4132 9.74199 23.1688 8.59375C22.4133 7.44551 21.5443 6.37607 20.575 5.40156C18.5609 3.3875 15.8109 1.5625 12.5 1.5625C9.1875 1.5625 6.43906 3.3875 4.425 5.40156C3.45569 6.37607 2.58674 7.44551 1.83125 8.59375H1.83281Z"
          fill="currentColor"/>
    <path fill-rule="evenodd" clip-rule="evenodd"
          d="M12.5 5.55155C11.6598 5.55155 10.8539 5.88534 10.2598 6.4795C9.66563 7.07365 9.33184 7.8795 9.33184 8.71976C9.33184 9.56002 9.66563 10.3659 10.2598 10.96C10.8539 11.5542 11.6598 11.888 12.5 11.888C13.3402 11.888 14.1461 11.5542 14.7402 10.96C15.3344 10.3659 15.6682 9.56002 15.6682 8.71976C15.6682 7.8795 15.3344 7.07365 14.7402 6.4795C14.1461 5.88534 13.3402 5.55155 12.5 5.55155ZM8.06458 8.71976C8.06458 7.54339 8.53188 6.41521 9.36368 5.58339C10.1955 4.75158 11.3237 4.28427 12.5 4.28427C13.6763 4.28427 14.8045 4.75158 15.6363 5.58339C16.4681 6.41521 16.9354 7.54339 16.9354 8.71976C16.9354 9.89612 16.4681 11.0243 15.6363 11.8561C14.8045 12.6879 13.6763 13.1552 12.5 13.1552C11.3237 13.1552 10.1955 12.6879 9.36368 11.8561C8.53188 11.0243 8.06458 9.89612 8.06458 8.71976Z"
          fill="currentColor"/>
</svg>
