<svg width="65" height="42" viewBox="0 0 65 42" fill="none" xmlns="http://www.w3.org/2000/svg">
    <path fill-rule="evenodd" clip-rule="evenodd"
          d="M37.2901 4.2643L37.5201 4.16059L37.3932 4.52978L37.7303 4.21452L37.6906 4.02785L37.766 3.86193C37.4924 3.9283 37.3576 3.96148 37.2901 4.2643ZM37.532 4.11081C37.54 4.10252 37.5519 4.13156 37.5519 4.13156C37.5519 4.13156 37.5241 4.11911 37.532 4.11081ZM35.9459 5.11881C35.5969 5.12711 35.6207 5.3677 35.4106 5.52948L35.4542 5.55022L35.5731 5.45067C35.2321 5.94844 34.9942 6.47111 34.8554 7.02281L33.7332 7.31318L33.6975 7.53718L35.2718 7.32978C35.4978 7.32978 36.0411 7.35467 36.0411 7.12652V6.92741H35.6564C35.6564 6.24296 36.2909 5.05244 36.6715 4.75793L36.616 4.71644C36.6002 4.69985 36.5843 4.76622 36.5764 4.77452C36.5684 4.78696 36.5447 4.816 36.5328 4.82844C36.4971 4.86993 36.4772 4.88652 36.4376 4.928C36.3583 5.01096 36.2948 5.06904 36.2195 5.152C36.1085 5.28059 35.9776 5.52118 35.8943 5.67052C35.7833 5.86963 35.4621 6.63289 35.4621 6.92741C35.3669 6.98133 35.3194 7.02696 35.1726 7.02696H34.9823C35.0458 6.24296 36.1679 4.65422 36.7588 4.51318C36.8143 4.68741 37.1236 4.30163 37.1989 4.18548C36.8103 4.23526 36.0252 4.8077 35.9459 5.11881ZM35.6247 5.48385L35.8111 5.13126L35.8745 5.18933L35.6247 5.48385ZM33.4081 7.86074C34.221 7.7197 35.8468 7.47496 36.6755 7.44593L36.739 7.37126C35.9459 7.4003 34.5263 7.54963 33.6737 7.66578C33.4239 7.68237 33.4477 7.82341 33.4081 7.86074ZM43.9519 7.23022L43.9242 7.45007C44.1145 7.47496 44.3128 7.52059 44.5031 7.6243C44.5666 7.37541 44.1145 7.26755 43.9519 7.23022ZM38.3013 4.76622L38.4123 4.41778L38.3013 4.41363L38.3568 4.01126C38.4996 3.96978 38.5709 3.96978 38.3965 3.90756L38.4758 3.66281L38.9318 3.65037C38.6542 3.84533 38.4322 4.77452 38.3013 4.76622ZM35.0339 8.98074L34.4272 9.07615L34.4311 9.32089L33.8205 9.42044L33.8165 9.18815C33.3526 9.24207 32.1074 9.59467 31.6752 9.73985C31.5245 9.73985 31.3937 9.88089 31.3421 10.0012L31.6197 9.95141L31.7268 10.0427L33.8403 9.79793C33.9473 9.78133 33.9711 9.81867 34.0386 9.856L34.1773 9.74815C34.1813 10.0012 34.2249 10.0966 34.4192 10.1505H34.4668H34.7087V10.2501L34.8435 10.2459L34.899 10.0966H35.0894C35.0616 9.98459 35.0775 9.94726 34.9466 9.94726L34.3201 10.0095V9.81037L36.0371 9.69837L36.0014 8.86044L35.0339 8.98074ZM43.2976 10.0468H43.488C43.4325 9.96385 43.48 9.94726 43.3452 9.94726H43.1549C43.2104 10.0302 43.1589 10.0468 43.2976 10.0468ZM43.5276 10.109L46.3867 10.3455L46.1448 10.2127L43.5911 9.9597L43.5276 10.109ZM35.6564 9.94726H35.129C35.1568 10.0593 35.1409 10.0966 35.2718 10.0966C35.3947 10.0966 35.3868 10.0841 35.4621 10.0468C35.4621 10.0468 35.5533 10.0966 35.5573 10.0966C35.704 10.0966 35.7635 10.0261 35.7992 9.89333C35.7437 9.93067 35.7476 9.94726 35.6564 9.94726ZM31.1875 10.3123L31.0804 10.5404C31.243 10.5902 33.1464 10.1422 33.2495 10.1961C33.2891 10.1671 33.3684 10.0966 33.3922 10.0966C33.4001 10.0966 33.65 10.2791 33.6777 10.2957L33.8244 10.2501C33.8165 9.8477 33.4953 10.0302 33.0551 10.0468L31.1875 10.3123ZM33.8799 10.0966L34.1218 10.1464C34.1139 10.0468 34.1258 9.94311 34.0267 9.94311C33.9077 9.94726 33.8799 9.98044 33.8799 10.0966ZM35.8507 10.0468C35.8507 10.1796 35.9181 10.1961 35.9935 10.2501V9.94726C35.9221 9.96385 35.8507 9.9597 35.8507 10.0468ZM47.0409 10.5156L46.8427 10.2584L46.6285 10.2252L46.4263 10.2916L47.0409 10.5156ZM33.7332 10.6524C33.7729 10.7976 33.7134 10.7479 33.8284 10.7022C33.8443 10.8972 33.8006 10.8557 33.9711 10.9013L33.9672 10.5902L33.7332 10.6524ZM25.4219 11.005L26.1475 11.0258C26.1277 10.7769 25.5527 10.7105 25.3267 10.8267L25.4219 11.005ZM23.7405 11.0548H23.8833C23.8833 10.7727 23.7405 10.7727 23.7405 11.0548ZM45.32 11.0424C46.0099 11.1834 46.3311 11.507 46.3867 12.1292C46.3906 12.179 46.581 11.7932 46.6047 11.8388L46.6127 10.8806L46.1963 10.752L46.1765 10.8267L45.312 10.7105L45.32 11.0424ZM26.2387 11.0548L26.667 11.1212L26.7542 11.2415L26.2347 11.1544V12.1084H26.7146C26.7542 11.9301 26.8097 11.872 26.8097 11.6563L26.8058 11.2124L26.7146 11.1378L27.4799 11.2913V11.117C27.0516 10.9843 26.6273 10.9138 26.1991 10.8764L26.2387 11.0548ZM22.5866 11.3037L22.8325 11.3244L22.5866 11.4033V12.208H23.114V11.2705L22.884 11.3161L22.7373 11.283L23.1219 11.1751L23.1299 11.0507L23.114 11.005C22.8166 11.0299 22.5946 10.9967 22.5866 11.3037ZM16.7695 11.4655H16.9598L16.9638 10.5985L16.7853 10.4741L16.7695 11.4655ZM18.1137 11.4655H18.193L18.197 10.6276H18.1177L18.1137 11.4655ZM18.5023 11.4572H18.5816V10.781H18.5023V11.4572ZM21.3891 10.5239L21.2225 10.6856L21.052 10.6524L20.9331 10.8142L20.711 10.7976L20.6396 10.9221L20.4097 10.9553L20.4057 10.6027L20.3383 10.6068L20.3343 11.0714L20.0131 11.1834L19.6642 11.3493L19.6483 10.6068L19.5809 10.5985L19.5849 11.4447L20.8736 10.9262L22.1108 10.3911L21.3891 10.5239ZM18.9464 11.4655L19.0138 11.453V10.6359L18.9464 10.6483V11.4655ZM21.9641 11.4074C21.9641 11.5194 22.0037 11.5194 22.0592 11.6107H21.9641V12.2661H22.4915V11.4613C22.3487 11.4945 22.2099 11.5692 22.083 11.6065L22.0791 11.5153C22.3447 11.4281 22.4677 11.4655 22.4875 11.2124H22.2972C22.1623 11.2041 21.9641 11.3037 21.9641 11.4074ZM23.2132 11.7559L23.3559 11.7061V11.453H23.2132V11.7559ZM28.6496 11.76L28.2095 11.6563V12.0587H28.7845L28.7686 11.9052L28.7845 11.5526L28.6972 11.5567L28.6496 11.76ZM27.6266 11.4074L27.5393 11.4033V11.7061C27.5393 11.8305 27.9121 12.0587 27.9716 12.0587H28.1619L28.1579 11.5733L27.7297 11.4074C27.9835 11.4074 27.9636 11.4613 28.0152 11.2622L27.5156 11.1668L27.6266 11.4074ZM25.4139 12.1333L26.0008 12.1582C26.1118 12.1582 26.1435 12.125 26.1435 12.0089V11.1046H25.8065C25.6756 11.1046 25.5012 11.0963 25.4377 11.0756C25.5289 11.3867 25.4932 11.7683 25.4139 12.1333ZM26.8652 12.1084H27.2499C27.3609 12.1084 27.4918 11.9757 27.4918 11.8554L27.464 11.3659L26.8771 11.2581L26.8652 12.1084ZM23.2132 11.1544L23.4035 11.088V11.1876L23.2132 11.2539V11.3535C23.348 11.3659 23.4035 11.3535 23.4035 11.5028V11.6521C23.4035 11.8056 23.348 11.7932 23.2132 11.8015V12.2039H23.4035C23.57 12.2039 23.5899 12.1665 23.7524 12.1541L23.693 11.5526C23.6692 11.3286 23.9388 11.1585 23.4987 11.1461L23.685 11.0382L23.7247 10.8225L23.2092 10.947V11.1544H23.2132ZM46.7078 12.32L47.037 12.2951L47.0449 12.1499H46.7078V12.32ZM47.1401 12.3905L48.7302 12.2827L48.9681 12.1624H47.148L47.1401 12.3905ZM49.4479 12.1582H49.0633V12.4569L51.0063 12.4113L51.0102 12.067C50.9428 12.1043 50.233 12.1582 50.118 12.1582H49.8286C49.7057 12.1582 49.7136 12.1458 49.6382 12.1084C49.5708 12.1458 49.5589 12.1582 49.4479 12.1582ZM21.3375 11.9093V12.2619H21.8649V11.6563L21.5199 11.7517V11.6521L21.8649 11.5567V11.3535C21.4803 11.4489 21.3375 11.5401 21.3375 11.9093ZM24.6367 12.2121H24.7041V12.3117H24.8469C25.4456 12.0504 25.3822 11.2913 25.2315 11.0548L25.0372 11.0673L24.6367 11.0756V12.2121ZM24.1728 12.2121H24.5653V11.0756L24.0578 11.0839L24.141 11.0175L24.5653 11.0092V10.8101L24.6367 10.7769V11.005L24.8469 11.0009L24.9976 10.9594C25.0491 10.8847 24.9817 10.8059 24.8231 10.752C24.605 10.7105 24.3671 10.7644 24.1807 10.893C23.8278 11.1419 23.6731 11.731 24.1728 12.2121ZM42.1675 12.3864L42.3341 12.461L42.3103 12.2329L42.1675 12.3864ZM42.4332 12.6643L42.6354 12.6684L42.5799 12.8136L42.8258 13.0501L42.8218 12.7597L42.4372 12.4154L42.4332 12.6643ZM8.6405 12.8841C8.69204 13.1081 9.53666 13.0169 9.90148 13.0169C9.94113 13.0459 10.0204 13.1164 10.0442 13.1164C10.1989 13.1164 10.2306 12.9754 10.2822 12.8551L8.6405 12.8841ZM10.4289 13.3156L10.5637 13.3114L10.6232 13.0625C10.4209 13.0833 10.4289 13.0957 10.4289 13.3156ZM12.9746 13.021V13.3653H13.2165C13.1967 13.104 13.1015 12.9713 12.8279 12.992L12.9746 13.021ZM12.5939 13.3695H12.8834V13.0667C12.7208 13.1081 12.6336 13.1994 12.5939 13.3695ZM56.3436 13.3944L56.875 13.6681L56.99 13.5271L56.4864 13.2284L56.3436 13.3944ZM43.3492 13.9295L43.3452 14.1203H43.488V13.8714L43.3492 13.9295ZM29.748 14.224L29.8948 14.1659L30.0851 14.224C30.0336 14.1452 30.0217 14.0747 29.8948 14.0747H29.752V14.224H29.748ZM39.6138 14.0249L40.2959 14L42.568 14.2987V14.2572L40.2959 13.9544L39.6138 13.917V14.0249ZM56.5617 14.3401H56.6093L56.6054 14.1701H56.5578L56.5617 14.3401ZM58.1915 14.8255L58.703 14.8504L58.6554 14.7964L58.1955 14.5766L58.1915 14.8255ZM45.7482 13.7553H45.9901V13.8714H45.7482V14.8255V15.3772H46.0853C46.2677 15.3772 46.1011 15.3606 46.228 15.427L46.2399 12.9547L46.0734 13.3736V13.0708L45.7482 12.9671V13.7553ZM11.0078 15.5929H12.7962V15.5141H11.0078V15.5929ZM10.4566 16.1819L10.873 16.0782L10.7699 15.933L10.8175 15.4809H10.5756L10.4566 16.1819ZM45.0424 15.3274H45.2169L45.2248 15.4436H45.0424V15.5804C45.0424 15.7713 44.9869 15.8999 44.8877 15.9828L44.8322 15.7837C44.6459 15.9164 44.5428 15.7754 44.5428 15.987V16.1902H45.55V16.0907L45.6967 16.0782L45.546 15.8376V13.8756H45.4984L45.1138 14.4273V13.1662L45.0345 13.0584V15.3274H45.0424ZM42.7544 16.8166L43.0082 16.8871V16.2317H42.7544V16.8166ZM15.4014 16.912H15.4807L15.5085 17.4222L15.8574 17.1692L15.8336 16.9161H16.2143L15.7742 16.3603L15.4014 16.912ZM45.2684 16.8871H45.5103V16.2815H45.2684V16.8871ZM44.5467 16.7378C44.5467 16.9369 44.9631 16.9244 45.1019 16.941L45.0781 16.2856H44.5507V16.7378H44.5467ZM10.528 16.2981V16.9908H11.3449V16.2276L10.528 16.2981ZM12.5345 16.9867H12.8319V16.3852L12.5345 16.3727V16.9867ZM17.0867 16.7834L17.4475 16.8166V17.0696L17.5863 17.0364V16.7834L17.8361 16.7751L17.4872 16.3147L17.0867 16.7834ZM3.46175 15.5804C3.44985 15.7215 3.46175 15.7837 3.319 15.7837C3.21986 15.7837 3.23176 15.68 3.22383 15.5804H3.46175ZM14.081 17.6587H14.9454V17.5425H14.081V17.6587ZM13.6963 17.7416H13.8391V17.1899H13.6963V17.7416ZM17.4912 17.2936L17.1105 17.5425C17.1819 17.8204 17.281 17.5923 17.6379 17.5923V17.1401L17.4356 17.1443L17.4912 17.2936ZM9.22737 17.7416C9.38202 17.7375 9.46925 17.7582 9.46925 17.5923V17.389C9.46925 17.2231 9.37409 17.1982 9.22737 17.1858V17.7416ZM45.1693 17.7416H45.5539V17.0904H45.312V17.696H45.2169V17.0904H45.1693V17.7416ZM11.3924 18.1481H11.6819C11.6304 17.9532 11.6185 17.9532 11.3924 17.9449V18.1481ZM28.0231 15.2279C27.4323 15.2693 27.7297 15.5016 27.583 15.6385L27.579 18.0984L27.698 18.3431L28.1619 18.3514V18.1481V17.6462H28.7369L28.7448 18.3473L29.1691 18.4095C29.2563 18.4136 29.296 18.2228 29.3158 18.1481H29.1731V17.8453C29.1731 17.6296 29.0779 17.6421 29.0779 17.4927C29.0779 17.3559 29.1453 17.2978 29.2207 17.2397V17.3393H29.411V15.373H29.5062V15.2735L29.3238 15.3689L29.2603 15.2196L28.0231 15.2279ZM29.2643 17.2397C29.181 17.331 29.3515 17.1526 29.2643 17.2397V17.2397ZM10.5756 17.6919H10.3852V17.5425C10.3852 17.36 10.2544 17.1401 10.0958 17.1401H9.85389V17.6919H10.0958V17.4886H10.2385V17.891H9.75872V18.5464H10.4328V17.9407H10.528V18.5464H11.3449V17.891H10.5756V17.6919H11.2973V17.1401H10.5756V17.6919ZM12.2093 18.3473C12.2093 18.173 12.3045 18.2726 12.3045 18.0942V17.891H11.9198V18.2436C11.9198 18.3804 11.896 18.3804 11.8723 18.4966H12.2093V18.3473ZM13.6011 18.6003H13.6805V18.2477H13.6011V18.6003ZM18.3596 18.5505L18.2128 18.6044L18.3516 18.8119L18.3596 18.5505ZM15.7623 19.0027H16.0993C16.0795 18.928 16.0914 18.8533 16.0041 18.8533C15.8773 18.8492 15.8178 18.9239 15.7623 19.0027ZM32.0717 19.04L33.9592 19.0317L33.9791 18.9446L32.0678 18.9529V19.04H32.0717ZM10.2782 18.9073L10.3813 18.9031V18.7496C10.3813 18.6335 10.3496 18.6003 10.2385 18.6003H9.75872V19.3055H10.3852L10.3932 19.0483L10.2782 18.9073ZM10.528 19.2018H10.6232V19.3013H11.0554V19.2018H11.1981V19.3013H11.3409V18.6459H10.524V19.2018H10.528ZM12.1617 19.2516V19.1022H11.8247V19.3055H12.3996V19.2557H12.1617V19.2516ZM17.0391 20.1434L17.0312 19.9277L16.8686 20.1434H17.0391ZM9.94906 19.405C9.96492 19.4465 9.99664 19.5917 9.99664 19.6581V20.1434H10.9166C11.0316 20.0853 11.2378 19.9028 11.3924 19.8572V19.5544C11.3924 19.4382 11.3607 19.405 11.2497 19.405H9.94906ZM1.34425 17.2978C4.05655 17.3061 4.59981 17.2687 1.1103 17.2231L5.51977 17.1899L5.67838 17.4471L1.34425 17.2978ZM1.83199 17.5923C3.60847 17.6379 3.32296 17.5259 1.59011 17.4803L3.41417 17.4471V17.6877L1.83199 17.5923ZM40.5734 10.864L40.6171 10.7188L40.7598 10.723L40.6686 10.864H40.5734ZM39.1657 12.5108C39.1657 12.5564 39.1658 12.5979 39.1697 12.6353H39.4552V13.523H39.0944V13.2575L39.0389 13.1081L39.0587 13.0584L39.0944 13.0916V12.6394H39.1657V12.5108ZM40.744 14.3401L41.0374 14.3733V14.4729L41.1326 14.4895L41.1365 14.2738L40.7519 14.224L40.744 14.3401ZM39.479 13.7096L39.6138 13.7428V13.8507L39.6495 13.7926L42.7028 14.2199L42.8575 14.2821L43.0082 14.2281L42.8852 14.4024L42.9051 14.531H42.6672V14.3816H42.572V14.4812L41.1365 14.2904L41.1682 14.3526L42.5244 14.5351L42.7266 14.7218L41.081 14.531L40.9383 14.4812L40.4585 14.4314V14.3319L40.7122 14.2696L40.3633 14.2281C40.284 14.0332 40.4545 14.0705 40.0262 14.0747C39.8518 14.0747 39.6733 14.0747 39.479 14.0705V13.7096ZM54.587 13.8133L55.162 13.8175V13.8714H54.9201V13.9004L55.154 13.9046L55.162 14.1203L54.583 14.1161V13.9627C54.583 13.8797 54.6465 13.9129 54.8725 13.9087L54.8765 13.8714H54.587V13.8133ZM39.9826 14.1203H40.2721V14.1701H39.9826V14.1203ZM53.8613 14.1742H54.2499V14.3443H53.8613V14.1742ZM54.3015 14.3401V14.1701H54.4918V14.3401H54.3015ZM55.4633 14.3401L55.4475 14.1659L55.8559 14.1618L55.8638 14.3401H55.4633ZM39.483 14.195L40.3197 14.2738V14.4231L39.483 14.3692V14.195ZM30.553 14.4521L31.5721 14.4729L31.8497 14.5807L30.5808 14.5932L30.553 14.4521ZM26.6234 14.5766H27.008V14.7259L26.6234 14.7757V14.5766ZM40.629 14.6056L40.9858 14.6471L40.9898 14.7301H40.7479V14.7799L41.4339 14.8545L41.7155 15.0744L41.7591 15.0287V15.2279L41.1682 15.149L41.1841 21.7778L41.3229 22.2714L40.6052 22.2673V20.1102H40.7003L40.5972 19.8116L40.7003 19.8074V19.7037H40.6052L40.6964 19.2516H40.5576C40.5814 19.1396 40.6131 19.123 40.6052 19.0483L40.5616 18.6459L40.5655 17.1982L40.4426 17.0862V16.9867L40.5576 16.8871L40.506 16.6258V15.4477L40.6052 15.1781L40.5457 14.8794C40.2205 14.8836 40.2681 14.9997 40.2721 15.3813L40.2681 21.7778L40.3554 21.7819L40.5219 22.2673H39.5662C39.5662 19.8406 39.5662 19.6498 39.5662 17.3476L39.8359 17.4056L39.5702 17.1816L39.594 14.9209C39.7407 14.8379 39.9271 14.8421 40.0976 14.8794L40.2086 14.7135L40.3593 14.8006L40.629 14.6056ZM48.9602 14.8255H50.7446V14.8753L48.9602 15.1822V14.8255ZM54.2539 14.925C54.0953 14.925 54.1151 15.0163 54.1111 15.1781H54.016V15.0287C54.016 14.9167 53.9763 14.9167 53.9208 14.8255H54.0636V14.5724H54.1587V14.8255H54.8091V14.925H54.2539ZM56.9226 14.9167L55.1184 14.925C55.1302 14.8504 55.1739 14.8255 55.2611 14.8255H55.3563C55.4475 14.8255 55.4435 14.8421 55.499 14.8753C55.5744 14.8172 55.3999 14.8255 55.5942 14.8255L56.9186 14.8172V14.9167H56.9226ZM54.8804 14.9458C54.8566 14.7716 54.9003 14.8172 55.1104 14.8255C55.0549 15.0329 55.0232 14.8919 54.8804 14.9458ZM53.0048 15.1283H53.9446V15.1781H53.0048V15.1283ZM54.1667 15.1283H55.499V15.2113H54.1667V15.1283ZM55.5506 15.1283H56.0343V15.2113H55.5506V15.1283ZM56.0661 15.1407L56.2207 15.1283L56.2088 15.2901L56.0661 15.1407ZM42.913 15.2279V15.1283H43.0082V15.2279H42.913ZM42.1992 15.9413L42.1913 19.5046H42.001C41.9772 19.6166 41.9534 19.6207 41.9534 19.7576V21.7778L42.0803 22.2631H41.6163V18.0942L41.5132 17.949L41.5212 15.7796H41.6163L41.6203 15.2776L41.771 15.2859C42.2785 15.2527 42.1992 15.821 42.1992 15.9413ZM51.609 15.3813H51.3195V15.232H51.609V15.3813ZM53.0286 15.2776C53.3102 15.2693 53.3181 15.0619 53.3855 15.3316L53.0088 15.3357L53.0286 15.2776ZM51.3195 15.5307C51.498 15.5473 51.498 15.5473 51.5099 15.7339C51.3354 15.7173 51.3354 15.7173 51.3195 15.5307ZM56.4388 15.7339L56.3992 15.6676L56.986 15.6759L56.9702 15.7339H56.4388ZM57.1843 15.5307L57.4341 15.6717C57.3945 15.8252 57.3786 15.7671 57.3786 15.8833C57.3786 15.8833 57.3786 19.6207 57.3945 19.7037H57.2041V19.907L57.3984 19.8655L57.4064 20.2596L57.0614 20.2347L57.0415 15.6385L57.1883 15.7879V15.5307H57.1843ZM56.2207 15.6302C56.3278 15.6593 56.3635 15.6427 56.3635 15.7796V15.9289H56.2207V16.0782L56.0383 16.0824L56.0542 15.7298L56.2207 15.7256V15.6302ZM56.9424 15.9372C56.8988 16.1321 56.8393 16.2359 56.6529 16.2856V16.1861H56.7957L56.7997 15.9953L56.9424 15.9372ZM56.0383 16.1529L56.419 16.1861L56.4428 20.2305L56.0264 20.2679L55.9947 19.7244L56.074 19.2764V18.8409L56.0859 18.2767L56.0304 17.6753L56.0066 17.1567L56.0304 16.7004L56.0383 16.1529ZM23.3083 16.1695V16.435C23.3083 16.5138 23.3242 16.7212 23.3361 16.9576H23.5304V16.1695H23.3083ZM56.5578 16.5345C56.7323 16.6673 56.6133 16.576 56.6054 16.8871L56.8314 16.6092L56.9424 16.5843L56.8393 16.9327H56.6529L56.5578 17.0821V16.5345ZM57.7117 16.688H57.902L57.8465 16.8373L57.9615 16.9327L57.8901 17.3434C57.7672 17.3351 57.7117 17.3476 57.7117 17.1941V16.688ZM21.6072 17.0738C21.6905 17.2231 21.6746 17.0489 21.6746 17.2397C21.6746 17.5342 21.5477 17.92 21.3851 18.0444L21.4803 17.7914L21.4287 17.5923L21.4565 17.5342L21.3931 17.0655L21.6072 17.0738ZM24.2402 17.6296V18.6003H23.0664C23.0783 18.451 23.1021 18.3473 23.2568 18.3473H23.6255V17.6296H24.2402ZM34.2685 18.899H32.4366V18.7496H34.3796L34.2685 18.899ZM43.5356 18.9819L44.063 19.0441L44.2573 19.0317V20.9647H44.1145V19.5585H44.2097L44.1978 19.4963L44.0114 19.5336L43.3928 19.5419L43.1509 19.5585V19.0815L43.5356 19.181V18.9819ZM46.3232 18.9778L46.5413 18.9736L46.5016 20.9647H46.466V20.5624H46.4184V20.9647H46.3708V20.4628L46.466 20.4379V20.2637L46.4065 20.2679L46.3549 19.5129H46.0813V20.0646L46.0932 20.467L46.0813 20.9689H45.9862V19.0483L46.3232 18.9778ZM45.2169 18.9819L45.6967 19.04V20.9647H45.5539V19.5087L45.201 19.6083L45.2169 19.6705L44.9314 19.6041V20.0231H45.3636V20.1393H44.9314V20.9689H44.7886V19.0359H45.0305C45.1376 19.0359 45.1376 19.0773 45.2208 19.1354V18.9819H45.2169ZM48.5121 19.5129V19.5087L48.7619 19.4548L48.631 19.6581C48.9245 19.8074 48.6826 19.7576 48.5438 19.6871V19.8199H48.9007V19.2764H48.5121V19.5129ZM23.5978 19.7576V20.0107L23.455 19.9609V19.7618H23.5978V19.7576ZM48.8214 20.16C48.8452 20.048 48.8729 19.9692 48.8967 19.9277H48.4883H48.4367V19.8779V19.2308V19.181H48.4526V18.6418H48.4367V18.5837V18.0071V17.9573V17.9366V17.8868V17.3641V17.3144V17.3102V17.2604V16.7212V16.6714V16.6673V16.6175V16.0243V15.9745H48.4645V15.8127H49.0236V16.605H48.9919V16.6216V16.6714V16.6756V16.7253V17.2646V17.3144V17.3185V17.3683V17.891V17.9407V17.9615V18.0113V18.5339H49.0077V18.5837V19.2308V19.2806H48.9919V19.8738V19.9236H48.984C48.9998 19.9692 49.0077 20.048 49.0077 20.1559C49.0077 20.16 49.1346 20.3716 49.1505 20.4089H49.0077V20.3093L48.869 20.3674L48.6628 20.1144L48.8214 20.16ZM28.3047 20.2098H28.5941C28.5664 20.3218 28.5822 20.3591 28.4514 20.3591H28.3086V20.2098H28.3047ZM48.3892 20.0563H48.4843V20.3093H48.3892V20.0563ZM43.6823 20.8113C43.595 20.9025 43.7656 20.7241 43.6823 20.8113V20.8113ZM43.1232 20.0521H43.1589L43.1985 20.3093H43.6307C43.7616 20.3093 43.7616 20.2844 43.8726 20.2596V20.9647H43.488L43.4602 20.9067L43.8211 20.7034C43.7933 20.5956 43.8131 20.5582 43.6783 20.5582H43.5356V20.4089H43.1985V20.5582H43.4404V20.6578H43.1113L43.1232 20.0521ZM46.6603 20.3591H47.4295V20.6121C47.4295 20.7283 47.4613 20.7615 47.5723 20.7615H49.8325V20.4089H49.9277V20.6619C49.9277 20.8361 49.8444 20.7324 49.785 20.9647H47.4771L47.4573 20.7615L47.4295 20.9647H46.7554C46.7316 20.6702 46.6603 20.861 46.6603 20.6619V20.3591ZM42.0961 19.6539H42.1913V22.2631H42.0961V19.6539ZM43.1033 20.9647C43.1033 20.7449 43.0756 20.8569 43.1985 20.7615V20.9647H43.1033ZM38.2339 2.09481H38.3608V2.73363L38.2339 2.8V2.09481ZM39.2609 2.11141L39.3283 2.04504V2.77926H39.2609V2.11141ZM39.483 2.04089H39.6099V2.78756H39.483V2.04089ZM30.3468 13.917L30.5134 14.2945L30.6165 14.2862L30.9575 14.195L30.783 14.141L31.0844 13.9129L30.3468 13.917ZM22.3209 10.3289L24.26 9.8477C26.4965 9.76889 27.7535 10.163 28.6853 10.6193L28.7646 10.6898C27.8209 10.4575 25.7827 9.83941 24.4741 10.0759L22.1663 10.4907L22.3209 10.3289ZM38.2101 1.60948H38.3489V1.86667H38.2101V1.60948ZM38.0713 1.61778H38.1467V1.84178H38.0713V1.61778ZM37.7224 1.64681C37.7422 1.63852 37.762 1.63852 37.7818 1.64681V1.9123L37.7224 1.97037V1.64681ZM43.7021 8.02667C43.8687 8.04741 44.1185 8.13452 44.285 8.21333L44.2692 8.98904L44.0392 8.9517L44.055 8.28385L43.7021 8.02667ZM34.7127 8.03081L34.6968 8.03911L34.7404 8.05985L34.7801 8.09304L34.8158 8.13452L34.8039 8.13037H34.792H34.7801H34.7682L34.677 8.15941L34.669 8.26726L34.6135 8.36267L34.6254 8.512L34.5699 8.64889L34.6611 8.79822L34.6968 8.88118L34.7959 8.89363H34.8039H34.8118H34.8197H34.8277L34.792 8.93096L34.7523 8.96L34.7127 8.97659L34.669 8.98074V8.91852L34.5659 8.87704L34.4787 8.69037L34.4589 8.50785L34.451 8.32533L34.5065 8.15526L34.5977 8.0723L34.7127 8.03081ZM21.5517 10.3953H21.9244V10.0302H21.1948V10.3745L18.2327 10.1837L17.7846 10.5487L21.2622 10.4824L21.5517 10.3953ZM28.7329 10.6566H29.5696V10.2916H28.7329V10.6566ZM35.2361 8.52859L35.3392 8.80237L35.5573 8.78163L35.2916 8.53689L35.2361 8.52859L34.9506 8.05985L34.8316 8.04326C34.9387 8.19259 34.9783 8.45393 34.9189 8.736L35.2361 8.52859ZM38.1467 1.50578L37.988 1.50993L37.9841 1.85837C37.8572 1.87911 37.7898 1.94133 37.7184 2.04919L37.7501 2.10311L37.9603 2.15704V2.05748H38.103L38.0991 2.00356L39.6416 1.98281L39.6812 2.14459C39.7962 2.14044 39.9628 2.09481 40.0302 1.98696L40.0223 1.65926C39.483 1.61363 39.7645 1.26518 39.4116 0.891852C39.0627 0.522667 38.9794 0.750815 38.9199 0C38.8842 0.0082963 38.8604 0.0124443 38.8406 0.0290369C38.8049 0.17837 38.8921 0.302815 38.7256 0.576592C38.4441 0.800592 38.226 0.904296 38.1467 1.50578ZM42.3103 7.85659C42.4808 7.98519 42.5046 8.41244 42.342 8.65719L42.5839 8.59911L42.7703 8.79822L42.683 8.288L42.5522 7.88148L42.3103 7.85659ZM41.9137 8.21748L42.2706 8.25067L42.2785 8.21333L42.1992 8.10548L42.1953 8.02667L42.1239 7.96859L42.0803 7.89393L41.993 7.86904H41.9574H41.9494H41.9534L41.9494 7.87319L41.9811 7.8317L42.0129 7.79852L42.0565 7.77778L42.1199 7.76948L42.3023 7.85659L42.3698 8.0557L42.3975 8.23822L42.3698 8.42074L42.2984 8.57007L42.2072 8.66963L42.1199 8.70696L42.0565 8.70282L42.0168 8.68622L41.9891 8.65719L41.9613 8.61985H41.9574H41.9613H41.993L42.1318 8.64474L42.231 8.52444L42.2429 8.37511L42.2587 8.29215L41.9098 8.25896V8.21748H41.9137ZM43.5435 7.99763L43.7775 8.17185L43.7854 8.88118L43.5316 8.81481L43.5435 7.99763ZM39.6059 10.051L39.598 10.0468V10.051H39.6059ZM41.4101 11.4033L40.2641 12.2744V12.1831L41.3903 11.3701L41.4101 11.4033ZM41.4419 11.7102C41.3507 11.7102 41.2634 11.7724 41.2039 11.8761C41.1405 11.984 41.1008 12.1292 41.0969 12.2951L41.2158 12.6975C41.2793 12.8012 41.3467 12.88 41.4379 12.88L41.6758 12.7141C41.7393 12.6062 41.7789 12.461 41.7789 12.2951C41.7789 12.1333 41.7393 11.984 41.6758 11.8761C41.6163 11.7724 41.5331 11.7102 41.4419 11.7102ZM44.3167 12.5938L44.3881 12.7016L44.3802 17.1319L44.3286 16.883L44.3167 12.5938ZM43.5554 12.4818V13.4193H43.4007V13.1081L43.3452 13.1662V13.0667H43.4007V12.4735L43.3333 12.4693C43.1747 12.4652 43.0201 12.4569 42.8734 12.4569H42.8615V12.3947L42.7346 12.3324H42.8773C43.6268 12.3449 44.3802 12.3947 45.1257 12.4693V12.2827L45.4627 12.3615V12.5067C45.7443 12.5399 46.117 12.6145 46.351 12.6519L46.2241 12.7348C45.9941 12.7016 45.7363 12.6643 45.4627 12.6353V13.0335L45.1296 13.0086L45.1257 12.5979C44.8124 12.5647 44.4833 12.5399 44.1542 12.515C43.9559 12.5025 43.7537 12.4901 43.5554 12.4818ZM41.3507 19.6705H41.4617L41.4656 22.2631H41.3546L41.3507 19.6705ZM44.3286 21.5413V21.2427L43.0954 21.2759V21.5745L44.3286 21.5413ZM44.7053 21.2427V21.5081L46.5492 21.3796V21.2095L44.7053 21.2427ZM55.6537 13.2533L56.879 13.9253L56.8988 13.9212V13.9336L56.99 13.9834L56.8948 13.9876C56.8829 14.1037 56.8591 14.1037 56.7085 14.1203C56.7124 14.0622 56.7124 14.0249 56.7164 14L56.5935 14.0083L55.2492 13.299L54.9399 13.2699L55.1937 13.5313L55.0747 13.5271L54.3768 13.2575L53.1277 13.2492V13.1123C52.866 13.1123 52.6162 13.1081 52.3585 13.1081L52.3545 12.4237L51.0102 11.5443L51.3909 11.5526L52.6995 12.3739H52.7154V12.3822L52.7233 12.3864L52.7154 12.3988L52.7193 12.963L55.2571 12.9671L55.6537 13.2533ZM40.2166 12.8178L41.5767 13.0459V13.0293H41.6243L41.6322 13.2119H41.5846L41.5727 13.1413L40.2166 12.9381V12.8178ZM40.2086 12.7141L41.2991 12.9007L41.2912 12.8966L41.2832 12.8924C41.2317 12.8593 41.1881 12.8095 41.1524 12.7473C41.081 12.6311 41.0374 12.4693 41.0374 12.2951L41.0731 12.0296L40.8153 12.0628L40.2047 12.5233V12.4196L41.3982 11.565L41.422 11.6148L41.3586 11.6646C41.3863 11.6563 41.4141 11.6521 41.4419 11.6521C41.4894 11.6521 41.537 11.6646 41.5807 11.6895L41.422 11.5526L41.4894 11.4904L42.2548 12.208L42.2349 12.2412L41.8424 11.9093L41.7313 11.843C41.8027 11.9591 41.8463 12.1209 41.8463 12.2951L41.9296 12.7348L41.775 12.8966L41.4974 12.9339L42.6989 13.133L42.7742 13.1953L40.2126 12.7804L40.2086 12.7141ZM51.5257 14.7674H51.3632L51.3592 14.8338L51.2958 14.7674H50.9627L50.8397 14.8753H50.9349V15.1283C50.9349 15.2444 50.9032 15.2776 50.7922 15.2776C50.6296 15.2776 50.6772 15.1947 50.578 15.0868L50.6891 15.3233L50.5503 15.7298H50.7922V15.5804L50.9349 15.3772L51.2601 15.1656L51.4226 15.0204L51.3671 14.8711H51.6566L51.6487 15.0039L52.0333 14.8711L51.9857 15.203L51.7518 15.3233L52.1126 15.3357L51.7518 15.8667L51.8112 15.875L52.3743 15.1656L52.1483 15.3191L52.0888 14.7674H51.609C51.5694 14.7757 51.5456 14.7716 51.5257 14.7674ZM56.3 15.12H57.7632L57.672 15.2237L56.3 15.2361V15.12ZM52.9929 15.4062H57.2636L57.2002 15.5224H52.8819L52.9929 15.4062ZM52.9176 15.68H56.0343V15.7298H52.9176V15.68ZM53.3776 20.0356L54.0794 20.0604L54.0239 20.2305H53.3776V20.0356ZM51.613 20.0563L52.3704 20.019L52.3585 20.2305H51.6606L51.613 20.0563ZM49.2377 20.0604H50.4353V20.2305H49.2377V20.0604ZM48.5121 16.2027L48.9007 16.605V16.5926H48.5121V16.2027ZM48.5121 17.2521H48.9007V16.7129L48.52 16.7004L48.5121 17.2521ZM48.5121 17.8827H48.9007V17.36H48.5121V17.8827ZM48.5121 18.5256H48.9007V17.9656L48.524 17.9532L48.5121 18.5256ZM48.5279 19.1727L48.9165 19.1852V18.5713L48.5279 18.5961V19.1727ZM49.3924 16.7627H49.5867V17.1028H49.3924V16.7627ZM49.4043 16.1446H49.5986V16.4847H49.4043V16.1446ZM46.6523 19.0151L48.3178 18.9446V19.04L46.6523 19.0483V19.0151ZM46.6801 19.3719L48.298 19.3013V19.3967L46.6801 19.405V19.3719ZM46.6484 19.7618L48.3574 19.7037V19.7991L46.6484 19.795V19.7618ZM49.1188 18.9902L50.7842 18.9197V19.0151L49.1188 19.0234V18.9902ZM49.1108 19.3345L50.7763 19.264V19.3594L49.1108 19.3677V19.3345ZM49.1069 19.7369L50.7723 19.6664V19.7618L49.1069 19.7701V19.7369ZM46.692 11.7807L50.9984 11.619V11.8305H46.692V11.7807ZM46.692 11.9757H51.0102V12.0296H46.692V11.9757ZM33.6698 8.58667L33.8125 8.44563L33.8086 9.05541L33.6698 9.04296V8.58667ZM31.9052 13.0542L31.6712 12.6477H31.2113L31.9052 13.0542ZM19.4183 13.0252L19.4223 12.9339L20.1004 12.7307L19.8426 12.8883L19.9655 12.9256L19.803 13.1662L19.799 12.9505L19.5016 13.0874L19.4183 13.0252ZM32.5991 19.3387L32.726 19.3511L32.5991 19.4175V19.3387ZM32.5991 20.4255V20.3093V20.1932V20.077V19.9526V19.8364V19.7203V19.6041V19.488L33.2732 19.3843V19.5087V19.6332V19.7576V19.8821V20.0065V20.131V20.2554V20.3799L33.19 20.384L33.1067 20.3881L33.0234 20.3923L32.9402 20.3964L32.8569 20.4006L32.7736 20.4047L32.6903 20.4089L32.5991 20.4255ZM32.5991 22.1387V21.9437V21.7487V21.5538V21.3588V21.1639V20.9689V20.7739V20.579L32.6824 20.5748L32.7657 20.5707L32.8489 20.5665L32.9322 20.5624L33.0155 20.5582L33.0988 20.5541L33.182 20.5499L33.2653 20.5458V20.7407V20.9357V21.1307V21.3256V21.5206V21.7156V21.9105V22.1055L33.182 22.1096L33.0988 22.1138L33.0155 22.1179L32.9322 22.1221L32.8489 22.1262L32.7657 22.1304L32.6824 22.1345L32.5991 22.1387ZM32.1193 20.4545V19.3055H32.2462L32.4802 19.3304V19.4673V19.6041V19.741V19.8779V20.0148V20.1517V20.2886V20.4255L32.4366 20.4296L32.3929 20.4338L32.3493 20.4379L32.3057 20.4421L32.2621 20.4462L32.2185 20.4504L32.1748 20.4545H32.1193ZM32.2066 22.2216V22.0267L32.1193 21.7778V21.5828V21.3879V21.1929V20.9979V20.803V20.608L32.1629 20.6038L32.2066 20.5997L32.2502 20.5956L32.2938 20.5914L32.3374 20.5873L32.381 20.5831L32.4247 20.579L32.4683 20.5748V20.7698V20.9647V21.1597V21.3547V21.5496V21.7446V21.9396V22.1345L32.4326 22.1511H32.389L32.3454 22.1553L32.3017 22.1594L32.2581 22.1636L32.2145 22.1677L32.1709 22.1719L32.2066 22.2216ZM24.4464 20.0107C24.49 19.936 24.141 19.8945 24.5296 19.8655L24.5852 20.0107H24.4464ZM22.4558 15.933H22.1544V16.045L21.8213 15.9828V15.7298C21.7222 15.8003 21.6389 15.9413 21.5318 15.9413L20.7308 15.9538L20.7546 15.5638L20.4771 15.8252C20.5643 16.016 20.5722 16.4308 20.7665 16.4308H20.9093V16.6341C20.9093 16.829 21.1829 17.3061 21.2939 17.389L21.4843 16.4847L21.9958 17.0281H21.7817L21.7698 17.9947C21.7698 18.1357 21.7341 18.115 21.6032 18.1564L21.7222 18.397L21.3693 18.6293L21.3812 19.1603L23.0188 19.152L23.0228 19.0856L23.7564 19.1271L23.9309 18.9487V19.152H24.0736C24.1847 19.152 24.2164 19.1852 24.2164 19.3013V19.3262H18.1573V19.3801H24.2204V19.6539C24.2204 19.8199 24.1331 19.7991 23.9785 19.8033C23.9943 19.8738 24.0181 19.9401 24.0459 20.0065H22.1068V19.9526H22.206L22.1068 19.7535H22.0117H21.8213V19.9526L21.9561 19.9153L22.0592 20.0107H21.8332V20.0646H24.0736C24.1252 20.189 24.1767 20.3093 24.1767 20.4089V20.7615C24.1173 20.7573 24.026 20.7324 23.9111 20.6993C23.5978 20.5707 23.2806 20.467 22.9594 20.384C22.9039 20.3674 22.8483 20.3508 22.8008 20.3425C22.428 20.2513 21.6548 20.1102 21.2463 20.1102V18.6501C21.2463 18.4966 21.1036 18.4841 21.1036 18.2975L21.2701 18.061L21.2662 17.5633L20.9569 17.0904H20.715L20.6991 18.9902C20.6991 19.1064 21.0917 19.152 21.0957 19.152L21.056 19.6622L20.9569 19.8074L20.9965 20.1434H18.6927V19.6581C18.6927 19.4756 18.5182 19.4963 18.3556 19.4548C18.3001 19.6664 18.2604 19.5419 18.2604 19.7079V20.1434H18.1177L18.1296 19.123L18.2644 19.0068C18.3516 19.069 18.3477 19.1064 18.4547 19.1064H18.6966V18.6044C18.6966 18.4468 18.6094 18.4634 18.5023 18.4012L18.5539 18.1481H18.3635V18.3514H18.2684V18.1481H18.1256V18.0444L18.419 18.0403L18.0979 17.667L18.1454 17.6172L18.7006 18.144C18.9821 17.9864 19.4104 17.8163 19.4223 17.389H19.565V17.136L18.9068 17.1526L19.4778 16.5926L19.684 17.1319L19.6086 17.7375H19.4183C19.2359 17.7375 19.1645 18.0196 18.9742 18.0942L19.0059 18.3224L18.8394 18.5961H19.1764V18.7413H18.8394V19.1561L20.2312 19.0939C20.2312 18.4593 20.3224 18.7372 19.4619 18.7372V18.592H20.4017L20.4374 18.1399H20.2947L20.4374 17.8495V15.9745H18.5975C18.3992 15.9745 18.1851 16.0907 18.1296 15.9579H17.6815V15.9662L16.5752 16.0284H13.9818V18.5422H16.5871V18.6418H13.9818V19.0441L14.5092 19.0317L15.7186 19.04L15.8059 19.2972H16.0478C16.0755 19.1852 16.0954 19.0939 16.2381 19.0939H16.2857C16.5474 19.0939 16.2659 19.264 16.6227 19.2972L16.6188 19.0566L16.4205 18.9861L16.6188 18.7953L16.6267 18.4924V18.2933H16.5315V18.0901C16.5315 17.9241 16.1667 17.6753 16.0002 17.6545C15.7543 17.6213 15.2666 17.6545 14.993 17.6545V17.5384H15.8059L15.7504 17.389L15.794 17.4056L15.909 17.2231L16.2381 17.5342H16.9598V17.584L16.3372 17.6338L16.5791 17.9407L16.7695 17.8827C16.8805 18.0403 16.9598 17.9615 16.9598 18.1357V18.339H16.817V18.592H17.2493V18.675H16.817V19.1437C16.9717 19.0649 17.7291 18.9902 17.7291 19.2433V19.8987H16.817L16.821 20.1351H16.5196L16.6267 19.8987H16.2421V20.1351H15.6988L15.8574 19.9526H16.1945V19.8033H14.8026C14.6361 19.8033 14.4735 19.9692 14.4735 20.1393H14.4259V19.4009H13.9937L14.0254 19.6041L14.0413 20.1393H13.8985V19.853C13.8985 19.6788 13.8629 19.6581 13.851 19.5004H13.6606V20.1393H11.8128V19.4009H12.7407V19.1479C12.6534 19.1271 12.2609 18.9446 12.2609 18.9446C12.0943 18.9446 12.0745 18.9819 11.9238 18.9944L11.8286 18.8948V18.7953H11.9238V18.6791L12.8358 18.6957V18.4924C12.6336 18.5505 12.7526 18.592 12.5939 18.592H12.4512V17.8868H12.6931V17.7956H12.4512C12.4869 17.3434 12.6296 17.8702 12.6931 17.5176L12.7764 17.4596L13.4108 17.5923V17.3849L13.6011 17.443L13.6091 17.6296L13.0341 17.7499V17.8868L13.4505 17.8951L13.1689 18.5961H13.4822L13.6963 17.8993H13.8906C13.9025 17.7416 13.9382 17.7209 13.9382 17.5467V16.995H13.5575L13.5972 16.8332L13.4108 17.0033L12.8715 16.883L13.0777 16.717L13.5337 16.6009L13.617 16.8083L13.6805 16.8124L13.8391 16.3935H13.5972C13.6567 16.3022 13.6923 16.3064 13.6923 16.1944V15.4892H13.502C13.3037 15.4892 13.2601 15.7173 13.2641 15.933L13.4544 15.9911L13.3037 16.016L12.927 16.5926V16.2898L12.9627 16.24L12.8795 16.1902V15.987C12.8795 15.8293 12.9667 15.6966 13.0222 15.5846H12.8795V15.4311L11.8723 15.4436L11.0554 15.4311V15.3316H14.0373L14.081 15.485L20.4374 15.4353V14.9333L20.37 14.8545L20.3383 14.7218L18.9306 14.7425L18.5459 14.7301H18.1137V14.7135H17.7013L17.6894 15.0287L17.7291 14.9997L16.1905 14.979V14.9333L17.4872 14.8794C17.4317 14.7964 17.4793 14.7799 17.3444 14.7799L17.2969 14.784L15.4252 14.8172L14.5608 14.7799V14.9831H14.4656V14.8338L14.3228 14.8462L13.5536 14.8338V15.0868H13.2165L11.7216 15.1324L11.5828 15.2403C11.2814 14.9665 10.5121 15.149 10.1394 15.2403V15.3399H10.4289L10.2346 16.2939L10.3535 16.2981L10.2346 16.6963L10.3416 16.7004L10.2346 16.9991H9.75476V15.68C9.75476 15.5431 9.77855 15.5431 9.79838 15.4187L9.64769 15.4767L9.68735 15.3108L9.51684 15.1283L9.27099 15.0993L9.42167 15.0785V14.9416L8.94186 14.8794C9.15203 14.6886 12.5503 14.7301 13.1689 14.7301C14.5806 14.7301 15.9724 14.6305 17.4634 14.6181L17.4396 14.5683H17.4951H17.7092H19.4738V14.5766H20.1836C20.2907 14.5766 20.2907 14.5351 20.3779 14.4729L20.7626 14.5227L20.8102 14.4853L29.2682 14.3692V14.4687H29.411L29.4031 14.7591L29.3555 14.7508L29.2127 14.5185L29.1295 14.5227L29.2643 14.7923L29.177 14.7964L29.0858 14.5185H28.8876C28.955 14.6222 29.0303 14.6554 29.0303 14.7923C28.9431 14.7923 28.8638 14.7923 28.7329 14.7923C28.6219 14.6388 28.3879 14.7633 28.261 14.8172V14.5144H28.0192V14.6637H28.1619V14.7633L27.7376 14.7591L27.6781 14.5102H27.5988L27.583 14.813H27.4878V14.5102C27.4323 14.4936 27.3569 14.4604 27.345 14.4604C27.234 14.4604 27.2895 14.477 27.1547 14.5102V14.813H26.1951V15.2113L26.774 15.2154C26.9049 15.261 26.9882 15.3813 27.0199 15.5721L27.0159 18.0818L26.9208 18.3348H26.4885V17.6296H25.862V18.3473L25.41 18.3556L25.3306 17.9449V15.3274H25.2315V15.2237C25.3544 15.2859 26.096 15.203 26.096 14.9748V14.8255H25.5686V14.7799L26.2903 14.7757H26.5797V14.5724L25.9056 14.5766H25.6162L24.9381 14.5641L24.7993 14.672C24.7121 14.6098 24.716 14.5724 24.609 14.5724L24.5138 14.5807L24.1767 14.5724C24.0379 14.5766 24.0181 14.672 23.8873 14.672C23.7961 14.672 23.8555 14.5724 23.6969 14.5724H23.455V14.672V14.6098L21.1988 14.6222L20.8498 14.6264L20.6674 14.6305L20.6555 14.925V15.4394L22.4597 15.3896V15.933H22.4558ZM24.3631 20.7656V20.0646H24.601L24.6446 20.1807L24.6962 20.16C24.6883 20.1185 24.6764 20.0895 24.6684 20.0646H26.3061L26.3775 20.2098H26.6194C26.6154 20.1683 26.6075 20.1144 26.5916 20.0646L31.6673 20.131L31.7307 20.0148H28.9074C28.9312 19.9858 28.947 19.9484 28.9748 19.9111H28.6417V20.0148H26.5797C26.548 19.9277 26.4965 19.8613 26.433 19.8613C26.3537 19.8613 26.2903 19.8904 26.2903 19.9609C26.2903 19.9775 26.2942 19.9982 26.2982 20.0148H25.6479L25.6201 19.9609C25.6637 19.936 25.7153 19.9277 25.7153 19.8613C25.7153 19.8157 25.6637 19.7618 25.6201 19.7618C25.5368 19.7618 25.4536 19.9194 25.402 20.019H24.6645C24.6605 19.9941 24.6565 19.9609 24.6565 19.9153V19.7659H24.3671V19.3926H26.2149L26.2427 19.6166H26.4766L26.5163 19.3967H26.9644C26.9763 19.5876 27.0239 19.6124 27.2499 19.6207V19.3967L31.6752 19.4631L31.7069 19.347H27.2499V19.3221H27.0556L27.0595 19.1561L27.4402 19.2723V18.7206L26.6313 18.7247L26.5797 18.8533L26.7265 19.0359L26.9604 19.3055V19.3304H26.5242L26.5282 19.3055L26.2308 19.3013L26.3815 19.1147L26.6432 19.2018L26.4806 18.7579H25.521C25.5805 18.8492 25.6162 18.845 25.6162 18.9612C25.6162 19.1727 25.4377 19.0441 25.3624 19.2391L26.1832 19.152L26.203 19.3262H24.5574V19.2184H25.176C25.287 19.2184 25.3663 19.1686 25.3663 19.0483V18.899L25.176 18.6957L22.9237 18.7455C22.9356 18.5879 22.9713 18.5671 22.9713 18.3929L22.9594 18.2933L22.9713 17.891L22.9594 17.7416L22.9713 17.3393V15.9289H22.9554V15.3772H22.9713V15.1739H24.4384C24.5852 15.1739 24.7477 15.3233 24.7477 15.4767V18.0942C24.7477 18.2933 24.5574 18.2477 24.5574 18.4468V18.5961H29.0739C29.2008 18.5961 29.2167 18.6708 29.2444 18.704H29.2405L27.7535 18.7455H27.6781C27.4878 18.7455 27.5314 18.9944 27.4878 19.1976L27.7535 19.2225H28.9986L29.2603 19.1437L29.5458 19.2225H31.2787L31.124 18.6999H29.4665C29.5141 18.5381 29.5418 18.592 29.7917 18.592L29.982 18.4924V18.592L30.4618 18.5671L31.2311 18.592L31.5206 19.2972H31.8497V19.8281V20.3591V20.7573H24.3631V20.7656ZM23.8238 16.0741L23.7643 15.9413L23.804 15.5224L23.6216 15.5016V16.0741H23.8238ZM23.7881 16.9618C23.808 16.7004 23.8278 16.4391 23.8317 16.1736H23.6216V16.9618H23.7881ZM23.7643 15.3772L23.9071 15.4187L23.9111 17.4969H23.7643C23.7643 17.3476 23.7723 17.1982 23.7802 17.053H23.6216V17.136H23.5304V17.053H23.34C23.3559 17.4679 23.348 17.9407 23.2132 18.0403V15.373H23.3083V16.0658H23.5304V15.4809L23.3638 15.4601L23.3559 15.3689L23.7643 15.3772ZM38.2339 12.2744H38.226H38.222H38.218H38.2141H38.2101V12.2495V12.2246V12.1997V12.1748V12.1499V12.125V12.1126V12.0877V12.0628V12.0379V12.013V11.9881V11.9633C38.2101 11.872 38.1942 11.8927 38.107 11.8927H38.0792H38.0436H38.0079H37.9722H37.9365H37.9008H37.8651H37.8294C37.6906 11.8927 37.6589 11.8554 37.6589 12.0047V12.0255V12.0504V12.0711V12.0919V12.1126V12.1333V12.1582V12.179V12.1997V12.2204V12.2412H37.655H37.651H37.647H37.6431H37.6391H37.6351H37.6312H37.6272L37.5994 12.1499V12.125V12.1043V12.1126V12.0919V12.0711V12.0462V12.0255C37.5994 11.843 37.0602 11.843 37.0602 12.0255V12.0462V12.0711V12.0919V12.1126V12.1333V12.1541C37.0483 12.1914 37.0483 12.2204 37.0602 12.2453V12.2661H37.0562H37.0522H37.0483H37.0443H37.0403H37.0364H37.0324H37.0284H37.0245H37.0205H37.0165H37.0126H37.0086H37.0046H37.0007H36.9967V12.2453V12.2246V12.2039V12.1831V12.1582V12.1375V12.1126V12.0919V12.0711V12.0462V12.0255C36.9967 11.8679 36.9491 11.9135 36.8024 11.9135H36.7627H36.7231H36.6834H36.6438H36.6041H36.5645H36.5248H36.4852H36.4455H36.4059H36.3662V11.9384V11.9591V11.984C36.3583 12.0462 36.3543 12.1126 36.3662 12.1665V12.1914V12.2121V12.2329V12.2536V12.2744H36.3622H36.3583H36.3543H36.3504H36.3464H36.3424H36.3385H36.3345H36.3305H36.3266H36.3226H36.3186H36.3147H36.3107H36.3067H36.3028V12.2536V12.2329V12.2121V12.1914V12.1665V12.1458V12.1126V12.0919V12.0711C36.3107 12.0379 36.3147 12.0047 36.3028 11.9591V11.9384V11.9052C36.1204 11.8761 35.9102 11.872 35.7952 11.9052H35.7556H35.7159V11.9301V11.9508V11.9757V11.9964V12.0172V12.0379V12.0628V12.0836C35.7159 12.1292 35.7159 12.1748 35.7159 12.2204V12.2412V12.2619H35.7119H35.708H35.704H35.7H35.6961H35.6921H35.6881H35.6842H35.6802H35.6762H35.6723H35.6683H35.6643H35.6604H35.6564H35.7V12.2412V12.2204C35.7 12.1748 35.7119 12.1333 35.7119 12.0877L35.7 12.067V12.0421V12.0213V12.0006V11.9799V11.955V11.9342V11.9052H35.6643H35.6287H35.593H35.4978H35.4621H35.4264H35.3907H35.355H35.3194H35.2837H35.248H35.2123H35.1766H35.1409H35.1052H35.0695V11.9301V11.9508V11.9757V11.9964V12.0172V12.0379V12.0628V12.0836V12.1043V12.125V12.1458V12.1707V12.1914V12.2121V12.2329V12.2536H35.0656H35.0616H35.0576H35.0537H35.0497H35.0458H35.0418H35.0378H35.0339H35.0299H35.0259H35.022H35.018H35.014H35.0101H35.0061V12.2329V12.2121V12.1914V12.1707V12.1458V12.125V12.1126V12.0919V12.0711V12.0462V12.0255V12.0047V11.984V11.9591V11.9384V11.9052H34.9664H34.9268H34.907H34.8673H34.8277H34.788H34.7484H34.7087H34.669H34.6294C34.5065 11.9052 34.3994 11.8513 34.3994 11.9964V12.0172V12.0379V12.0628V12.0836V12.1043V12.125V12.1458V12.1707V12.1914V12.2121V12.2329V12.2536H34.3954H34.3915H34.3875H34.3835H34.3796H34.3756H34.3716H34.3677H34.3637H34.3597H34.3558H34.3518H34.3479H34.3439H34.3399H34.336V12.2329V12.2121V12.1914V12.1707V12.1458V12.125V12.1126V12.0919V12.0711V12.0462V12.0255V12.0047C34.336 11.8679 34.2606 11.9135 34.1417 11.9135H34.102H34.0623H34.0227H33.983H33.9434H33.9037H33.8641H33.8244H33.7848H33.7451C33.6856 11.9135 33.7055 11.9508 33.7055 12.0047V12.0255V12.0462V12.0711V12.0919V12.1126V12.1333V12.1541V12.179V12.1997V12.2204V12.2412V12.2619H33.7015H33.6975H33.6936H33.7174H33.7134H33.7094H33.7055H33.7015H33.6975H33.6936H33.6896H33.6856H33.6817H33.6777H33.6737H33.6698V12.2578V12.2536V12.2495V12.2453V12.2412V12.237V12.2329V12.2287V12.2246V12.2204V12.237V12.2329V12.2287V12.2246V12.2204V12.2163V12.2121V12.208V12.2039V12.1997V12.1956V12.1914V12.1873V12.1831V12.1956V12.1914V12.1873V12.1831V12.179V12.1748V12.1707V12.1665V12.1624V12.1582V12.1541V12.1499V12.1458V12.1416V12.1541V12.1499V12.1458V12.1416V12.1375V12.1333V12.1292V12.125V12.1209V12.1167V12.1126V12.1084V12.1043V12.1001V12.1126V12.1084V12.1043V12.1001V12.096V12.0919V12.0877V12.0836V12.0794V12.0753V12.0711V12.067V12.0628V12.0587V12.0711V12.067V12.0628V12.0587V12.0545V12.0504V12.0462V12.0421V12.0379V12.0338V12.0296V12.0255V12.0213V12.0172V12.0296V12.0255V12.0213V12.0172V12.013V12.0089V12.0047V12.0006V11.9964V11.9923V11.9881V11.984V11.9799V11.9757V11.9881C33.6698 11.8886 33.6856 11.9052 33.5548 11.9052H33.5151H33.4755H33.4358H33.3962H33.3565H33.3169H33.2772H33.2376H33.1979H33.1582H33.1186H33.0789H33.0393V11.9093V11.9135V11.9176V11.9218V11.9259V11.9301V11.9342V11.9384V11.9425V11.9467V11.9508V11.955V11.9591V11.9633V11.9674V11.9716V11.9757V11.9799V11.984V11.9881V11.9923V11.9964V12.0006V12.0047V12.0089V12.013V12.0172V12.0213V12.0255V12.0296V12.0338V12.0379V12.0421V12.0462V12.0504V12.0545V12.0587V12.0628V12.067V12.0711V12.0753V12.0794V12.0836V12.0877V12.0919V12.096V12.1001V12.1043V12.1084V12.1126V12.1167V12.1209V12.125V12.1292V12.1333V12.1375V12.1416V12.1458V12.1499V12.1541V12.1582V12.1624V12.1665V12.1707V12.1748V12.179V12.1831V12.1873V12.1914V12.1956V12.1997V12.2039V12.208V12.2121V12.2163V12.2204V12.2246V12.2287V12.2329V12.237V12.2412V12.2453V12.2495V12.2536V12.2578V12.2619V12.2661V12.2702V12.2744V12.2785V12.2827V12.2868V12.291V12.2951V12.2993V12.3034V12.3076V12.3117V12.3159V12.32V12.1956V12.1997V12.2039V12.208V12.2121V12.2163V12.2204V12.2246V12.2287V12.2329V12.237V12.2412V12.2453V12.2495V12.2536V12.2578V12.2619V12.2661V12.2702V12.2744V12.2785V12.2827V12.2868V12.291V12.2951V12.2993V12.3034V12.2827V12.2619V12.2412V12.2204V12.1956V12.1748V12.1126V12.0919V12.0711V12.0462V12.0255V12.0047V11.984V11.9591V11.9384V11.9052H33.0314H33.0234H33.0155H33.0076H32.9996H32.9917H32.9838H32.9758H32.9679H32.96H32.952H32.9441H32.9362H32.9283H32.9203H32.9124V11.901V11.8969V11.8927V11.8886V11.8844V11.8803V11.8761V11.872V11.8679V11.8637V11.8596V11.8637V11.8596V11.8554V11.8513V11.8471H32.9203H32.9283H32.9362H32.9441H32.952H32.96H32.9679H32.9758H32.9838H32.9917H32.9996H33.0076H33.0155H33.0234H33.0314H33.0393V11.843V11.8347V11.8264V11.8222V11.8139V11.8056V11.7973V11.789V11.7807V11.7724V11.7807V11.7724V11.7641V11.7559V11.7476V11.7393H33.0433H33.0472H33.0512H33.0551H33.0591H33.0631H33.067H33.071H33.075H33.0789H33.0829H33.0869H33.0908H33.0948H33.0988H33.1027V11.7476V11.7559V11.7641V11.7724V11.7807V11.789V11.7973V11.8056V11.8139V11.8222V11.8305V11.8388V11.8471V11.8554V11.8637V11.8679H33.1424H33.182H33.2217H33.2613H33.301H33.3407H33.3803H33.42H33.4596H33.4993H33.5389H33.5786H33.6182L33.7332 11.8181V11.8139V11.8098V11.8056V11.8015V11.7973V11.7932V11.789H33.7372H33.7412H33.7451H33.7491H33.753H33.757H33.761H33.7649H33.7689H33.7729H33.7768H33.7174H33.7213H33.7253H33.7293H33.7332V11.7932V11.7973V11.8015V11.8056V11.8098V11.8139V11.8181C33.7332 11.8596 33.7213 11.8679 33.7729 11.8679H33.8125H33.8522H33.8918H33.9315H33.9711H34.0108H34.0504H34.0901H34.1298H34.1694C34.2249 11.8679 34.3637 11.901 34.3637 11.8347V11.8305V11.8264V11.8222V11.8181V11.8139V11.8098V11.8056V11.8015V11.7973V11.7932H34.3677H34.3716H34.3756H34.3796H34.3835H34.3875H34.3915H34.3954H34.3994H34.4034H34.4073H34.4113H34.4153H34.4192H34.4232H34.4272V11.7973V11.8015V11.8056V11.8098V11.8139V11.8181V11.8222V11.8264V11.8305V11.8347C34.4272 11.901 34.6016 11.8679 34.6572 11.8679H34.6968H34.7365H34.7761H34.8158H34.8554H34.8951H34.9347H34.9744H35.014H35.0537V11.8637V11.8596V11.8554V11.8513V11.8222V11.8181V11.8139V11.8098V11.8056V11.8015V11.7973V11.7932V11.789V11.7849V11.7807V11.7766H35.0576H35.0616H35.0656H35.0695H35.0735H35.0775H35.0814H35.0854H35.0894H35.0933H35.0973H35.1013H35.1052H35.1092H35.1132H35.1171V11.7807V11.7849V11.789V11.7932V11.7973V11.8015V11.8056V11.8098V11.8139V11.8181V11.8222V11.8264V11.8305V11.8347V11.8388V11.843H35.1528C35.3273 11.8554 35.4978 11.8596 35.6723 11.843H35.708H35.7V11.8388V11.8347V11.8305V11.8264V11.8222V11.8181V11.8139V11.8098V11.8056V11.8015V11.7973V11.7932V11.789V11.7849V11.7807V11.7766H35.704H35.708H35.7119H35.7159H35.7199H35.7238H35.7278H35.7318H35.7357H35.7397H35.7437H35.7476H35.7516H35.7556H35.7595H35.7635V11.7807V11.7849V11.789V11.7932V11.7973V11.8015V11.8056V11.8098V11.8139V11.8181V11.8222V11.8264V11.8305V11.8347V11.8388V11.843H35.8031H35.8428C35.9618 11.843 36.1719 11.843 36.3504 11.843V11.8388V11.8347V11.8305V11.8264V11.8222V11.8181V11.8139V11.8098V11.8056V11.8015V11.7973V11.7932V11.789V11.7849V11.7807V11.7766H36.3543H36.3583H36.3622H36.3662H36.3702H36.3741H36.3781H36.3821H36.386H36.39H36.394H36.3979H36.4019H36.4059H36.4098H36.4138V11.7807V11.7849V11.789V11.7932V11.7973V11.8015V11.8056V11.8098V11.8139V11.8181V11.8222V11.8264V11.8305V11.8347V11.8388V11.843H36.4535H36.4931H36.5328H36.5724H36.6121H36.6517H36.6914H36.731H36.7707H36.8103H36.85C36.8896 11.843 37.0443 11.8637 37.0443 11.8222V11.8181V11.8139V11.8098V11.8056V11.8015V11.7973V11.7932V11.789V11.7849V11.7807V11.7766H37.0483H37.0522H37.0562H37.0602H37.0641H37.0681H37.072H37.076H37.08H37.0839H37.0879H37.0919H37.0958H37.0998H37.1038H37.1077V11.7807V11.7849V11.789V11.7932V11.7973V11.8015V11.8056V11.8098V11.8139V11.8181V11.8222V11.8264C37.1077 11.8596 37.647 11.8596 37.647 11.8264V11.8222V11.8181V11.8139V11.8098V11.8056V11.8015V11.7973V11.7932V11.789V11.7849V11.7807V11.7766H37.651H37.655H37.6589H37.6629H37.6668H37.6708H37.6748H37.6787H37.6827H37.6867H37.6906H37.6946H37.6986H37.7025H37.7065H37.7105V11.7807V11.7849V11.789V11.7932V11.7973V11.8015V11.8056V11.8098V11.8139V11.8181V11.8222V11.8264C37.7105 11.8679 37.8413 11.8471 37.881 11.8471H37.9167H37.9524H37.988H38.0237H38.0594H38.0951H38.0792H38.1149C38.1625 11.8471 38.218 11.872 38.218 11.8181V11.8139V11.8098V11.8056V11.8015V11.7973V11.7932V11.7807V11.7766V11.7724V11.7683H38.222H38.226H38.2299H38.2339H38.2379H38.2418H38.2458H38.2498H38.2537H38.2577H38.2617H38.2656H38.2696H38.2735H38.2775H38.2815V11.7724V11.7766V11.7807V11.7849V11.789V11.7932V11.7973V11.8015V11.8056V11.8098C38.2815 11.8637 38.7653 11.8388 38.8128 11.8388C38.8961 11.8347 38.9596 11.8927 38.8128 11.8969C38.7335 11.8969 38.2815 11.8761 38.2815 11.9674V11.9923V12.0172V12.0421V12.067V12.0919V12.1167V12.1416V12.1665V12.1914C38.2696 12.2412 38.2934 12.2744 38.2339 12.2744ZM55.2254 20.8859H55.7171V21.4003H55.2254V20.8859ZM53.5481 20.8818H54.0398V21.3961H53.5481V20.8818ZM51.7557 20.8984H52.2474V21.4127H51.7557V20.8984ZM34.1654 19.3262L38.8327 19.2889L38.793 19.3926L34.1654 19.376V19.3262ZM11.7612 16.2856H12.245V17.6711H11.7612V16.2856ZM29.4903 14.1701L8.811 14.6679C8.74359 14.6679 8.7436 14.5434 8.80704 14.5434L29.4863 14.0456L29.4903 14.1701ZM44.6657 7.93126C44.7291 8.0723 44.5586 8.19259 44.396 8.18844C44.3921 7.89807 44.2573 7.76533 44.0233 7.66578C43.8092 7.7197 43.8964 7.74044 43.8806 7.64089L43.8766 7.62015V7.63259C43.0716 7.45837 41.4379 7.37541 40.5298 7.37955V7.28C41.2317 7.36711 44.4119 7.30904 44.6657 7.93126ZM34.792 7.77363C34.9545 7.75289 35.1211 7.73215 35.2876 7.71141C35.2837 7.70726 35.2837 7.70311 35.2797 7.69482L35.6128 7.66163C35.6088 7.66578 35.6088 7.66992 35.6049 7.67407L35.7357 7.66163V7.64919L36.0569 7.62015V7.63259L36.0886 7.62844V7.616L36.1521 7.62015C36.3385 7.60356 36.5407 7.60356 36.7231 7.57452C36.8064 7.57037 36.8936 7.56207 36.9769 7.55793C37.302 7.53718 37.3536 7.53304 37.6867 7.52059L38.0237 7.37126C38.0277 7.4003 38.111 7.47911 38.1149 7.49985C38.5273 7.48326 38.8366 7.47911 39.2411 7.47496C39.475 7.45007 39.7209 7.45837 39.9192 7.47496C40.0381 7.47496 40.1531 7.47911 40.2721 7.47911L40.2285 7.34637C39.1697 7.33807 37.7224 7.25511 36.7429 7.42933L36.9452 7.2883C38.0792 7.22607 39.1895 7.21778 40.2919 7.23437L40.1848 7.11822L39.4116 7.10163L39.3164 7.00207L39.3323 7.15555L39.1737 7.05185C38.8366 7.05185 38.6027 7.08089 38.2656 7.0643V7.12237H38.0237L38.0317 7.0643L37.8849 7.04356L38.2022 5.34281C37.996 5.78252 37.8294 6.65363 37.7422 7.08504L37.2584 7.12237C37.1196 7.12237 37.191 7.08918 37.1315 7.17215L36.3781 7.21778L36.0886 7.23022V6.97718C36.0886 6.76148 36.2116 6.2637 36.4098 5.79496C36.6596 5.21422 37.0126 4.72889 37.3258 4.53807C37.2981 4.56296 37.2941 4.592 37.3338 4.60444C37.1157 4.72474 36.7984 5.17689 36.624 5.65807L36.6874 5.96504C36.7627 5.65807 36.7945 5.57926 36.9134 5.39674L37.3774 5.20178L37.4884 5.14785L37.6668 4.81185L37.6748 5.01926L37.5717 5.16444C37.8453 5.16444 37.7541 5.14785 37.8651 4.9197L37.766 4.72059C38.0079 4.69985 37.9524 4.62104 38.0555 4.41778L37.8651 4.51733C37.881 4.31407 37.9761 4.17718 38.0753 4.032C38.111 3.98222 38.4044 3.67526 38.3925 3.66281H38.2775L37.8849 4.03615L37.8611 3.85778C37.8611 3.71259 37.877 3.76652 37.9563 3.70844L37.9801 3.808C38.0872 3.74993 38.1467 3.70015 38.1467 3.55496C38.1427 2.97837 38.0951 2.89956 38.7256 2.89956H39.4949C39.6257 2.89956 39.6257 2.92444 39.7368 2.94933C39.7606 3.24385 39.8319 3.05304 39.8319 3.25215V3.7043L40.169 3.85363L39.9311 4.3597C39.9786 4.30163 40.2245 3.94489 40.2562 3.89096C41.196 4.11496 42.4054 5.28889 42.572 5.77007L42.2944 5.86963V5.97333L42.6632 5.8157C42.8099 6.11437 43.0478 6.496 43.147 7.08089L43.2025 6.88178L43.3095 7.12652C43.5038 7.13481 43.6942 7.1597 43.8885 7.20948L43.8449 7.44178C42.9963 7.27585 42.0406 7.18874 41.1246 7.14311C40.9343 6.45037 40.74 5.90696 40.6726 5.78252C40.6052 5.65393 40.6647 5.96504 40.9739 7.15141L40.3554 7.13896L40.4981 7.29244L40.3871 7.47911C40.4664 7.504 40.629 7.48741 40.74 7.50815C42.2429 7.55378 43.5237 7.68652 44.1898 7.90637L44.1859 7.91467C44.2136 7.93541 44.2176 7.98933 44.2097 8.09304L43.8607 7.96859C43.8766 7.96444 43.8924 7.9603 43.9083 7.95615C43.8766 7.94785 43.8488 7.93955 43.8171 7.93541C43.8131 7.93955 43.8092 7.9437 43.8052 7.952L43.2858 7.85659L43.2976 7.84L43.2778 7.83585L43.2858 7.85659L43.0201 7.79852C42.9725 7.79437 42.9249 7.78607 42.8773 7.78193L42.5482 7.74459H42.5284V7.74874C42.4253 7.74874 42.3816 7.7363 42.2508 7.7363L41.8781 7.7197C41.8662 7.7197 41.5886 7.71555 41.6005 7.69067L41.6282 7.67822C41.5806 7.67407 41.537 7.67407 41.4894 7.66993L41.4577 7.69896H41.1682L41.1643 7.65333L41.0493 7.64919C40.9581 7.728 40.8827 7.80267 40.8193 7.86904H40.7162C40.7757 7.80681 40.855 7.73215 40.9462 7.64504C40.4148 7.6243 39.8518 7.62015 39.2728 7.6243C39.2213 7.62844 39.1697 7.63259 39.1182 7.63674C38.9437 7.65333 38.7692 7.66993 38.5947 7.69482C38.6265 7.67407 38.6582 7.65333 38.6978 7.63259C38.5987 7.63674 38.4996 7.63674 38.3965 7.64089C38.4004 7.66163 38.4044 7.68652 38.4084 7.71556L38.2815 7.7197L38.1546 7.72385L38.0277 7.728L37.9008 7.73215L37.3853 7.74874L37.2148 7.68652C37.0364 7.69896 36.854 7.70726 36.6755 7.7197C36.2155 7.75289 35.7595 7.79437 35.3233 7.84415C34.792 7.90222 34.2884 7.97689 33.8205 8.05985H33.8165L33.8125 8.43318C33.42 8.42489 33.1067 8.27141 33.3327 8.03081C33.4041 7.93126 34.2487 7.80267 34.792 7.77363ZM39.0071 9.88504H39.1459C39.1816 9.84356 39.253 9.85185 39.3561 9.8477L39.3482 9.88504L39.6456 9.88089V9.74815L39.6693 9.6237L39.0706 9.63615L38.9397 9.60711L38.8763 9.56978V9.8477H38.9714L39.0071 9.88504ZM38.7335 9.88504H38.7811V9.69422H38.6859C38.7137 9.83526 38.7296 9.78548 38.7335 9.88504ZM38.5709 9.88918H38.6344V9.69837L38.4441 9.6403C38.4123 9.69837 38.3925 9.70252 38.3925 9.74815C38.3965 9.83111 38.4797 9.87259 38.5709 9.88918ZM37.8453 9.88918L38.2854 9.89333L38.2815 9.88089L38.2498 9.59467L38.0555 9.55319L38.0594 9.79793C37.9048 9.69007 37.8453 9.50341 37.7699 9.79793L37.8453 9.88918ZM37.7898 9.89333C37.7541 9.76474 37.6867 9.64859 37.5756 9.64859L36.0847 9.69422V9.08859C36.0847 8.89363 36.1561 9.13422 36.1798 8.83556L37.9484 8.75259L38.6978 8.7443V8.69037L38.5432 8.65719L38.3925 8.55763L38.2537 8.22163L38.2934 8.03911L38.3965 7.88978L38.5472 7.79022L38.7335 7.7197L38.8168 7.728L38.8921 7.78193L38.9635 7.81511L39.027 7.85659L39.023 7.85244H39.027H39.0151H38.9556H38.904V8.10963L38.9635 8.1843H39.2292C39.2133 8.01007 39.1301 7.84 38.9556 7.74874L39.1975 7.75289L39.483 8.22163L39.4076 8.66133L39.1182 8.71941L39.0825 8.62815C39.1697 8.55348 39.2252 8.41659 39.2292 8.27555H38.9001V8.57837H38.8525V8.27555H38.6146V8.18844H38.8525V7.85659L38.7454 7.85244L38.5273 8.00178L38.3965 8.03911L38.4678 8.176L38.4956 8.45393L38.678 8.52859L38.8287 8.59911L38.9516 8.624H39.0111H39.019H39.0111L38.9477 8.66133L38.8802 8.69037L38.8208 8.70282V8.76089L39.5464 8.75259C39.5464 8.848 39.6337 8.90193 39.6892 8.90193C39.8518 8.90193 39.82 8.8397 39.7843 8.75259C40.5853 8.76089 41.3824 8.78578 42.1834 8.82726V8.93511L42.2984 8.78993L42.461 8.88118L43.0478 8.89363C43.1866 8.89363 43.147 8.9683 43.1747 9.03052L43.0478 9.02222V9.15496L43.0875 9.19644L43.2699 9.00563L43.2897 8.89363L43.5792 8.9517L43.5832 9.29185L43.8845 9.11348L43.6783 9.08859V8.93926H43.7735V9.03881H43.8687V8.93926L43.9638 8.88118L43.9837 9.03881C44.511 9.11348 45.1891 9.32504 45.5539 9.50756L45.5817 9.35822L45.6888 9.56148C46.1765 9.744 46.3668 9.87259 46.6047 10.1007C45.7205 9.94311 44.7291 9.856 43.6744 9.77718V9.3997H43.5792V9.7523H43.147L43.1628 9.30015H43.0994V9.7523C42.112 9.71496 41.4657 9.6237 40.5536 9.67348L40.6329 9.61126L40.5814 9.56148L40.4902 9.65274H40.2641L40.2404 9.55319C40.2483 9.54074 40.3117 9.5283 40.2959 9.50756C40.1928 9.35407 40.1571 9.70252 39.9271 9.70252H39.7843L39.7288 9.856C40.3435 9.83526 40.7677 9.84355 41.4181 9.86015C41.4141 9.8643 41.4062 9.86844 41.3903 9.87674H41.5608V9.856L43.0518 9.95555V10.0593H42.8615V10.1588H42.9566L42.8615 10.2584C42.7821 9.94726 42.6473 10.3206 42.5244 10.0053C42.2984 10.0053 42.227 9.93067 42.0446 9.95555L41.652 9.99704V10.0012H41.6084L41.5608 10.0053V10.0012L41.0414 10.0053C40.7757 10.0966 40.4505 10.1961 40.3673 10.2044V10.1961L40.5417 10.0468L40.5338 10.0095H40.3395L40.3157 10.0593H40.165C40.1611 10.0344 40.1571 10.0219 40.1531 10.0136L39.6892 10.0178L39.6852 10.0261L39.6693 10.0178L38.8723 10.0261L38.8366 10.0593H38.7216C38.7732 9.99289 38.7771 10.1007 38.7771 10.0261H38.6503C38.6423 10.0344 38.6384 10.0427 38.6304 10.051L38.5313 10.0261L38.2418 10.0302L38.2537 10.0427L38.0515 10.051V10.0551H38.0039V10.051L37.9484 10.0551H37.8096C37.8096 10.0468 37.8096 10.0385 37.8096 10.0344H37.7184V10.0551H37.6351L37.5955 10.0344H37.4765C37.4646 10.0551 37.5162 10.0468 37.3813 10.0468C37.3615 10.0468 37.3457 10.0427 37.3338 10.0344H37.2426L37.2386 10.0468H37.0483C36.9372 10.0468 36.9253 10.0302 36.8579 9.99704C36.731 10.0634 36.8976 10.0468 36.7152 10.0468C36.5922 10.0468 36.6676 10.0136 36.4733 9.99704V10.0966L36.2314 9.99704V9.92652L37.7898 9.89333ZM39.1142 14.9209H39.3402V17.4056L39.1142 17.3393V14.9209ZM31.1597 13.9046L31.5285 14.1784L31.1439 14.2199V14.2696C31.2826 14.2696 31.699 14.3277 31.7387 14.2074C31.7783 14.0913 31.5285 14.1079 31.7307 14.0415C31.9448 13.9668 31.6316 14.083 31.933 14.1369L32.0757 14.3899L32.1233 14.3858L32.2026 14.2157L32.3929 14.2738V14.1244L32.5714 14.1576L32.5753 15.203H33.5191L33.5389 14.5724H33.7174L33.7094 14.56H33.8363C33.8363 14.7093 33.8403 14.5559 33.7808 14.6347L33.8363 14.6761C33.8443 14.6844 33.872 14.6305 33.9037 14.56H34.5065L34.4866 14.5724C34.6809 14.5766 35.1251 14.56 35.2599 14.5724C35.4344 14.589 35.5375 14.5849 35.6009 14.56H36.0133V14.5724H36.2433V14.56H36.7707L36.8222 14.5724H37.536L37.5598 14.56H38.0515L38.6066 14.5724V14.56H38.7097L38.7058 14.5724H39.0904L39.1261 14.4356H33.071L32.8569 14.3567H39.1499L39.1737 14.2738H32.6428L32.5793 14.2199H39.2451L39.4552 13.9502L38.4322 13.9585V13.971H38.3885L38.4044 13.9585H37.9801C37.9722 13.9627 37.9682 13.9668 37.9603 13.971H37.8294V13.9544L36.3147 13.971H36.1957V13.9336H36.049L36.053 13.971H35.6485L35.6445 13.9336H35.5256V13.971H34.4272L34.3241 13.9212V13.971C34.0901 13.971 33.8522 13.971 33.6222 13.971L33.6024 13.9336L31.1597 13.9046ZM32.0876 13.44L32.1907 13.4359L31.8695 13.2658L31.8616 13.2616C31.6633 13.1579 31.4016 13.0169 31.1478 12.8841H30.4459L30.2913 12.7597L30.3072 12.8841C30.0534 12.8841 29.9503 12.8841 29.7005 12.8841L29.6925 12.1665H29.5577L29.5855 12.8841H28.9153L28.7408 13.1164C26.6313 13.1704 23.122 13.2284 20.7903 12.656C20.6357 12.656 20.822 12.8593 20.6119 12.9215L20.715 13.0667H20.485L20.4453 12.9879L20.6317 12.8344L20.604 12.7804L20.025 12.9961L20.2312 12.8634V12.7141C20.2312 12.5523 20.4374 12.4942 20.5683 12.461V12.5606H20.6912L20.7031 11.8844L21.2186 11.6065L21.2622 11.76L20.7745 12.0089L20.7903 12.067L21.2424 11.8803V12.3532H21.8689V12.5025H21.9641V12.3615H22.4915V12.5108H22.5866V12.3615L23.0307 12.3573C23.225 12.3573 23.0347 12.3947 23.1101 12.4527C23.1973 12.3905 23.1933 12.3532 23.3004 12.3532H23.6374L23.6652 12.5108L23.685 12.3532L23.7881 12.3573L23.7405 12.4527L25.18 12.4237C25.3267 12.4237 25.3029 12.4735 25.3306 12.3573L26.1594 12.3449V12.4942H26.4013C26.5322 12.4942 26.5322 12.5191 26.6432 12.544L26.552 12.3573L27.5354 12.3615V12.1624H28.1619L28.1698 12.3615H28.3086L28.3522 12.1126L28.5228 12.179L29.2841 12.1707L29.2801 11.8098L29.9384 11.8222V11.565C28.2333 10.7769 26.6749 10.2459 25.0055 10.2667C22.773 10.2916 21.1869 11.3867 19.2319 12.1416L19.3628 12.2619C19.8228 12.2619 19.8942 12.3324 19.9576 12.5979L19.799 12.4403L19.4897 12.4984L19.6404 12.3449L19.3112 12.4652V12.3615L19.2082 12.349L19.3112 12.2619L19.113 12.2661L19.2161 12.4154L19.0257 12.3573C18.9861 12.461 18.8949 12.4984 18.8314 12.573L18.6094 12.403L15.5164 13.7262L18.5459 13.6889L18.4984 13.7096L18.8513 13.7013L18.8711 13.6847L19.5452 13.6764L19.803 13.7262L19.9457 13.6723L20.0329 13.6681L20.2471 13.664L20.2431 13.6599L20.7229 13.6474L20.6515 13.6059H21.2384L21.2463 13.635L21.3019 13.6059H21.6825C21.6825 13.6101 21.6825 13.6142 21.6786 13.6184H21.8689V13.6059H22.0275V13.6101H22.2178V13.6059H22.3963H22.4439H22.5628C23.5462 13.581 24.5296 13.5561 25.5131 13.5354C25.5884 13.5354 25.6082 13.523 25.6201 13.4981H25.7986L25.743 13.5313C26.4211 13.5105 27.0952 13.4981 27.7733 13.4815C27.9002 13.4732 27.9517 13.4193 28.035 13.3487L28.0667 13.4898L28.3721 13.3695L28.3959 13.469L29.6449 13.4524C29.6449 13.469 29.6449 13.4856 29.641 13.5022H29.867L29.8868 13.4524H30.2318H30.2279L30.2834 13.4981H30.3666V13.4483H30.4618V13.4981H30.6482C30.6442 13.4898 30.6403 13.4815 30.6323 13.4732L30.6363 13.4483L32.0876 13.44ZM14.7075 10.8474L16.6346 10.7188V11.0216L14.9573 11.1502L14.7075 10.8474ZM9.46925 20.1517V20.16H9.22737V20.1434C9.31064 20.1434 9.38995 20.1476 9.46925 20.1517ZM26.326 22.2714L31.7149 22.3336L31.7466 22.2175H26.2744C26.0087 21.9644 25.7311 21.7404 25.4417 21.5372L31.4571 21.5994L31.4888 21.4833H25.3624C25.2831 21.4293 25.1998 21.3754 25.1205 21.3215C24.8627 21.139 24.605 20.9855 24.4186 20.9274L24.3671 20.9025V20.8196L31.8576 20.8859V20.8984V21.4293V21.9603V22.4913V23.0222V23.5532H31.8893H31.9211H31.9528H31.9845H32.0162H32.048H32.0797H32.1114V23.3956V23.2421V23.0886L32.0797 23.0056L32.1114 22.7816V22.6281V22.4747V22.3212L32.155 22.317L32.1986 22.3129L32.2423 22.3087L32.2859 22.3046L32.3295 22.3004L32.3731 22.2963L32.4167 22.2921L32.4603 22.288V22.4456V22.6033V22.7609V22.9185L32.5238 23.1052L32.4683 23.2379L32.4722 23.3997L32.4603 23.5407H32.4762H32.4921H32.5079H32.5238H32.5397H32.5555H32.5714H32.5872V23.3831V23.2255V23.0679V22.9102V22.7526L32.5753 22.6281L32.5872 22.4373V22.2797L32.6705 22.2756L32.7538 22.2714L32.845 22.2382L32.9243 22.259L33.0076 22.2548L33.0908 22.2507L33.1741 22.2465L33.2574 22.2424C33.301 22.5161 33.2772 22.7609 33.2058 23.072L33.2574 23.2296V23.3956V23.5615H33.3208H33.3724H33.4239H33.4755L33.7372 23.5532L33.5786 23.2047H33.6301H33.6817V22.2258H39.3957L39.4354 22.0889L33.6817 22.1801V21.4957H38.7771L38.8247 21.3713L33.6896 21.4542L33.6817 20.7822H39.3799L39.3997 20.6993L33.6896 20.749L33.6817 20.0397L39.1023 20.0895L39.1221 19.9858L33.6817 20.0065V19.2972L33.9474 19.2557L34.0941 19.1271L32.2026 19.1396L31.9092 19.0898L31.5721 19.0483L31.58 18.9902H31.9647V18.8907H32.3493V18.7911H31.5325L31.4809 19.04L31.4254 18.8658L31.4809 18.6376C31.9369 18.7496 32.6269 18.7455 32.2026 18.0818L32.3414 18.0361L32.4048 18.1855L32.3969 16.9286C32.3969 16.8041 32.2304 16.829 32.1074 16.829V16.7793H32.3969V15.8252C32.3969 15.7132 32.3572 15.7132 32.3017 15.6219H32.3969V15.3689C32.3969 15.2154 32.4445 15.1656 32.4921 15.0536L32.1074 15.1159V14.9665C32.1074 14.813 32.0836 14.784 32.048 14.6554L32.2105 14.5061L32.0797 14.477L31.9567 14.6139L31.9131 14.9043H31.7704V15.203H31.8695L31.8378 17.808C31.818 17.891 31.8497 17.92 31.9131 17.9241C32.044 17.9324 32.0598 17.7458 32.1074 17.6379L32.266 17.6919L32.159 17.92L32.0162 17.9366L31.9964 18.397L31.8457 18.0237L31.6792 18.3929L31.4888 18.3804H31.2113V17.6379H30.6482V18.3804H30.2398L29.9582 18.3929L29.9542 17.2936C29.9542 17.1277 29.8749 17.2563 29.8036 17.2356C29.752 17.4679 29.6489 17.5135 29.5617 17.6877C29.4387 17.9366 29.5617 18.032 29.2167 18.0361L29.2722 17.7375C29.5736 17.7292 29.7718 17.3849 29.6568 17.1319H29.9463V16.2276C29.9463 16.0907 29.9225 16.0907 29.8987 15.9745H29.9939C29.9542 15.4975 29.8155 15.7132 29.6568 15.4684C29.8155 15.5058 29.9463 15.6551 29.9463 15.4187L30.0613 15.3938L30.1327 15.2113L31.6435 15.2237V14.7923H29.6965H29.6648H29.3832L29.5696 14.5641H30.3746C30.3706 14.3526 30.3428 13.9253 30.208 13.8507H29.5577V13.7843C29.4467 13.8963 29.2405 13.8839 28.8915 13.9129L18.0979 14.141H17.7449L13.9501 14.2116L10.7183 14.4231H8.94186V14.3319L10.3337 14.1742V14.0207L10.4408 14.0249L10.3852 14.1742L10.413 14.2199L10.7659 13.9212C10.9642 14.0207 11.0792 14.0415 11.099 13.7884L10.6628 13.7262L10.6708 13.6723C10.5399 13.6723 10.3337 13.7055 10.3337 13.5727C10.3337 13.4566 10.3654 13.4234 10.4765 13.4234H10.7659V13.6267H11.1981C11.3052 13.6267 11.3052 13.6681 11.3806 13.7096L11.5352 13.6267C11.6462 13.6557 11.678 13.6764 11.8247 13.6764C12.0071 13.6764 12.011 13.552 12.3521 13.5769V13.3736H12.4472L12.4631 13.6557L12.6574 13.776L12.6772 13.7345L12.5424 13.4234H12.8795L12.8755 13.8009H12.9707L12.9746 13.44H13.2839L13.0936 13.6847L13.1491 13.7718C13.3117 13.8631 13.6368 12.9588 12.9746 12.8676C12.7129 12.8302 12.5702 12.9132 12.3996 13.0708L12.3877 12.9464L12.1578 13.0625L11.6264 12.9713V13.1745L11.8683 13.1662L12.2053 13.1745C12.3283 13.1704 12.2529 13.1579 12.3957 13.1247V13.328H12.2529V13.2284L12.2133 13.187L12.015 13.4939V13.2907L10.9087 13.299V13.1787H11.5828C11.5511 13.0293 11.5114 12.9256 11.3409 12.9256C11.1744 12.9256 11.2656 13.0293 11.103 13.0169L10.7739 13.021L10.6708 12.8759C10.7302 12.8427 10.7223 12.8261 10.8135 12.8261L11.7255 12.8136L15.6195 12.8759V12.8468L13.7479 12.7224H13.0738V12.6228L13.843 12.6353L16.5395 12.573H16.5434H16.5871V12.4818L13.6487 12.4196L10.7183 12.3988L9.12823 12.432V12.1956L10.3337 12.0587V11.8637H10.6708V12.0628C10.877 12.0338 10.9007 11.6936 11.095 11.3369C11.3449 10.8764 11.8842 10.4036 12.3441 10.3413C11.9952 10.6815 11.4281 11.0797 11.2497 11.9135L11.5312 11.9093L11.4638 11.4738L12.4036 10.3953L12.7248 10.3911L12.5543 10.6234L13.0222 10.3496V10.499L13.161 10.4948L13.2165 10.2957H12.7843V10.0924H12.927V9.94311H13.2165V10.0924H13.3593V10.2957C13.1213 10.3787 13.4227 10.5156 13.5377 10.5487L13.502 10.2957C14.5449 10.4533 14.9533 11.2954 15.0445 11.4904L16.8289 11.507C16.9638 11.5111 17.0669 11.536 17.0669 11.5982L17.0708 12.5606H17.3167L17.2929 11.4655H17.1501V11.2539H17.2929V10.7022C17.0431 10.6151 17.4555 10.5529 17.5824 10.5529C17.6894 10.5529 17.6894 10.5944 17.7727 10.6524L17.7648 11.4696H17.6775V10.6524H17.3881V11.3576L17.7132 11.6978L17.7172 12.5647H17.856L17.8718 11.6936L19.5531 11.7102L19.6285 11.843C21.5081 10.7313 23.2369 10.2335 24.9262 10.2169C26.5996 10.1961 28.2293 10.6441 29.9305 11.4281V11.0756C29.8868 11.0424 29.2008 10.9055 29.1255 10.8599L29.0858 10.8391L29.0462 10.8184L29.0065 10.7976L28.9669 10.7769L28.9272 10.7561L28.8876 10.7354L28.8479 10.7147L28.8083 10.6939H29.53C29.5894 10.8433 29.7679 10.8433 29.9622 10.8433H30.0573C30.212 10.8433 30.093 10.7976 30.2992 10.7437C30.3151 10.9594 30.327 10.9387 30.5372 10.947L30.549 11.6439L30.8782 11.648V11.5526H31.0209C30.9892 11.4904 30.9733 11.4987 30.9733 11.4033V11.1502H30.8306C30.8623 11.2871 30.8861 11.1585 30.8861 11.2622C30.8861 11.4572 30.8623 11.395 30.7592 11.4987L30.787 11.0258L31.8338 11.1502L31.7942 10.9511L31.465 10.8557L31.7505 10.7437V10.8474L33.4319 10.5446V10.6441H33.6737L33.6698 10.7354L33.5032 10.7935L33.5112 10.9884C32.7776 10.9719 32.6031 11.2373 31.8933 10.9967V11.2L31.9131 11.1419C33.9355 12.0462 32.2304 11.6273 32.2304 11.6024H32.0876C31.9567 11.6024 31.9567 11.6273 31.8259 11.619L31.9845 11.5153L31.6038 11.3535V11.5028L31.8497 11.5319L31.699 11.5526V11.6521H31.7545L31.7466 11.8015L31.2509 12.4527L31.3699 12.461L31.4888 12.4693L31.6078 12.4776L31.7268 12.4859L31.8457 12.4942L31.9647 12.5025L32.0836 12.5108L32.2026 12.5191L32.3216 12.5274L32.4405 12.5357L32.5595 12.544L32.6784 12.5523L32.7974 12.5606L32.9164 12.5689L33.0353 12.5772L33.1543 12.5855L38.0158 12.5233L40.3355 10.7064C38.3172 10.5861 36.3305 10.7976 34.3677 10.947L34.2685 10.8681L34.0227 10.9055L33.9672 10.6068L34.0346 10.5736L33.9791 10.4533H34.1218V10.6027C34.1218 10.7561 34.1773 10.7437 34.3082 10.752L34.3954 10.499L35.6128 10.445C35.8309 10.445 35.9855 10.3372 36.0569 10.4616H36.2076C36.2354 10.4243 36.2671 10.4036 36.3345 10.4036H36.4772C36.4772 10.4243 36.4614 10.5197 36.4574 10.5363L36.7271 10.5529L36.7984 10.4409L40.05 10.4036L40.1769 10.4533L40.3276 10.416L41.3784 10.4575L42.342 10.4699L42.9646 10.4077C42.9804 10.4824 42.9764 10.557 43.0597 10.557C43.1668 10.557 43.1668 10.557 43.2501 10.4948C43.4682 10.5778 44.8045 10.6317 45.1733 10.7064V11.0175C44.2811 10.8972 43.1708 10.7686 42.1953 10.7561H41.9534V10.7022H42.338L42.5284 10.6317L42.576 10.6151L41.8463 10.557L41.9058 10.7561H41.426V10.8681H41.2555L40.9065 11.1004L41.3308 11.1046C41.4974 11.1046 41.6044 11.3369 41.6679 11.4613L41.8582 11.4033V11.5526C41.8582 11.7351 42.0089 11.8015 42.1953 11.8056L42.1556 11.843L43.0439 12.7058L43.032 12.8924L41.3427 11.229L41.1603 11.3535L40.6369 11.3576L40.5179 11.424L41.0889 11.4157L40.8431 11.6107L40.2721 11.6148L40.1452 11.6936L40.7241 11.6978L40.1729 12.067C40.1055 12.0296 40.0936 12.0172 39.9826 12.0172H39.8399C39.6654 12.0172 39.6693 12.0753 39.5028 12.1167V12.0172L39.5385 12.0545L39.7288 11.8513L39.6575 11.76L39.8438 11.6646L39.8002 11.8347L40.1254 11.6107C39.9588 11.6107 39.4513 11.5443 39.4513 11.7102C39.4513 11.8264 39.4671 11.7683 39.4949 11.8969L39.2173 12.0047C39.249 12.067 39.253 12.067 39.253 12.1624L39.2173 12.3449H39.3006L39.3878 12.1333L40.1611 12.1126L39.9866 12.2121H39.3838V12.4154C39.3838 12.5564 39.4195 12.5357 39.5266 12.5647L39.5306 13.552L40.0936 13.6847L40.2285 13.523H39.9866V13.4649L40.1769 13.4317L40.1809 12.992L41.9098 13.299L42.1001 13.4649L42.4054 13.4524L42.2865 13.3031L42.3261 13.2824L42.8218 13.7138L42.2944 13.5686L41.9415 13.6889L41.9336 13.5478L41.5767 13.635L40.2404 13.0127L40.2443 13.3861L42.8297 14.1991L43.0082 14.1742L43.0121 14.6264L42.7901 14.6554L42.9765 14.8628L43.0161 14.8296L42.917 15.0287H43.1073C43.0676 15.2071 43.0121 15.2652 43.0121 15.4809V16.1363H42.8694C42.6949 16.1363 42.7266 16.0077 42.7227 15.8376L42.8694 15.8833C42.8099 15.792 42.7742 15.7961 42.7742 15.68V15.3772H42.6315C42.4847 15.3772 42.4411 15.5265 42.4411 15.68V15.8293H42.2984L42.2904 22.2631L42.9685 22.259L42.8099 21.7819L42.7306 21.7778V18.899H42.8258L42.8297 18.6584L42.9725 18.6003L42.9447 18.3348L43.0201 18.5007C43.2183 18.4468 43.2104 18.2228 43.262 18.003L42.7742 18.1481L42.8258 18.3556L42.6473 18.3099L42.5046 18.4593L42.457 18.4095L42.6473 18.2062L42.683 18.2436V17.9905C42.683 17.8744 42.7147 17.8412 42.8258 17.8412H43.0161L42.9804 17.8039L43.1707 17.6006L43.2064 17.6379V17.5384H43.0637C43.0637 16.8996 43.1033 17.5508 43.2025 17.1443L43.0637 17.0862V17.2439L42.9289 17.1775L42.8813 17.1443L42.7266 17.2687L42.7306 16.9618L43.0677 16.9825V16.6797C43.0677 16.4889 43.1589 16.4101 43.2302 16.2607L44.055 16.2566L43.8845 16.9327H43.3056V17.0323H43.4483V17.7873H43.2064V17.891L43.4444 17.837V18.592C43.3135 18.5588 43.3532 18.5422 43.254 18.5422C43.1827 18.5422 43.1826 18.6044 43.1589 18.6418H44.2176L44.2295 18.8119L44.4119 18.6916L44.6498 18.7455V18.6459H44.5071V18.4966L44.6181 18.4924L44.5071 18.0942C44.3802 18.1274 44.4159 18.144 44.3167 18.144C44.289 18.144 44.2176 18.0735 44.174 18.0444V18.5464H43.4999V17.8412H43.8369C43.9678 17.8412 43.9678 17.8661 44.0788 17.891C43.9995 17.779 43.8766 17.6877 43.6942 17.6877H43.5038L43.4999 17.2356C43.8092 17.2273 43.6862 17.2065 43.7893 16.9825H44.2692C44.2097 17.0738 44.174 17.0696 44.174 17.1858V17.389H44.2692V17.2397H44.3286L44.3167 17.5923L44.17 17.6047V17.8951H44.0749L44.0788 18.003L44.3167 17.8951V17.7458L44.404 17.7499L44.4714 17.9573L44.6181 17.779L44.4159 17.5923C44.515 17.5508 44.5586 17.4886 44.5586 17.3393C44.5586 17.219 44.4635 17.1153 44.4159 17.0364C44.5229 17.0116 44.5547 16.9701 44.6578 16.9742L45.09 17.0364C45.09 17.891 45.1891 17.5591 44.8005 17.8412H45.09V18.5961H45.2803V17.8412H45.5222L45.5301 18.5796L45.8196 18.6916L45.7125 18.5464L45.7165 17.6421V16.9867H46.1011C46.2122 16.9867 46.1844 17.0198 46.1844 17.136V18.6833H46.343V16.1321L46.232 16.1653V17.0199C46.1963 16.9452 46.1844 16.9369 46.0536 16.9369H45.7165V16.435C45.7165 16.3188 45.7482 16.2856 45.8593 16.2856C45.9901 16.2856 45.9901 16.3105 46.1011 16.3354V16.2359H45.8593C45.7482 16.2359 45.7165 16.2027 45.7165 16.0865V15.4809L46.1289 15.4892L46.343 16.0367V15.4892H50.3956V15.373H46.343V15.1864H48.7936V14.8338L46.343 14.7757L46.347 12.3532L46.6444 12.5274V13.3156L48.1393 13.7138L48.1671 13.4193H48.2623L48.2543 13.7345L48.7936 13.8963L48.8015 13.6433L48.5993 13.469L49.3051 13.4524L49.5113 13.5188L49.5153 13.3985L49.7493 13.5188H50.2291V13.469H49.7969V13.4193H50.3242L50.3758 13.6723H50.233V13.5727H49.6581V13.7262L49.896 13.6723V13.7387H50.2806V13.8216H49.321V13.7718H49.5629C49.5351 13.44 49.4757 13.6474 49.2258 13.5188V13.6184L48.9403 13.6474L48.9483 13.9461L50.1537 14.3443C50.2687 14.3443 50.2846 14.3443 51.268 14.3443L51.2204 14.3111L51.2482 14.2655L51.4425 14.336L51.5813 14.2323L51.7359 14.2738L51.8549 14.3484H52.41L52.4021 14.1286H52.5409L52.5964 14.2323C52.3942 14.3028 52.5567 14.3319 52.644 14.3319H52.981V14.2281L53.1238 14.3277H53.556L53.4846 14.2655L53.3141 14.2281V14.1784L53.8058 14.3443L53.8018 14.1742H53.4132L53.4053 14.1244L53.8058 14.1203L53.8018 13.8216L50.3599 13.8299L50.3758 13.7387H54.1349V13.8133L53.9763 13.8258C53.8296 13.8258 53.8574 13.9834 53.8455 14.1244H54.2777V14.0207H54.4205V13.9253L54.2777 13.8673H54.4205V13.7718H55.2849L55.2373 13.7926L55.384 14.1244H55.2413V14.1742H54.5592V14.2904C54.5592 14.3443 54.6029 14.3443 54.7139 14.3443H55.3959L55.384 14.1244L55.8361 14.112L55.8321 13.7677H55.8876C55.8876 14.3899 56.1692 13.917 56.3476 14.1701L55.8916 14.1576L55.8995 14.3401H56.0264H56.3952L56.5855 14.5724V14.4231H56.7759C56.9979 14.4231 56.875 14.224 56.9781 14.0041L57.1565 14.112L57.3508 14.0705V13.9212H57.2081L57.1446 13.8341L56.8671 13.693L57.0296 13.5769L57.1327 13.6889L57.1248 13.635L58.0368 14.112L58.0289 14.2281L58.1241 14.1742L58.2668 14.224V14.3443H58.1241V14.8255L57.2121 14.8296L57.1446 14.7093L57.1129 14.7176L57.2319 14.3194C57.0415 14.3733 57.0415 14.7093 57.0257 14.9209H58.7466L58.7268 14.9707L58.0289 15.1573L57.8386 15.1449L58.0051 15.2693V15.3191H57.8624L57.8465 15.3523L57.9575 15.6717H57.8624V15.5721L57.91 15.5182L57.7831 15.4809L57.672 15.763L57.8663 15.8252L57.8148 15.9247L57.7672 16.0243V16.1736V16.323H57.672L57.6839 16.4557L57.8782 16.5718L57.8148 16.3727L57.8663 16.2732V15.9206L57.9615 15.821V15.7713L57.906 16.1778L58.0091 16.323L58.0408 20.3342H50.126V20.4421H58.0408L58.0567 22.3212L53.9525 22.3004L56.9622 23.0513L56.9662 26.4196H59.9125V36.8895C54.2777 37.1923 47.8499 37.1674 41.9574 37.1301C40.9224 37.1508 40.7321 35.9893 43.032 36.0806H49.0434C47.4652 35.952 46.1765 35.2593 45.197 33.9526C44.3445 32.787 45.3676 31.3434 46.3668 32.704L46.6841 33.1437L48.0005 34.9647C48.5438 35.699 49.2734 36.0516 50.0863 36.0764H53.9565C53.1396 36.0101 52.4735 35.6533 51.9659 34.9772L49.3131 31.3185C48.7738 30.5801 47.9887 30.2524 47.2511 30.2524H45.9187H43.1668C43.9757 30.2359 44.6181 30.5387 45.1455 31.0862C45.8751 31.8453 44.63 32.7206 43.8369 32.0818L42.4887 30.2193C40.6805 27.7221 43.1906 24.669 45.7681 24.8723C46.577 24.9345 47.5366 24.9884 48.7698 25.1378L48.4605 24.7271C45.542 24.7271 42.6235 24.7271 39.705 24.7271L39.483 25.1378L40.9898 24.9179C43.9797 24.4824 41.6282 28.7259 40.0659 26.8759C39.023 25.453 37.5043 24.8142 36.0807 24.8142H33.4993H28.2372L28.9827 25.8471H28.9946L34.3439 33.2018C35.6207 34.6785 37.2188 33.5502 36.0688 31.9407L32.4088 26.8883C31.4412 25.6397 30.1129 24.7893 28.2333 24.8142L27.2538 23.325C26.9683 22.9476 26.6551 22.5908 26.326 22.2714ZM8.85462 20.16V20.1683H7.7245H5.74976C4.65929 20.1683 3.49347 20.6536 2.69644 21.7446L1.40373 23.5283H7.26848L8.55326 21.757C10.762 18.8658 13.6844 21.0726 15.3856 23.3665L16.7615 25.2664L16.7298 25.2622L23.6969 34.9357C24.95 36.5037 26.5916 37.4536 28.7924 37.5034H31.6316C32.1986 37.5159 32.4802 37.7316 32.2105 38.2667C31.3183 39.565 29.5656 41.0708 24.8786 40.5274L25.4972 40.9381L37.9325 40.9671C38.0911 40.573 39.2649 38.976 39.9469 38.0676C40.4148 37.4453 40.4307 37.5117 41.192 37.5117C48.1195 37.5076 58.1955 37.5159 65 37.4619L61.2607 42H24.1886L12.13 25.6853L0 25.6812L0.00396544 21.1141H1.29667L1.68131 20.9647V17.8951L1.78441 17.5923H1.49097L1.44339 17.5425L0.96358 17.4927L0.915996 17.443V17.1401L0.96358 17.0904L1.25305 17.0406H1.78044L1.73286 16.7378L1.63769 16.5884V16.4391L2.40697 15.1822H2.88677L2.93436 15.232V15.4353L2.89471 15.485L2.91453 15.4933L5.19461 15.4684V15.2818L5.76562 15.0661L5.79338 15.1822L8.84273 15.1324V15.3855C8.84273 15.4518 8.73566 15.4975 8.57308 15.5224L4.70687 15.5846L4.47688 15.7961L4.52446 15.5887L4.19534 15.6468L4.15172 15.539L3.74725 15.8293L3.80277 15.5887H3.56088L3.5014 15.8874L3.75122 15.8916L3.53313 16.5884L3.41813 16.5387L3.41417 16.6507C3.95345 16.6382 3.79087 16.1736 4.08827 15.9455L3.7988 16.6009C4.3143 16.5884 4.06052 16.3188 4.37378 16.099L4.25878 16.4433C4.70687 16.4101 4.80204 15.7422 4.85359 15.7961L4.9091 15.8376L4.65532 16.3437C5.00824 16.3188 5.18668 15.8418 5.19064 15.8459L5.24616 15.8874C5.13116 16.0575 5.11927 16.2981 5.07168 16.3271C4.95272 16.4059 5.0241 16.2815 4.83773 16.4433C4.67911 16.5801 4.76238 16.6175 4.71083 16.4516L4.54429 16.7212L4.51653 16.5553L4.31033 16.688C4.18741 16.6756 4.24292 16.659 4.13189 16.659C4.01293 16.659 3.72346 16.7585 3.69967 16.8622H3.89001L4.27465 16.8498C4.4174 16.8622 4.33809 16.605 4.4174 16.8622L5.13116 16.4018L4.64342 16.8456L4.67118 16.8954L5.05979 16.7046H5.09547L4.93289 16.8539L5.23823 16.7793L5.41667 16.883L5.4246 16.7129H5.32943L5.42856 16.5138L5.28185 16.5594L5.33736 16.3644H5.18668C5.22633 16.1861 5.18271 15.9621 5.42856 15.9621H8.98548V16.8705H9.03306V16.464H9.11237V17.0157H8.98548V17.6213H9.03306V17.219H9.11237V17.7707H9.17582V17.92H9.4177C9.58821 17.92 9.60408 18.0403 9.60804 18.2228H9.51287V18.3721L9.50098 18.7745L9.51287 19.1271C9.51684 19.2599 9.45339 19.2018 9.4177 19.2972H9.08065V19.3801H9.46529V20.1683H9.2234V19.8323C9.2234 19.5461 8.98151 19.4507 8.98151 19.2806V18.6252H9.2234V18.5754H8.90617V20.1641C8.86652 20.1641 8.82687 20.1641 8.78325 20.1641H8.90617V20.1807H8.85462V20.16ZM49.0117 30.2359H51.7637H53.096C53.8336 30.2359 54.6187 30.5636 55.158 31.3019L57.8108 34.9606C58.3184 35.6367 58.9846 35.9935 59.8014 36.0598H55.9312C55.1184 36.035 54.3887 35.6782 53.8455 34.9481L52.529 33.1271L51.2125 31.3061C50.697 30.6548 50.0031 30.2151 49.0117 30.2359ZM39.3283 37.5117L33.7372 37.5034C33.0631 37.5532 32.5357 38.1837 32.4643 38.8681C32.4088 39.6812 32.8172 40.5813 34.0267 40.6519C36.9452 40.7141 38.4996 39.1751 39.4869 38.0717C39.7011 37.7647 40.1293 37.5159 39.3283 37.5117ZM40.2443 36.9434C40.9383 36.6904 41.1484 36.1884 40.1571 35.869C39.1459 35.5579 38.2458 34.9274 37.5162 33.9443C36.271 32.7164 35.3868 35.3961 36.8183 36.5369C37.8889 37.3914 39.2014 37.325 40.2443 36.9434ZM51.2799 16.2649H50.8635V16.4308L50.8913 16.6839L50.8635 16.8996V17.1319L50.8913 17.4388L50.9072 17.7001L50.8635 17.9241V18.0652V18.2975L50.8953 18.5298V18.7621V18.9944V19.2267L50.8397 19.4424L50.8635 19.6954L50.8437 19.9484L50.6891 19.9816V20.2222H51.5099L51.4464 19.9816L51.3037 19.9692L51.2799 16.2649ZM50.8675 16.1321H51.2799V15.8791H51.1768V15.6302H51.0816V15.8791H50.7485C50.7604 15.8916 50.7446 15.9206 50.7604 15.9247C50.8159 15.9621 50.8596 16.0367 50.8675 16.1321ZM52.7391 16.0782L53.1079 16.0367L53.1277 15.875L52.7035 15.8791V16.0243L52.6638 16.0367V15.6883L52.8303 15.7256L52.7193 15.4933L52.9057 15.3357H52.7629C52.8105 14.7301 53.4172 14.925 53.9525 14.925L53.8098 14.8296L52.7471 14.8255L52.7867 14.7342L52.6162 14.7384L52.5885 14.8296L52.1681 14.8172L52.188 15.0246L52.4854 15.1864L52.4814 16.1612C52.4814 16.2856 52.6202 16.3354 52.7074 16.3396L52.7709 16.6465L52.7035 16.8V17.0281V17.2563V17.4844L52.7352 17.6711L52.7035 17.9449L52.7431 18.4302L52.7035 18.4053V18.6335L52.7193 18.9239L52.7035 19.0939L52.8065 19.3594L52.7669 19.5793L52.8065 19.8157L52.6995 20.0107H52.6202H52.5409V20.2305H52.7431H53.1555H53.2983V20.0107L53.1555 19.965L53.1515 18.5173H53.8137V19.9775H53.9406C53.9406 18.3348 54.3887 18.3058 53.1515 18.1855V17.3724L53.7741 17.3393V17.36H53.901V15.7381H53.7741V17.0696H53.1515V16.3603H53.6988V16.2607H53.1515V16.1695H52.759V16.0782H52.7391ZM54.3491 16.1612H54.8209V15.8708L54.3848 15.8044L54.2024 15.8791L54.2261 16.0036L54.3491 16.1612ZM54.8249 16.2856L54.3649 16.2524L54.4482 16.9452L54.3927 17.1609V17.4181V17.6753V17.9324L54.4323 18.2436L54.3927 18.4427V18.6999L54.4165 19.069L54.3887 19.2142L54.4561 19.5129L54.5077 19.7701L54.3848 19.9858L54.2261 20.0107L54.2024 20.2305H54.3848L54.7972 20.2844L54.9796 20.2305V20.2015H55.0708L55.0628 20.2305H55.8956V20.0314H55.5506V20.0231L54.9756 20.019H54.8606H54.8328L54.8289 18.5256H55.2968V19.6332H55.4237V18.2394H55.2968V18.2601H54.8289C54.8249 17.5633 54.8249 16.9701 54.8249 16.2856ZM54.9796 17.1443V17.4098H55.2849L55.4118 17.4305V16.0367H55.2849V17.1443H54.9796ZM43.7021 12.6228L44.1661 12.6601V13.1994H43.7021V12.6228ZM43.6744 13.3197H44.17L44.1542 13.9253L43.6744 13.8963V13.7179L43.5356 13.6723V13.7718H43.3928C43.4404 13.581 43.4682 13.6225 43.6744 13.5727V13.3197ZM43.7457 14.0664H44.2097V14.643H43.7457V14.4148L43.6307 14.3775L43.5395 14.4314L43.3928 14.3775V14.2779H43.7457V14.0664ZM43.7457 14.7633H44.2097L44.2176 15.4767L43.7457 15.3399V15.1698L43.3809 15.3689L44.2612 15.6095L44.1145 16.1612L43.2699 16.157L43.3016 15.8293L43.147 15.7961L43.1509 15.427L43.3056 15.3689L43.1985 15.2776L43.3611 14.9831L43.369 14.6844L43.1549 14.7259L43.2104 14.5683L43.5633 14.5019L43.5554 15.1656L43.7497 15.1698V14.7633H43.7457ZM44.5269 12.6892L44.9908 12.7348V13.2658H44.5269V12.6892ZM44.5071 13.3529H44.971V13.9295L44.5071 13.9087V13.3529ZM44.4952 14.0539L44.9591 14.083V14.6305H44.4952V14.0539ZM44.4952 14.7176H44.9591V15.4477H44.4952V14.7176ZM46.8109 12.5316L51.0142 12.5274L51.0697 12.6311H46.8109V12.5316Z"
          fill="currentColor"/>
</svg>
