<?xml version="1.0" encoding="UTF-8" standalone="no"?>
<svg
   xmlns:dc="http://purl.org/dc/elements/1.1/"
   xmlns:cc="http://creativecommons.org/ns#"
   xmlns:rdf="http://www.w3.org/1999/02/22-rdf-syntax-ns#"
   xmlns:svg="http://www.w3.org/2000/svg"
   xmlns="http://www.w3.org/2000/svg"
   xmlns:sodipodi="http://sodipodi.sourceforge.net/DTD/sodipodi-0.dtd"
   xmlns:inkscape="http://www.inkscape.org/namespaces/inkscape"
   version="1.1"
   id="svg2"
   xml:space="preserve"
   width="634.41333"
   height="821.90668"
   viewBox="0 0 634.41333 821.90668"
   sodipodi:docname="Лого Райшева.eps"><metadata
     id="metadata8"><rdf:RDF><cc:Work
         rdf:about=""><dc:format>image/svg+xml</dc:format><dc:type
           rdf:resource="http://purl.org/dc/dcmitype/StillImage" /></cc:Work></rdf:RDF></metadata><defs
     id="defs6" /><sodipodi:namedview
     pagecolor="#ffffff"
     bordercolor="#666666"
     borderopacity="1"
     objecttolerance="10"
     gridtolerance="10"
     guidetolerance="10"
     inkscape:pageopacity="0"
     inkscape:pageshadow="2"
     inkscape:window-width="640"
     inkscape:window-height="480"
     id="namedview4" /><g
     id="g10"
     inkscape:groupmode="layer"
     inkscape:label="ink_ext_XXXXXX"
     transform="matrix(1.3333333,0,0,-1.3333333,0,821.90667)"><g
       id="g12"
       transform="scale(0.1)"><path
         d="m 3149.73,509.602 c 4.35,-0.641 8.71,-1.27 13.05,-1.903 7.67,45.832 15.33,91.653 23.01,137.481 -5.85,0.941 -11.69,1.89 -17.54,2.84 -35.47,-41.219 -11.07,-92.489 -18.52,-138.418 z M 2310.48,337.18 c -16.24,-31.2 -30.89,-59.391 -48.26,-92.782 36.42,0 64.95,0 91.84,0 -14.57,31.012 -27.86,59.313 -43.58,92.782 z m 158.67,-92.328 c 42.22,0 74.59,0 108.54,0 -17.37,33.929 -32.71,63.91 -51,99.648 -19.57,-33.879 -36.72,-63.57 -57.54,-99.648 z m -385.8,98.539 c -15.54,-33.371 -28.95,-62.141 -44.41,-95.332 38.86,0 71.54,0 106.21,0 -20.83,32.121 -39.42,60.8 -61.8,95.332 z m 700.71,1.199 c -19.71,-32.371 -41.21,-67.711 -64.63,-106.188 54.73,0 103.12,0 150.13,0 -28.59,35.508 -55.87,69.379 -85.5,106.188 z m -861.53,-40.07 c 67.53,48.75 113.25,139.89 91.53,177.902 -58.85,-22.09 -96,-92.352 -91.53,-177.902 z m 1250.02,-35.508 c -73.9,-51.274 -74.37,-51.801 -141.52,6.89 -21.9,19.149 -40.64,41.899 -62.93,65.2 -17.59,-38.102 -34,-73.602 -53.92,-116.731 105.01,0 204.42,0 308.33,0 -17.73,15.84 -34.17,30.527 -49.96,44.641 z m 194.02,-54.91 c 67.85,-3.551 136.43,-7.153 202.81,-10.622 -33.96,55.321 -65.45,106.59 -97.83,159.329 -36.47,-51.668 -68.63,-97.207 -104.98,-148.707 z M 1678.62,709.199 c 54.33,8.942 98.43,25.071 136.63,57.051 33.36,27.922 45.81,64.93 47.6,106.461 1.39,32.059 -12.36,53.109 -46.98,52.238 -42.21,-1.058 -84.37,-4.187 -128.05,-6.5 -3.2,-72.777 -6.07,-138.129 -9.2,-209.25 z M 807.281,5111.65 c 8.039,1.19 16.078,2.39 24.114,3.59 13.808,148.01 29.218,295.91 39.621,444.15 1.472,21.04 -17.942,46.81 -33.762,65.13 -35.625,41.24 -76.563,77.88 -112.473,118.9 -28.738,32.85 -53.25,69.39 -79.636,104.29 -4.141,-25.72 -1.719,-48.17 2.179,-70.35 28.535,-162.5 53.68,-325.72 87.969,-486.99 13.152,-61.89 47.371,-119.28 71.988,-178.72 z M 1603.47,225.422 c 1.21,5.207 2.42,10.437 3.63,15.648 -8.13,11.422 -18.87,21.879 -23.55,34.559 -3.69,10.012 -2.11,23.402 1.03,34.16 5.19,17.82 20.1,35 19.4,51.981 -2.98,73.289 -8.47,146.601 -16.64,219.5 -3.05,27.281 -16.62,53.269 -23.93,80.242 -4.66,17.179 -15.5,44.5 -8.41,51.168 50.87,47.851 14.37,105.07 30.34,166.929 -91.04,-49.109 -164.05,-100.14 -221.54,-172.168 -7,-8.769 -24.44,-17.992 -33.16,-15.14 -47.59,15.551 -92.22,91.23 -86.81,145.488 -111.64,3.66 -220.83,-6.148 -328.478,-37.648 -33.34,-9.762 -47.012,-25.02 -40.247,-57.84 33.938,-164.672 68.282,-329.262 102.305,-493.922 5.469,-26.469 21.731,-33.82 47.07,-31.027 34.36,3.777 68.93,7.539 103.43,7.718 158.51,0.801 317.04,0.352 475.56,0.352 z M 3157.31,5749.59 c -17.17,0 -35.8,0.74 -54.34,-0.12 -162.53,-7.61 -324.97,-19.12 -487.58,-22.27 -155.62,-3.01 -311.4,2.49 -467.1,4.52 -20.45,0.26 -40.63,4.05 -44.84,-25.81 -7.87,-55.61 -23.4,-110.7 -25.69,-166.42 -10.56,-257.89 -25.47,-515.97 -23.94,-773.89 1.68,-285.44 30.73,-569.79 72.64,-852.47 23.87,-161 43.73,-322.68 71.72,-482.96 22.32,-127.74 55.26,-157.22 196.19,-156.83 52.02,0.15 89.3,30.76 124.17,62.87 117.68,108.38 214.99,234.27 289.86,374.62 168.04,315.09 259.06,655.79 301.32,1007.83 27.42,228.47 34.81,459.5 46.6,689.62 5.74,111.92 0.99,224.38 0.99,341.31 z M 896.504,199.602 C 820.547,382.512 804.168,564.5 756.492,742.891 689.941,708.402 613.738,708.84 565.313,648.18 c -4.708,-5.891 -30.969,-2.739 -40.305,4.789 -26.688,21.5 -49.942,47.293 -74.278,71.66 -20.468,20.5 -19.199,44.562 1.301,60.531 27.696,21.582 58.574,40.52 90.703,54.649 77.325,34.043 153.789,74.179 234.95,94.3 117.902,29.231 239.596,43.172 359.746,63.243 30.44,5.088 51.11,-6.293 67.09,-34.512 18.75,-33.129 43.29,-62.988 65.61,-94.66 114.12,102.41 234.45,179.5 384.18,204.35 114.99,19.08 202.05,-12.22 254.67,-100.249 13.27,-22.222 26.79,-44.301 40.56,-66.222 84.91,-135.11 33.04,-274.411 -119.91,-318.52 -46.38,-13.379 -94.03,-22.32 -145.21,-34.25 14.1,-102.59 28.32,-206.09 42.15,-306.758 45.67,0 89.34,0 136.4,0 -7.57,21.758 -14.01,37.59 -18.6,53.938 -18.85,67.23 -4.76,211.019 70.72,266.832 46.84,34.64 77.42,39.64 130.24,12.679 7.19,-3.671 17.09,-8.281 23.57,-6.082 40.2,13.653 56.23,-7.679 63.96,-41.91 4.73,-20.918 9.02,-41.968 12.57,-63.117 7.83,-46.633 15.07,-93.371 23.13,-143.781 15.34,6.871 20.56,7.512 22.68,10.402 56.46,77.36 102.63,159.047 116.5,256.328 2.15,15.051 20.2,37.102 33.08,38.731 12.74,1.621 35.6,-15.672 40.98,-29.66 10.01,-26.129 13.41,-55.782 14.46,-84.149 2.06,-55.582 0.6,-111.273 0.6,-166.933 56.78,72.453 119.51,139.043 121.73,237.031 0.29,12.488 21.02,32.371 34.42,34.359 12.06,1.793 35.51,-13.84 39.12,-26.129 9.09,-31.07 11.65,-64.461 13.54,-97.121 3.46,-59.308 4.53,-118.75 6.79,-183.519 15.42,7.09 20.58,7.8 22.77,10.73 59.94,79.82 114,162.379 134.31,262.961 2.78,13.77 21.35,32.277 34.32,33.77 12.14,1.398 34.56,-14.399 38.42,-26.95 10.41,-33.812 15.17,-69.73 18.66,-105.16 2.83,-28.82 0.57,-58.16 0.57,-87.261 6.24,-0.981 12.48,-1.942 18.72,-2.918 22.64,64.328 44.28,129.039 68.76,192.66 4.8,12.437 19.16,25.359 31.85,29.347 10.95,3.442 35.23,-2.629 37.33,-9.48 11.35,-37.027 21.27,-75.301 24.59,-113.758 3.2,-36.871 -4.44,-74.582 -2.83,-111.742 0.61,-13.918 13.84,-27.301 22.13,-42.41 34.47,24.121 42.25,46.953 32.81,82.121 -24.82,92.422 -36.97,186.68 -16.88,282.07 10.95,52.02 55.38,75.969 100.66,48.5 24.71,-14.988 46.31,-43.078 57.96,-70.148 45.22,-105.133 25.77,-208.852 -15.97,-310.641 -8.18,-19.961 -20.31,-45.34 7.63,-55.449 18.53,-6.692 52.36,-6.953 62.13,4.539 35.79,42.121 68.91,88.121 93.42,137.437 9.59,19.313 -6.1,51.293 -10.54,77.461 -2.18,12.789 -5.33,25.422 -7.45,38.223 -21.66,130.629 -5.68,258.699 28.64,385.02 3.85,14.187 19.25,35.027 29.84,35.359 17.16,0.539 42.51,-8.551 50.87,-22 37.88,-60.871 73.16,-122.402 75.5,-198.93 2.97,-96.742 -13.42,-190.5 -42.08,-280.609 -18.74,-58.922 1.91,-91.863 38.84,-124.402 29.69,50.832 56.84,101.378 87.98,149.351 25.08,38.598 63.22,45.879 105.68,26.418 27.37,-12.551 54.14,-32.098 82.69,-35.359 102.5,-11.66 147.97,-82.219 182.37,-166.008 3.62,-8.813 1.49,-22 -2.72,-30.922 -1.51,-3.18 -18.29,-2.371 -26.06,1.129 -63.97,28.84 -127.23,59.32 -191.4,87.711 -9.7,4.289 -28.67,5.32 -33.83,-0.539 -50.42,-57.141 -75.78,-125.942 -93.74,-201.149 297.31,-15.324 588.17,-30.312 881.51,-45.441 -18.9,21.269 -39.4,42.769 -58.15,65.711 -139.16,170.25 -291.79,326.867 -463.83,464.348 -132.77,106.101 -264.11,213.968 -396.61,320.41 -79.78,64.09 -155.57,134.99 -242,188.55 -144.08,89.29 -292.17,173.37 -444.14,248.37 -263.12,129.86 -547.05,178.15 -837.85,178.88 -126.16,0.32 -253.52,-14.56 -378.33,-34.91 -251.26,-40.96 -491.23,-118.19 -716.75,-239.88 C 792.344,1236.17 621.648,1081.65 483.953,887.98 340.82,686.648 243.836,466.141 194.52,223.871 c -7.903,-38.832 0.312,-50.43 37.238,-49.031 219.859,8.379 439.734,16.422 664.746,24.762 z M 2600.03,1732.44 c 0.66,3.14 1.33,6.26 1.99,9.4 -5.33,4.56 -10.67,9.11 -16,13.67 -356.1,304.93 -668.9,648.08 -907.88,1053.03 -148.56,251.75 -284.53,510.9 -429.28,764.94 -121.9,213.91 -210.13,441.32 -284.712,674.92 -24.265,76.03 -51.882,150.98 -80.761,234.48 -4.442,-22.24 -8.074,-35.92 -9.832,-49.83 -21.477,-170.04 -40.246,-340.46 -64.582,-510.08 -30.664,-213.69 -65.02,-426.86 -99.231,-640.03 -48.367,-301.35 -98.258,-602.47 -147.137,-903.74 -32.753,-201.91 -64.238,-404.03 -97.488,-605.86 -30.422,-184.66 -63.371,-368.9 -93.359,-553.62 -12.735,-78.49 -20.754,-157.75 -30.91,-236.65 17.109,7.551 25.793,16.84 33.097,27.12 181.063,254.59 419.871,438.74 704.295,561.68 314.43,135.92 642.88,216.15 987.79,216.03 157.08,-0.05 314.18,-1.86 467.52,-43.75 21.61,-5.91 44.29,-7.9 66.48,-11.71 z M 1098.02,4327.77 c 18.7,-56.09 43.53,-131.1 68.71,-205.99 59.75,-177.78 130.66,-350.67 223.06,-514.37 115.39,-204.44 231.12,-408.7 344.33,-614.33 107.87,-195.93 225.36,-385.33 364.13,-561.05 187.33,-237.2 395.1,-455.1 623.34,-653.05 82.4,-71.46 164.62,-143.77 267.53,-187.64 183.55,-78.25 352.45,-182.38 512.53,-300.94 133.94,-99.21 255.16,-215.81 404.5,-294.041 34.65,-18.148 67.23,-40.257 100.75,-60.55 5.36,2.043 10.74,4.082 16.1,6.121 -117.03,1640.4 -48.12,3278.55 41.22,4918.71 -3.75,0 -13.57,0.95 -23.16,-0.15 -223.06,-25.36 -446.08,-51.21 -669.2,-76.24 -34.17,-3.83 -53.61,-13.43 -54.47,-54.74 -4.92,-237.93 -10.67,-475.89 -20.28,-713.68 -9.04,-223.55 -37.9,-445.23 -82.46,-664.41 -41.13,-202.24 -104.41,-397.76 -184.26,-588.46 -83.71,-199.92 -205.46,-372.94 -355.88,-526.78 -50.84,-52 -109.34,-91.68 -185.14,-103.06 -87.51,-13.12 -160.82,19.87 -232.57,61.12 -64.25,36.94 -127.66,75.35 -191.01,113.81 -7.96,4.82 -13.61,13.65 -19.85,21.03 -12.7,15.01 -23.46,32.02 -37.8,45.19 -145.29,133.49 -299.68,258.31 -434.68,401.45 -170.72,181.02 -325.77,376.82 -475.44,552.05 z M 2012.04,3476 c -9.8,88.97 -18.8,174.09 -28.6,259.13 -24.24,210.13 -55.62,419.72 -71.41,630.48 -16.45,219.27 -24.84,439.69 -23.99,659.55 0.76,200.11 18.19,400.17 29.25,600.2 3.81,68.64 10.72,137.12 15.97,205.69 2.11,27.46 30.59,49.59 62.81,43.95 193.4,-33.79 388.49,-19.7 582.58,-16.52 176.89,2.89 353.53,21.4 530.23,33.65 17.02,1.19 33.72,6.85 52.27,10.78 0,59.4 3.5,119.65 -1.49,179.2 -2.46,29.24 1.73,52.71 27.51,59.1 17.92,4.43 43.62,-4.16 59.82,-15.51 23.13,-16.22 44.21,-38.04 59.6,-61.73 11.74,-18.09 16.43,-42.51 18.52,-64.65 2.22,-23.6 -2.3,-47.84 -4.34,-78.95 67.36,5.86 128.72,9.49 189.63,16.86 131.4,15.9 263.02,30.93 393.62,52.06 55.98,9.05 111.46,28.12 163.88,50.36 63.7,27.03 74.77,28.28 118.06,-22.43 3.75,-4.39 6.6,-10.73 11.35,-12.88 59.94,-27.15 60.47,-74.64 52.44,-131.38 -73.09,-516.78 -75.13,-1037.7 -89.95,-1557.96 -6.8,-239.1 -22.95,-477.93 -30.76,-717.01 -3.67,-112.33 3.03,-224.96 3.76,-337.47 0.71,-110.98 -0.24,-221.97 -0.34,-332.95 -0.15,-148.32 -1.01,-296.64 -0.05,-444.95 1.62,-252.37 0.03,-504.86 8.06,-757.03 6.69,-210.22 25.89,-420.01 38.12,-630.08 3.61,-61.89 -0.09,-124.24 4.31,-186.041 2.36,-33.039 12.24,-66.297 23.47,-97.758 11.57,-32.402 -1.74,-50.981 -24.5,-64.242 79.56,-82.129 160.7,-161.821 237.15,-245.77 108.61,-119.258 213.85,-241.59 320.32,-362.777 C 4753.78,122.5 4765.19,27.75 4752.91,12.2813 4747.1,4.96094 4733.8,-0.148438 4723.98,0 4507.64,3.37891 4291.28,7.10156 4074.96,11.9219 3933.62,15.0703 3792.29,19.1484 3651.01,24.4414 3424.8,32.9102 3198.71,45.3516 2972.44,51.3906 2599.03,61.3711 2225.54,72.75 1852.06,73.6016 1588.22,74.2109 1324.19,61.6992 1060.56,48.6719 899.629,40.7188 739.52,16.332 578.594,7.51172 452.227,0.589844 325.164,6.64063 198.414,5.98047 167.148,5.82031 135.906,0.578125 104.617,0.109375 47.2148,-0.738281 -12.2656,74.8594 2.19531,130.41 45.6328,297.238 96.9414,462.41 131.699,631.012 c 34.5,167.41 51.942,338.297 78.125,507.458 26.844,173.42 54.727,346.7 83.028,519.89 34.089,208.65 69.14,417.14 103.726,625.71 32.485,195.84 65.141,391.66 97.297,587.56 30.52,185.91 61.113,371.8 90.527,557.88 27.207,172.08 55.02,344.11 78.633,516.7 24.426,178.44 44.063,357.54 65.871,536.33 13.438,110.15 31.602,220.01 37.93,330.55 2.051,35.83 -26.457,73.53 -41.508,110.15 -7.242,17.66 -17.359,34.27 -23.348,52.3 -26.445,79.76 -54.714,159.08 -76.824,240.07 -20.402,74.74 -36.465,150.94 -49.679,227.32 -25.02,144.56 -46.883,289.66 -69.563,434.61 -12.019,76.82 -24.449,153.62 -33.348,230.81 -2.058,17.83 9.598,37.24 14.954,55.92 17.324,-9.31 41.074,-14.21 50.945,-28.62 67.453,-98.53 126.652,-203.17 199.336,-297.5 49.238,-63.91 115.246,-115.18 175.344,-170.38 61.941,-56.9 122.075,-111.14 106.475,-209.67 -30.186,-190.52 -56.37,-381.69 -82.417,-572.84 -3.297,-24.25 -2.73,-53.42 7.746,-74.5 C 1063.1,4572.91 1193.4,4341.83 1358,4132.59 c 188.47,-239.6 394.49,-462.8 637.14,-649.64 3.07,-2.35 7.37,-3.11 16.9,-6.95"
         style="fill:currentColor;fill-opacity:1;fill-rule:nonzero;stroke:none"
         id="path14" /><path
         d="m 2785.69,779.371 c -110.31,-8.332 -220.55,-18.062 -331.01,-23.621 -18.3,-0.918 -40.35,13.148 -55.61,26.18 -19.41,16.609 -34.35,38.711 -50.01,59.359 -21.02,27.711 -15.41,46.18 17.22,59.781 9.23,3.852 18.75,8.301 28.48,9.442 127.33,14.707 254.43,32.218 383.1,12.117 39.35,-6.149 59.28,-25.539 62.96,-63.981 0.55,-5.707 1.68,-11.386 2.98,-17 4.54,-19.519 9.26,-39.007 13.92,-58.519 -23.56,-5.078 -47.14,-10.168 -70.7,-15.258 -0.45,3.84 -0.89,7.668 -1.33,11.5"
         style="fill:currentColor;fill-opacity:1;fill-rule:nonzero;stroke:none"
         id="path16" /><path
         d="m 1193.78,253.051 c -22.18,-2.992 -43.93,-11.903 -49.81,-5.711 -28.16,29.621 -53.42,62.41 -76.15,96.449 -4.06,6.07 6.28,31.391 14.25,33.832 15.75,4.809 44.61,6.41 50.22,-2.242 22.25,-34.238 37.61,-72.957 61.49,-122.328"
         style="fill:currentColor;fill-opacity:1;fill-rule:nonzero;stroke:none"
         id="path18" /></g></g></svg>
