<?xml version="1.0" encoding="UTF-8" standalone="no"?>
<svg
   xmlns:dc="http://purl.org/dc/elements/1.1/"
   xmlns:cc="http://creativecommons.org/ns#"
   xmlns:rdf="http://www.w3.org/1999/02/22-rdf-syntax-ns#"
   xmlns:svg="http://www.w3.org/2000/svg"
   xmlns="http://www.w3.org/2000/svg"
   xmlns:sodipodi="http://sodipodi.sourceforge.net/DTD/sodipodi-0.dtd"
   xmlns:inkscape="http://www.inkscape.org/namespaces/inkscape"
   version="1.1"
   id="svg2"
   xml:space="preserve"
   width="578.78668"
   height="679.01331"
   viewBox="0 0 578.78668 679.01331"
   sodipodi:docname="Лого Игошева.eps"><metadata
     id="metadata8"><rdf:RDF><cc:Work
         rdf:about=""><dc:format>image/svg+xml</dc:format><dc:type
           rdf:resource="http://purl.org/dc/dcmitype/StillImage" /></cc:Work></rdf:RDF></metadata><defs
     id="defs6" /><sodipodi:namedview
     pagecolor="#ffffff"
     bordercolor="#666666"
     borderopacity="1"
     objecttolerance="10"
     gridtolerance="10"
     guidetolerance="10"
     inkscape:pageopacity="0"
     inkscape:pageshadow="2"
     inkscape:window-width="640"
     inkscape:window-height="480"
     id="namedview4" /><g
     id="g10"
     inkscape:groupmode="layer"
     inkscape:label="ink_ext_XXXXXX"
     transform="matrix(1.3333333,0,0,-1.3333333,0,679.01333)"><g
       id="g12"
       transform="scale(0.1)"><path
         d="m 2191.69,1892.74 c -41.9,-0.26 -84.04,-1.91 -124.81,-4.77 -8.76,-0.61 -17.51,-1.2 -26.27,-1.77 l -0.42,294.91 h 45.16 c 1.6,3.26 3.31,6.44 5.25,9.47 h -0.19 c 14.97,26.01 43.13,42.71 73.91,42.71 29.9,0 57.22,-15.83 72.48,-40.57 2.51,-3.68 4.78,-7.55 6.77,-11.61 h 44.89 v -293.08 c -8.75,0.93 -17.56,2.4 -26.26,2.91 -23.15,1.39 -37.25,2.01 -70.51,1.8 z M 2298,2190.58 h -49 c -15.5,30.89 -47.52,52.18 -84.68,52.18 -37.16,0 -69.17,-21.29 -84.68,-52.18 h -49 c 0,0 0,-312.33 0,-312.9 0,0.17 34.09,2.65 36.54,2.87 34.06,3.12 68.22,4.83 102.42,5.17 34.48,0.33 68.96,-0.67 103.36,-2.99 7.65,-0.52 15.31,-1.08 22.94,-1.52 l 2.1,-0.24 v 309.61"
         style="fill:currentColor;fill-opacity:1;fill-rule:nonzero;stroke:none"
         id="path14" /><path
         d="m 1331.67,1024.73 h -84.95 v -14.17 h 84.95 v 14.17"
         style="fill:currentColor;fill-opacity:1;fill-rule:nonzero;stroke:none"
         id="path16" /><path
         d="m 1520,1024.73 v -14.17 h 90.61 v 14.17 H 1520"
         style="fill:currentColor;fill-opacity:1;fill-rule:nonzero;stroke:none"
         id="path18" /><path
         d="m 1246.72,1450.83 v -14.18 h 363.89 v 14.18 h -363.89"
         style="fill:currentColor;fill-opacity:1;fill-rule:nonzero;stroke:none"
         id="path20" /><path
         d="m 1246.72,1406.22 h 363.89 v 14.17 h -363.89 v -14.17"
         style="fill:currentColor;fill-opacity:1;fill-rule:nonzero;stroke:none"
         id="path22" /><path
         d="m 1331.96,1389.96 h -85.24 v -14.18 h 85.24 v 14.18"
         style="fill:currentColor;fill-opacity:1;fill-rule:nonzero;stroke:none"
         id="path24" /><path
         d="m 1520.3,1389.96 v -14.18 h 90.31 v 14.18 h -90.31"
         style="fill:currentColor;fill-opacity:1;fill-rule:nonzero;stroke:none"
         id="path26" /><path
         d="m 1246.72,980.121 h 363.89 v 14.168 h -363.89 v -14.168"
         style="fill:currentColor;fill-opacity:1;fill-rule:nonzero;stroke:none"
         id="path28" /><path
         d="m 1246.72,949.691 h 363.89 v 14.168 h -363.89 v -14.168"
         style="fill:currentColor;fill-opacity:1;fill-rule:nonzero;stroke:none"
         id="path30" /><path
         d="m 1246.72,919.25 h 363.89 v 14.172 H 1246.72 V 919.25"
         style="fill:currentColor;fill-opacity:1;fill-rule:nonzero;stroke:none"
         id="path32" /><path
         d="m 1246.13,888.82 h 363.88 v 14.168 H 1246.13 V 888.82"
         style="fill:currentColor;fill-opacity:1;fill-rule:nonzero;stroke:none"
         id="path34" /><path
         d="m 1331.96,1359.52 h -85.24 v -14.17 h 85.24 v 14.17"
         style="fill:currentColor;fill-opacity:1;fill-rule:nonzero;stroke:none"
         id="path36" /><path
         d="m 1520.3,1359.52 v -14.17 h 90.31 v 14.17 h -90.31"
         style="fill:currentColor;fill-opacity:1;fill-rule:nonzero;stroke:none"
         id="path38" /><path
         d="m 1331.96,1329.09 h -85.24 v -14.18 h 85.24 v 14.18"
         style="fill:currentColor;fill-opacity:1;fill-rule:nonzero;stroke:none"
         id="path40" /><path
         d="m 1520.3,1329.09 v -14.18 h 90.31 v 14.18 h -90.31"
         style="fill:currentColor;fill-opacity:1;fill-rule:nonzero;stroke:none"
         id="path42" /><path
         d="m 1331.96,1298.65 h -85.24 v -14.17 h 85.24 v 14.17"
         style="fill:currentColor;fill-opacity:1;fill-rule:nonzero;stroke:none"
         id="path44" /><path
         d="m 1520.3,1298.65 v -14.17 h 90.31 v 14.17 h -90.31"
         style="fill:currentColor;fill-opacity:1;fill-rule:nonzero;stroke:none"
         id="path46" /><path
         d="m 1331.96,1268.21 h -85.24 v -14.17 h 85.24 v 14.17"
         style="fill:currentColor;fill-opacity:1;fill-rule:nonzero;stroke:none"
         id="path48" /><path
         d="m 1520.3,1268.21 v -14.17 h 90.31 v 14.17 h -90.31"
         style="fill:currentColor;fill-opacity:1;fill-rule:nonzero;stroke:none"
         id="path50" /><path
         d="m 1331.96,1237.78 h -85.24 v -14.17 h 85.24 v 14.17"
         style="fill:currentColor;fill-opacity:1;fill-rule:nonzero;stroke:none"
         id="path52" /><path
         d="m 1520.3,1237.78 v -14.17 h 90.31 v 14.17 h -90.31"
         style="fill:currentColor;fill-opacity:1;fill-rule:nonzero;stroke:none"
         id="path54" /><path
         d="m 1331.96,1207.34 h -85.24 v -14.17 h 85.24 v 14.17"
         style="fill:currentColor;fill-opacity:1;fill-rule:nonzero;stroke:none"
         id="path56" /><path
         d="m 1520.3,1207.34 v -14.17 h 90.31 v 14.17 h -90.31"
         style="fill:currentColor;fill-opacity:1;fill-rule:nonzero;stroke:none"
         id="path58" /><path
         d="m 1331.96,1176.91 h -85.24 v -14.18 h 85.24 v 14.18"
         style="fill:currentColor;fill-opacity:1;fill-rule:nonzero;stroke:none"
         id="path60" /><path
         d="m 1520.3,1176.91 v -14.18 h 90.31 v 14.18 h -90.31"
         style="fill:currentColor;fill-opacity:1;fill-rule:nonzero;stroke:none"
         id="path62" /><path
         d="m 1520.3,1146.47 v -14.17 h 90.31 v 14.17 h -90.31"
         style="fill:currentColor;fill-opacity:1;fill-rule:nonzero;stroke:none"
         id="path64" /><path
         d="m 1331.96,1146.47 h -85.24 v -14.17 h 85.24 v 14.17"
         style="fill:currentColor;fill-opacity:1;fill-rule:nonzero;stroke:none"
         id="path66" /><path
         d="m 1331.96,1116.04 h -85.24 v -14.18 h 85.24 v 14.18"
         style="fill:currentColor;fill-opacity:1;fill-rule:nonzero;stroke:none"
         id="path68" /><path
         d="m 1520.3,1116.04 v -14.18 h 90.31 v 14.18 h -90.31"
         style="fill:currentColor;fill-opacity:1;fill-rule:nonzero;stroke:none"
         id="path70" /><path
         d="m 1331.96,1085.6 h -85.24 v -14.17 h 85.24 v 14.17"
         style="fill:currentColor;fill-opacity:1;fill-rule:nonzero;stroke:none"
         id="path72" /><path
         d="m 1520.3,1085.6 v -14.17 h 90.31 v 14.17 h -90.31"
         style="fill:currentColor;fill-opacity:1;fill-rule:nonzero;stroke:none"
         id="path74" /><path
         d="m 1331.96,1055.17 h -85.24 v -14.18 h 85.24 v 14.18"
         style="fill:currentColor;fill-opacity:1;fill-rule:nonzero;stroke:none"
         id="path76" /><path
         d="m 1520.3,1055.17 v -14.18 h 90.31 v 14.18 h -90.31"
         style="fill:currentColor;fill-opacity:1;fill-rule:nonzero;stroke:none"
         id="path78" /><path
         d="m 3855,1777.08 h 153.79 v 72.5 H 3855 v -72.5"
         style="fill:currentColor;fill-opacity:1;fill-rule:nonzero;stroke:none"
         id="path80" /><path
         d="m 3855,1684.58 h 153.79 v 72.5 H 3855 v -72.5"
         style="fill:currentColor;fill-opacity:1;fill-rule:nonzero;stroke:none"
         id="path82" /><path
         d="m 3855,1869.58 h 153.79 v 72.5 H 3855 v -72.5"
         style="fill:currentColor;fill-opacity:1;fill-rule:nonzero;stroke:none"
         id="path84" /><path
         d="m 3068.33,3318.33 c 19.02,-54.33 37.77,-110.34 40,-168.33 v -50 L 3800,2470 v -75 l -684.47,671.67 v -38.34 l 658.69,-636.66 H 2683.75 L 2683.28,2585 H 2553.7 v -257.5 l -121.44,80 h -541.43 l -132.5,-80 V 2585 h -130 v -195 h -246.66 l -59.17,132.92 -420,2080.83 17.5,81.25 315,-1405 27.5,75 30,47.5 40,57.5 L 920,5092.58 262.5,2374.17 182.5,2255 365,2219.58 V 873.09 H 510 V 2356.67 L 393.336,2393.33 880,4532.5 1273.77,2503.03 1250,2500.62 1316.67,2390 H 1123.33 V 876.672 h 122.5 V 2327.5 h 382.5 V 2250 l 194.8,77.5 h 665.78 l 194.42,-78.33 v 64.16 H 3855 v -73.75 h 153.79 v 47.92 l 48.71,40 -989.17,990.83"
         style="fill:currentColor;fill-opacity:1;fill-rule:nonzero;stroke:none"
         id="path86" /><path
         d="m 3855,2147.08 h 153.79 v 72.5 H 3855 v -72.5"
         style="fill:currentColor;fill-opacity:1;fill-rule:nonzero;stroke:none"
         id="path88" /><path
         d="m 3855,1962.08 h 153.79 v 72.5 H 3855 v -72.5"
         style="fill:currentColor;fill-opacity:1;fill-rule:nonzero;stroke:none"
         id="path90" /><path
         d="m 3855,2054.58 h 153.79 v 72.5 H 3855 v -72.5"
         style="fill:currentColor;fill-opacity:1;fill-rule:nonzero;stroke:none"
         id="path92" /><path
         d="M 929.164,2407.5 H 742.41 v 299.17 h 186.754 z m -205.828,325 v -358.33 h 235 v 358.33 h -235"
         style="fill:currentColor;fill-opacity:1;fill-rule:nonzero;stroke:none"
         id="path94" /><path
         d="M 895.836,2439.3 H 755.66 v 177.5 h 140.176 v -177.5"
         style="fill:currentColor;fill-opacity:1;fill-rule:nonzero;stroke:none"
         id="path96" /><path
         d="M 895.836,2633.47 H 755.66 v 60 h 140.176 v -60"
         style="fill:currentColor;fill-opacity:1;fill-rule:nonzero;stroke:none"
         id="path98" /><path
         d="m 3286.43,2439.3 h -140.18 v 177.5 h 140.18 v -177.5"
         style="fill:currentColor;fill-opacity:1;fill-rule:nonzero;stroke:none"
         id="path100" /><path
         d="m 3286.43,2633.47 h -140.18 v 60 h 140.18 v -60"
         style="fill:currentColor;fill-opacity:1;fill-rule:nonzero;stroke:none"
         id="path102" /><path
         d="M 2027.68,2439.3 H 1887.5 v 177.5 h 140.18 v -177.5"
         style="fill:currentColor;fill-opacity:1;fill-rule:nonzero;stroke:none"
         id="path104" /><path
         d="M 2027.68,2633.47 H 1887.5 v 60 h 140.18 v -60"
         style="fill:currentColor;fill-opacity:1;fill-rule:nonzero;stroke:none"
         id="path106" /><path
         d="m 2424.12,2439.3 h -140.18 v 177.5 h 140.18 v -177.5"
         style="fill:currentColor;fill-opacity:1;fill-rule:nonzero;stroke:none"
         id="path108" /><path
         d="m 2424.12,2633.47 h -140.18 v 60 h 140.18 v -60"
         style="fill:currentColor;fill-opacity:1;fill-rule:nonzero;stroke:none"
         id="path110" /><path
         d="m 2241.43,2439.3 h -163.75 v 177.5 h 163.75 v -177.5"
         style="fill:currentColor;fill-opacity:1;fill-rule:nonzero;stroke:none"
         id="path112" /><path
         d="m 2241.43,2633.47 h -163.75 v 60 h 163.75 v -60"
         style="fill:currentColor;fill-opacity:1;fill-rule:nonzero;stroke:none"
         id="path114" /><path
         d="m 3855,1664.58 v -40 h -811.15 v 40 H 2766.14 V 1557.5 h 1149.17 v -14.17 H 2766.14 v -11.82 h 1149.17 v -14.17 H 2766.14 v -11.81 h 1149.17 v -14.18 H 2766.14 v -11.8 h 1149.17 v -14.55 -6.76 -132.45 l 29.53,7.45 26.74,4.83 24.17,2.84 13.04,0.93 v 322.74 H 3855"
         style="fill:currentColor;fill-opacity:1;fill-rule:nonzero;stroke:none"
         id="path116" /><path
         d="M 4340.89,0 H 0 V 113.332 H 4340.89 V 0"
         style="fill:currentColor;fill-opacity:1;fill-rule:nonzero;stroke:none"
         id="path118" /><path
         d="M 895.836,1016.56 H 707.5 v 389.88 h 188.336 z m 43.852,323.11 v 126.13 h -42.125 c -10.079,41.5 -49.844,72.54 -97.461,72.54 -47.614,0 -87.383,-31.04 -97.461,-72.54 h -42.118 v -126.13 h 26.25 v -323.93 h -26.25 v -65.131 h 279.165 v 65.131 h -26.25 v 323.93 h 26.25"
         style="fill:currentColor;fill-opacity:1;fill-rule:nonzero;stroke:none"
         id="path120" /><path
         d="M 874.164,1036.34 H 727.5 v 259.65 h 146.664 v -259.65"
         style="fill:currentColor;fill-opacity:1;fill-rule:nonzero;stroke:none"
         id="path122" /><path
         d="M 874.164,1314.13 H 727.5 v 70.89 h 146.664 v -70.89"
         style="fill:currentColor;fill-opacity:1;fill-rule:nonzero;stroke:none"
         id="path124" /><path
         d="M 1520.73,1725.83 H 1332.39 V 2120 h 188.34 z m -235.31,494.59 v -193.75 h 26.25 V 1725 h -26.25 v -65.83 h 279.16 V 1725 h -26.25 v 301.67 h 26.25 v 133.33 20 40.42 h -279.16"
         style="fill:currentColor;fill-opacity:1;fill-rule:nonzero;stroke:none"
         id="path126" /><path
         d="M 1499.06,1745.83 H 1352.4 v 262.5 h 146.66 v -262.5"
         style="fill:currentColor;fill-opacity:1;fill-rule:nonzero;stroke:none"
         id="path128" /><path
         d="M 1499.06,2026.67 H 1352.4 v 71.66 h 146.66 v -71.66"
         style="fill:currentColor;fill-opacity:1;fill-rule:nonzero;stroke:none"
         id="path130" /><path
         d="m 3000,1016.56 h -188.33 v 389.88 H 3000 Z m 43.85,323.11 v 126.13 h -42.12 c -10.07,41.5 -49.85,72.54 -97.46,72.54 -47.61,0 -87.38,-31.04 -97.46,-72.54 h -42.12 v -126.13 h 26.25 v -323.93 h -26.25 v -65.131 h 279.16 v 65.131 h -26.25 v 323.93 h 26.25"
         style="fill:currentColor;fill-opacity:1;fill-rule:nonzero;stroke:none"
         id="path132" /><path
         d="m 2978.33,1036.34 h -146.66 v 259.65 h 146.66 v -259.65"
         style="fill:currentColor;fill-opacity:1;fill-rule:nonzero;stroke:none"
         id="path134" /><path
         d="m 2978.33,1314.13 h -146.66 v 70.89 h 146.66 v -70.89"
         style="fill:currentColor;fill-opacity:1;fill-rule:nonzero;stroke:none"
         id="path136" /><path
         d="m 3358.17,1016.56 h -188.34 v 389.88 h 188.34 z m 43.85,323.11 v 126.13 h -42.12 c -10.08,41.5 -49.85,72.54 -97.46,72.54 -47.62,0 -87.38,-31.04 -97.46,-72.54 h -42.12 v -126.13 h 26.25 v -323.93 h -26.25 v -65.131 h 279.16 v 65.131 h -26.25 v 323.93 h 26.25"
         style="fill:currentColor;fill-opacity:1;fill-rule:nonzero;stroke:none"
         id="path138" /><path
         d="m 3336.5,1036.34 h -146.67 v 259.65 h 146.67 v -259.65"
         style="fill:currentColor;fill-opacity:1;fill-rule:nonzero;stroke:none"
         id="path140" /><path
         d="m 3336.5,1314.13 h -146.67 v 70.89 h 146.67 v -70.89"
         style="fill:currentColor;fill-opacity:1;fill-rule:nonzero;stroke:none"
         id="path142" /><path
         d="M 2233.05,610 H 2124.7 V 424.66 Z"
         style="fill:currentColor;fill-opacity:1;fill-rule:nonzero;stroke:none"
         id="path144" /><path
         d="M 2107.91,185.992 H 2359.7 V 608.719 Z"
         style="fill:currentColor;fill-opacity:1;fill-rule:nonzero;stroke:none"
         id="path146" /><path
         d="m 2244.74,630 9.74,16.672 H 2124.7 V 630 h 120.04"
         style="fill:currentColor;fill-opacity:1;fill-rule:nonzero;stroke:none"
         id="path148" /><path
         d="m 2943.61,185.992 h 149.51 v 207.02 c 0,-60.793 -21.26,-112.242 -63.76,-154.34 -25.34,-25.102 -53.97,-42.543 -85.75,-52.68"
         style="fill:currentColor;fill-opacity:1;fill-rule:nonzero;stroke:none"
         id="path150" /><path
         d="m 2635.71,680.582 h 47.22 l -23.22,51.867 z"
         style="fill:currentColor;fill-opacity:1;fill-rule:nonzero;stroke:none"
         id="path152" /><path
         d="m 2266.17,666.672 9.75,16.66 H 2124.7 v -16.66 h 141.47"
         style="fill:currentColor;fill-opacity:1;fill-rule:nonzero;stroke:none"
         id="path154" /><path
         d="m 4078.48,271.801 -31.2,-85.809 h 217.73 L 4235,271.801 h -156.52"
         style="fill:currentColor;fill-opacity:1;fill-rule:nonzero;stroke:none"
         id="path156" /><path
         d="m 1604.81,273.961 -31.96,-87.969 h 223.02 l -30.73,87.969 h -160.33"
         style="fill:currentColor;fill-opacity:1;fill-rule:nonzero;stroke:none"
         id="path158" /><path
         d="M 1723.57,610 1873.6,185.992 h 24.13 c -1.95,1.508 -3.85,3.16 -5.64,5.098 -8,8.68 -11.99,19.16 -11.99,31.441 0,12.27 3.99,22.699 11.99,31.289 7.99,8.59 17.64,12.891 28.95,12.891 11.29,0 20.94,-4.301 28.94,-12.891 7.99,-8.59 11.99,-19.019 11.99,-31.289 0,-12.281 -4,-22.761 -11.99,-31.441 -1.79,-1.938 -3.69,-3.59 -5.64,-5.098 h 51.84 V 610 h -272.61"
         style="fill:currentColor;fill-opacity:1;fill-rule:nonzero;stroke:none"
         id="path160" /><path
         d="m 1632.31,353.219 h 105.12 l -52.4,146.621 z"
         style="fill:currentColor;fill-opacity:1;fill-rule:nonzero;stroke:none"
         id="path162" /><path
         d="M 2287.61,703.332 2297.35,720 H 2124.7 v -16.668 h 162.91"
         style="fill:currentColor;fill-opacity:1;fill-rule:nonzero;stroke:none"
         id="path164" /><path
         d="m 2858.27,751.559 c -11.02,0 -20.2,-3.329 -27.54,-10 -7.33,-6.668 -11,-15.207 -11,-25.598 0,-10.699 3.62,-19.359 10.88,-25.992 7.24,-6.629 16.42,-9.949 27.53,-9.949 11.11,0 20.35,3.359 27.73,10.05 7.38,6.711 11.06,15.34 11.06,25.891 0,10.551 -3.62,19.109 -10.87,25.711 -7.24,6.59 -16.51,9.887 -27.79,9.887"
         style="fill:currentColor;fill-opacity:1;fill-rule:nonzero;stroke:none"
         id="path166" /><path
         d="m 2309.04,740 9.75,16.672 H 2124.7 V 740 h 184.34"
         style="fill:currentColor;fill-opacity:1;fill-rule:nonzero;stroke:none"
         id="path168" /><path
         d="m 2330.48,776.672 9.74,16.66 H 2124.7 v -16.66 h 205.78"
         style="fill:currentColor;fill-opacity:1;fill-rule:nonzero;stroke:none"
         id="path170" /><path
         d="m 2124.7,830 v -16.668 h 227.21 L 2361.66,830 H 2124.7"
         style="fill:currentColor;fill-opacity:1;fill-rule:nonzero;stroke:none"
         id="path172" /><path
         d="m 4105.33,349.121 h 102.62 l -51.15,143.02 z"
         style="fill:currentColor;fill-opacity:1;fill-rule:nonzero;stroke:none"
         id="path174" /><path
         d="m 2971.98,494.25 c -27.06,27.48 -59.99,41.219 -98.76,41.219 -39.16,0 -72.08,-13.41 -98.76,-40.219 -26.68,-26.809 -40.02,-60.891 -40.02,-102.238 0,-46.063 16.8,-82.512 50.39,-109.313 26.1,-20.957 56.05,-31.437 89.83,-31.437 38.2,0 70.73,13.597 97.61,40.777 26.87,27.191 40.31,60.711 40.31,100.543 0,39.648 -13.54,73.207 -40.6,100.668"
         style="fill:currentColor;fill-opacity:1;fill-rule:nonzero;stroke:none"
         id="path176" /><path
         d="m 4016.63,748.051 c -6.9,4.301 -14.91,6.449 -24.02,6.449 -9.9,0 -18.57,-2.41 -26.04,-7.238 -4.68,-3.012 -9.02,-8.321 -13.02,-15.93 h 76.95 c -2.35,6.848 -6.97,12.438 -13.87,16.719"
         style="fill:currentColor;fill-opacity:1;fill-rule:nonzero;stroke:none"
         id="path178" /><path
         d="m 4245.18,654.48 h -34.58 v 70.75 l -70.57,-70.75 h -18.84 v 122.961 h 34.57 v -72.222 l 72.39,72.222 h 17.03 z m -85.26,177.211 c 2.25,-3.089 5.39,-5.402 9.42,-6.961 4.03,-1.539 8.94,-2.308 14.75,-2.308 5.89,0 11.22,0.91 15.98,2.707 3.12,1.203 5.85,3.391 8.19,6.562 h 28.73 c -1.65,-9.57 -6.91,-17.261 -15.79,-23.062 -8.89,-5.797 -21.3,-8.699 -37.24,-8.699 -10.75,0 -19.74,1.3 -26.97,3.902 -7.23,2.598 -13.06,6.309 -17.48,11.129 -4.42,4.82 -7.19,10.398 -8.32,16.73 z m -93.94,-124.66 H 3952 c 1.64,-8.742 6.04,-15.691 13.19,-20.851 7.14,-5.16 16.27,-7.75 27.35,-7.75 13.26,0 24.66,4.039 34.19,12.101 l 29.89,-12.199 c -7.45,-9.203 -16.38,-16 -26.77,-20.402 -10.4,-4.41 -22.75,-6.621 -37.04,-6.621 -22.18,0 -40.25,6.089 -54.2,18.261 -13.95,12.16 -20.92,27.399 -20.92,45.711 0,18.758 6.95,34.34 20.85,46.739 13.91,12.39 31.35,18.582 52.31,18.582 22.28,0 40.38,-6.192 54.34,-18.582 13.94,-12.399 20.92,-28.77 20.92,-49.11 z M 3854.54,662.16 c -9.88,-7.23 -23.53,-10.851 -40.96,-10.851 -19.15,0 -34.97,4.671 -47.45,14.023 l 19.63,21.469 c 8.41,-5.43 16.39,-8.129 23.93,-8.129 6.07,0 10.88,1.258 14.44,3.777 3.55,2.531 5.33,5.781 5.33,9.77 0,3.851 -1.67,7.203 -5,10.062 -3.34,2.86 -7.91,4.301 -13.72,4.301 h -9.22 v 22.039 h 7.02 c 4.76,0 8.92,0.981 12.47,2.938 3.56,1.953 5.33,5.121 5.33,9.492 0,3.758 -1.58,6.879 -4.75,9.328 -3.16,2.441 -7.04,3.672 -11.64,3.672 -5.81,0 -13.09,-2.449 -21.85,-7.352 l -14.04,21.25 c 12.22,8.43 25.83,12.653 40.82,12.653 13.79,0 25.21,-3.102 34.27,-9.313 9.05,-6.23 13.58,-14.598 13.58,-25.148 0,-10.7 -6.58,-19.371 -19.75,-26 17.59,-5.649 26.38,-15.86 26.38,-30.621 0,-11.008 -4.94,-20.118 -14.82,-27.36 z M 3642.47,609.5 h -36.64 l 29.07,54.16 -53.75,113.781 h 36.26 l 36.73,-77.152 40.53,77.152 h 36.37 z m -126.71,44.98 -18.9,72.149 -42.11,-72.149 h -14.56 l -41.2,72.211 -19.03,-72.211 h -34.58 l 35.4,122.961 h 23.39 l 44.09,-77.562 43.39,77.562 h 23.39 l 35.43,-122.961 z m -221.43,46.899 h -66.02 v 28.703 h 66.02 z m -152.04,-46.899 -18.91,72.149 -42.11,-72.149 h -14.56 l -41.2,72.211 -19.03,-72.211 h -34.58 l 35.4,122.961 h 23.4 l 44.08,-77.562 43.39,77.562 h 23.4 l 35.42,-122.961 z m -219.56,29.04 c -6.63,-10.098 -15.66,-17.989 -27.1,-23.668 -11.43,-5.692 -24.04,-8.543 -37.82,-8.543 -20.27,0 -37.58,6.273 -51.92,18.82 -14.34,12.543 -21.51,27.793 -21.51,45.723 0,19.199 8.11,35.218 24.31,48.027 14.21,11.152 30.54,16.723 49,16.723 13.34,0 25.88,-2.903 37.62,-8.7 11.74,-5.8 20.9,-13.672 27.49,-23.621 6.58,-9.941 9.88,-20.679 9.88,-32.211 0,-11.601 -3.32,-22.449 -9.95,-32.55 z M 2742.3,633.121 h -33.79 v 21.359 h -98.78 v -21.359 h -31.58 v 47.461 h 21.28 l 48.83,96.859 h 22.87 l 49.5,-96.859 h 21.67 z M 0,876.672 v -690.68 h 1150 v 427.067 h 61.77 c 35.83,0 62.05,-2.508 78.63,-7.547 23.53,-6.77 42.25,-19.34 56.16,-37.742 13.9,-18.391 20.86,-40.059 20.86,-65.028 0,-16.262 -3.17,-31.023 -9.49,-44.281 -6.32,-13.262 -16.6,-25.691 -30.85,-37.301 23.86,-12.199 41.31,-27.43 52.35,-45.73 11.04,-18.289 16.57,-39.918 16.57,-64.891 0,-23.988 -5.71,-45.867 -17.12,-65.609 -11.41,-19.739 -26.12,-34.5 -44.11,-44.278 -18.01,-9.773 -42.88,-14.66 -74.61,-14.66 h 154.8 c -1.96,1.508 -3.86,3.16 -5.64,5.098 -8,8.68 -12,19.16 -12,31.441 0,12.27 4,22.699 12,31.289 7.99,8.59 17.64,12.891 28.94,12.891 11.3,0 20.95,-4.301 28.95,-12.891 7.99,-8.59 11.99,-19.019 11.99,-31.289 0,-12.281 -4,-22.761 -11.99,-31.441 -1.79,-1.938 -3.69,-3.59 -5.65,-5.098 h 33.57 L 1645.55,610 h -35.24 v 20 h 385.87 v 16.672 h -385.87 v 20 h 385.87 v 16.66 h -385.87 v 20 h 385.87 V 720 h -385.87 v 20 h 385.87 v 16.672 h -385.87 v 20 h 385.87 v 16.66 h -385.87 v 20 h 385.87 V 830 h -385.87 v 20 h 385.87 v 11.16 H 2124.7 V 850 h 248.65 l 6.53,11.16 h 108.33 V 850 h 10.12 v -20 h -10.12 v -16.668 h 10.12 v -20 h -10.12 v -16.66 h 10.12 v -20 h -10.12 V 740 h 10.12 v -20 h -10.12 v -16.668 h 10.12 v -20 h -10.12 v -16.66 h 10.12 v -20 h -10.12 V 630 h 10.12 v -20 h -10.12 V 185.992 h 15.96 v 416.59 h 190.35 v -77.59 h -117.86 v -339 h 227.2 c -33.02,10.367 -62.24,28.387 -87.5,54.379 -42.01,43.231 -63.03,94.59 -63.03,154.059 0,39.832 9.79,76.461 29.36,109.879 19.57,33.421 46.48,59.91 80.73,79.441 34.25,19.551 71.14,29.309 110.67,29.309 59.86,0 111.33,-21.34 154.41,-64 43.07,-42.668 64.62,-94.688 64.62,-156.047 v 209.57 h 74.05 V 257.359 h 102.47 v 345.223 h 73.54 V 257.359 h 104.3 v 345.223 h 74.06 v -416.59 h 14.68 v 416.59 h 209.38 v -77.59 H 3608.71 V 449.648 H 3745.6 V 373.469 H 3608.71 V 263.871 h 136.89 v -77.879 h 14.59 v 416.59 h 60.31 c 34.98,0 60.57,-2.453 76.76,-7.363 22.97,-6.61 41.25,-18.879 54.82,-36.821 13.58,-17.929 20.37,-39.078 20.37,-63.429 0,-15.86 -3.09,-30.258 -9.26,-43.199 -6.17,-12.93 -16.21,-25.051 -30.11,-36.379 23.29,-11.899 40.32,-26.762 51.1,-44.61 10.78,-17.832 16.17,-38.941 16.17,-63.289 0,-23.41 -5.57,-44.75 -16.71,-64.012 -11.14,-19.261 -25.5,-33.648 -43.07,-43.191 -17.58,-9.527 -41.85,-14.297 -72.83,-14.297 h 103.66 l 147.91,416.59 h 74.05 l 147.53,-416.59 v 690.68 H 0"
         style="fill:currentColor;fill-opacity:1;fill-rule:nonzero;stroke:none"
         id="path180" /><path
         d="m 1281.76,458.031 c 8.85,8.309 13.27,19.641 13.27,33.969 0,13.352 -4.2,23.941 -12.6,31.801 -8.4,7.82 -21.18,11.738 -38.34,11.738 h -19.3 v -90 h 16.35 c 18.23,0 31.78,4.172 40.62,12.492"
         style="fill:currentColor;fill-opacity:1;fill-rule:nonzero;stroke:none"
         id="path182" /><path
         d="m 1224.79,263.512 h 18.75 c 31.06,0 52,4.258 62.8,12.777 10.8,8.512 16.2,20.891 16.2,37.152 0,18.399 -6.34,32.911 -19.01,43.559 -12.69,10.629 -33.75,15.969 -63.21,15.969 h -15.53 V 263.512"
         style="fill:currentColor;fill-opacity:1;fill-rule:nonzero;stroke:none"
         id="path184" /><path
         d="m 3833.2,261.609 h 18.3 c 30.34,0 50.78,4.153 61.32,12.461 10.54,8.309 15.82,20.391 15.82,36.25 0,17.942 -6.19,32.102 -18.57,42.481 -12.37,10.379 -32.94,15.578 -61.7,15.578 h -15.17 v -106.77"
         style="fill:currentColor;fill-opacity:1;fill-rule:nonzero;stroke:none"
         id="path186" /><path
         d="m 3888.83,451.352 c 8.63,8.117 12.95,19.16 12.95,33.14 0,13.028 -4.1,23.36 -12.3,31.008 -8.2,7.641 -20.68,11.469 -37.43,11.469 H 3833.2 V 439.18 h 15.97 c 17.8,0 31.02,4.062 39.66,12.172"
         style="fill:currentColor;fill-opacity:1;fill-rule:nonzero;stroke:none"
         id="path188" /><path
         d="m 1045,2620 c 0,131.01 -1.11,259.55 -24.49,389.05 -13.39,74.14 -34.061,151.06 -86.584,205.07 -18.863,19.39 -42,35.48 -68.301,41.84 -49.832,12.05 -91.676,-22.86 -119.867,-60.64 -35.985,-48.2 -67.281,-104.84 -83.602,-162.83 -5.847,-20.78 -9.777,-42.04 -13.468,-63.31 -20.274,-116.7 -26.188,-231 -26.188,-349.18 0,0 50.648,0 70,0 v 134.37 H 980.145 V 2620 c 16.859,0 64.855,0 64.855,0"
         style="fill:currentColor;fill-opacity:1;fill-rule:nonzero;stroke:none"
         id="path190" /><path
         d="m 1520,1016.56 h -188.33 v 389.88 H 1520 Z m 43.85,323.11 v 126.13 h -42.12 c -10.08,41.5 -49.85,72.54 -97.46,72.54 -47.61,0 -87.38,-31.04 -97.46,-72.54 h -42.12 v -126.13 h 26.25 v -323.93 h -26.25 v -65.131 h 279.16 v 65.131 h -26.25 v 323.93 h 26.25"
         style="fill:currentColor;fill-opacity:1;fill-rule:nonzero;stroke:none"
         id="path192" /><path
         d="m 1498.33,1036.34 h -146.66 v 259.65 h 146.66 v -259.65"
         style="fill:currentColor;fill-opacity:1;fill-rule:nonzero;stroke:none"
         id="path194" /><path
         d="m 1498.33,1314.13 h -146.66 v 70.89 h 146.66 v -70.89"
         style="fill:currentColor;fill-opacity:1;fill-rule:nonzero;stroke:none"
         id="path196" /><path
         d="M 3716.34,1016.56 H 3528 v 389.88 h 188.34 z m 1.73,449.24 c -10.08,41.5 -49.85,72.54 -97.46,72.54 -47.62,0 -87.38,-31.04 -97.46,-72.54 h -42.12 v -126.13 h 26.25 v -323.93 h -26.25 v -65.131 h 252.72 l 0.19,65.131 v 323.93 h 26.25 v 126.13 h -42.12"
         style="fill:currentColor;fill-opacity:1;fill-rule:nonzero;stroke:none"
         id="path198" /><path
         d="M 3694.67,1036.34 H 3548 v 259.65 h 146.67 v -259.65"
         style="fill:currentColor;fill-opacity:1;fill-rule:nonzero;stroke:none"
         id="path200" /><path
         d="M 3694.67,1314.13 H 3548 v 70.89 h 146.67 v -70.89"
         style="fill:currentColor;fill-opacity:1;fill-rule:nonzero;stroke:none"
         id="path202" /><path
         d="m 4259.59,884.172 v 192.838 c 10.71,2.15 21.3,3.71 31.62,4.51 13.44,1.09 26.46,-0.95 40.23,-3.07 0.65,-0.09 1.3,-0.19 1.95,-0.29 V 884.172 Z m -7.5,114.598 H 4230 v 70.57 c 3.63,1.12 7.29,2.38 10.89,3.35 3.75,1.01 7.48,1.91 11.2,2.76 z m -38.96,-109.188 h 38.96 v -5.41 h -38.96 z m -90.21,0 h 82.71 v -5.41 h -82.71 z m -90.21,0 h 82.71 v -5.41 h -82.71 z m -90.21,0 h 82.71 v -5.41 h -82.71 z m -72.37,0 H 3935 v -5.41 h -83.47 c 5.14,1.469 10.27,3.027 15.39,4.488 1.07,0.301 2.14,0.61 3.21,0.922 z m 381.96,20.34 v -12.84 h -356.07 c 13.42,3.977 26.88,8.207 40.23,12.867 v -0.027 z m -266.33,20.328 h 39.45 v -12.828 h -68.84 c 9.92,3.898 19.73,8.16 29.39,12.828 z m 36.67,20.34 h 229.66 V 937.75 H 4000.3 c 7.49,4.051 14.86,8.34 22.13,12.84 z m 31.03,20.34 h 61.96 v -12.84 h -81.06 c 6.43,4.199 12.79,8.5 19.1,12.84 z m 152.17,0 v -12.84 h -82.71 v 12.84 z m 46.46,-12.84 h -38.96 v 12.84 h 38.96 z m -129.17,-27.84 h 82.71 v -12.828 h -82.71 z m -7.5,0 v -12.828 h -82.71 v 12.828 z m 136.67,-12.828 h -38.96 v 12.828 h 38.96 z M 4082.5,991.27 h 169.59 v -12.84 h -187.85 c 3.94,2.769 7.9,5.531 11.8,8.289 2.13,1.511 4.31,3.031 6.46,4.551 z m 22.18,7.5 h -11.51 c 3.8,2.65 7.66,5.26 11.51,7.88 z m 12.82,0 h -5.32 v 12.94 c 1.76,1.17 3.55,2.29 5.32,3.45 z m 12.83,0 H 4125 v 21.25 c 1.78,1.12 3.55,2.22 5.33,3.32 z m 66.52,0 h -59.02 v 29.03 c 2.65,1.56 5.28,3.21 7.95,4.72 17.62,9.91 34.54,18.15 51.07,25.01 z m 12.82,0 h -5.32 v 61.64 c 1.77,0.69 3.56,1.38 5.32,2.05 z m 7.5,0 v 66.58 c 1.79,0.61 3.55,1.1 5.33,1.69 v -68.27 z m -484.67,-70.579 3.03,-0.851 c 32.35,-9.039 62.9,-17.578 97.12,-18.66 4.33,-0.141 9.1,-0.25 14.18,-0.25 10.75,0 22.89,0.492 35.09,2.269 33.83,4.922 65.14,19.422 85.74,29.91 38.78,19.731 75.65,44.27 111.3,68.011 15.71,10.46 31.95,21.27 48.1,31.5 l 5.39,3.42 c 37.45,23.74 72.82,46.16 112.87,62.77 8.95,3.72 18.53,7.38 28.52,7.94 20.21,1.09 39.86,-8.83 58.79,-18.45 l 0.76,-0.38 v -9.68 c -0.29,0.05 -0.49,0.08 -0.81,0.13 -13.59,2.09 -27.64,4.21 -41.95,3.13 -16.74,-1.3 -34.13,-4.35 -51.68,-9.06 -31.04,-8.32 -62.72,-21.7 -96.85,-40.88 -24.44,-13.74 -47.8,-30.26 -70.4,-46.208 -25.75,-18.204 -52.37,-37.012 -80.44,-51.563 -40.18,-20.84 -84.01,-33.328 -126.39,-45.41 -13.36,-3.809 -26.74,-7.637 -40.08,-11.707 h -92.29 z m 274.56,112.299 c 20.98,6.85 41.58,14.24 62.09,22.07 -13.38,-10.28 -26.44,-20.01 -40.8,-28.59 -28.05,-16.78 -57.56,-31.73 -87.74,-44.419 -36.3,-15.281 -66.33,-24.02 -94.51,-27.5 -42.91,-5.281 -79.92,5.64 -113.6,19.008 v 15.32 c 95.77,0.73 185.69,15.101 274.56,44.111 z m -274.56,32.76 c 4.1,-1.1 8.75,-2.46 9.75,-2.83 6.71,-2.55 13.56,-6.67 20.35,-12.25 17.61,-14.46 31.5,-33.34 43.82,-50.84 -24.29,-2.1 -48.91,-3.25 -73.92,-3.45 z m 119.38,-58.1 2.34,-2.36 c -12.98,-1.84 -26.05,-3.37 -39.2,-4.63 -13.18,18.82 -28.11,39.76 -47.66,55.81 -7.42,6.09 -14.97,10.62 -22.45,13.46 -0.11,0.05 -6.78,2.94 -12.41,4.39 v 8.24 c 48.91,-3.57 86.26,-41.32 119.38,-74.91 z m -119.38,114.13 c 31.67,-4.19 55.41,-10.75 80.36,-22.15 43.05,-19.67 80.12,-47.2 110.45,-81.74 -19.79,-4.44 -39.7,-8.28 -59.79,-11.33 l -6.3,6.36 c -34.19,34.67 -72.78,73.66 -124.72,77.15 z m 79.18,145.72 c 6.25,0.01 11.72,2.36 16.49,5.03 v -17.42 c -12.06,-6.21 -23.08,-12.41 -32.61,-18.15 l -1.81,-1.09 v -120.46 c -18.55,6.53 -38.12,10.96 -61.25,14.05 V 1275 Z m 29.32,12.54 v -18.53 c -1.83,-0.89 -3.54,-1.78 -5.33,-2.66 v 18.2 l 0.16,0.1 c 1.67,1.02 3.44,1.94 5.17,2.89 z m 12.82,6.59 v -19.24 c -1.78,-0.8 -3.57,-1.6 -5.32,-2.41 v 19.01 c 1.75,0.87 3.47,1.74 5.32,2.64 z m 43.17,17.92 c 7.7,2.69 15.5,5.11 23.35,7.34 v -20.84 c -20.8,-5.4 -40.72,-12.47 -59.02,-20.28 v 19.24 c 11.64,5.35 23.56,10.31 35.67,14.54 z m 89.83,20.45 c 8.52,0.94 17.11,1.55 25.68,1.96 v -25.05 c -19.46,-0.08 -39.33,-1.16 -59.01,-4.11 v 21.91 c 11.05,2.17 22.15,4.04 33.33,5.29 z m 224.08,-39.17 v -18.9 c -1.77,0.78 -3.55,1.53 -5.33,2.29 v 19.17 c 0.97,-0.46 1.97,-0.85 2.93,-1.31 0.81,-0.39 1.6,-0.84 2.4,-1.25 z m 12.83,-6.7 v -17.97 c -1.77,0.81 -3.55,1.6 -5.33,2.4 v 18.37 c 0.73,-0.39 1.48,-0.75 2.21,-1.14 1.03,-0.56 2.08,-1.11 3.12,-1.66 z m -178.07,14.8 c 19.64,-0.59 39.91,-1.69 60.24,-4.29 v -211.85 c -4.97,-2.08 -9.94,-4.05 -14.92,-6.07 l -0.04,0.05 c -0.06,-0.05 -0.12,-0.09 -0.18,-0.13 -14.98,-6.06 -29.99,-11.88 -45.1,-17.36 z m -12.83,0.3 c 1.77,-0.03 3.58,-0.03 5.33,-0.08 v -242.59 c -1.76,-0.64 -3.56,-1.21 -5.33,-1.83 z m -12.83,0.21 c 1.8,-0.01 3.55,-0.06 5.33,-0.09 v -247.19 c -1.77,-0.6 -3.55,-1.21 -5.33,-1.81 z m 5.33,7.41 c -1.78,0.02 -3.53,0.07 -5.33,0.08 v 25.24 c 1.78,0.05 3.56,0.13 5.33,0.16 z m 12.83,-0.2 c -1.75,0.05 -3.56,0.05 -5.33,0.08 v 25.74 c 1.78,-0.01 3.56,-0.13 5.33,-0.16 z m 67.74,-4.46 c -20.37,2.56 -40.63,3.66 -60.24,4.25 v 25.66 c 20.18,-0.72 40.33,-2.92 60.24,-6.63 z m 12.83,-1.83 c -1.78,0.28 -3.55,0.55 -5.33,0.81 v 22.8 c 1.78,-0.37 3.56,-0.67 5.33,-1.06 z m 12.83,-2.29 c -1.78,0.35 -3.55,0.72 -5.33,1.04 v 22.07 c 1.78,-0.43 3.55,-0.93 5.33,-1.38 z m 20.09,-4.53 c -4.18,1.11 -8.39,2.09 -12.59,3.02 v 21.31 c 20.19,-5.52 39.92,-12.61 59.01,-21.14 v -19.32 c -15.22,6.31 -30.68,11.95 -46.42,16.13 z m -25.42,-2.07 c 1.78,-0.33 3.56,-0.67 5.33,-1.03 V 1096.4 c -1.78,-0.79 -3.56,-1.57 -5.33,-2.34 z m -12.83,-205.55 v 207.66 c 1.78,-0.25 3.56,-0.52 5.33,-0.81 v -204.51 c -1.77,-0.76 -3.55,-1.58 -5.33,-2.34 z m 84.67,35.79 c -15.74,-5.65 -32.63,-12.61 -51.75,-21.32 -2.42,-1.11 -4.84,-2.1 -7.26,-3.2 v 191.66 c 3.56,-0.81 7.12,-1.62 10.66,-2.55 16.33,-4.34 32.46,-10.32 48.35,-17.01 z m 12.83,4.37 c -1.77,-0.58 -3.53,-1.13 -5.33,-1.75 v 141.73 c 1.78,-0.78 3.56,-1.55 5.33,-2.34 z m 12.83,3.94 c -1.78,-0.51 -3.54,-1.01 -5.33,-1.55 v 131.87 c 1.78,-0.82 3.55,-1.63 5.33,-2.45 z m 32.52,7.56 c -5.93,-1.01 -11.87,-2.15 -17.82,-3.61 -2.39,-0.58 -4.8,-1.23 -7.2,-1.86 v 122.29 c 4.06,-1.9 8.11,-3.81 12.13,-5.71 l 12.89,-6.08 z m -302.76,157.65 c 19.6,3.04 39.5,4.11 59.01,4.18 v -251.63 c -2.6,-0.86 -5.16,-1.81 -7.77,-2.66 -17.02,-5.55 -34.1,-10.4 -51.24,-14.88 z m -12.83,-2.26 c 1.79,0.36 3.54,0.82 5.33,1.14 v -265.84 c -1.78,-0.45 -3.54,-0.96 -5.33,-1.4 z m 0,29.16 c 1.77,0.41 3.56,0.71 5.33,1.09 v -21.45 c -0.02,0 -0.04,-0.01 -0.06,-0.01 -1.77,-0.31 -3.5,-0.78 -5.27,-1.13 z m -7.5,-23.1 c -1.77,-0.39 -3.56,-0.72 -5.32,-1.14 v 20.93 c 1.77,0.47 3.55,0.93 5.32,1.37 z m -5.32,-269.94 v 261.14 c 1.75,0.42 3.56,0.74 5.32,1.14 v -266.32 c -0.47,-0.11 -0.96,-0.2 -1.44,-0.32 -1.27,1.49 -2.59,2.9 -3.88,4.36 z m -66.52,238.45 c 18.27,7.94 38.14,15.18 59.02,20.72 v -250.85 c -17.65,18.58 -37.41,34.93 -59.02,49.02 z m -12.82,-5.75 c 1.72,0.81 3.57,1.59 5.32,2.39 v -173.01 c -1.78,1.09 -3.52,2.23 -5.32,3.3 z m -12.83,-6.3 c 1.75,0.88 3.53,1.75 5.33,2.63 v -159.47 c -1.78,0.99 -3.53,2.01 -5.33,2.98 z m -19.69,-144.05 c -4.9,2.24 -9.8,4.25 -14.73,6.16 v 119.03 c 8.03,4.8 17.12,9.91 26.92,15.05 v -146.21 c -4.03,2.04 -8.05,4.09 -12.19,5.97 z m 517.41,-10.12 c -18.25,9.26 -38.67,19.19 -59.97,17.91 -11.16,-0.61 -21.84,-4.7 -30.97,-8.48 -40.65,-16.87 -77.95,-40.51 -114.02,-63.38 l -5.39,-3.42 c -16.21,-10.26 -32.49,-21.1 -48.24,-31.59 -35.47,-23.61 -72.15,-48.04 -110.54,-67.571 -20.13,-10.238 -50.69,-24.41 -83.42,-29.168 -17.39,-2.519 -34.76,-2.359 -47.95,-1.941 -33.31,1.039 -63.45,9.472 -95.35,18.39 l -5.04,1.399 v 37 c 27.92,-11.047 56.86,-19.797 91.29,-19.797 7.55,0 15.29,0.449 23.23,1.437 28.88,3.571 59.55,12.481 96.5,28.02 30.5,12.84 60.33,27.941 88.68,44.901 17.27,10.33 33.21,22.63 48.62,34.54 4.54,3.5 9.11,7.03 13.72,10.5 18.28,7.42 36.52,15.13 54.89,23.5 35.87,16.34 63.87,26.55 90.78,33.12 30.88,7.53 61.7,8.53 93.18,8.52 z M 4253.33,1275 h 80.06 v -129.8 c -23.37,0 -46.49,-0.54 -69.64,-3.87 v 108.56 l -17.19,8.08 c -5.08,2.4 -10.2,4.8 -15.33,7.2 v 17.58 c 5.07,-2.53 10.31,-4.89 15.85,-6.7 2.15,-0.7 4.25,-1.05 6.25,-1.05 z m 87.56,-133.55 0.01,3.75 h -0.01 v 137.3 h -87.56 c -1.28,0 -2.59,0.25 -3.93,0.68 -13.28,4.34 -25.13,12.13 -37.65,18.15 -55.96,26.95 -118.02,41.17 -180.14,41.17 -0.2,0 -0.4,0 -0.6,0 -15.04,-0.02 -30.08,-0.88 -45.03,-2.55 -31.14,-3.48 -61.88,-10.48 -91.46,-20.82 -14.79,-5.17 -29.29,-11.16 -43.4,-17.97 -6.51,-3.15 -13.03,-6.34 -19.2,-10.11 -6.16,-3.77 -12.7,-8.54 -20.25,-8.55 -0.05,0 -86.67,0 -86.67,0 v -184.58 -7.5 -86.67 -7.5 -119.578 h 88.33 l 1.15,-3.582 c 3.78,1.211 7.58,2.398 11.38,3.582 h 515.03 v 264.778"
         style="fill:currentColor;fill-opacity:1;fill-rule:nonzero;stroke:none"
         id="path204" /><path
         d="m 2498.37,1397.21 c -52.76,25.74 -108.01,47.38 -165.29,60.9 -86.55,20.42 -176.9,24.69 -265.1,13.22 -44.1,-5.72 -87.69,-15.39 -130,-28.95 -21.14,-6.78 -41.97,-14.52 -62.38,-23.24 -4.24,-1.81 -54.35,-21.09 -54.35,-21.91 0,-0.03 0,-513.281 0,-513.281 h 150 c 1.25,0 0,464.231 0,464.291 0.18,10.15 70.24,31.97 79.36,34.81 29.16,9.1 59.43,14.65 89.94,16.64 64.86,4.25 126.66,-8.91 186.2,-33.67 4.95,-2.05 33.25,-13.64 33.25,-17.78 V 883.949 h 138.33 c 0,17.211 0,34.422 0,51.621 0,92.97 0,185.94 0,278.91 0,60.88 -0.68,121.91 0.04,182.73"
         style="fill:currentColor;fill-opacity:1;fill-rule:nonzero;stroke:none"
         id="path206" /><path
         d="m 2135.45,1153.09 c -3.06,-7.18 -4.59,-17.81 -4.59,-31.88 0,-14.03 1.51,-24.63 4.54,-31.81 3.03,-7.19 7.51,-12.64 13.43,-16.35 2.61,-1.64 5.3,-2.86 8.05,-3.78 v 103.89 c -2.76,-0.91 -5.45,-2.13 -8.05,-3.76 -5.86,-3.69 -10.31,-9.12 -13.38,-16.31"
         style="fill:currentColor;fill-opacity:1;fill-rule:nonzero;stroke:none"
         id="path208" /><path
         d="m 2141.17,1063.08 c -7.69,4.56 -13.7,11.36 -18.02,20.39 -4.32,9.03 -6.48,21.68 -6.48,37.94 0,16.38 2.12,29.04 6.38,37.99 4.25,8.95 10.26,15.73 18.01,20.34 4.9,2.91 10.19,4.8 15.82,5.87 v 185.3 c -29.12,-2.52 -58.25,-5.06 -86.93,-10.89 -14.55,-2.97 -28.95,-6.81 -42.84,-12.03 -6.93,-2.59 -13.72,-5.55 -20.34,-8.85 -2.19,-1.11 -10.58,-4.89 -10.59,-7.73 0,-0.55 0,-447.879 0,-447.879 h 160.7 v 173.759 c -5.6,1.07 -10.87,2.92 -15.71,5.79"
         style="fill:currentColor;fill-opacity:1;fill-rule:nonzero;stroke:none"
         id="path210" /><path
         d="m 2959.55,2439.3 h -140.17 v 177.5 h 140.17 v -177.5"
         style="fill:currentColor;fill-opacity:1;fill-rule:nonzero;stroke:none"
         id="path212" /><path
         d="m 2848.97,2639.34 c -3.25,-2 -6.53,-3.96 -9.84,-5.87 h 120.42 v 60 h -34.83 c -23.7,-20.07 -49.41,-37.94 -75.75,-54.13"
         style="fill:currentColor;fill-opacity:1;fill-rule:nonzero;stroke:none"
         id="path214" /><path
         d="m 1369.38,2439.3 h 140.17 v 177.5 h -140.17 v -177.5"
         style="fill:currentColor;fill-opacity:1;fill-rule:nonzero;stroke:none"
         id="path216" /><path
         d="m 1479.95,2639.34 c 3.25,-2 6.54,-3.96 9.84,-5.87 h -120.41 v 60 h 34.82 c 23.71,-20.07 49.41,-37.94 75.75,-54.13"
         style="fill:currentColor;fill-opacity:1;fill-rule:nonzero;stroke:none"
         id="path218" /><path
         d="m 1645,1638.75 h 120 c -5.45,-2.97 -9.94,-7.04 -14.79,-10.78 -5.11,-3.94 -10.38,-7.68 -15.71,-11.34 -10.67,-7.33 -21.58,-14.35 -31.96,-22.05 -19.95,-14.83 -36.65,-32.35 -53.04,-50.54 -0.66,-0.72 -4.5,-3.89 -4.5,-4.94 v 99.65"
         style="fill:currentColor;fill-opacity:1;fill-rule:nonzero;stroke:none"
         id="path220" /><path
         d="m 1765,1618.78 c 0,0 0,-47.07 0,-47.09 0,-1.59 -8.22,-3.19 -9.43,-3.54 -4.5,-1.32 -8.87,-3.03 -13.14,-4.94 -8.76,-3.95 -17.05,-8.81 -25.4,-13.55 -11.43,-6.48 -23.01,-12.72 -34.72,-18.7 -5.85,-2.99 -11.73,-5.92 -17.65,-8.79 -2.91,-1.4 -6.02,-3.42 -9.12,-4.35 -2.41,-0.71 -5.08,-0.17 -7.6,-0.17 -0.24,0 -2.85,0.2 -2.94,0 1.67,3.54 2.92,6.63 5.38,9.7 2.64,3.32 5.53,6.43 8.42,9.52 20.37,21.85 41.15,43.67 65.38,61.23 12.42,8.99 25.59,18 40.82,20.68"
         style="fill:currentColor;fill-opacity:1;fill-rule:nonzero;stroke:none"
         id="path222" /><path
         d="m 1765,1544.77 v -27.31 c 0,0 -41.14,0 -41.25,0 0.58,0 2.29,3.43 2.69,4.04 4.35,6.7 10.46,12.11 16.91,16.67 3.34,2.35 6.82,4.49 10.38,6.47 1.13,0.62 11.27,4.37 11.27,4.34 v -4.21"
         style="fill:currentColor;fill-opacity:1;fill-rule:nonzero;stroke:none"
         id="path224" /><path
         d="m 1686.88,1517.46 c 1.45,0.19 23.43,0 23.54,0 1.03,-0.01 4.77,6.42 5.43,7.26 2.47,3.17 5.19,6.08 8.01,8.93 1.03,1.04 3.85,5.2 5.31,5.45 -5.5,-0.93 -11.15,-1.43 -16.34,-3.5 -5.51,-2.21 -10.83,-4.91 -15.87,-8.05 -2.29,-1.45 -5.41,-2.99 -7.15,-5.1 -1.14,-1.4 -1.97,-3.43 -2.93,-4.99"
         style="fill:currentColor;fill-opacity:1;fill-rule:nonzero;stroke:none"
         id="path226" /><path
         d="m 2652.19,1638.75 h -84.69 c 0,0 0,-121.21 0,-121.24 0.01,2.45 4.23,4.03 5.89,5.21 3.07,2.19 5.74,4.97 8.12,7.88 6.47,7.89 10.74,17.31 15.79,26.1 5.52,9.59 11.4,18.97 17.49,28.21 6.06,9.2 12.34,18.27 18.68,27.29 3.11,4.43 6.23,8.83 9.35,13.25 1.2,1.69 7.71,13.3 9.37,13.3"
         style="fill:currentColor;fill-opacity:1;fill-rule:nonzero;stroke:none"
         id="path228" /><path
         d="m 2687.5,1562.5 v -44.99 h -43.12 c 0.46,0.11 1.34,2.24 1.57,2.63 1.04,1.75 2.08,3.51 3.12,5.26 2.57,4.26 5.59,8.25 8.68,12.15 8.07,10.2 17.53,19.97 29.75,24.95"
         style="fill:currentColor;fill-opacity:1;fill-rule:nonzero;stroke:none"
         id="path230" /><path
         d="m 2687.5,1638.75 c 0,0 0,-50.51 0,-50.78 -0.02,-0.78 -17.35,-3.23 -19.02,-3.68 -10.21,-2.7 -19.38,-8.35 -27.56,-14.91 -4.85,-3.88 -9.39,-8.1 -13.88,-12.38 -4.26,-4.06 -8.95,-7.9 -12.98,-12.16 -5.47,-5.78 -13.64,-11.73 -14.06,-14.22 0.82,7.04 10,20.17 13.52,26.49 8.56,15.39 17.15,30.8 27.22,45.27 8.88,12.76 20.07,23.51 28.64,36.37 h 18.12"
         style="fill:currentColor;fill-opacity:1;fill-rule:nonzero;stroke:none"
         id="path232" /><path
         d="m 2603.28,1517.34 c 4.4,-0.67 13.23,0.16 17.71,0.16 3.84,0.01 7.67,-0.01 11.51,0.01 10.1,21.31 27.18,40.13 43.75,56.55 -1.39,-1.38 -5.83,-0.77 -7.59,-0.97 -5.12,-0.56 -10.33,-1.95 -14.79,-4.53 -9.92,-5.72 -18.24,-13.73 -26.44,-21.62 -5.63,-5.42 -11.63,-11 -15.97,-17.55 -1.58,-2.38 -7.35,-10.84 -8.18,-12.05"
         style="fill:currentColor;fill-opacity:1;fill-rule:nonzero;stroke:none"
         id="path234" /><path
         d="M 3000,1725.83 H 2811.67 V 2120 H 3000 Z m -235.31,494.59 v -193.75 h 26.25 V 1725 h -26.25 v -65.83 h 279.16 V 1725 h -26.25 v 301.67 h 26.25 v 133.33 20 40.42 h -279.16"
         style="fill:currentColor;fill-opacity:1;fill-rule:nonzero;stroke:none"
         id="path236" /><path
         d="m 2978.33,1745.83 h -146.66 v 262.5 h 146.66 v -262.5"
         style="fill:currentColor;fill-opacity:1;fill-rule:nonzero;stroke:none"
         id="path238" /><path
         d="m 2978.33,2026.67 h -146.66 v 71.66 h 146.66 v -71.66"
         style="fill:currentColor;fill-opacity:1;fill-rule:nonzero;stroke:none"
         id="path240" /><path
         d="m 1245.83,1625 h 318.75 v 34.17 l 63.75,1.25 V 1465 H 1565 v 92.5 h -319.17 v 67.5"
         style="fill:currentColor;fill-opacity:1;fill-rule:nonzero;stroke:none"
         id="path242" /><path
         d="m 2152.58,1599.24 c -9.33,-0.03 -18.67,-0.27 -28.03,-0.59 -19.29,-11.49 -38.24,-24.72 -52.83,-42.02 -15.78,-18.73 -22.21,-38.74 -25.84,-58.13 10.97,1.65 21.96,3.06 32.99,4.19 0.99,1.02 1.96,2.04 2.95,3.07 17.2,17.73 34.99,36.08 49.78,56.05 8.75,11.82 15,24.34 20.98,37.43"
         style="fill:currentColor;fill-opacity:1;fill-rule:nonzero;stroke:none"
         id="path244" /><path
         d="m 2035.42,1496.89 c 3.75,21.81 10.47,44.59 28.66,66.18 11.55,13.69 25.48,24.88 40.13,34.64 -9.83,-0.57 -19.65,-1.3 -29.47,-2.21 -14.95,-29.19 -31.08,-51.96 -50.58,-71.28 -0.96,-0.95 -2.02,-1.75 -3,-2.68 l -7.15,-17.8 c -0.16,-0.36 -2.74,-5.38 -4.96,-11.75 8.76,1.79 17.55,3.44 26.37,4.9"
         style="fill:currentColor;fill-opacity:1;fill-rule:nonzero;stroke:none"
         id="path246" /><path
         d="m 2634.17,1453.75 h -29.81 c -31.58,22.1 -60.76,47.4 -94.26,66.76 -85.56,49.46 -188.74,70.87 -288.72,76.89 -0.62,-5.2 -1.31,-10.44 -2.4,-15.68 -2.43,-11.68 -8.65,-21.19 -14.67,-30.37 -10.86,-16.57 -23.76,-31.07 -36.45,-45.05 21.8,-0.31 43.6,-1.22 65.36,-2.35 16.37,-0.85 32.75,-1.86 48.99,-3.98 4.44,1.78 9.02,3.36 13.82,3.77 11.41,0.99 23.14,0.4 34.49,-0.18 4.94,-0.24 9.86,-0.49 14.71,-0.6 21.46,7.09 41.79,16.68 60.97,25.73 2.51,1.19 5.48,0.1 6.66,-2.39 1.17,-2.5 0.1,-5.48 -2.39,-6.66 -18.95,-8.94 -38.99,-18.38 -60.2,-25.58 -0.88,-0.73 -1.92,-1.01 -3.27,-1.14 -0.06,0 -0.12,0 -0.18,0 -4.26,-1.39 -8.58,-2.61 -12.94,-3.78 5.51,-1.52 11,-3.09 16.48,-4.71 63.34,-18.8 123.46,-44.11 183.81,-70.68 h 187.86 v 40 h -87.86"
         style="fill:currentColor;fill-opacity:1;fill-rule:nonzero;stroke:none"
         id="path248" /><path
         d="m 2004.95,1507.93 0.3,0.75 c -16.6,-11.75 -34.91,-20.04 -56.85,-28.17 -0.57,-0.21 -1.16,-0.31 -1.73,-0.31 -2.04,0 -3.95,1.25 -4.69,3.26 -0.96,2.59 0.36,5.47 2.95,6.43 24.22,8.97 43.92,17.81 61.33,31.75 3.75,3 7.4,6.26 10.86,9.67 17.45,17.3 32.12,37.52 45.73,63.01 -49,-5.22 -97.6,-14.84 -144.39,-29.89 -1.13,-13.36 -2.66,-24.35 -12.47,-36.47 -11.5,-14.22 -24.46,-27.49 -36.99,-40.32 -16.51,-16.91 -33.6,-34.4 -46.97,-53.81 -0.97,-1.41 -2.53,-2.16 -4.12,-2.16 -0.98,0 -1.96,0.28 -2.83,0.88 -2.28,1.57 -2.85,4.68 -1.28,6.95 13.85,20.12 31.24,37.92 48.05,55.14 12.37,12.66 25.16,25.76 36.37,39.6 7.02,8.69 8.82,16.53 9.87,26.74 -28.71,-9.78 -56.7,-21.6 -83.6,-35.81 -39.57,-20.91 -72.23,-51.93 -111.99,-71.42 l -84.17,-1.78 v -38.22 l 163.34,1.77 c 26.43,8.13 49.23,20.35 74.31,31.29 1.92,0.84 3.87,1.6 5.8,2.42 l 31.6,34.95 22.45,25.63 c 1.82,2.08 4.97,2.28 7.05,0.46 2.08,-1.82 2.29,-4.97 0.46,-7.05 l -22.5,-25.68 -17.75,-19.63 c 18.95,7.36 38.19,13.98 57.7,19.7 15.54,4.55 31.26,8.54 47.08,12.03 2.61,9.65 6.83,17.82 7.08,18.29"
         style="fill:currentColor;fill-opacity:1;fill-rule:nonzero;stroke:none"
         id="path250" /><path
         d="m 2157.64,1509.91 c 13.31,14.64 27.08,29.78 38.14,46.67 5.93,9.04 11.37,17.34 13.41,27.18 0.97,4.63 1.6,9.39 2.18,14.13 -16.08,0.81 -32.04,1.23 -47.83,1.31 -6.8,-15.08 -13.64,-29.48 -23.91,-43.33 -13.71,-18.53 -29.73,-35.45 -45.55,-51.81 11.5,0.94 23.01,1.68 34.54,2.04 8.65,0.28 17.3,0.39 25.96,0.39 1.03,1.13 2.03,2.29 3.06,3.42"
         style="fill:currentColor;fill-opacity:1;fill-rule:nonzero;stroke:none"
         id="path252" /><path
         d="m 1453.62,3572.9 c 68.24,50.44 130.61,96.7 193.15,142.73 89.5,65.88 181.67,128.44 268.06,198.16 114.08,92.05 197.41,207.27 234.95,349.39 27.82,-50.65 54.36,-102.87 84.41,-152.98 88.73,-147.92 209.92,-263.28 355.83,-354.52 82.76,-51.75 162.76,-107.9 251.83,-167.29 -34.44,-22.22 -61,-40.66 -89.11,-56.35 -5.42,-3.03 -18.38,2.72 -25.27,7.88 -31.48,23.58 -61.99,48.47 -93.04,72.62 -2.28,1.78 -6.19,1.47 -9.36,2.09 -33.32,6.47 -52.18,22.91 -41.53,59.93 0.56,1.96 -0.04,4.47 -0.73,6.52 -0.67,2.01 -2.14,3.75 -6.56,11.07 -4.54,-14.22 -7.82,-24.49 -12.82,-40.15 -12.07,8.86 -23.62,15.98 -33.57,24.87 -70.61,63.05 -141.57,125.03 -231.18,161.53 -16.92,6.9 -30.38,25.72 -41.99,41.57 -34.05,46.5 -66.37,94.26 -101.53,144.65 -65.38,-149.35 -201.25,-221.35 -323.57,-308.12 -95.12,-67.48 -188.84,-136.9 -284.05,-204.23 -8.06,-5.7 -26.99,-7.23 -33.52,-1.82 -20.64,17.09 -37.78,38.39 -60.4,62.45"
         style="fill:currentColor;fill-opacity:1;fill-rule:nonzero;stroke:none"
         id="path254" /><path
         d="m 1826.09,2719.55 c 5.26,-40.5 9.25,-71.29 13.23,-101.97 -187.57,-55.37 -424.35,42.24 -533.27,221.22 -20.02,32.9 -34.59,69.4 -48.79,105.38 -3.83,9.68 -1.3,28.56 5.71,34.55 20.58,17.59 44.89,30.83 69.19,46.72 12.69,-33.29 23.38,-63.26 35.46,-92.66 58.16,-141.63 168.55,-206.45 317.17,-212.92 46.39,-2.02 92.94,-0.32 141.3,-0.32"
         style="fill:currentColor;fill-opacity:1;fill-rule:nonzero;stroke:none"
         id="path256" /><path
         d="m 1928.82,2730.47 c 23.93,81.12 117.81,146.64 200.64,140.27 0,-46.71 0,-93.88 0,-140.27 -65.44,0 -132.42,0 -200.64,0"
         style="fill:currentColor;fill-opacity:1;fill-rule:nonzero;stroke:none"
         id="path258" /><path
         d="m 2198.5,2871.9 c 80.44,2.67 161.93,-53.45 198.33,-140.21 -66.43,0 -130.72,0 -198.33,0 0,43.22 0,90.29 0,140.21"
         style="fill:currentColor;fill-opacity:1;fill-rule:nonzero;stroke:none"
         id="path260" /><path
         d="m 1423.94,3385.66 c -24.6,19.93 -47.9,38.81 -71.2,57.69 -2.85,-2.94 -5.71,-5.88 -8.57,-8.82 8.08,-8.46 15.16,-18.25 24.39,-25.18 45.49,-34.15 45.68,-33.88 18.3,-84.57 -5.24,-9.7 -10.4,-19.44 -16.94,-31.68 -31.96,7.5 -63.81,14.97 -105.75,24.82 35.51,55.16 68.47,107.2 102.79,158.33 3.26,4.86 16.81,7.74 22.61,5.07 18.04,-8.31 35.51,-18.55 51.56,-30.29 14.07,-10.3 19.5,-24.02 4.66,-39.42 -8.28,-8.59 -15.44,-18.26 -21.85,-25.95"
         style="fill:currentColor;fill-opacity:1;fill-rule:nonzero;stroke:none"
         id="path262" /><path
         d="m 1324.29,3122.6 c -29.89,-2.41 -58.49,-4.72 -95.15,-7.69 8.49,55.18 16.73,108.78 25.85,168.07 36.06,-11.07 65.07,-19.99 95.48,-29.33 -8.85,-44.33 -17.22,-86.19 -26.18,-131.05"
         style="fill:currentColor;fill-opacity:1;fill-rule:nonzero;stroke:none"
         id="path264" /><path
         d="m 2863.58,3441.14 c -36.35,31.5 -64.53,55.92 -92.84,80.44 17.68,12.72 40.74,30.63 65.37,46.02 5.85,3.66 19.14,1.9 25.34,-2.52 47.79,-34.01 50.25,-55.38 14.52,-104.29 -5.94,-8.12 -10.76,-17.04 -12.39,-19.65"
         style="fill:currentColor;fill-opacity:1;fill-rule:nonzero;stroke:none"
         id="path266" /><path
         d="m 3078.99,3213.03 c -6.33,-52.99 -65.16,-14.56 -76.51,-56.09 25.98,4.28 49.77,8.2 78.2,12.89 1.48,-23.47 2.76,-43.78 4.41,-69.89 -34.6,12.08 -67.59,18.92 -94.91,35.25 -12.23,7.31 -13.05,33.67 -20.37,55.28 37.63,7.77 69.36,14.33 109.18,22.56"
         style="fill:currentColor;fill-opacity:1;fill-rule:nonzero;stroke:none"
         id="path268" /><path
         d="m 2894.94,3378.75 c -13.22,16.71 -23.37,29.53 -33.43,42.23 51.73,51.78 92.96,56.46 118.86,14.93 -27.9,-18.67 -55.7,-37.26 -85.43,-57.16"
         style="fill:currentColor;fill-opacity:1;fill-rule:nonzero;stroke:none"
         id="path270" /><path
         d="m 1387.31,3503.65 c 13.9,14.07 23.15,23.44 34.03,34.46 21.13,-22.4 41.7,-41.64 58.6,-63.69 4.99,-6.52 -0.39,-20.99 -1.34,-37.27 -34.33,25.01 -61.24,44.61 -91.29,66.5"
         style="fill:currentColor;fill-opacity:1;fill-rule:nonzero;stroke:none"
         id="path272" /><path
         d="m 1334.73,3047.86 c -28.54,-19.5 -57.09,-39.01 -86.24,-58.93 -15.87,37.56 -12.35,46.07 20.81,54.7 19.06,4.97 38.23,9.49 57.35,14.22 2.7,-3.33 5.39,-6.66 8.08,-9.99"
         style="fill:currentColor;fill-opacity:1;fill-rule:nonzero;stroke:none"
         id="path274" /><path
         d="m 2942.48,3293.17 c 27.33,21.17 54.66,42.35 82.77,64.14 18.47,-17.43 20.54,-27.25 -2.41,-38.19 -13.46,-6.41 -22.01,-22.61 -35.18,-30.26 -11.64,-6.75 -26.62,-7.75 -40.12,-11.28 -1.69,5.19 -3.37,10.39 -5.06,15.59"
         style="fill:currentColor;fill-opacity:1;fill-rule:nonzero;stroke:none"
         id="path276" /><path
         d="m 2553.23,3636.41 c -10.2,-40.98 -19.06,-76.54 -30.06,-120.73 -22.72,42.31 -4.75,107.86 30.06,120.73"
         style="fill:currentColor;fill-opacity:1;fill-rule:nonzero;stroke:none"
         id="path278" /><path
         d="m 2967.74,3228.56 c -3.05,22.24 35.35,50.44 86.92,63.83 -0.33,-18.43 -28.22,-38.92 -86.92,-63.83"
         style="fill:currentColor;fill-opacity:1;fill-rule:nonzero;stroke:none"
         id="path280" /><path
         d="m 2921.76,3327.04 c 0,11.15 -2.58,20.93 0.41,23.11 26.3,19.24 53.59,37.12 80.59,55.41 2.91,-4.23 5.82,-8.45 8.72,-12.68 -27.99,-20.54 -55.99,-41.09 -89.72,-65.84"
         style="fill:currentColor;fill-opacity:1;fill-rule:nonzero;stroke:none"
         id="path282" /><path
         d="m 1444.69,3558.79 c 22.76,-23.99 45.53,-47.99 68.39,-72.08 -18.12,-16.86 -57.92,18.02 -68.39,72.08"
         style="fill:currentColor;fill-opacity:1;fill-rule:nonzero;stroke:none"
         id="path284" /><path
         d="m 2518.75,3648.42 c -9.8,-31.79 -19.7,-63.91 -31.09,-100.88 -16.39,42.93 -1.28,84.99 31.09,100.88"
         style="fill:currentColor;fill-opacity:1;fill-rule:nonzero;stroke:none"
         id="path286" /><path
         d="m 2579.67,3612.07 c 8.37,-4.41 15.69,-8.27 20.96,-11.04 -16.74,-26.96 -32.39,-52.17 -48.05,-77.39 -1.1,0.38 -2.2,0.78 -3.3,1.16 9.87,28.36 19.75,56.71 30.39,87.27"
         style="fill:currentColor;fill-opacity:1;fill-rule:nonzero;stroke:none"
         id="path288" /><path
         d="m 1234.99,3072.99 c -0.18,28.79 -0.18,28.79 74.12,31.95 -26.53,-11.43 -48.76,-21.02 -74.12,-31.95"
         style="fill:currentColor;fill-opacity:1;fill-rule:nonzero;stroke:none"
         id="path290" /><path
         d="m 2457.69,3045.19 c -78.11,31.07 -131.99,136.6 -126.11,276.83 43.25,-94.92 83.3,-182.85 126.11,-276.83"
         style="fill:currentColor;fill-opacity:1;fill-rule:nonzero;stroke:none"
         id="path292" /><path
         d="m 2502.06,3026.86 c 14.99,-42.11 29.98,-84.23 44.96,-126.34 -3.79,-1.66 -7.58,-3.31 -11.38,-4.97 -23.59,43.58 -47.2,87.16 -74.22,137.06 19.06,-2.97 30.21,-4.7 41.36,-6.45 l -0.72,0.7"
         style="fill:currentColor;fill-opacity:1;fill-rule:nonzero;stroke:none"
         id="path294" /><path
         d="m 3072.48,2963.99 c -2.99,-0.11 -5.57,-12.52 -8.34,-19.21 -36.88,-60.19 -66.9,-126.21 -112.09,-179.34 -89.45,-105.15 -206.51,-158.84 -347.4,-153.91 -37.64,1.32 -75.38,0.2 -115.09,0.2 -5.4,34 -10.41,65.55 -15.14,95.31 109.09,13.08 216.18,25.92 324.99,38.96 0,6.19 0,12.97 0,23.33 10.1,-4.47 18.03,-7.98 29.52,-13.06 -0.74,10.94 -1.27,18.93 -2.5,37.22 18.29,-13.9 30.45,-23.14 48.77,-37.06 -1.82,23.66 -3.45,44.91 -5.08,66.17 1.81,0.31 3.61,0.61 5.41,0.91 4.52,-24.89 9.03,-49.77 13.55,-74.66 3.58,0.64 7.17,1.28 10.75,1.91 -1.72,25.54 0.87,52.34 -6.19,76.29 -9.86,33.42 28.52,42.3 26.04,72.96 20.92,-12.04 38.01,-21.87 55.1,-31.7 1.45,3.01 2.9,6.04 4.35,9.05 -15.51,11.57 -31.01,23.13 -46.51,34.69 0.72,1.49 1.46,2.99 2.18,4.48 11.79,-3.82 23.57,-7.63 35.36,-11.45 1.52,2.77 3.04,5.55 4.56,8.32 -10.53,8 -21.07,16 -26.34,20 12.92,42.72 25.46,84.13 39.8,131.5 9.99,3.34 29.88,9.98 49.76,16.61 -0.68,3.33 -1.35,6.66 -2.03,9.99 -17.87,-3.04 -35.74,-6.06 -55.64,-9.44 0,12.55 0,22.79 0,36.9 32.41,-11.15 61.99,-20.23 90.48,-31.98 6.34,-2.62 12.73,-14.8 12.36,-22.25 -1.29,-26.53 -5.49,-52.92 -8.9,-82.08"
         style="fill:currentColor;fill-opacity:1;fill-rule:nonzero;stroke:none"
         id="path296" /><path
         d="m 2502.77,3026.16 c -0.08,0.21 -0.17,0.41 -0.25,0.62 -0.15,0.03 -0.31,0.06 -0.46,0.08 l 0.71,-0.7"
         style="fill:currentColor;fill-opacity:1;fill-rule:nonzero;stroke:none"
         id="path298" /><path
         d="m 1628.33,2213.33 194.8,84.17 h 665.78 l 194.37,-84.17 V 2180 l -209.95,70 H 1857.5 l -160.96,-49.17 -68.21,-20.83 v 33.33"
         style="fill:currentColor;fill-opacity:1;fill-rule:nonzero;stroke:none"
         id="path300" /><path
         d="m 2243.88,2049.05 v 113.42 h -161.79 v -112.32 c 53.49,8.44 107.79,8.05 161.79,-1.1"
         style="fill:currentColor;fill-opacity:1;fill-rule:nonzero;stroke:none"
         id="path302" /><path
         d="m 2911.3,3040.1 c -23,20.04 -42.32,38.89 -63.69,55 -31.06,23.44 -64.43,43.85 -95.1,67.74 -11.78,9.17 -18.87,24.37 -32.13,42.28 -34.89,-17.28 -77.1,-38.11 -119.22,-59.09 -19.36,-9.65 -37.03,-14.33 -59.03,-2.43 -31.94,17.27 -66.47,29.79 -108.31,48.01 25.07,-60.15 46.89,-112.51 68.7,-164.83 47.36,-8.82 94.71,-17.64 139.35,-25.96 -25.67,-30.91 -54.01,-65.03 -82.34,-99.14 -1.48,2.61 -2.95,5.23 -4.43,7.84 -4.38,-18.47 -8.76,-36.94 -13.14,-55.41 -3.03,0.19 -6.07,0.39 -9.1,0.58 -1.76,6.61 -4.19,13.12 -5.13,19.84 -2.06,14.85 -3.43,25.47 -24.61,27.42 -25.58,2.35 -40.49,37.97 -27.9,56.52 -4.67,18.7 -40.74,25 -21.3,54.41 1.55,2.35 -11.21,14.16 -25.7,19.85 0,-16.52 0,-33.03 0,-60.22 -12.53,9.16 -23,12.99 -27,20.35 -25,45.96 -50.06,92.01 -71.82,139.54 -8.46,18.47 -8.77,40.78 -12.13,61.44 -7.86,48.27 -15.83,96.54 -22.63,144.96 -2.02,14.42 -0.31,29.36 7.27,45.54 5.4,-8.23 10.8,-16.47 19.88,-30.33 0,36.55 0,66.18 0,95.81 2.41,0.82 4.81,1.64 7.22,2.45 26.62,-65.17 53.26,-130.34 79.88,-195.52 1.95,0.16 3.89,0.32 5.84,0.47 0,48.62 0,97.23 0,148.11 21.52,1.23 38.88,2.22 56.88,3.25 16,-77.92 -15.07,-159.98 28.02,-233.81 27.04,5.9 37.45,19.72 39.06,46.11 3.42,55.69 10.48,111.16 16.9,175.19 16.99,-4.99 36.99,-11.95 57.54,-16.42 8.9,-1.93 19.29,-0.12 28.35,2.34 50.33,13.69 100.45,28.1 149.46,41.93 24.73,-36.17 49.02,-71.69 75.46,-110.36 -13.87,-6.2 -29.27,-13.08 -50.76,-22.68 -7.76,26.39 -14.77,50.24 -23.43,79.69 -38,-3.31 -80.54,-7.03 -123.92,-10.82 11.66,-27.34 22.8,-53.45 36.91,-86.54 47.3,2.44 101.11,5.2 157.71,8.1 0,-40.36 0,-78.49 0,-121.32 38.25,26.03 54.67,-6.57 79.46,-22.78 -14.21,-32.33 3.53,-76.21 -31.07,-97.11 z m 1.49,265.61 c -64.07,127.57 -174.89,207.54 -296.95,286.2 -15.36,-22.73 -29.87,-44.2 -48.74,-72.1 40.58,-4.92 71.07,-11.05 101.68,-11.63 31.05,-0.59 42.96,-15.92 46.85,-44.79 -25.88,-17.39 -51.13,-34.37 -80.22,-53.92 -6.3,23.68 -11.21,42.09 -17.18,64.53 -26.28,-16.04 -48.52,-29.6 -70.52,-43.03 3.84,-11.43 6.72,-19.99 9.14,-27.19 -16.82,-4.28 -30.53,-7.76 -46.98,-11.93 21.3,97.17 -47.91,139.22 -104.87,183.1 -12.67,-8.45 -22.78,-15.2 -36.19,-24.15 20.19,-10.54 44.94,-17.9 61.76,-33.69 19.17,-18.01 31.28,-43.52 50.1,-71.12 -23.56,1.52 -41.67,-19.53 -54.59,8.74 -1.02,2.25 -16.93,0.73 -23.19,-3.3 -6.37,-4.08 -9.35,-13.43 -15.08,-22.47 -38.25,32.3 -78.25,55.71 -93.37,105.9 -14.27,47.38 -38.78,91.84 -29.35,147.78 37.47,-3.28 73.45,-6.42 109.69,-9.59 3.45,-13.87 6.33,-25.48 10.04,-40.37 20.85,14.44 40.17,27.82 67.68,46.88 0,-42.95 0,-76.43 0,-119.03 16.67,41.75 29.18,73.07 41.18,103.1 -60.09,44.32 -125.89,85.27 -182.29,136.57 -56.92,51.77 -104.5,113.8 -157.02,172.28 -7.33,-37.36 -0.6,-74.9 24.9,-101.54 24.15,-25.23 58.11,-41.08 93.83,-65.15 -33.3,-1.91 -61.85,-3.56 -92.74,-5.33 1.82,-14.96 -0.03,-35.17 5.25,-37.24 31.16,-12.27 15.55,-33.09 10.43,-49.72 -34.12,-110.97 -141.82,-170.61 -264.16,-150.03 -23.09,3.88 -48.33,0.68 -71.69,-3.82 -62.75,-12.06 -125,-26.71 -187.54,-39.92 -4.5,-0.95 -9.71,1.45 -19.86,3.21 28.96,25.49 53.99,47.52 79.03,69.54 -1.73,3.02 -3.46,6.04 -5.19,9.05 -8.68,-3.21 -18.4,-4.89 -25.87,-9.91 -40.65,-27.25 -80.94,-55.05 -121,-83.16 -130.39,-91.46 -205.71,-216.13 -223.84,-374.54 -6.17,-53.91 -5.83,-107.31 29.13,-163.03 1.35,26.88 2.26,45.23 3.06,61.22 20.03,12.53 37.74,23.61 57.17,35.77 1.08,9.38 2.45,21.18 3.7,31.98 20.59,1.81 39.19,3.43 59.6,5.22 -11.89,37.78 -59.58,50.74 -41.91,92.79 -32.91,15.32 -32.88,15.3 -13.94,44.06 0.88,1.33 -0.74,4.18 0.01,5.73 7.98,16.42 13.34,44 24.91,46.94 35.73,9.08 36.72,39.45 49.06,62.91 8.25,15.68 12.14,33.94 21.78,48.53 7.56,11.43 19.56,24.08 31.97,27.49 84.63,23.23 169.98,43.82 254.82,66.29 10.22,2.71 18.76,11.69 28.12,17.7 4.79,3.07 9.68,5.98 14.52,8.97 2.91,-5.18 8.75,-10.66 8.24,-15.48 -3.07,-29.37 -7.59,-58.6 -11.62,-87.83 -74.32,-17.83 -145.34,-33.41 -215.45,-52.33 -33.1,-8.94 -59.92,-32.82 -60.79,-68 -1.16,-46.02 5.81,-92.36 11.34,-138.31 0.9,-7.51 12.26,-18.94 19.01,-19.09 6.71,-0.16 17.05,10.38 19.95,18.35 9.84,27.01 17.39,54.88 25.2,82.58 3.88,13.72 97.39,64.32 109.21,57.29 9.41,-5.59 16.9,-14.38 25.34,-21.62 13.73,-11.8 27.54,-23.49 46.56,-39.7 0,26.96 -0.04,45.67 0.01,64.38 0.06,17.82 -0.27,35.65 0.46,53.44 0.65,16.15 2.49,32.25 3.8,48.37 4.58,-0.44 9.16,-0.89 13.74,-1.33 0,-54.87 0,-109.75 0,-166.65 19.29,-2.93 35.02,-5.32 52.5,-7.98 3.77,70.44 7.33,137.16 11.02,206.12 14.61,-7.15 23.7,-11.59 34.97,-17.11 5.18,16.86 9.23,30.03 13.28,43.19 1.5,0.03 3.01,0.05 4.51,0.07 8.53,-72.33 17.07,-144.67 25.56,-216.65 31.37,1.62 32.82,1.59 33.38,26.46 1.93,84.42 3.16,168.87 3.64,253.31 0.11,19.1 -0.86,35.2 28.18,24.82 9.51,-94.35 18.79,-186.51 28.08,-278.67 3.98,-0.22 7.97,-0.45 11.96,-0.67 8.54,76.88 17.09,153.77 25.64,230.65 3.36,-0.4 6.73,-0.79 10.1,-1.18 0,-27.75 -6.83,-57.82 1.65,-82.66 11.87,-34.79 23.32,-64.16 -17.93,-89.64 28.26,-8.58 52.17,-15.83 83.53,-25.34 0,73.6 -0.76,141.35 0.67,209.04 0.27,12.75 9.24,25.32 14.2,37.96 3.83,-12.04 10.89,-24.06 10.99,-36.14 0.67,-77.93 -0.2,-155.88 -0.54,-233.82 -0.07,-17.37 -0.01,-34.73 -0.01,-54.07 -12.49,0 -20.09,-0.18 -27.68,0.03 -151.95,4.32 -299.7,-17.93 -440.84,-75.06 -138.56,-56.08 -249.57,-141.21 -291.65,-293.91 -0.34,-1.22 -3.35,-1.7 -5.12,-2.52 -2.62,-2.55 -5.24,-5.1 -7.86,-7.65 -10.75,14.72 -21.49,29.45 -32.23,44.17 -2.5,-1.67 -5,-3.33 -7.5,-4.99 4.52,-7.95 7.08,-18.88 13.88,-23.32 28.63,-18.71 56.92,-39.45 88.27,-52.24 102.99,-42.02 232.46,-58.06 341.81,-71.51 26.01,-3.2 8.12,0.78 32.61,31.82 2.99,3.79 4.89,8.33 7.46,12.41 19.16,30.38 43.54,57.56 73.82,77.19 29.67,19.25 63.66,30.4 98.43,35.91 20.91,3.32 42.14,4.78 63.38,4.71 V 2688.33 H 2175 v 214.43 c 21.11,-1.05 42.14,-3.59 62.79,-7.66 38.55,-7.6 74.64,-22.68 105.54,-47.28 30.43,-24.22 54.12,-55.76 72.67,-89.73 6.09,-11.15 21.97,-25.2 32.35,-24.45 89.79,6.44 179.32,16.3 269.01,24.31 21.03,1.88 25.13,12.19 23.33,31.08 -2.74,28.79 -3.14,57.8 -4.58,86.71 -4.93,98.52 -42.86,178.49 -129.73,231.04 -4.12,2.5 -7.54,6.18 -18.08,14.96 65.14,-5.43 121.36,-10.11 174.7,-14.56 32.32,-83.61 110.11,-142.33 110.68,-239.13 16.96,17.56 32.78,34.02 40.82,53.66 52.33,127.93 62.2,256.75 -1.71,384"
         style="fill:currentColor;fill-opacity:1;fill-rule:nonzero;stroke:none"
         id="path304" /><path
         d="M 3764.17,2407.5 H 2683.28 v 14.17 h 1080.89 v -14.17"
         style="fill:currentColor;fill-opacity:1;fill-rule:nonzero;stroke:none"
         id="path306" /><path
         d="m 3205.21,2951.09 h -130.78 v 14.17 h 130.78 v -14.17"
         style="fill:currentColor;fill-opacity:1;fill-rule:nonzero;stroke:none"
         id="path308" /><path
         d="m 3233.56,2920.89 h -159.13 v 14.17 h 159.13 v -14.17"
         style="fill:currentColor;fill-opacity:1;fill-rule:nonzero;stroke:none"
         id="path310" /><path
         d="m 3270.14,2890.69 h -195.71 v 14.17 h 195.71 v -14.17"
         style="fill:currentColor;fill-opacity:1;fill-rule:nonzero;stroke:none"
         id="path312" /><path
         d="m 3300,2860.49 h -225.57 v 14.17 H 3300 v -14.17"
         style="fill:currentColor;fill-opacity:1;fill-rule:nonzero;stroke:none"
         id="path314" /><path
         d="m 3326.25,2830.29 h -251.82 v 14.17 h 251.82 v -14.17"
         style="fill:currentColor;fill-opacity:1;fill-rule:nonzero;stroke:none"
         id="path316" /><path
         d="m 3363.75,2800.09 h -289.32 v 14.17 h 289.32 v -14.17"
         style="fill:currentColor;fill-opacity:1;fill-rule:nonzero;stroke:none"
         id="path318" /><path
         d="m 3393.75,2769.89 h -319.32 v 14.17 h 319.32 v -14.17"
         style="fill:currentColor;fill-opacity:1;fill-rule:nonzero;stroke:none"
         id="path320" /><path
         d="m 3424.78,2739.69 h -350.35 v 14.18 h 350.35 v -14.18"
         style="fill:currentColor;fill-opacity:1;fill-rule:nonzero;stroke:none"
         id="path322" /><path
         d="m 3453.13,2709.49 h -378.7 v 14.18 h 378.7 v -14.18"
         style="fill:currentColor;fill-opacity:1;fill-rule:nonzero;stroke:none"
         id="path324" /><path
         d="m 3074.43,2693.47 v -14.18 h 64.32 v 14.18 h -64.32"
         style="fill:currentColor;fill-opacity:1;fill-rule:nonzero;stroke:none"
         id="path326" /><path
         d="m 3481.47,2679.29 v 14.18 H 3335.1 v -14.18 h 146.37"
         style="fill:currentColor;fill-opacity:1;fill-rule:nonzero;stroke:none"
         id="path328" /><path
         d="m 3517.4,2649.09 v 14.18 h -182.3 v -14.18 h 182.3"
         style="fill:currentColor;fill-opacity:1;fill-rule:nonzero;stroke:none"
         id="path330" /><path
         d="m 3074.43,2663.27 v -14.18 h 64.32 v 14.18 h -64.32"
         style="fill:currentColor;fill-opacity:1;fill-rule:nonzero;stroke:none"
         id="path332" /><path
         d="m 3074.43,2633.07 v -14.18 h 64.32 v 14.18 h -64.32"
         style="fill:currentColor;fill-opacity:1;fill-rule:nonzero;stroke:none"
         id="path334" /><path
         d="m 3546.61,2618.89 v 14.18 H 3335.1 v -14.18 h 211.51"
         style="fill:currentColor;fill-opacity:1;fill-rule:nonzero;stroke:none"
         id="path336" /><path
         d="m 3580.74,2588.7 v 14.17 H 3335.1 v -14.17 h 245.64"
         style="fill:currentColor;fill-opacity:1;fill-rule:nonzero;stroke:none"
         id="path338" /><path
         d="m 2969.16,2602.87 v -14.17 h 169.59 v 14.17 h -169.59"
         style="fill:currentColor;fill-opacity:1;fill-rule:nonzero;stroke:none"
         id="path340" /><path
         d="m 3610,2558.5 v 14.17 H 3335.1 V 2558.5 H 3610"
         style="fill:currentColor;fill-opacity:1;fill-rule:nonzero;stroke:none"
         id="path342" /><path
         d="m 2969.16,2572.67 v -14.17 h 169.59 v 14.17 h -169.59"
         style="fill:currentColor;fill-opacity:1;fill-rule:nonzero;stroke:none"
         id="path344" /><path
         d="m 3644.34,2528.3 v 14.17 H 3335.1 v -14.17 h 309.24"
         style="fill:currentColor;fill-opacity:1;fill-rule:nonzero;stroke:none"
         id="path346" /><path
         d="m 2969.16,2542.47 v -14.17 h 169.59 v 14.17 h -169.59"
         style="fill:currentColor;fill-opacity:1;fill-rule:nonzero;stroke:none"
         id="path348" /><path
         d="m 2969.16,2512.27 v -14.18 h 169.59 v 14.18 h -169.59"
         style="fill:currentColor;fill-opacity:1;fill-rule:nonzero;stroke:none"
         id="path350" /><path
         d="m 3672.69,2498.09 v 14.18 H 3335.1 v -14.18 h 337.59"
         style="fill:currentColor;fill-opacity:1;fill-rule:nonzero;stroke:none"
         id="path352" /><path
         d="m 3701.03,2467.9 v 14.17 H 3335.1 v -14.17 h 365.93"
         style="fill:currentColor;fill-opacity:1;fill-rule:nonzero;stroke:none"
         id="path354" /><path
         d="m 2969.16,2482.07 v -14.17 h 169.59 v 14.17 h -169.59"
         style="fill:currentColor;fill-opacity:1;fill-rule:nonzero;stroke:none"
         id="path356" /><path
         d="m 2969.16,2451.87 v -14.17 h 169.59 v 14.17 h -169.59"
         style="fill:currentColor;fill-opacity:1;fill-rule:nonzero;stroke:none"
         id="path358" /><path
         d="M 3735,2451.87 H 3335.1 V 2437.7 H 3735 v 14.17"
         style="fill:currentColor;fill-opacity:1;fill-rule:nonzero;stroke:none"
         id="path360" /><path
         d="m 2199.46,1089.26 c 3.74,8.85 5.62,19.5 5.62,31.95 0,12.5 -1.67,22.73 -5.01,30.7 -3.33,7.97 -7.94,13.8 -13.82,17.49 -1.93,1.2 -3.91,2.14 -5.9,2.95 v -102.37 c 2.02,0.8 4.02,1.74 5.94,2.94 5.79,3.64 10.18,9.09 13.17,16.34"
         style="fill:currentColor;fill-opacity:1;fill-rule:nonzero;stroke:none"
         id="path362" /><path
         d="m 2330.45,1339.14 c -6.62,3.3 -13.4,6.26 -20.34,8.85 -13.89,5.22 -28.28,9.06 -42.84,12.03 -28.68,5.83 -57.8,8.37 -86.92,10.89 v -185.86 c 4.65,-1.16 9.05,-2.91 13.19,-5.35 7.9,-4.65 14.14,-11.61 18.74,-20.9 4.59,-9.27 6.89,-21.74 6.89,-37.39 0,-15.58 -2.27,-28 -6.79,-37.22 -4.53,-9.23 -10.77,-16.2 -18.74,-20.89 -4.18,-2.47 -8.62,-4.25 -13.29,-5.42 V 883.531 h 160.69 c 0,0 0,447.329 0,447.879 0,2.84 -8.39,6.62 -10.59,7.73"
         style="fill:currentColor;fill-opacity:1;fill-rule:nonzero;stroke:none"
         id="path364" /><path
         d="m 2654.12,1724.42 c -64.26,58.44 -152.37,98.31 -269.37,121.88 -86.66,17.48 -181.46,21.89 -298.26,13.91 -110.08,-7.53 -251.66,-26.16 -370.36,-104.13 -7.3,-4.79 -13.94,-9.84 -20.21,-15.07 v -1.17 h -1.37 c -15.09,-12.76 -27.91,-26.77 -41.28,-41.95 l -7.16,-8.14 v -30.27 l 7.16,8.13 c 13.37,15.19 26.19,29.19 41.28,41.97 h 1.37 v 1.16 c 6.27,5.23 12.91,10.27 20.21,15.07 118.7,77.97 260.28,96.6 370.36,104.13 116.8,7.98 211.6,3.56 298.26,-13.91 117,-23.57 205.11,-63.44 269.37,-121.87 11.62,-10.56 32.41,-33.41 32.41,-33.41 v 30.27 c 0,0 -20.79,22.85 -32.41,33.4"
         style="fill:currentColor;fill-opacity:1;fill-rule:nonzero;stroke:none"
         id="path366" /><path
         d="m 2439.94,1862.45 -0.22,154.66 10.21,0.02 0.22,-157.5 c -3.37,0.95 -6.79,1.89 -10.21,2.82 z m -17.02,4.38 -0.07,50.62 9.36,-3.46 0.07,-49.51 c -3.09,0.8 -6.22,1.58 -9.36,2.35 z m -21.27,4.91 -0.08,53.57 13.62,-5.03 0.07,-51.61 c -4.48,1.05 -9.02,2.08 -13.61,3.07 z m -22.12,4.54 -0.08,57.2 14.47,-5.34 0.07,-54.75 c -4.76,1 -9.6,1.95 -14.46,2.89 z m -53.2,81.39 -27.43,6.63 -0.03,17 c 11.13,-3.64 25.37,-8.39 27.35,-9.37 3.44,-1.68 50.59,-18.08 59.94,-21.32 l 46.02,-16.81 0.02,-11.79 -54.61,20.17 z m 43.39,-79.51 c -3.5,0.64 -7.09,1.13 -10.61,1.73 l -0.08,60.06 12.76,-3.86 0.09,-58.34 c -0.74,0.14 -1.44,0.28 -2.16,0.41 z m -31.88,5.14 -0.09,63.07 13.62,-4.11 0.09,-61.13 c -4.54,0.72 -9.03,1.51 -13.62,2.17 z m -18.71,2.34 -0.1,66.08 5.25,-1.27 5.82,-1.76 0.09,-64.44 c -3.67,0.49 -7.36,0.95 -11.06,1.39 z m -20.13,2.23 -0.09,68.71 12.47,-3.01 0.09,-66.96 c -4.11,0.46 -8.31,0.85 -12.47,1.26 z m -0.16,113.27 c 41.15,-13.82 85.05,-30.11 133.32,-49.47 l 0.01,-9.86 -43.39,15.85 c -21.51,7.46 -56.59,19.77 -59.15,20.99 -3.04,1.48 -22.69,7.94 -30.77,10.57 z m -0.04,33.32 c 45.74,-13.4 88.33,-33.8 131.56,-63.11 l 1.77,-1.21 0.02,-10.38 c -48.23,19.3 -92.15,35.55 -133.32,49.31 z m -12.28,-145.47 c -4.75,28.13 -15.41,48.24 -29.91,73.04 0.06,0.42 0.13,0.85 0.2,1.26 0.45,2.94 0.89,5.88 1.41,8.8 2.52,13.98 2.83,27.33 2.85,41.15 3.29,-0.9 6.68,-1.94 10.4,-3.12 6.5,-2.07 13.08,-4.21 19.72,-6.4 l 0.16,-115.17 c -1.61,0.15 -3.21,0.3 -4.83,0.44 z m -22.73,1.67 c -3.61,13.53 -10.13,22.27 -19.97,33.56 2.03,3.18 3.96,6.46 5.59,9.95 2.47,5.24 3.99,10.71 5.15,16.21 11.71,-20.52 19.86,-37.67 24.03,-60.68 -4.86,0.37 -9.85,0.65 -14.8,0.96 z m -49.62,1.96 c 8.67,6.95 17.67,15.25 25.19,25.17 7.78,-9.01 13.16,-16.27 16.39,-26.68 -13.56,0.74 -27.38,1.27 -41.58,1.51 z m -12.12,0.18 c -34.23,0.26 -70.4,-0.8 -109.28,-3.27 -14.11,-0.89 -28.82,-1.99 -43.92,-3.36 0.86,0.2 1.72,0.41 2.58,0.61 10.43,2.44 21.22,4.97 31.68,8.03 8.97,2.62 18.92,3.82 28.54,4.98 6.1,0.73 12.18,1.48 18.09,2.55 l 6.27,1.12 c 17.16,3.05 34.91,6.21 50.82,13.49 7.91,3.61 15.6,8.48 23.51,14.85 13.64,11.02 23.95,23.58 30.63,37.34 3.22,6.6 4.83,13.02 6.52,19.82 l 0.71,2.82 c 0.8,3.17 1.87,6.26 2.94,9.35 0.77,2.26 1.57,4.56 2.27,6.9 -0.11,-11.63 -0.62,-22.98 -2.73,-34.64 -0.53,-2.98 -0.99,-5.99 -1.45,-9 -1.45,-9.61 -2.83,-18.7 -6.77,-27.09 -9.11,-19.43 -26.21,-33.93 -40.41,-44.5 z m -9.03,98.9 c -23.38,-0.03 -47.26,2.2 -70.35,4.37 -6.69,0.63 -13.38,1.25 -20.06,1.83 -3.27,0.28 -6.98,0.59 -10.73,-0.35 -4.94,-1.24 -9.11,-4.78 -11.44,-9.72 -2.34,-4.94 -2.39,-10.35 -0.16,-14.85 1.11,-2.23 2.59,-4.03 4.03,-5.78 l 0.67,-0.83 c 14.2,-17.5 16.12,-36.33 16.34,-60.34 -3.38,-0.47 -6.74,-1.01 -10.08,-1.65 0.02,1.46 0.03,2.91 0.07,4.36 0.36,14.14 0.73,28.75 -7.58,42.38 -5.96,9.76 -15.08,18.51 -27.24,26.09 -1.04,0.66 -2.12,1.32 -2.52,1.98 -0.38,0.61 -0.48,1.74 -0.55,2.75 -0.28,4.33 0,12.14 4.96,15.81 3.39,2.5 8.32,2.58 13.89,2.7 13.66,0 27.5,0.23 41.31,0.44 42.32,0.68 85.97,1.32 128.05,-4.56 -0.27,-0.91 -0.62,-1.81 -0.86,-2.73 l -0.46,-1.84 z m -80.83,-31.8 c 2.46,-1.46 5,-2.96 6.44,-5.05 9.61,-13.94 9.49,-28.39 9.34,-43.68 v -1.52 c -5.65,-1 -11.44,-1.71 -17.26,-2.42 -0.57,-0.07 -1.15,-0.14 -1.72,-0.21 -0.15,20.86 -1.57,43.76 -18.01,64.02 l -0.71,0.87 c -1.23,1.48 -2.38,2.89 -3.11,4.36 -1.2,2.42 -1.12,5.56 0.22,8.41 1.35,2.85 3.74,4.95 6.4,5.62 2.48,0.61 5.36,0.36 8.16,0.13 6.66,-0.58 13.33,-1.21 19.99,-1.83 1.22,-0.12 2.46,-0.22 3.69,-0.33 -8.21,-3.28 -16.71,-7.76 -20.55,-13.34 -3.95,-8.48 2.71,-12.42 7.12,-15.03 z m 35.91,-26.07 -0.01,3.47 c 0,4 -1.09,8.5 -2.24,13.25 -2.62,10.9 -3.91,18.24 1.58,20.81 2.03,0.68 15.14,2.03 17.18,2.08 5.36,0.13 10.88,0.4 16.48,0.69 13.01,0.66 26.42,1.34 38.83,0.09 -3.84,-10.51 -13.25,-18.43 -22.61,-26.32 -3.23,-2.72 -11.26,-7.98 -15.36,-10.06 -8.68,-4.42 -19.36,-4.25 -29.73,-4.06 -1.38,0.02 -2.76,0.04 -4.12,0.05 z m 3.99,-7.55 c 10.78,-0.2 22.99,-0.39 33.39,4.9 4.55,2.31 13.2,7.99 17.11,11.28 10.66,8.97 22.74,19.15 25.96,34.18 l 0.84,3.9 -4.04,0.58 c -14.31,2.02 -29.73,1.25 -44.66,0.5 -5.52,-0.28 -10.97,-0.56 -16.26,-0.68 -1.18,-0.03 -17.2,-1.36 -20.12,-2.73 -11.67,-5.46 -8.47,-18.72 -5.9,-29.39 1.04,-4.31 2.02,-8.39 2.03,-11.53 l 0.03,-25.38 c -1.61,-0.29 -3.23,-0.61 -4.84,-0.89 v 0.08 c 0.15,16.5 0.28,32.08 -10.66,47.95 -2.38,3.46 -5.95,5.57 -8.81,7.26 -5.24,3.1 -5.05,3.52 -4.45,4.96 3.99,5.73 19.32,11.78 32.93,15.31 16.05,-1.34 32.28,-2.4 48.39,-2.38 l 45.29,0.06 c -1.12,-4.05 -2.37,-8.03 -4.26,-11.9 -6.11,-12.58 -16,-24.6 -28.59,-34.77 -7.4,-5.97 -14.56,-10.5 -21.88,-13.85 -10.98,-5.02 -23.17,-7.99 -35.46,-10.4 l -0.02,12.99 c 1.31,-0.01 2.64,-0.03 3.98,-0.05 z m -113.74,90.32 c 19.25,0.07 38.49,0.4 57.71,0.77 24.85,0.49 50.51,1 75.8,0.78 6.26,-0.04 12.67,0.01 19.15,0.07 18.84,0.18 38.25,0.22 56.45,-2.36 -0.78,-4.12 -2.11,-8.08 -3.55,-12.26 -43.06,6.14 -87.47,5.49 -130.45,4.79 -13.76,-0.22 -27.27,-0.46 -41.19,-0.44 -5.38,-0.01 -12.79,0.01 -18.51,-4.21 -7.43,-5.5 -8.44,-15.14 -7.97,-22.28 0.13,-2.03 0.42,-4.19 1.63,-6.15 1.33,-2.16 3.34,-3.42 5.09,-4.5 11.02,-6.88 19.31,-14.8 24.64,-23.54 7.18,-11.77 6.85,-24.68 6.51,-38.35 -0.06,-2.08 -0.08,-4.18 -0.11,-6.27 -0.87,-0.22 -1.76,-0.41 -2.63,-0.66 -10.25,-2.99 -20.94,-5.49 -31.28,-7.91 -3.71,-0.87 -7.41,-1.77 -11.11,-2.66 z m -0.02,21.67 c 13.58,3.61 27.22,6.7 40.88,8.99 57.3,9.62 115.65,8.91 173.57,-1.88 l -3.97,-22.14 c -18.82,2.7 -38.63,2.65 -57.88,2.48 -6.41,-0.06 -12.77,-0.12 -19.02,-0.07 -25.36,0.21 -51.1,-0.3 -75.99,-0.78 -19.19,-0.37 -38.38,-0.7 -57.58,-0.77 z m -28.88,-156.26 c -0.23,8.04 0.18,15.86 0.76,24.03 0.52,7.23 1.06,14.7 1,22.33 -0.11,12.01 -2.65,23.76 -5.12,33.67 -4.71,18.89 -10.74,38.94 -22.19,58.22 15.41,6.17 31.03,11.51 46.77,16 l 0.21,-151.82 c -7.07,-0.73 -14.21,-1.54 -21.43,-2.43 z m -6.87,24.56 c -0.59,-8.26 -1.06,-16.81 -0.77,-25.57 -1.44,-0.18 -2.89,-0.37 -4.34,-0.56 -0.9,25.11 -4.01,47.71 -9.64,68.78 l -1.45,5.55 c -4.53,17.58 -11.28,43.18 -25.7,55.49 5.35,2.46 10.75,4.73 16.15,6.99 11.27,-18.7 17.19,-38.4 21.83,-56.99 2.36,-9.49 4.79,-20.71 4.89,-31.95 0.07,-7.34 -0.46,-14.66 -0.97,-21.74 z m -31.71,-30.03 c -0.09,24.26 -1.04,49.12 -17.07,71.92 -9.76,13.88 -22.41,30.3 -36.44,39.2 11.69,6.85 23.66,13.09 35.77,18.92 14.3,-9.31 21.25,-35.88 25.83,-53.64 l 1.46,-5.62 c 5.55,-20.73 8.59,-43.03 9.44,-67.88 -6.29,-0.89 -12.63,-1.88 -18.99,-2.9 z m -13.7,-2.36 c 0.51,7.44 0.78,15.05 -1.03,22.7 -4.85,20.46 -16.26,39.64 -32.15,54.01 -6.85,6.21 -13.78,12.37 -20.71,18.53 l -6.34,5.65 c 4.29,2.8 8.69,5.39 13.05,8.05 14.27,-7.52 28.15,-25.62 37.51,-38.91 14.99,-21.32 15.66,-45.44 15.72,-68.96 -2.01,-0.34 -4.03,-0.72 -6.05,-1.07 z m -7.76,-1.38 c -4.01,-0.75 -8.04,-1.56 -12.08,-2.37 1.5,12.83 -1.21,26.17 -8.22,37.42 -7.88,12.64 -20.58,19.85 -32.86,26.81 l -1.62,0.93 -0.04,31.44 3.54,-3.16 c 6.92,-6.15 13.83,-12.3 20.67,-18.48 14.76,-13.37 25.38,-31.19 29.89,-50.21 1.72,-7.22 1.28,-14.62 0.72,-22.38 z m -19.94,-4 c -2.72,-0.57 -5.44,-1.13 -8.17,-1.73 -1.78,4.11 -3.36,8.32 -4.8,12.48 -4.36,12.59 -8.96,25.55 -21.84,34.32 l -0.02,13.01 c 10.74,-6.11 21.52,-12.64 27.94,-22.94 6.57,-10.55 8.91,-23.21 6.89,-35.14 z m -34.73,-8.2 -0.06,43.61 c 7.61,-7.22 11.05,-16.9 14.57,-27.07 1.35,-3.91 2.84,-7.9 4.5,-11.85 -6.33,-1.48 -12.67,-3.03 -19.01,-4.69 z m -0.22,155.75 61.52,0.08 c -21.13,-9.81 -41.67,-21.28 -61.47,-34.06 z m -15.94,-160.1 -0.22,160.07 8.51,0.02 0.21,-157.8 c -2.83,-0.78 -5.66,-1.48 -8.5,-2.29 z m 382.13,187.69 c 0.41,-0.09 0.82,-0.14 1.23,-0.22 9.93,-2.03 19.61,-4.47 29.2,-7.09 l 0.04,-25 c -5.83,1.92 -11.62,3.81 -17.35,5.62 -3.76,1.2 -8.2,2.49 -12.79,3.66 -0.03,2.7 -0.15,5.48 -0.32,8.34 -0.28,5 -0.38,10 -0.01,14.69 z m 171.36,-26.84 0.05,-37.9 c -21.91,14.67 -44.05,27.21 -66.59,37.81 z m 58.06,0.3 h -8.21 v 7.26 l -132.79,-0.17 v -0.07 c -27.73,11.75 -56.14,20.61 -85.62,26.64 -61.87,12.67 -124.3,13.89 -185.59,3.59 -35.3,-5.91 -70.49,-16.38 -104.57,-30.69 l -118.97,-0.16 v -7.5 h -8.78 v -0.01 l 25.1,0.02 0.23,-162.41 c -8.47,-2.55 -16.91,-5.29 -25.33,-8.21 v -7.95 c 85.06,29.93 174,39.64 247.67,44.31 107.7,6.83 195.11,3.26 275.05,-11.26 45.17,-8.2 85.62,-18.83 121.81,-31.97 v 7.95 c -10.44,3.73 -21.18,7.28 -32.33,10.6 l -0.22,159.77 32.55,0.04 v 0.22"
         style="fill:currentColor;fill-opacity:1;fill-rule:nonzero;stroke:none"
         id="path368" /><path
         d="m 2574.98,1980.05 c -2.98,0.93 -6.07,1.53 -9.3,1.76 v -78.16 c 3.23,0.22 6.32,0.82 9.3,1.77 v 74.63"
         style="fill:currentColor;fill-opacity:1;fill-rule:nonzero;stroke:none"
         id="path370" /><path
         d="m 2550.66,1905.42 c 2.98,-0.95 6.07,-1.55 9.3,-1.77 v 78.16 c -3.23,-0.23 -6.32,-0.83 -9.3,-1.76 v -74.63"
         style="fill:currentColor;fill-opacity:1;fill-rule:nonzero;stroke:none"
         id="path372" /><path
         d="m 2559.96,2017.4 h -9.3 v -28.57 c 3.01,0.77 6.11,1.22 9.3,1.41 v 27.16"
         style="fill:currentColor;fill-opacity:1;fill-rule:nonzero;stroke:none"
         id="path374" /><path
         d="m 2602.89,1942.73 c 0,15.36 -9.1,28.56 -22.2,35.04 v -70.09 c 13.1,6.49 22.2,19.68 22.2,35.05"
         style="fill:currentColor;fill-opacity:1;fill-rule:nonzero;stroke:none"
         id="path376" /><path
         d="m 2522.76,1942.73 c 0,-15.37 9.09,-28.56 22.19,-35.05 v 70.09 c -13.1,-6.48 -22.19,-19.68 -22.19,-35.04"
         style="fill:currentColor;fill-opacity:1;fill-rule:nonzero;stroke:none"
         id="path378" /><path
         d="m 2565.68,2017.4 v -27.16 c 3.2,-0.19 6.29,-0.64 9.3,-1.41 v 28.57 h -9.3"
         style="fill:currentColor;fill-opacity:1;fill-rule:nonzero;stroke:none"
         id="path380" /><path
         d="m 2544.95,1846.86 v 51.51 c -18,7 -30.77,24.18 -30.77,44.36 0,20.18 12.77,37.35 30.77,44.36 v 30.31 h -63.03 v -175.73 c 22.39,-7.49 43.31,-15.89 63.03,-25.09 v 30.28"
         style="fill:currentColor;fill-opacity:1;fill-rule:nonzero;stroke:none"
         id="path382" /><path
         d="m 2481.92,2250.93 v -226.24 h 161.79 v -7.29 h -63.02 v -30.31 c 18.01,-7.01 30.77,-24.18 30.77,-44.36 0,-20.18 -12.76,-37.36 -30.77,-44.36 v -40.27 -60.04 c 23,-13.11 44.05,-27.59 63.03,-43.63 v 447.34 l -161.8,49.16"
         style="fill:currentColor;fill-opacity:1;fill-rule:nonzero;stroke:none"
         id="path384" /><path
         d="m 2574.98,1896.62 c -3.01,-0.76 -6.1,-1.22 -9.3,-1.41 v -88.9 c 3.13,-1.64 6.24,-3.29 9.3,-4.98 v 95.29"
         style="fill:currentColor;fill-opacity:1;fill-rule:nonzero;stroke:none"
         id="path386" /><path
         d="m 2559.96,1809.22 v 85.99 c -3.19,0.19 -6.29,0.65 -9.3,1.41 v -82.66 c 3.18,-1.53 6.2,-3.16 9.3,-4.74"
         style="fill:currentColor;fill-opacity:1;fill-rule:nonzero;stroke:none"
         id="path388" /><path
         d="m 1729.27,1941.87 c 0,-15.37 9.09,-28.56 22.19,-35.05 v 70.09 c -13.1,-6.48 -22.19,-19.68 -22.19,-35.04"
         style="fill:currentColor;fill-opacity:1;fill-rule:nonzero;stroke:none"
         id="path390" /><path
         d="m 1766.47,1980.95 c -3.22,-0.23 -6.32,-0.83 -9.29,-1.76 v -74.63 c 2.97,-0.94 6.07,-1.55 9.29,-1.77 v 78.16"
         style="fill:currentColor;fill-opacity:1;fill-rule:nonzero;stroke:none"
         id="path392" /><path
         d="m 1751.46,1857.24 v 40.27 c -18,7.01 -30.77,24.18 -30.77,44.36 0,20.18 12.77,37.35 30.77,44.37 v 30.06 h -67.16 v -265.65 c 3.32,3.13 6.71,6.2 10.25,9.19 h 1.37 v 1.17 c 6.27,5.23 12.91,10.28 20.21,15.07 8.83,5.8 17.82,11.17 26.88,16.34 3.1,2.17 5.88,3.98 8.45,5.58 v 59.24"
         style="fill:currentColor;fill-opacity:1;fill-rule:nonzero;stroke:none"
         id="path394" /><path
         d="m 1766.47,1894.35 c -3.19,0.19 -6.29,0.65 -9.29,1.41 v -94.47 c 2.61,1.34 5.73,2.82 9.29,4.39 v 88.67"
         style="fill:currentColor;fill-opacity:1;fill-rule:nonzero;stroke:none"
         id="path396" /><path
         d="m 1809.39,1941.87 c 0,15.36 -9.08,28.56 -22.18,35.04 v -70.09 c 13.1,6.49 22.18,19.68 22.18,35.05"
         style="fill:currentColor;fill-opacity:1;fill-rule:nonzero;stroke:none"
         id="path398" /><path
         d="m 1781.49,1895.76 c -3,-0.76 -6.1,-1.22 -9.3,-1.41 v -86.19 c 1.76,0.74 3.54,1.48 5.4,2.26 1.3,0.61 2.61,1.16 3.9,1.76 v 83.58"
         style="fill:currentColor;fill-opacity:1;fill-rule:nonzero;stroke:none"
         id="path400" /><path
         d="m 1787.21,1986.24 c 18,-7.02 30.77,-24.19 30.77,-44.37 0,-20.18 -12.77,-37.35 -30.77,-44.36 V 1846 1814.78 c 22.12,10.03 44.57,18.65 67.17,25.83 v 175.69 h -67.17 v -30.06"
         style="fill:currentColor;fill-opacity:1;fill-rule:nonzero;stroke:none"
         id="path402" /><path
         d="m 1684.3,2200.83 v -177 h 67.16 v 0 h 5.72 v 0 h 9.29 v 0 h 5.72 v 0 h 9.3 v 0 h 5.72 v 0 h 67.17 V 2250 l -170.08,-49.17"
         style="fill:currentColor;fill-opacity:1;fill-rule:nonzero;stroke:none"
         id="path404" /><path
         d="m 1757.18,2016.3 v -28.33 c 3,0.77 6.1,1.23 9.29,1.41 v 26.92 h -9.29"
         style="fill:currentColor;fill-opacity:1;fill-rule:nonzero;stroke:none"
         id="path406" /><path
         d="m 1772.19,2016.3 v -26.92 c 3.2,-0.18 6.3,-0.64 9.3,-1.41 v 28.33 h -9.3"
         style="fill:currentColor;fill-opacity:1;fill-rule:nonzero;stroke:none"
         id="path408" /><path
         d="m 1781.49,1979.19 c -2.97,0.93 -6.07,1.53 -9.3,1.76 v -78.16 c 3.23,0.22 6.33,0.83 9.3,1.77 v 74.63"
         style="fill:currentColor;fill-opacity:1;fill-rule:nonzero;stroke:none"
         id="path410" /></g></g></svg>
