<svg width="18" height="17" viewBox="0 0 18 17" fill="none" xmlns="http://www.w3.org/2000/svg">
    <path d="M15.0473 0H2.88578C1.5127 0 0.466553 1.04615 0.466553 2.41923V14.5808C0.466553 15.9538 1.5127 17 2.88578 17H15.0473C16.4204 17 17.4666 15.9538 17.4666 14.5808V2.41923C17.4666 1.04615 16.4204 0 15.0473 0ZM8.96655 13.6C11.7781 13.6 14.0666 11.3769 14.0666 8.69615C14.0666 8.23846 14.0012 7.71538 13.8704 7.32308H15.3089V14.2538C15.3089 14.5808 15.0473 14.9077 14.655 14.9077H3.27809C2.95117 14.9077 2.62425 14.6462 2.62425 14.2538V7.25769H4.1281C3.99733 7.71538 3.93194 8.17308 3.93194 8.63077C3.86655 11.3769 6.15501 13.6 8.96655 13.6ZM8.96655 11.6385C7.13578 11.6385 5.69732 10.2 5.69732 8.43462C5.69732 6.66923 7.13578 5.23077 8.96655 5.23077C10.7973 5.23077 12.2358 6.66923 12.2358 8.43462C12.2358 10.2654 10.7973 11.6385 8.96655 11.6385ZM15.2435 4.64231C15.2435 5.03461 14.9166 5.36154 14.5242 5.36154H12.6935C12.3012 5.36154 11.9742 5.03461 11.9742 4.64231V2.87692C11.9742 2.48462 12.3012 2.15769 12.6935 2.15769H14.5242C14.9166 2.15769 15.2435 2.48462 15.2435 2.87692V4.64231Z"
          fill="currentColor"/>
</svg>
