<svg width="19" height="25" viewBox="0 0 19 25" fill="none" xmlns="http://www.w3.org/2000/svg">
    <path d="M18.25 10.3757C18.25 11.5667 17.73 13.014 16.8607 14.5722C16.0005 16.114 14.8439 17.6851 13.6718 19.1036C12.5021 20.5194 11.3302 21.7673 10.4498 22.662C10.0704 23.0475 9.74592 23.3667 9.5 23.6046C9.25408 23.3667 8.92958 23.0475 8.5502 22.662C7.66977 21.7673 6.49793 20.5194 5.32818 19.1036C4.15615 17.6851 2.99947 16.114 2.13934 14.5722C1.27001 13.014 0.75 11.5667 0.75 10.3757C0.75 5.22121 4.7043 1.11108 9.5 1.11108C14.2957 1.11108 18.25 5.22121 18.25 10.3757Z"
          stroke="currentColor" stroke-width="1.5"/>
    <circle cx="9.5" cy="9.86108" r="3.47222" stroke="currentColor" stroke-width="1.5"/>
</svg>
