<svg width="12" height="18" viewBox="0 0 12 18" fill="none" xmlns="http://www.w3.org/2000/svg">
    <path d="M11.1086 11.0769C11.5304 10.6555 11.5907 10.0535 11.2291 9.45151C10.9278 8.9699 10.3855 8.7291 9.78283 8.8495C9.54177 8.9097 9.30072 9.03011 9.05966 9.21071C7.19151 10.4749 4.66047 10.4147 2.79232 9.15051C2.6718 9.0903 2.55127 9.0301 2.43074 8.9699C1.76785 8.6689 1.10497 8.78931 0.743389 9.39131C0.321548 9.99332 0.381804 10.6555 0.92417 11.1973C1.0447 11.3177 1.16522 11.3779 1.22548 11.4983L1.28575 11.5585C2.12943 12.2207 3.1539 12.6421 4.47969 12.8227L3.69627 13.6054C3.03338 14.2676 2.31022 14.99 1.64733 15.6522C1.46654 15.8328 1.22548 16.1338 1.22548 16.5552C1.22548 17.097 1.5268 17.6388 2.06917 17.8796C2.24996 18 2.43074 18 2.61153 18C2.91285 18 3.27443 17.8796 3.51548 17.5786C4.41942 16.6756 5.14258 15.9532 5.86574 15.2308C5.926 15.1706 5.92599 15.1706 5.92599 15.1706C5.92599 15.1706 5.98626 15.1706 5.98626 15.2308C6.46836 15.7726 7.01073 16.2542 7.49283 16.796C7.73389 17.0368 7.97494 17.2776 8.21599 17.5184C8.5173 17.8194 8.75835 17.9398 9.11993 17.9398C9.6623 18 10.2649 17.6388 10.506 17.097C10.747 16.6154 10.6265 16.0134 10.2047 15.6522C9.60204 15.0502 8.9994 14.388 8.33651 13.786L7.31204 12.7625C7.85441 12.7023 8.45704 12.5819 8.99941 12.3411C9.90335 12.0401 10.5662 11.6187 11.1086 11.0769Z"
          fill="currentColor"/>
    <path d="M5.92599 9.39131C8.5173 9.39131 10.6265 7.34448 10.6265 4.75585C10.6265 3.49163 10.1444 2.28763 9.24045 1.38462C8.33651 0.481607 7.19152 0 5.98626 0C3.39495 0 1.34601 2.10702 1.28575 4.63545C1.28575 5.89966 1.76786 7.04347 2.6718 7.94648C3.51548 8.90969 4.66047 9.39131 5.92599 9.39131ZM4.60021 3.37124C4.96179 3.01004 5.44389 2.82943 5.92599 2.82943C7.01073 2.82943 7.79415 3.67224 7.79415 4.69565C7.79415 5.77926 6.95046 6.56187 5.92599 6.56187C4.84126 6.56187 4.05785 5.71906 4.05785 4.69565C4.05785 4.21405 4.23863 3.73244 4.60021 3.37124Z"
          fill="currentColor"/>
    <path d="M11.1086 11.0769C11.5304 10.6555 11.5907 10.0535 11.2291 9.45151C10.9278 8.9699 10.3855 8.7291 9.78283 8.8495C9.54177 8.9097 9.30072 9.03011 9.05966 9.21071C7.19151 10.4749 4.66047 10.4147 2.79232 9.15051C2.6718 9.0903 2.55127 9.0301 2.43074 8.9699C1.76785 8.6689 1.10497 8.78931 0.743389 9.39131C0.321548 9.99332 0.381804 10.6555 0.92417 11.1973C1.0447 11.3177 1.16522 11.3779 1.22548 11.4983L1.28575 11.5585C2.12943 12.2207 3.1539 12.6421 4.47969 12.8227L3.69627 13.6054C3.03338 14.2676 2.31022 14.99 1.64733 15.6522C1.46654 15.8328 1.22548 16.1338 1.22548 16.5552C1.22548 17.097 1.5268 17.6388 2.06917 17.8796C2.24996 18 2.43074 18 2.61153 18C2.91285 18 3.27443 17.8796 3.51548 17.5786C4.41942 16.6756 5.14258 15.9532 5.86574 15.2308C5.926 15.1706 5.92599 15.1706 5.92599 15.1706C5.92599 15.1706 5.98626 15.1706 5.98626 15.2308C6.46836 15.7726 7.01073 16.2542 7.49283 16.796C7.73389 17.0368 7.97494 17.2776 8.21599 17.5184C8.5173 17.8194 8.75835 17.9398 9.11993 17.9398C9.6623 18 10.2649 17.6388 10.506 17.097C10.747 16.6154 10.6265 16.0134 10.2047 15.6522C9.60204 15.0502 8.9994 14.388 8.33651 13.786L7.31204 12.7625C7.85441 12.7023 8.45704 12.5819 8.99941 12.3411C9.90335 12.0401 10.5662 11.6187 11.1086 11.0769Z"
          fill="currentColor"/>
</svg>
