<svg width="40" height="52" viewBox="0 0 40 52" fill="none" xmlns="http://www.w3.org/2000/svg">
    <path d="M37.6788 9.95118L29.1326 1.43175C28.2158 0.517868 26.9731 0 25.6794 0H4.88938C2.19004 0.0101543 0 2.19332 0 4.8842V47.126C0 49.8168 2.19004 52 4.88938 52H34.2257C36.925 52 39.115 49.8168 39.115 47.126V13.4036C39.115 12.114 38.5955 10.8651 37.6788 9.95118ZM33.8284 13.0076H26.0767V5.28022L33.8284 13.0076ZM4.88938 47.126V4.8842H21.1873V15.4446C21.1873 16.7952 22.2772 17.8817 23.632 17.8817H34.2257V47.126H4.88938ZM30.3753 32.5343C29.1326 31.3158 25.5878 31.6509 23.8154 31.8742C22.0633 30.808 20.8919 29.3357 20.0668 27.1728C20.4641 25.538 21.0956 23.0502 20.6169 21.4864C20.1891 18.826 16.7665 19.09 16.2776 20.8873C15.8294 22.5222 16.2368 24.7967 16.9906 27.7008C15.972 30.1277 14.4542 33.3872 13.3847 35.2556C11.3474 36.3015 8.59716 37.916 8.18971 39.9469C7.85357 41.5513 10.8381 45.552 15.9414 36.7788C18.2231 36.0273 20.7086 35.1033 22.9088 34.7378C24.834 35.7735 27.0851 36.464 28.5927 36.464C31.1902 36.464 31.4448 33.6005 30.3753 32.5343ZM10.1964 40.4343C10.7159 39.0432 12.692 37.4388 13.293 36.8803C11.3576 39.957 10.1964 40.5054 10.1964 40.4343ZM18.5083 21.0803C19.2621 21.0803 19.1908 24.3398 18.6917 25.2232C18.2435 23.8118 18.2537 21.0803 18.5083 21.0803ZM16.0229 34.951C17.011 33.2349 17.8564 31.1939 18.5389 29.3966C19.3844 30.9299 20.4641 32.1586 21.605 33.0014C19.4862 33.438 17.6425 34.3316 16.0229 34.951ZM29.428 34.4433C29.428 34.4433 28.9186 35.0525 25.6285 33.6512C29.2039 33.3872 29.7947 34.1996 29.428 34.4433Z"
          fill="currentColor"/>
</svg>
