<svg width="42" height="52" viewBox="0 0 42 52" fill="none" xmlns="http://www.w3.org/2000/svg">
<path d="M36.2683 51.9998H1.24434C0.557359 51.9998 0.000183105 51.3234 0.000183105 50.489V26.0929C0.000183105 25.2584 0.557275 24.582 1.24434 24.582C1.9314 24.582 2.48849 25.2584 2.48849 26.0929V48.9781H35.0242V45.6435C35.0242 44.8091 35.5813 44.1327 36.2684 44.1327C36.9553 44.1327 37.5125 44.8091 37.5125 45.6435V50.489C37.5124 51.3234 36.9553 51.9998 36.2683 51.9998Z" fill="#5A061F"/>
<path opacity="0.2" d="M1.24438 17.9891V17.5026L14.2743 1.51099V17.9891H1.24438Z" fill="#5A061F"/>
<path opacity="0.2" d="M40.756 22.2864H15.9949V38.9071H40.756V22.2864Z" fill="#5A061F"/>
<path d="M40.7559 20.7755H37.5124V1.51084C37.5124 0.676406 36.9553 0 36.2683 0H14.2742C14.2592 0 14.2442 0.00213281 14.2292 0.00274218C14.2149 0.00335156 14.2007 0.0040625 14.1866 0.00528124C14.133 0.00995311 14.0797 0.0172656 14.0274 0.0300625C14.0261 0.0303672 14.0249 0.0307734 14.0236 0.0312812C13.972 0.0440781 13.9216 0.0622577 13.872 0.0827733C13.859 0.0882577 13.8462 0.0938436 13.8335 0.0997343C13.7843 0.122383 13.736 0.147672 13.6894 0.177734C13.6881 0.178648 13.6867 0.179258 13.6854 0.179969C13.6377 0.211047 13.5923 0.247304 13.5482 0.285898C13.537 0.295547 13.5262 0.3055 13.5152 0.315859C13.4716 0.356789 13.4292 0.400054 13.3899 0.448195L0.359797 16.4397C0.330525 16.4755 0.303093 16.5129 0.277166 16.5518C0.259853 16.5776 0.244716 16.6047 0.228992 16.6314C0.221298 16.6448 0.212683 16.6574 0.205324 16.6709C0.187509 16.7037 0.171619 16.7375 0.156146 16.7715C0.152132 16.7801 0.147532 16.7885 0.143852 16.7972C0.128714 16.8321 0.1155 16.8678 0.102787 16.9035C0.0995255 16.9126 0.0956783 16.9212 0.0927511 16.9302C0.0812095 16.9646 0.0715914 16.9993 0.062308 17.0343C0.0592135 17.0461 0.0553663 17.0576 0.0523554 17.0694C0.0444937 17.1014 0.0385557 17.1338 0.0324503 17.1663C0.0294395 17.182 0.0258432 17.1973 0.0232505 17.2131C0.0184833 17.2428 0.0156397 17.2726 0.0122943 17.3026C0.0102034 17.3215 0.00727625 17.3402 0.00585445 17.3592C0.00359631 17.3883 0.00326175 17.4174 0.00225814 17.4466C0.00167269 17.4652 0 17.4836 0 17.5021V17.9888C0 18.8233 0.557092 19.4997 1.24415 19.4997H14.2741C14.9611 19.4997 15.5183 18.8233 15.5183 17.9888V3.02168H35.0241V20.7755H15.995C15.308 20.7755 14.7508 21.4519 14.7508 22.2863V38.9064C14.7508 39.7409 15.3079 40.4173 15.995 40.4173H40.7558C41.4429 40.4173 42 39.7409 42 38.9064V22.2863C42.0001 21.4519 41.4429 20.7755 40.7559 20.7755ZM13.0301 16.4781H3.82914L8.53753 10.6996L13.0302 5.18578V16.4781H13.0301ZM39.5118 37.3956H17.2391V23.7972H39.5118V37.3956Z" fill="#5A061F"/>
<path d="M21.8097 26.99C22.843 26.99 23.6363 27.1733 24.1897 27.54C24.743 27.9 25.0197 28.4933 25.0197 29.32C25.0197 30.1533 24.7397 30.7567 24.1797 31.13C23.6197 31.4967 22.8197 31.68 21.7797 31.68H21.2897V34H19.7297V27.17C20.0697 27.1033 20.4297 27.0567 20.8097 27.03C21.1897 27.0033 21.523 26.99 21.8097 26.99ZM21.9097 28.32C21.7963 28.32 21.683 28.3233 21.5697 28.33C21.463 28.3367 21.3697 28.3433 21.2897 28.35V30.35H21.7797C22.3197 30.35 22.7263 30.2767 22.9997 30.13C23.273 29.9833 23.4097 29.71 23.4097 29.31C23.4097 29.1167 23.373 28.9567 23.2997 28.83C23.233 28.7033 23.133 28.6033 22.9997 28.53C22.873 28.45 22.7163 28.3967 22.5297 28.37C22.343 28.3367 22.1363 28.32 21.9097 28.32Z" fill="#5A061F"/>
<path d="M28.2452 26.99C29.2786 26.99 30.0719 27.1733 30.6252 27.54C31.1786 27.9 31.4552 28.4933 31.4552 29.32C31.4552 30.1533 31.1752 30.7567 30.6152 31.13C30.0552 31.4967 29.2552 31.68 28.2152 31.68H27.7252V34H26.1652V27.17C26.5052 27.1033 26.8652 27.0567 27.2452 27.03C27.6252 27.0033 27.9586 26.99 28.2452 26.99ZM28.3452 28.32C28.2319 28.32 28.1186 28.3233 28.0052 28.33C27.8986 28.3367 27.8052 28.3433 27.7252 28.35V30.35H28.2152C28.7552 30.35 29.1619 30.2767 29.4352 30.13C29.7086 29.9833 29.8452 29.71 29.8452 29.31C29.8452 29.1167 29.8086 28.9567 29.7352 28.83C29.6686 28.7033 29.5686 28.6033 29.4352 28.53C29.3086 28.45 29.1519 28.3967 28.9652 28.37C28.7786 28.3367 28.5719 28.32 28.3452 28.32Z" fill="#5A061F"/>
<path d="M37.8677 27.07V28.4H35.7777V34H34.2177V28.4H32.1277V27.07H37.8677Z" fill="#5A061F"/>
</svg>
