<svg width="50" height="55" viewBox="0 0 50 55" fill="none" xmlns="http://www.w3.org/2000/svg">
    <path d="M44.149 0.699951H41.8585C40.8517 0.699951 40.8517 2.28221 41.8585 2.28221H44.149C46.5144 2.28221 48.4389 4.22586 48.4389 6.61485V24.9239C48.4389 27.313 46.5145 29.2567 44.149 29.2567H41.5512C41.3798 29.2567 41.2132 29.3138 41.077 29.4194L36.3102 33.1154V30.0478C36.3102 29.6109 35.9608 29.2567 35.5297 29.2567H26.0306C25.2527 29.2567 24.5051 29.0485 23.8457 28.6529V19.772C23.8457 18.1085 23.0098 16.6388 21.7406 15.7693V6.61485C21.7406 4.22586 23.665 2.28221 26.0306 2.28221H36.9674C37.9742 2.28221 37.9742 0.699951 36.9674 0.699951H26.0306C22.8043 0.699951 20.1796 3.3534 20.1796 6.61485V15.0739C19.8222 14.9874 19.4499 14.9403 19.0667 14.9403H4.7789C2.14386 14.9403 0 17.1078 0 19.772V21.4803C0 22.5007 1.56098 22.5007 1.56098 21.4803V19.772C1.56098 17.9802 3.00448 16.5225 4.7789 16.5225H19.0668C20.8412 16.5225 22.2848 17.9802 22.2848 19.772V28.9678C22.2755 29.0377 22.2759 29.108 22.2848 29.1773V34.2102C22.2848 34.3096 22.2789 34.4087 22.27 34.5072H20.6605C18.8869 34.5072 17.4083 35.8048 17.1017 37.5101C17.0308 37.5372 16.9626 37.5751 16.8994 37.6245L13.4085 40.3566V38.2507C13.4085 37.8138 13.0592 37.4596 12.6281 37.4596H4.7789C3.00448 37.4596 1.56098 36.0019 1.56098 34.2102V26.227C1.56098 25.2066 0 25.2066 0 26.227V34.2103C0 36.8745 2.14386 39.042 4.7789 39.042H11.8477V41.967C11.8477 42.6016 12.6079 42.9823 13.1052 42.5933L17.0425 39.5118V48.412C17.0425 50.4294 18.6656 52.0705 20.6606 52.0705H25.4502V53.9166C25.4502 54.5509 26.2104 54.9321 26.7076 54.5428L29.8666 52.0705H30.7999C32.7948 52.0705 34.4179 50.4293 34.4179 48.412V47.0074C34.4179 45.9869 32.857 45.9869 32.857 47.0074V48.412C32.857 49.5569 31.9342 50.4882 30.7999 50.4882H29.6003C29.4277 50.4882 29.2599 50.5463 29.1234 50.6531L27.0111 52.3061V51.2793C27.0111 50.8423 26.6617 50.4881 26.2306 50.4881H20.6605C19.5263 50.4881 18.6034 49.5567 18.6034 48.4119V38.1658C18.6034 37.0209 19.5261 36.0896 20.6605 36.0896H30.7999C31.9341 36.0896 32.857 37.021 32.857 38.1658V42.0496C32.857 43.0701 34.4179 43.0701 34.4179 42.0496V38.1659C34.4179 36.1485 32.7948 34.5074 30.7999 34.5074H23.8369C23.8428 34.4086 23.8458 30.4128 23.8458 30.4128C24.534 30.6932 25.2718 30.839 26.0307 30.839H34.7493V34.7166C34.7493 35.3496 35.5063 35.7307 36.004 35.345L41.8157 30.839H44.1491C47.3753 30.839 50 28.1856 50 24.924V6.61485C49.9999 3.3534 47.3752 0.699951 44.149 0.699951V0.699951Z"
          fill="currentColor"/>
    <path d="M36.9544 6.79127C35.9613 6.53982 34.9493 7.31806 34.9493 8.33587C34.9493 9.4479 34.5407 10.5196 33.7993 11.353L31.6443 13.7716C31.5048 13.5592 31.2637 13.4187 30.9891 13.4187H26.7822C26.3501 13.4187 26 13.766 26 14.1944V23.5827C26 24.0112 26.3501 24.3585 26.7822 24.3585H30.9891C31.3052 24.3585 31.5767 24.1722 31.7001 23.9047C32.5518 24.4209 33.5388 24.7 34.543 24.7H41.9778C43.1139 24.7 44.0511 23.7222 43.9978 22.5982C43.9741 22.1005 44 15.4173 44 15.2688C44 14.1629 43.0928 13.263 41.9801 13.263L38.1138 13.2515L38.2739 12.8755C39.0055 11.1572 38.885 9.16459 37.9521 7.5451C37.7343 7.16674 37.3799 6.89915 36.9544 6.79127C37.3799 6.89915 36.5287 6.68349 36.9544 6.79127C37.3799 6.89915 35.9614 6.53982 36.9544 6.79127ZM30.2069 22.807H27.5643V14.9702H30.2069V22.807ZM41.9778 14.8144C42.2304 14.8144 42.4358 15.0182 42.4358 15.2687C42.4358 15.4163 42.4342 15.8169 42.4322 16.3601C42.4206 19.3589 42.4129 22.199 42.4352 22.6711C42.4433 22.8414 42.3598 22.955 42.3093 23.0075C42.2219 23.0984 42.1042 23.1483 41.9778 23.1483H34.543C33.6567 23.1483 32.7894 22.8437 32.1005 22.2906L31.7712 22.0263V15.9721L34.9719 12.3799C35.9661 11.2624 36.5136 9.82616 36.5136 8.33576C36.5136 8.29191 36.5739 8.28053 36.594 8.31466C37.2866 9.51689 37.3759 10.9961 36.8329 12.2718L36.2156 13.7218C36.1137 13.9611 36.1394 14.2349 36.2836 14.4515C36.4281 14.6681 36.6721 14.7986 36.9337 14.7994L41.9778 14.8144Z"
          fill="currentColor"/>
    <path d="M6.77787 28.2277C6.34818 28.2277 6 28.605 6 29.0703C6 29.5357 6.34818 29.913 6.77787 29.913H9.07084L8.64249 32.7195C8.57238 33.1786 8.85926 33.6124 9.28304 33.6884C9.32609 33.6961 9.36871 33.6998 9.41082 33.6998C9.78462 33.6998 10.1143 33.4072 10.1774 32.9945L10.6476 29.9131H12.5242L12.0958 32.7196C12.0257 33.1787 12.3126 33.6125 12.7364 33.6885C12.7794 33.6962 12.8221 33.7 12.8642 33.7C13.238 33.7 13.5677 33.4073 13.6307 32.9946L14.101 29.9132H17.2221C17.6518 29.9132 18 29.5359 18 29.0706C18 28.6052 17.6518 28.2279 17.2221 28.2279H14.3582L14.6719 26.1722H17.2221C17.6518 26.1722 18 25.795 18 25.3296C18 24.8642 17.6518 24.4869 17.2221 24.4869H14.9292L15.3575 21.6804C15.4276 21.2213 15.1407 20.7875 14.717 20.7115C14.2927 20.6354 13.8927 20.9464 13.8226 21.4055L13.3524 24.4868H11.4758L11.9042 21.6803C11.9743 21.2212 11.6874 20.7874 11.2636 20.7114C10.8388 20.6353 10.4395 20.9463 10.3693 21.4053L9.89901 24.4867H6.77787C6.34818 24.4867 6 24.864 6 25.3294C6 25.7947 6.34818 26.172 6.77787 26.172H9.6418L9.32806 28.2277H6.77787ZM11.2187 26.172H13.0952L12.7815 28.2277H10.905L11.2187 26.172Z"
          fill="currentColor"/>
    <path d="M25.4906 40.3057C24.8582 39.7795 24.0168 39.5719 23.1729 39.7793C22.0913 40.0447 21 41.0666 21 42.751C21 43.7993 21.3785 44.7093 22.1572 45.533C22.7933 46.2059 23.7112 46.8457 25.1332 47.6077C25.248 47.6692 25.374 47.7 25.5001 47.7C25.6261 47.7 25.7521 47.6692 25.8669 47.6077C28.3478 46.2784 30 44.9438 30 42.751C30 41.0574 28.8699 40.046 27.7499 39.7949C26.9084 39.6062 26.0927 39.8065 25.4906 40.3057ZM28.4335 42.751C28.4335 43.9337 27.6574 44.8083 25.4999 46.0087C23.3425 44.8082 22.5663 43.9336 22.5663 42.751C22.5663 41.8709 23.0704 41.4336 23.5423 41.3177C23.6293 41.2964 23.7224 41.2843 23.8182 41.2843C24.1731 41.2843 24.5634 41.45 24.804 41.9215C24.9411 42.1898 25.2182 42.3561 25.5155 42.3499C25.8141 42.3439 26.0834 42.1668 26.2096 41.8932C26.4631 41.3442 26.996 41.2476 27.4104 41.3406C27.9051 41.4513 28.4335 41.8801 28.4335 42.751Z"
          fill="currentColor"/>
</svg>
