<svg width="22" height="13" viewBox="0 0 22 13" fill="none" xmlns="http://www.w3.org/2000/svg">
    <path d="M21.2728 10.876C21.2728 10.793 21.1898 10.793 21.1898 10.71C20.8577 10.0458 20.1105 9.21554 19.1142 8.30229C18.6161 7.88718 18.367 7.55508 18.201 7.38904C17.9519 7.05694 17.9519 6.80788 18.0349 6.47579C18.1179 6.22672 18.45 5.8116 19.0312 5.06439C19.3633 4.64928 19.5293 4.40022 19.7784 4.15115C21.0237 2.49069 21.6049 1.41138 21.4388 0.913245L21.3558 0.830229C21.2728 0.747206 21.1898 0.664186 21.0237 0.664186C20.8577 0.581163 20.6086 0.581163 20.3596 0.664186H17.2047C17.1217 0.664186 17.1217 0.664186 16.9556 0.664186C16.8726 0.664186 16.7896 0.664186 16.7896 0.664186H16.7066H16.6235L16.5405 0.747201C16.4575 0.830224 16.4575 0.830222 16.4575 0.913245C16.1254 1.8265 15.7103 2.5737 15.2952 3.40393C15.0461 3.81905 14.797 4.23417 14.548 4.56626C14.2989 4.89835 14.1328 5.14742 13.9668 5.31346C13.8007 5.47951 13.6347 5.56253 13.5517 5.72858C13.4686 5.8116 13.3026 5.89463 13.3026 5.8116C13.2196 5.8116 13.1366 5.8116 13.1366 5.72858C13.0535 5.64555 12.9705 5.56253 12.8875 5.47951C12.8045 5.39648 12.8045 5.23044 12.7214 5.06439C12.7214 4.89834 12.7214 4.7323 12.7214 4.64928C12.7214 4.56625 12.7214 4.31719 12.7214 4.15115C12.7214 3.90208 12.7214 3.73603 12.7214 3.653C12.7214 3.40393 12.7214 3.07185 12.7214 2.73976C12.7214 2.40767 12.7214 2.15859 12.7214 1.99255C12.7214 1.8265 12.7214 1.57743 12.7214 1.41139C12.7214 1.16232 12.7214 0.996268 12.7214 0.913245C12.7214 0.830222 12.6384 0.664181 12.6384 0.581158C12.5554 0.498135 12.4724 0.41511 12.3894 0.332087C12.3063 0.249064 12.1403 0.249066 12.0573 0.166043C11.6421 0.0830204 11.144 0 10.5629 0C9.2345 0 8.32124 0.0830255 7.98915 0.249071C7.8231 0.332094 7.65705 0.415112 7.57403 0.581158C7.40799 0.747204 7.40798 0.830229 7.491 0.830229C7.90612 0.913252 8.23821 1.07929 8.40426 1.32836L8.48729 1.49442C8.57031 1.57744 8.5703 1.74348 8.65332 1.99255C8.73634 2.24161 8.73635 2.49068 8.73635 2.82277C8.73635 3.32091 8.73635 3.81905 8.73635 4.15115C8.73635 4.56626 8.65332 4.81532 8.65332 5.06439C8.65332 5.31346 8.57031 5.47951 8.48729 5.56253C8.40427 5.72858 8.40426 5.8116 8.32123 5.8116C8.32123 5.8116 8.32123 5.89462 8.2382 5.89462C8.15518 5.89462 8.07216 5.97765 7.90612 5.97765C7.82309 5.97765 7.65705 5.89463 7.57403 5.8116C7.40799 5.72858 7.24194 5.56254 7.15892 5.39649C6.99287 5.23044 6.82682 4.98137 6.66077 4.64928C6.49473 4.31718 6.24565 3.9851 6.0796 3.48696L5.91357 3.15487C5.83055 2.98883 5.6645 2.65673 5.49846 2.24162C5.33241 1.8265 5.16636 1.49442 5.00032 1.0793C4.91729 0.913255 4.83428 0.830224 4.75126 0.747201H4.66823C4.66823 0.747201 4.5852 0.664186 4.50217 0.664186C4.41915 0.664186 4.33614 0.581158 4.25311 0.581158H1.26428C0.932192 0.581158 0.766149 0.664178 0.683126 0.747201L0.600098 0.830229C0.600098 0.830229 0.600098 0.91325 0.600098 0.996273C0.600098 1.0793 0.600103 1.16231 0.683126 1.32836C1.09824 2.32463 1.59638 3.32091 2.09451 4.31719C2.59265 5.23044 3.09079 6.06067 3.42288 6.64183C3.838 7.22299 4.17009 7.80416 4.5852 8.30229C5.00032 8.80043 5.24938 9.13252 5.3324 9.29857C5.49845 9.46461 5.58147 9.54763 5.66449 9.63065L5.91357 9.87972C6.07962 10.0458 6.32868 10.2948 6.66077 10.5439C6.99287 10.793 7.40798 11.042 7.82309 11.2911C8.2382 11.5402 8.73635 11.7062 9.23449 11.8723C9.81565 12.0383 10.3138 12.1213 10.8119 12.0383H12.0573C12.3063 12.0383 12.4724 11.9553 12.6384 11.7893L12.7214 11.7062C12.7214 11.6232 12.8045 11.6232 12.8045 11.5402C12.8045 11.4572 12.8045 11.3741 12.8045 11.2081C12.8045 10.876 12.8045 10.6269 12.8875 10.3779C12.9705 10.1288 12.9705 9.96275 13.0535 9.79671C13.1366 9.63066 13.2196 9.54763 13.3026 9.46461C13.3856 9.38159 13.4687 9.29857 13.4687 9.29857H13.5517C13.7177 9.21554 13.9668 9.29856 14.1328 9.46461C14.3819 9.63065 14.631 9.87973 14.797 10.1288C14.9631 10.3779 15.2121 10.6269 15.5442 10.959C15.8763 11.2911 16.1254 11.5402 16.2914 11.6232L16.5405 11.7893C16.7065 11.8723 16.8726 11.9553 17.1217 12.0383C17.3707 12.1213 17.5368 12.1213 17.7028 12.1213L20.5256 12.0383C20.7747 12.0383 21.0237 11.9553 21.1898 11.8723C21.3558 11.7893 21.4388 11.7062 21.4388 11.5402C21.4388 11.4572 21.4388 11.2911 21.4388 11.2081C21.2728 11.042 21.2728 10.959 21.2728 10.876Z"
          fill="currentColor"/>
</svg>
