<svg width="40" height="52" viewBox="0 0 40 52" fill="none" xmlns="http://www.w3.org/2000/svg">
    <path d="M38.5312 9.95118L29.7917 1.43175C28.8542 0.517868 27.5833 0 26.2604 0H5C2.23958 0.0101543 0 2.19332 0 4.8842V47.126C0 49.8168 2.23958 52 5 52H35C37.7604 52 40 49.8168 40 47.126V13.4036C40 12.114 39.4688 10.8651 38.5312 9.95118ZM34.5938 13.0076H26.6667V5.28022L34.5938 13.0076ZM5 47.126V4.8842H21.6667V15.4446C21.6667 16.7952 22.7812 17.8817 24.1667 17.8817H35V47.126H5ZM27.9271 26.0051C27.3333 26.0051 26.8229 26.4113 26.7083 26.9697C24.5625 36.8905 24.5833 36.6569 24.5208 37.4794C24.5 37.3576 24.4792 37.2154 24.4479 37.0428C24.3646 36.5249 24.4792 37.0631 21.9896 26.9393C21.8542 26.3909 21.3542 26.0051 20.7708 26.0051H19.3854C18.8125 26.0051 18.3125 26.3909 18.1667 26.9291C15.625 36.9818 15.6667 36.6975 15.5833 37.4591C15.5729 37.3474 15.5625 37.2052 15.5312 37.0326C15.4583 36.5046 14.0625 29.5895 13.5417 26.9799C13.4271 26.4113 12.9167 25.9949 12.3125 25.9949H10.5625C9.75 25.9949 9.15625 26.7362 9.34375 27.4978C10.1771 30.808 12.125 38.6167 12.8021 41.3076C12.9375 41.8559 13.4375 42.2316 14.0208 42.2316H16.6458C17.2188 42.2316 17.7187 41.8559 17.8542 41.3076L19.7188 34.0574C19.875 33.4278 19.9792 32.8389 20.0312 32.3007L20.3333 34.0574C20.3438 34.098 21.6458 39.1853 22.1979 41.3076C22.3333 41.8457 22.8333 42.2316 23.4062 42.2316H25.9792C26.5521 42.2316 27.0521 41.8559 27.1875 41.3076C29.3542 32.9912 30.3333 29.224 30.7812 27.4978C30.9792 26.726 30.3854 25.9848 29.5729 25.9848H27.9271V26.0051Z"
          fill="currentColor"/>
</svg>
