<svg width="42" height="52" viewBox="0 0 42 52" fill="none" xmlns="http://www.w3.org/2000/svg">
<path d="M36.2683 51.9998H1.24434C0.557359 51.9998 0.000183105 51.3234 0.000183105 50.489V26.0929C0.000183105 25.2584 0.557275 24.582 1.24434 24.582C1.9314 24.582 2.48849 25.2584 2.48849 26.0929V48.9781H35.0242V45.6435C35.0242 44.8091 35.5813 44.1327 36.2684 44.1327C36.9553 44.1327 37.5125 44.8091 37.5125 45.6435V50.489C37.5124 51.3234 36.9553 51.9998 36.2683 51.9998Z" fill="#5A061F"/>
<path opacity="0.2" d="M1.24438 17.9891V17.5026L14.2743 1.51099V17.9891H1.24438Z" fill="#5A061F"/>
<path opacity="0.2" d="M40.756 22.2864H15.9949V38.9071H40.756V22.2864Z" fill="#5A061F"/>
<path d="M40.7559 20.7755H37.5124V1.51084C37.5124 0.676406 36.9553 0 36.2683 0H14.2742C14.2592 0 14.2442 0.00213281 14.2292 0.00274218C14.2149 0.00335156 14.2007 0.0040625 14.1866 0.00528124C14.133 0.00995311 14.0797 0.0172656 14.0274 0.0300625C14.0261 0.0303672 14.0249 0.0307734 14.0236 0.0312812C13.972 0.0440781 13.9216 0.0622577 13.872 0.0827733C13.859 0.0882577 13.8462 0.0938436 13.8335 0.0997343C13.7843 0.122383 13.736 0.147672 13.6894 0.177734C13.6881 0.178648 13.6867 0.179258 13.6854 0.179969C13.6377 0.211047 13.5923 0.247304 13.5482 0.285898C13.537 0.295547 13.5262 0.3055 13.5152 0.315859C13.4716 0.356789 13.4292 0.400054 13.3899 0.448195L0.359797 16.4397C0.330525 16.4755 0.303093 16.5129 0.277166 16.5518C0.259853 16.5776 0.244716 16.6047 0.228992 16.6314C0.221298 16.6448 0.212683 16.6574 0.205324 16.6709C0.187509 16.7037 0.171619 16.7375 0.156146 16.7715C0.152132 16.7801 0.147532 16.7885 0.143852 16.7972C0.128714 16.8321 0.1155 16.8678 0.102787 16.9035C0.0995255 16.9126 0.0956783 16.9212 0.0927511 16.9302C0.0812095 16.9646 0.0715914 16.9993 0.062308 17.0343C0.0592135 17.0461 0.0553663 17.0576 0.0523554 17.0694C0.0444937 17.1014 0.0385557 17.1338 0.0324503 17.1663C0.0294395 17.182 0.0258432 17.1973 0.0232505 17.2131C0.0184833 17.2428 0.0156397 17.2726 0.0122943 17.3026C0.0102034 17.3215 0.00727625 17.3402 0.00585445 17.3592C0.00359631 17.3883 0.00326175 17.4174 0.00225814 17.4466C0.00167269 17.4652 0 17.4836 0 17.5021V17.9888C0 18.8233 0.557092 19.4997 1.24415 19.4997H14.2741C14.9611 19.4997 15.5183 18.8233 15.5183 17.9888V3.02168H35.0241V20.7755H15.995C15.308 20.7755 14.7508 21.4519 14.7508 22.2863V38.9064C14.7508 39.7409 15.3079 40.4173 15.995 40.4173H40.7558C41.4429 40.4173 42 39.7409 42 38.9064V22.2863C42.0001 21.4519 41.4429 20.7755 40.7559 20.7755ZM13.0301 16.4781H3.82914L8.53753 10.6996L13.0302 5.18578V16.4781H13.0301ZM39.5118 37.3956H17.2391V23.7972H39.5118V37.3956Z" fill="#5A061F"/>
<path d="M24.0954 33.9999C23.9021 33.6132 23.6887 33.2232 23.4554 32.8299C23.2287 32.4299 22.9654 32.0232 22.6654 31.6099C22.5721 31.7299 22.4521 31.8966 22.3054 32.1099C22.1654 32.3232 22.0221 32.5499 21.8754 32.7899C21.7354 33.0299 21.6021 33.2599 21.4754 33.4799C21.3487 33.6999 21.2554 33.8732 21.1954 33.9999H19.4154C19.7087 33.4599 20.0487 32.8932 20.4354 32.2999C20.8287 31.7066 21.2654 31.0766 21.7454 30.4099L19.5154 27.0699H21.4054L22.7554 29.2299L24.0754 27.0699H25.8554L23.6554 30.4299C24.2154 31.1566 24.6854 31.8299 25.0654 32.4499C25.4454 33.0632 25.7454 33.5799 25.9654 33.9999H24.0954Z" fill="#5A061F"/>
<path d="M31.4935 32.6599V33.9999H26.8635V27.0699H28.4235V32.6599H31.4935Z" fill="#5A061F"/>
<path d="M34.5542 32.8099C34.7742 32.8099 34.9542 32.7932 35.0942 32.7599C35.2409 32.7199 35.3576 32.6699 35.4442 32.6099C35.5309 32.5432 35.5909 32.4666 35.6242 32.3799C35.6576 32.2932 35.6742 32.1966 35.6742 32.0899C35.6742 31.8632 35.5676 31.6766 35.3542 31.5299C35.1409 31.3766 34.7742 31.2132 34.2542 31.0399C34.0276 30.9599 33.8009 30.8699 33.5742 30.7699C33.3476 30.6632 33.1442 30.5332 32.9642 30.3799C32.7842 30.2199 32.6376 30.0299 32.5242 29.8099C32.4109 29.5832 32.3542 29.3099 32.3542 28.9899C32.3542 28.6699 32.4142 28.3832 32.5342 28.1299C32.6542 27.8699 32.8242 27.6499 33.0442 27.4699C33.2642 27.2899 33.5309 27.1532 33.8442 27.0599C34.1576 26.9599 34.5109 26.9099 34.9042 26.9099C35.3709 26.9099 35.7742 26.9599 36.1142 27.0599C36.4542 27.1599 36.7342 27.2699 36.9542 27.3899L36.5042 28.6199C36.3109 28.5199 36.0942 28.4332 35.8542 28.3599C35.6209 28.2799 35.3376 28.2399 35.0042 28.2399C34.6309 28.2399 34.3609 28.2932 34.1942 28.3999C34.0342 28.4999 33.9542 28.6566 33.9542 28.8699C33.9542 28.9966 33.9842 29.1032 34.0442 29.1899C34.1042 29.2766 34.1876 29.3566 34.2942 29.4299C34.4076 29.4966 34.5342 29.5599 34.6742 29.6199C34.8209 29.6732 34.9809 29.7299 35.1542 29.7899C35.5142 29.9232 35.8276 30.0566 36.0942 30.1899C36.3609 30.3166 36.5809 30.4666 36.7542 30.6399C36.9342 30.8132 37.0676 31.0166 37.1542 31.2499C37.2409 31.4832 37.2842 31.7666 37.2842 32.0999C37.2842 32.7466 37.0576 33.2499 36.6042 33.6099C36.1509 33.9632 35.4676 34.1399 34.5542 34.1399C34.2476 34.1399 33.9709 34.1199 33.7242 34.0799C33.4776 34.0466 33.2576 34.0032 33.0642 33.9499C32.8776 33.8966 32.7142 33.8399 32.5742 33.7799C32.4409 33.7199 32.3276 33.6632 32.2342 33.6099L32.6742 32.3699C32.8809 32.4832 33.1342 32.5866 33.4342 32.6799C33.7409 32.7666 34.1142 32.8099 34.5542 32.8099Z" fill="#5A061F"/>
</svg>
