<?xml version="1.0" standalone="no"?>
<!DOCTYPE svg PUBLIC "-//W3C//DTD SVG 20010904//EN"
 "http://www.w3.org/TR/2001/REC-SVG-20010904/DTD/svg10.dtd">
<svg version="1.0" xmlns="http://www.w3.org/2000/svg"
 width="512.000000pt" height="512.000000pt" viewBox="0 0 512.000000 512.000000"
 preserveAspectRatio="xMidYMid meet">
<metadata>
Created by potrace 1.11, written by Peter Selinger 2001-2013
</metadata>
<g transform="translate(0.000000,512.000000) scale(0.100000,-0.100000)"
fill="#000000" stroke="none">
<path d="M1595 3414 c-60 -13 -121 -25 -135 -27 -14 -3 -53 -10 -87 -17 l-62
-12 4 -37 c2 -20 4 -41 4 -48 1 -7 18 -9 56 -6 71 7 102 -13 178 -115 44 -60
249 -394 342 -558 l18 -31 -144 -192 c-79 -105 -171 -228 -204 -272 -33 -45
-80 -103 -105 -129 -41 -43 -51 -49 -102 -55 -61 -8 -65 -12 -63 -64 l1 -34
139 0 139 -1 33 55 c18 30 37 61 43 69 5 8 34 53 63 100 30 47 82 126 116 175
35 50 82 118 104 152 23 35 45 63 48 63 3 0 70 -118 149 -262 79 -145 155
-283 169 -307 l26 -44 228 -1 227 -1 0 48 c0 45 -1 47 -29 47 -61 0 -84 18
-148 113 -92 138 -206 333 -361 619 l-42 77 88 113 c48 62 107 140 132 173 25
33 50 65 55 71 6 6 17 22 25 34 8 12 20 28 25 34 6 6 26 31 45 56 74 97 96
110 203 119 4 1 7 21 7 44 l0 44 -133 -1 -134 -1 -94 -140 c-106 -156 -244
-358 -268 -392 -9 -12 -19 -23 -22 -23 -4 0 -17 19 -29 43 -31 59 -99 185
-123 227 -11 19 -31 55 -45 80 -60 108 -104 166 -160 213 -39 32 -35 32 -177
1z"/>
<path d="M750 3410 c-63 -3 -258 -5 -432 -4 l-318 1 0 -46 0 -46 49 -3 c27 -1
66 -7 87 -14 32 -11 40 -19 46 -48 28 -130 26 -1220 -2 -1296 -13 -34 -37 -42
-127 -43 l-53 -1 0 -47 0 -48 380 0 c373 0 380 0 381 20 1 21 -2 69 -5 72 -1
1 -38 4 -83 7 -88 5 -117 15 -127 43 -14 35 -20 231 -20 658 -1 422 6 640 19
654 4 3 93 6 198 6 192 0 273 -11 297 -39 5 -7 12 -48 16 -92 3 -43 9 -83 14
-87 10 -11 66 -15 80 -7 5 3 12 53 15 110 3 58 10 131 16 163 16 92 17 91
-163 92 -84 0 -205 -2 -268 -5z"/>
<path d="M2933 3365 c0 -51 -3 -49 102 -60 33 -3 66 -12 73 -19 25 -25 29
-127 27 -670 -3 -531 -6 -631 -26 -668 -12 -23 -60 -36 -134 -37 l-40 -1 -2
-48 -1 -47 269 0 c262 0 269 1 270 20 0 11 2 31 3 43 3 28 1 29 -78 36 -73 7
-101 25 -110 68 -4 18 -10 276 -12 573 l-4 540 69 -140 c106 -212 329 -671
366 -750 18 -38 48 -104 68 -145 35 -75 81 -177 108 -238 13 -29 18 -32 53
-30 l38 3 47 105 c26 58 59 130 73 160 14 30 44 93 66 140 21 47 72 153 112
235 40 83 113 233 162 335 119 246 151 310 158 310 11 0 1 -1035 -11 -1092
-11 -54 -14 -58 -48 -68 -20 -5 -59 -10 -87 -10 l-50 0 2 -42 c1 -24 2 -45 3
-48 0 -3 163 -5 361 -5 l360 0 0 48 c0 44 -1 47 -27 48 -92 3 -143 17 -153 44
-14 37 -20 238 -21 685 0 445 5 591 24 629 13 27 43 38 122 43 l50 3 3 47 3
46 -271 0 c-268 0 -271 0 -280 -22 -4 -11 -19 -46 -33 -76 -13 -30 -41 -93
-62 -140 -21 -47 -67 -146 -103 -220 -35 -74 -84 -175 -107 -225 -24 -49 -83
-172 -133 -272 -100 -203 -91 -196 -137 -98 -10 22 -54 114 -98 205 -210 436
-255 531 -297 625 -13 28 -36 79 -52 115 -17 36 -34 75 -39 88 l-9 22 -283 0
-284 0 0 -45z"/>
</g>
</svg>
