<svg width="19" height="19" viewBox="0 0 19 19" fill="none" xmlns="http://www.w3.org/2000/svg">
<path d="M18.24 1.71H14.25V0.19C14.25 0.0855 14.1645 0 14.06 0H12.73C12.6255 0 12.54 0.0855 12.54 0.19V1.71H6.46V0.19C6.46 0.0855 6.3745 0 6.27 0H4.94C4.8355 0 4.75 0.0855 4.75 0.19V1.71H0.76C0.339625 1.71 0 2.04962 0 2.47V18.24C0 18.6604 0.339625 19 0.76 19H18.24C18.6604 19 19 18.6604 19 18.24V2.47C19 2.04962 18.6604 1.71 18.24 1.71ZM17.29 17.29H1.71V8.265H17.29V17.29ZM1.71 6.65V3.42H4.75V4.56C4.75 4.6645 4.8355 4.75 4.94 4.75H6.27C6.3745 4.75 6.46 4.6645 6.46 4.56V3.42H12.54V4.56C12.54 4.6645 12.6255 4.75 12.73 4.75H14.06C14.1645 4.75 14.25 4.6645 14.25 4.56V3.42H17.29V6.65H1.71Z" fill="#2B2B3E"/>
</svg>
