<svg width="24" height="25" viewBox="0 0 24 25" fill="none" xmlns="http://www.w3.org/2000/svg">
<path d="M12.7408 19.1035L15.3054 16.5389C15.6481 16.1962 16.1871 16.1486 16.5846 16.4258L20.1353 18.9022C20.6459 19.2583 20.7106 19.9894 20.2704 20.4296L19.8841 20.8158C19.1739 21.5261 18.1547 21.8337 17.1986 21.526C15.1336 20.8613 11.3767 19.3179 8.26174 16.2029C5.14677 13.0879 3.60339 9.33104 2.9387 7.26609C2.63092 6.30995 2.93858 5.2908 3.64884 4.58053L4.03511 4.19427C4.47528 3.7541 5.20633 3.81874 5.56243 4.32932L8.03888 7.88006C8.31609 8.27753 8.26843 8.81656 7.92577 9.15922L5.36112 11.7239" stroke="#CFA968" stroke-linecap="round"/>
</svg>
