<svg width="44" height="52" viewBox="0 0 44 52" fill="none" xmlns="http://www.w3.org/2000/svg">
<path d="M35.1784 18.2165C33.2639 15.701 30.0046 14.9721 27.3339 16.2768C25.8482 14.6836 23.7803 13.993 21.7754 14.2833V6.80481C21.7754 3.05268 18.8549 0.00012207 15.2652 0.00012207C11.6755 0.00012207 8.75495 3.05268 8.75495 6.80481V23.1695C6.7996 22.4169 4.50502 22.6521 2.65751 24.0705C-0.225567 26.2841 -0.857871 30.5028 1.2285 33.5313L12.0025 49.172C13.2226 50.9429 15.1976 52.0001 17.2855 52.0001H34.7958C37.821 52.0001 40.4504 49.8165 41.1362 46.7395L43.8301 34.6537C43.9428 34.1472 43.9997 33.6292 43.9998 33.1095V24.5782C43.9998 19.8207 39.4206 16.5271 35.1784 18.2165ZM7.95372 28.4068L10.6179 32.2742C11.5013 33.5566 13.4691 32.9128 13.4691 31.3314V6.80481C13.4691 4.25356 17.0609 4.2495 17.0609 6.80481V24.5782C17.0609 25.4757 17.7644 26.2032 18.6324 26.2032H19.3058C20.1737 26.2032 20.8772 25.4757 20.8772 24.5782V21.0236C20.8772 18.4723 24.469 18.4682 24.469 21.0236V24.5782C24.469 25.4757 25.1726 26.2032 26.0405 26.2032H26.7141C27.582 26.2032 28.2856 25.4757 28.2856 24.5782V22.4454C28.2856 19.8942 31.8773 19.8901 31.8773 22.4454V24.5782C31.8773 25.4757 32.5809 26.2032 33.4488 26.2032H34.1222C34.9902 26.2032 35.6937 25.4757 35.6937 24.5782C35.6937 22.0269 39.2855 22.0229 39.2855 24.5782V33.1095C39.2855 33.2606 39.2689 33.4118 39.2361 33.5587L36.5421 45.6447C36.3479 46.5164 35.6297 47.1251 34.7957 47.1251H17.2855C16.719 47.1251 16.1794 46.8328 15.8421 46.3434L5.06681 30.7028C3.65193 28.6489 6.53943 26.3541 7.95372 28.4068ZM17.2996 40.6251V30.8751C17.2996 29.9776 17.9152 29.2501 18.6746 29.2501H19.2639C20.0233 29.2501 20.6389 29.9776 20.6389 30.8751V40.6251C20.6389 41.5226 20.0233 42.2501 19.2639 42.2501H18.6746C17.9151 42.2501 17.2996 41.5226 17.2996 40.6251ZM24.7077 40.6251V30.8751C24.7077 29.9776 25.3233 29.2501 26.0827 29.2501H26.672C27.4314 29.2501 28.047 29.9776 28.047 30.8751V40.6251C28.047 41.5226 27.4314 42.2501 26.672 42.2501H26.0827C25.3233 42.2501 24.7077 41.5226 24.7077 40.6251ZM32.1159 40.6251V30.8751C32.1159 29.9776 32.7315 29.2501 33.4909 29.2501H34.0802C34.8396 29.2501 35.4552 29.9776 35.4552 30.8751V40.6251C35.4552 41.5226 34.8396 42.2501 34.0802 42.2501H33.4909C32.7315 42.2501 32.1159 41.5226 32.1159 40.6251Z" fill="#CFA968"/>
</svg>
